<?xml version="1.0" standalone="no"?>
<!DOCTYPE svg PUBLIC "-//W3C//DTD SVG 20010904//EN"
 "http://www.w3.org/TR/2001/REC-SVG-20010904/DTD/svg10.dtd">
<svg version="1.0" xmlns="http://www.w3.org/2000/svg"
 width="700.000000pt" height="700.000000pt" viewBox="0 0 700.000000 700.000000"
 preserveAspectRatio="xMidYMid meet">
<metadata>
Created by potrace 1.14, written by Peter Selinger 2001-2017
</metadata>
<g transform="translate(0.000000,700.000000) scale(0.100000,-0.100000)"
fill="#000000" stroke="none">
<path d="M3318 6935 c-2 -1 -43 -5 -93 -9 -108 -7 -152 -12 -270 -32 -49 -9
-103 -18 -120 -21 -226 -38 -546 -144 -815 -270 -114 -54 -343 -182 -348 -195
-2 -4 -8 -8 -14 -8 -25 0 -344 -239 -457 -344 -80 -74 -215 -210 -276 -280
-33 -38 -65 -73 -70 -80 -17 -19 -119 -148 -135 -171 -199 -285 -335 -539
-438 -815 -43 -114 -95 -275 -107 -330 -2 -8 -10 -42 -18 -75 -9 -33 -25 -107
-36 -165 -17 -94 -24 -139 -37 -245 -26 -210 -25 -598 1 -795 2 -19 7 -55 10
-80 3 -25 7 -56 10 -70 3 -14 7 -40 10 -58 14 -86 63 -297 86 -367 81 -253
132 -380 234 -580 166 -327 352 -586 607 -845 138 -141 210 -205 348 -310 47
-36 87 -67 90 -70 37 -37 287 -189 435 -265 105 -54 156 -77 280 -130 89 -38
313 -113 390 -131 6 -1 46 -11 90 -22 44 -12 121 -28 170 -38 95 -18 104 -19
175 -28 25 -3 61 -8 80 -11 177 -25 570 -25 787 0 150 17 314 47 468 86 1126
283 2018 1105 2388 2199 38 113 87 284 103 365 16 81 44 239 49 285 4 30 8 66
10 80 25 177 25 577 0 770 -2 19 -7 57 -11 84 -3 27 -8 58 -10 70 -2 12 -7 41
-10 66 -3 25 -8 48 -10 51 -2 4 -6 24 -9 45 -11 73 -74 299 -120 434 -214 616
-632 1201 -1131 1580 -32 25 -65 50 -72 57 -7 7 -26 20 -42 30 -17 9 -30 21
-30 25 0 4 -4 8 -10 8 -11 0 -103 62 -108 73 -2 4 -7 7 -11 7 -4 0 -46 23 -92
51 -297 179 -694 335 -1034 404 -44 9 -89 19 -100 21 -11 2 -74 11 -140 19
-66 9 -140 18 -165 21 -45 6 -476 14 -482 9z"/>
</g>
</svg>
