<?xml version="1.0" encoding="utf-8"?>
<!-- Generator: Adobe Illustrator 26.3.1, SVG Export Plug-In . SVG Version: 6.00 Build 0)  -->
<svg version="1.1" id="Layer_1" xmlns="http://www.w3.org/2000/svg" xmlns:xlink="http://www.w3.org/1999/xlink" x="0px" y="0px"
	 viewBox="0 0 50 50" style="enable-background:new 0 0 50 50;" xml:space="preserve">
<style type="text/css">
	.st0{fill:#FED208;}
	.st1{fill:#241F1F;}
	.st2{fill:#241F20;}
	.st3{fill:#EB1B59;stroke:#EB1B59;stroke-width:0.1244;stroke-miterlimit:10;}
	.st4{fill:#EB1B59;}
	.st5{fill:#039AD4;}
	.st6{fill:#241D1E;}
	.st7{fill:#F9FBFC;}
	.st8{fill:#030303;stroke:#030303;stroke-width:0.0415;stroke-miterlimit:10;}
</style>
<circle class="st0" cx="25" cy="25" r="24.79"/>
<g>
	<g>
		<path class="st1" d="M4.46,21.77c0.38,0.29,0.57,0.67,0.52,1.15c-0.07,0.73-0.65,1.26-1.46,1.18c-0.85-0.08-1.32-0.76-1.25-1.45
			c0.04-0.43,0.25-0.67,0.38-0.81l-0.14-0.2l0.77,0.06l0,0.08c-0.13,0.03-0.25,0.05-0.4,0.14c-0.3,0.16-0.45,0.42-0.48,0.68
			c-0.04,0.45,0.27,0.96,1.02,1.03c0.64,0.06,1.32-0.24,1.38-0.89c0.05-0.48-0.26-0.74-0.42-0.88L4.46,21.77z"/>
		<path class="st1" d="M4.52,18.39C5.36,18.61,5.66,19.38,5.5,20c-0.18,0.7-0.88,1.16-1.66,0.96c-0.8-0.2-1.14-0.93-1-1.57
			C3,18.68,3.69,18.18,4.52,18.39z M3.93,20.51c0.6,0.15,1.32,0.04,1.47-0.55c0.15-0.59-0.48-1-1.02-1.14
			c-0.47-0.12-1.29-0.07-1.43,0.58C2.83,20.01,3.44,20.38,3.93,20.51z"/>
		<path class="st1" d="M3.47,17.41c0.05-0.1,0.1-0.21,0.14-0.31c0.04-0.11,0.08-0.21,0.12-0.32c0.18-0.03,0.29-0.05,0.57-0.14
			c0.4-0.12,1.48-0.45,1.89-0.58c-0.95-0.41-1.16-0.49-1.32-0.56c-0.39-0.15-0.4-0.14-0.57,0.23l-0.11-0.05
			c0.06-0.14,0.12-0.28,0.18-0.42c0.06-0.14,0.1-0.26,0.16-0.41l0.11,0.05c-0.08,0.23-0.09,0.29,0.19,0.42
			c0.17,0.08,1.7,0.76,2,0.88l-0.02,0.05L4.05,17.1c0.26,0.11,1.46,0.63,1.65,0.69c0.22,0.07,0.28-0.02,0.42-0.29l0.11,0.05
			c-0.07,0.15-0.13,0.29-0.2,0.44c-0.06,0.14-0.11,0.28-0.17,0.42l-0.11-0.05c0.04-0.11,0.09-0.21,0.04-0.29
			c-0.03-0.05-0.08-0.08-0.38-0.22l-1.54-0.68c-0.16,0.08-0.22,0.14-0.31,0.28L3.47,17.41z"/>
		<path class="st1" d="M7.62,12.77c-0.11,0.25-0.11,0.25,0.53,0.65c-0.01,0.24-0.03,0.62-0.28,1.04c-0.46,0.75-1.31,0.84-1.89,0.48
			c-0.69-0.42-0.82-1.29-0.45-1.89c0.24-0.4,0.59-0.59,0.76-0.67l-0.05-0.21l0.68,0.4l-0.04,0.08c-0.14-0.03-0.31-0.07-0.51-0.04
			c-0.23,0.03-0.51,0.16-0.67,0.43c-0.29,0.48-0.12,1.11,0.51,1.49c0.2,0.12,0.52,0.27,0.84,0.26c0.38-0.01,0.63-0.24,0.76-0.44
			c0.15-0.24,0.14-0.49,0.11-0.59c-0.02-0.07-0.03-0.1-0.27-0.25c-0.17-0.1-0.25-0.13-0.32-0.11c-0.05,0.02-0.09,0.06-0.22,0.23
			l-0.1-0.06c0.1-0.15,0.2-0.3,0.29-0.46c0.08-0.13,0.15-0.25,0.24-0.41L7.62,12.77z"/>
		<path class="st1" d="M6.78,11.28C6.88,11.16,7,11.03,7.11,10.9c0.11-0.13,0.22-0.27,0.32-0.41l0.09,0.08
			c-0.12,0.18-0.16,0.23-0.11,0.33c0.04,0.07,0.17,0.18,0.43,0.41l0.57,0.47c0.2,0.16,0.35,0.29,0.49,0.39
			c0.05,0.04,0.12,0.09,0.2,0.08c0.14-0.02,0.42-0.37,0.49-0.48c0.12-0.17,0.25-0.35-0.08-1.05l0.11-0.07
			c0.2,0.32,0.26,0.41,0.47,0.71l-1.32,1.58l-0.09-0.08c0.11-0.17,0.15-0.24,0.04-0.35c-0.06-0.06-0.12-0.11-0.47-0.42l-0.74-0.62
			c-0.07-0.06-0.29-0.24-0.35-0.26c-0.1-0.04-0.15,0-0.29,0.13L6.78,11.28z"/>
		<path class="st1" d="M11.74,8.05c0.58,0.65,0.4,1.46-0.09,1.89c-0.54,0.48-1.38,0.46-1.91-0.13C9.2,9.19,9.32,8.4,9.8,7.94
			C10.32,7.45,11.18,7.42,11.74,8.05z M10.07,9.48c0.41,0.46,1.07,0.77,1.52,0.37c0.45-0.4,0.16-1.09-0.21-1.51
			c-0.32-0.36-1.03-0.78-1.51-0.32C9.44,8.45,9.73,9.1,10.07,9.48z"/>
		<path class="st1" d="M11.7,6.43c0.11-0.06,0.21-0.12,0.32-0.19c0.1-0.06,0.21-0.13,0.31-0.2l1.83,1.32l-0.31-2.26
			c0.1-0.06,0.2-0.12,0.31-0.18c0.1-0.06,0.21-0.13,0.31-0.19l0.06,0.1c-0.24,0.19-0.23,0.22-0.07,0.48l0.84,1.34
			c0.18,0.27,0.21,0.32,0.48,0.19l0.06,0.1c-0.15,0.09-0.29,0.17-0.44,0.26c-0.13,0.08-0.26,0.16-0.42,0.27l-0.06-0.1
			c0.24-0.17,0.25-0.21,0.11-0.45L14,5.27l0.36,2.62L14.3,7.92l-2.13-1.52l0.88,1.46c0.23,0.38,0.27,0.45,0.56,0.31l0.06,0.1
			c-0.11,0.06-0.23,0.13-0.34,0.2C13.22,8.54,13.14,8.59,13,8.68l-0.06-0.1c0.25-0.19,0.21-0.26-0.03-0.67l-0.74-1.27
			c-0.14-0.21-0.16-0.23-0.4-0.11L11.7,6.43z"/>
		<path class="st1" d="M15.55,4.24l1.78-0.71c0.22,0.23,0.28,0.29,0.5,0.49l-0.05,0.07c-0.4-0.2-0.4-0.2-0.48-0.23
			c-0.2-0.08-0.33-0.06-0.73,0.09L16.22,4.1l0.39,0.98l0.34-0.13c0.32-0.12,0.36-0.2,0.3-0.59l0.09-0.04
			c0.06,0.16,0.12,0.33,0.18,0.49c0.06,0.16,0.13,0.31,0.2,0.46l-0.09,0.04c-0.23-0.36-0.32-0.35-0.7-0.2l-0.26,0.1L16.9,5.8
			c0.19,0.47,0.2,0.48,0.67,0.3l0.18-0.07c0.28-0.12,0.34-0.14,0.53-0.88l0.09,0.01c0.02,0.33,0.03,0.41,0.06,0.73l-1.92,0.76
			l-0.04-0.11c0.25-0.12,0.24-0.19,0.18-0.35c-0.06-0.17-0.12-0.33-0.26-0.67l-0.26-0.64c-0.04-0.11-0.18-0.45-0.23-0.51
			c-0.07-0.08-0.14-0.06-0.31-0.02L15.55,4.24z"/>
		<path class="st1" d="M18.68,3.07c0.15-0.04,0.31-0.07,0.47-0.1c0.06-0.01,0.38-0.09,0.46-0.11c0.18-0.04,0.41-0.09,0.57-0.07
			c0.27,0.03,0.46,0.24,0.51,0.47c0.02,0.08,0.03,0.21-0.01,0.35C20.61,3.87,20.44,4,20.33,4.08c0.29,0.24,0.59,0.48,0.88,0.71
			c0.19,0.15,0.24,0.17,0.43,0.15l0.03,0.11c-0.1,0.02-0.2,0.04-0.3,0.06c-0.09,0.02-0.17,0.04-0.27,0.07
			c-0.17-0.16-0.22-0.19-0.42-0.36c-0.24-0.19-0.48-0.39-0.73-0.59c-0.05,0.01-0.1,0.03-0.15,0.04c-0.05,0.01-0.1,0.02-0.15,0.03
			c0.1,0.45,0.15,0.62,0.18,0.74c0.07,0.26,0.13,0.25,0.45,0.21l0.03,0.12c-0.18,0.03-0.36,0.07-0.53,0.11
			c-0.17,0.04-0.32,0.08-0.51,0.13l-0.03-0.12c0.29-0.1,0.29-0.1,0.17-0.62l-0.24-1.03c-0.02-0.1-0.11-0.48-0.17-0.58
			c-0.05-0.09-0.13-0.08-0.3-0.07L18.68,3.07z M19.36,3.03l0.27,1.15c0.05-0.01,0.11-0.02,0.16-0.03c0.32-0.07,0.42-0.18,0.49-0.29
			c0.08-0.12,0.11-0.28,0.06-0.47c-0.04-0.17-0.13-0.31-0.25-0.39c-0.16-0.1-0.28-0.07-0.51-0.02L19.36,3.03z"/>
		<path class="st1" d="M22.07,4.86c0.32-0.05,0.36-0.12,0.45-0.43c0.18-0.66,0.37-1.33,0.55-1.99c-0.02-0.04-0.03-0.05-0.07-0.08
			c0.23-0.07,0.3-0.11,0.41-0.21c0.12,0.29,0.14,0.35,0.22,0.55l0.61,1.49c0.16,0.39,0.21,0.46,0.49,0.47l0.01,0.12
			c-0.17,0.01-0.36,0.02-0.54,0.03s-0.36,0.03-0.54,0.05l-0.01-0.12c0.18-0.02,0.32-0.05,0.31-0.2c-0.01-0.11-0.2-0.59-0.27-0.74
			l-0.89,0.07c-0.04,0.15-0.07,0.3-0.11,0.45c-0.03,0.1-0.06,0.25-0.05,0.3c0.01,0.18,0.24,0.18,0.37,0.17l0.01,0.12
			c-0.15,0.01-0.32,0.02-0.47,0.03c-0.16,0.01-0.32,0.03-0.48,0.05L22.07,4.86z M23.63,3.63c-0.15-0.36-0.32-0.79-0.47-1.07
			l-0.3,1.13L23.63,3.63z"/>
		<path class="st1" d="M24.75,2.88c0.13-0.3,0.16-0.38,0.27-0.69l2.14,0.1c0.08,0.33,0.1,0.41,0.2,0.71l-0.08,0.03
			c-0.13-0.19-0.35-0.51-0.45-0.58c-0.1-0.06-0.17-0.06-0.55-0.08L26.18,4.2c-0.01,0.13-0.01,0.32,0,0.39
			c0.03,0.11,0.11,0.13,0.38,0.16l-0.01,0.12c-0.2-0.01-0.39-0.03-0.59-0.04c-0.2-0.01-0.41-0.01-0.61-0.02l0.01-0.12
			c0.37,0.01,0.39-0.06,0.41-0.14c0.02-0.08,0.03-0.26,0.04-0.38l0.09-1.82l-0.31-0.01c-0.13,0-0.22,0-0.34,0.1
			c-0.06,0.05-0.07,0.06-0.42,0.48L24.75,2.88z"/>
		<path class="st1" d="M28.19,2.41l1.88,0.36c0.07,0.31,0.08,0.39,0.16,0.68l-0.08,0.04c-0.23-0.38-0.23-0.38-0.29-0.45
			c-0.13-0.17-0.24-0.23-0.66-0.31l-0.37-0.07l-0.2,1.04L29,3.75c0.34,0.07,0.41,0.02,0.57-0.34l0.09,0.02
			c-0.04,0.17-0.08,0.34-0.11,0.52c-0.03,0.17-0.06,0.33-0.08,0.5l-0.09-0.02c-0.01-0.43-0.08-0.47-0.48-0.54l-0.28-0.05l-0.12,0.62
			c-0.09,0.5-0.09,0.51,0.4,0.61l0.19,0.04c0.3,0.05,0.36,0.07,0.92-0.46l0.07,0.06c-0.16,0.29-0.2,0.36-0.34,0.65l-2.04-0.39
			l0.02-0.12c0.28,0.03,0.31-0.04,0.34-0.2c0.04-0.17,0.08-0.35,0.15-0.71l0.13-0.68c0.02-0.11,0.09-0.48,0.08-0.56
			c-0.01-0.1-0.08-0.12-0.25-0.18L28.19,2.41z"/>
		<path class="st1" d="M32.31,3.39c0.14,0.05,0.28,0.11,0.42,0.17c0.04,0.02,0.17,0.06,0.29,0.1c0.13,0.05,0.26,0.1,0.3,0.11
			c0.18,0.07,0.35,0.15,0.48,0.29c0.15,0.16,0.23,0.41,0.12,0.7c-0.08,0.2-0.26,0.42-0.53,0.45c-0.21,0.02-0.42-0.05-0.96-0.26
			c-0.13,0.32-0.27,0.7-0.3,0.8c-0.04,0.16,0.02,0.2,0.21,0.3L32.3,6.17c-0.16-0.07-0.32-0.14-0.48-0.2
			c-0.14-0.06-0.3-0.11-0.45-0.16l0.04-0.11c0.18,0.05,0.27,0.06,0.33-0.03c0.04-0.07,0.19-0.42,0.23-0.53l0.27-0.7
			c0.04-0.12,0.24-0.63,0.24-0.72c0-0.09-0.06-0.13-0.22-0.22L32.31,3.39z M32.48,4.85C32.8,4.97,32.93,5.02,33.09,5
			c0.25-0.03,0.41-0.24,0.47-0.39c0.07-0.17,0.05-0.37-0.06-0.53c-0.11-0.15-0.23-0.2-0.59-0.33L32.48,4.85z"/>
		<path class="st1" d="M34.89,4.42c0.14,0.08,0.28,0.16,0.42,0.23c0.06,0.03,0.35,0.19,0.41,0.22c0.16,0.09,0.37,0.2,0.47,0.33
			c0.18,0.2,0.18,0.49,0.07,0.69c-0.04,0.07-0.12,0.18-0.24,0.26c-0.22,0.15-0.43,0.12-0.57,0.11c0.06,0.37,0.12,0.75,0.19,1.12
			c0.04,0.24,0.07,0.28,0.22,0.4l-0.06,0.1c-0.09-0.05-0.17-0.1-0.26-0.15c-0.08-0.05-0.16-0.08-0.25-0.13
			c-0.02-0.23-0.04-0.29-0.08-0.55c-0.05-0.31-0.1-0.61-0.15-0.92c-0.05-0.02-0.09-0.05-0.14-0.07C34.89,6.05,34.85,6.02,34.8,6
			c-0.22,0.41-0.3,0.56-0.36,0.67c-0.12,0.24-0.07,0.27,0.2,0.45l-0.06,0.1c-0.16-0.09-0.31-0.19-0.47-0.27
			c-0.15-0.08-0.29-0.15-0.47-0.24l0.06-0.1c0.28,0.12,0.28,0.12,0.54-0.35l0.51-0.93c0.05-0.09,0.24-0.43,0.26-0.54
			c0.03-0.1-0.04-0.15-0.18-0.25L34.89,4.42z M35.43,4.85l-0.56,1.03c0.05,0.03,0.09,0.06,0.14,0.08c0.29,0.16,0.44,0.14,0.55,0.11
			c0.14-0.04,0.27-0.14,0.36-0.31c0.08-0.15,0.11-0.32,0.07-0.46c-0.05-0.18-0.16-0.24-0.36-0.35L35.43,4.85z"/>
		<path class="st1" d="M37.72,6.08c0.13,0.11,0.26,0.21,0.4,0.31c0.13,0.09,0.27,0.18,0.41,0.26l-0.07,0.1
			C38.19,6.59,38.17,6.62,37.9,7l-0.76,1.07c-0.26,0.37-0.28,0.4-0.04,0.6l-0.07,0.1c-0.13-0.1-0.25-0.2-0.38-0.29
			c-0.14-0.1-0.29-0.19-0.43-0.29l0.07-0.1c0.27,0.15,0.29,0.12,0.49-0.14c0.09-0.12,0.17-0.24,0.26-0.36l0.39-0.55
			c0.26-0.37,0.32-0.46,0.36-0.54c0.08-0.15,0.05-0.19-0.12-0.34L37.72,6.08z"/>
		<path class="st1" d="M39.38,7.26c0.08,0.08,0.16,0.16,0.25,0.24c0.08,0.08,0.17,0.15,0.25,0.22C39.85,7.9,39.83,8,39.82,8.3
			c-0.02,0.41-0.07,1.54-0.09,1.98c0.7-0.76,0.85-0.92,0.97-1.06c0.28-0.32,0.27-0.33-0.02-0.61l0.08-0.09
			c0.11,0.1,0.22,0.21,0.33,0.31c0.11,0.1,0.21,0.18,0.33,0.29l-0.08,0.09c-0.19-0.15-0.24-0.18-0.46,0.04
			c-0.13,0.13-1.28,1.35-1.5,1.58l-0.04-0.04l0.13-2.89c-0.19,0.21-1.08,1.17-1.2,1.33c-0.14,0.18-0.08,0.27,0.13,0.49l-0.08,0.09
			c-0.12-0.11-0.23-0.22-0.35-0.33c-0.11-0.1-0.23-0.2-0.34-0.3l0.08-0.09c0.08,0.08,0.17,0.15,0.26,0.13
			c0.06-0.01,0.1-0.05,0.33-0.28l1.15-1.23c-0.02-0.18-0.06-0.25-0.16-0.38L39.38,7.26z"/>
		<path class="st1" d="M41.35,10.08c0.31-0.11,0.39-0.14,0.69-0.26l1.35,1.66c-0.19,0.28-0.23,0.35-0.4,0.62l-0.08-0.04
			c0.06-0.23,0.15-0.6,0.13-0.73c-0.02-0.11-0.07-0.17-0.31-0.46l-1.42,1.15c-0.1,0.08-0.25,0.21-0.29,0.26
			c-0.06,0.09-0.02,0.17,0.13,0.39l-0.09,0.07c-0.12-0.16-0.24-0.31-0.37-0.47c-0.13-0.16-0.26-0.31-0.39-0.46l0.09-0.07
			c0.24,0.28,0.3,0.25,0.37,0.21c0.08-0.04,0.22-0.15,0.31-0.22l1.42-1.15l-0.19-0.24c-0.09-0.1-0.15-0.17-0.3-0.19
			c-0.07-0.01-0.09-0.01-0.64,0.01L41.35,10.08z"/>
		<path class="st1" d="M42.45,13.29c-0.1,0.1-0.2,0.19-0.26,0.34c-0.1,0.23-0.08,0.49,0.04,0.67c0.11,0.18,0.41,0.38,0.72,0.19
			c0.11-0.07,0.22-0.19,0.24-0.4c0.01-0.13-0.01-0.19-0.09-0.52c-0.05-0.2-0.15-0.63,0.27-0.89c0.35-0.22,0.79-0.13,1.03,0.26
			c0.13,0.2,0.13,0.37,0.14,0.53l0.18,0.07l-0.6,0.47l-0.06-0.06c0.13-0.14,0.49-0.53,0.24-0.93c-0.17-0.27-0.44-0.29-0.63-0.18
			c-0.1,0.06-0.19,0.16-0.22,0.29c-0.04,0.15-0.01,0.28,0.06,0.55c0.07,0.26,0.18,0.71-0.29,1c-0.41,0.25-0.87,0.08-1.12-0.32
			c-0.17-0.27-0.16-0.47-0.16-0.6l-0.22-0.1c0.32-0.2,0.39-0.25,0.65-0.44L42.45,13.29z"/>
		<path class="st1" d="M42.55,15.76c0.08,0.1,0.21,0.17,0.32,0.11c0.07-0.04,0.07-0.1,0.08-0.14c0-0.07,0.01-0.18,0.12-0.23
			c0.1-0.05,0.21-0.01,0.27,0.09c0.06,0.11,0.02,0.29-0.19,0.4c-0.19,0.1-0.48,0.12-0.7-0.16L42.55,15.76z"/>
		<path class="st1" d="M46.11,16.33c0.05,0.16,0.1,0.32,0.16,0.48c0.06,0.15,0.13,0.3,0.2,0.45l-0.11,0.04
			c-0.14-0.28-0.17-0.27-0.61-0.1l-1.23,0.47c-0.42,0.16-0.46,0.18-0.37,0.48l-0.11,0.04c-0.05-0.16-0.1-0.3-0.16-0.45
			c-0.06-0.16-0.13-0.32-0.2-0.48l0.11-0.04c0.14,0.27,0.18,0.26,0.48,0.15c0.14-0.05,0.27-0.1,0.41-0.15l0.63-0.24
			c0.42-0.17,0.52-0.21,0.6-0.25c0.14-0.08,0.15-0.14,0.09-0.35L46.11,16.33z"/>
		<path class="st1" d="M46.78,18.08c0.02,0.11,0.05,0.22,0.08,0.33c0.03,0.11,0.06,0.22,0.09,0.33c-0.12,0.14-0.2,0.21-0.37,0.45
			c-0.25,0.33-0.91,1.25-1.16,1.6c1.01-0.25,1.22-0.3,1.39-0.35c0.4-0.11,0.41-0.13,0.32-0.53l0.11-0.03
			c0.03,0.15,0.07,0.3,0.1,0.44c0.04,0.14,0.07,0.27,0.12,0.43l-0.11,0.03c-0.08-0.23-0.1-0.28-0.4-0.22
			c-0.18,0.04-1.81,0.42-2.12,0.5l-0.01-0.06l1.7-2.34c-0.28,0.07-1.54,0.38-1.73,0.45c-0.22,0.07-0.22,0.18-0.16,0.48l-0.11,0.03
			c-0.04-0.16-0.07-0.31-0.11-0.47c-0.04-0.14-0.08-0.29-0.12-0.44l0.11-0.03c0.03,0.11,0.06,0.22,0.14,0.26
			c0.06,0.02,0.11,0.01,0.43-0.05l1.64-0.39c0.08-0.16,0.09-0.24,0.08-0.41L46.78,18.08z"/>
		<path class="st1" d="M45.79,24.26c-0.43-0.21-0.68-0.55-0.73-1.03c-0.07-0.73,0.4-1.36,1.21-1.43c0.85-0.08,1.44,0.49,1.5,1.18
			c0.04,0.43-0.12,0.7-0.22,0.86l0.17,0.17l-0.77,0.08l-0.01-0.08c0.12-0.05,0.23-0.1,0.37-0.21c0.27-0.22,0.36-0.5,0.34-0.76
			c-0.04-0.45-0.45-0.89-1.2-0.82c-0.64,0.06-1.25,0.48-1.19,1.14c0.05,0.48,0.39,0.68,0.58,0.79L45.79,24.26z"/>
	</g>
</g>
<path class="st2" d="M41.01,29.14c0,0.4-0.31,0.71-0.72,0.71c-0.4,0-0.73-0.31-0.73-0.71c0-0.39,0.32-0.71,0.73-0.71
	C40.69,28.43,41.01,28.74,41.01,29.14z M39.74,29.14c0,0.31,0.23,0.56,0.55,0.56c0.31,0,0.54-0.25,0.54-0.56
	c0-0.31-0.23-0.57-0.54-0.57C39.97,28.57,39.74,28.83,39.74,29.14z M40.17,29.51h-0.16V28.8c0.06-0.01,0.16-0.02,0.27-0.02
	c0.13,0,0.19,0.02,0.25,0.05c0.04,0.03,0.07,0.09,0.07,0.16c0,0.08-0.06,0.14-0.15,0.16v0.01c0.07,0.03,0.11,0.08,0.13,0.17
	c0.02,0.11,0.03,0.15,0.05,0.18h-0.18c-0.02-0.03-0.03-0.09-0.06-0.17c-0.01-0.08-0.06-0.11-0.15-0.11h-0.08V29.51z M40.18,29.11
	h0.08c0.09,0,0.16-0.03,0.16-0.1c0-0.06-0.05-0.11-0.15-0.11c-0.04,0-0.07,0-0.09,0.01V29.11z"/>
<g>
	<path class="st3" d="M11.08,33.41c-0.21,0.1-0.42,0.2-0.72,0.03c-0.27-0.15-0.45-0.42-0.59-0.71c-0.08-0.17-0.33-0.66-0.15-1.08
		c0.1-0.23,0.24-0.3,0.73-0.55c0.41-0.21,0.55-0.22,0.89,0.12c-0.07-0.3-0.06-0.49,0.49-0.76c0.27-0.13,0.86-0.44,1.39,0.6
		c0.14,0.27,0.21,0.54,0.19,0.8c-0.03,0.41-0.33,0.56-0.48,0.63c-0.43,0.22-0.63,0.31-0.96-0.03c0.05,0.44-0.03,0.56-0.41,0.76
		L11.08,33.41z M10.74,31.89c-0.16,0.08-0.41,0.21-0.46,0.26c-0.08,0.09-0.06,0.19,0,0.31c0.14,0.28,0.29,0.21,0.67,0.02
		c0.32-0.16,0.46-0.23,0.33-0.5C11.14,31.69,10.99,31.77,10.74,31.89z M12.01,31.26c-0.26,0.13-0.41,0.21-0.28,0.46
		c0.05,0.1,0.1,0.16,0.16,0.2c0.11,0.05,0.15,0.03,0.49-0.15c0.16-0.08,0.3-0.18,0.17-0.42C12.41,31.05,12.25,31.13,12.01,31.26z"/>
	<path class="st3" d="M13.13,33.22c0.26-0.21,0.82-0.64,1.56,0.25c0.25,0.3,0.45,0.63,0.42,1.01c-0.03,0.33-0.21,0.48-0.48,0.7
		l-1.2,0.99c-0.37,0.31-0.87,0.58-1.57-0.26c-0.47-0.57-0.67-1.08-0.05-1.6L13.13,33.22z M14.17,34.35
		c0.07-0.06,0.22-0.19,0.03-0.42c-0.2-0.24-0.35-0.11-0.42-0.05l-1.42,1.18c-0.14,0.12-0.24,0.23-0.06,0.45
		c0.19,0.23,0.34,0.12,0.44,0.03L14.17,34.35z"/>
	<path class="st3" d="M15.13,35.54c0.21-0.26,0.67-0.8,1.58-0.08c0.3,0.24,0.57,0.52,0.62,0.9c0.04,0.33-0.11,0.52-0.32,0.78
		l-0.97,1.22c-0.3,0.38-0.73,0.75-1.59,0.07c-0.58-0.45-0.88-0.92-0.38-1.55L15.13,35.54z M16.39,36.43
		c0.05-0.07,0.18-0.23-0.06-0.42c-0.24-0.19-0.36-0.04-0.42,0.04l-1.14,1.45c-0.11,0.14-0.18,0.28,0.03,0.45
		c0.24,0.19,0.36,0.04,0.44-0.06L16.39,36.43z"/>
	<path class="st3" d="M18.72,38.55l-0.29,0.55l-1.38-0.73l0.29-0.55L18.72,38.55z"/>
	<path class="st3" d="M21.25,40.83c-0.07,0.22-0.15,0.44-0.48,0.54c-0.3,0.09-0.62,0.03-0.92-0.07c-0.18-0.06-0.71-0.22-0.88-0.65
		c-0.09-0.23-0.05-0.39,0.12-0.9c0.14-0.43,0.23-0.54,0.71-0.56c-0.26-0.16-0.39-0.3-0.21-0.88c0.09-0.28,0.29-0.92,1.4-0.57
		c0.29,0.09,0.54,0.23,0.7,0.42c0.27,0.31,0.17,0.62,0.12,0.78c-0.15,0.46-0.22,0.66-0.69,0.67c0.35,0.27,0.38,0.42,0.25,0.82
		L21.25,40.83z M19.93,40.02c-0.05,0.17-0.14,0.43-0.13,0.51c0.01,0.12,0.1,0.18,0.22,0.21c0.3,0.1,0.35-0.06,0.48-0.47
		c0.11-0.34,0.16-0.49-0.13-0.58C20.06,39.59,20.01,39.75,19.93,40.02z M20.36,38.67c-0.09,0.28-0.14,0.43,0.13,0.52
		c0.1,0.03,0.18,0.04,0.26,0.02c0.11-0.04,0.12-0.09,0.24-0.46c0.06-0.18,0.08-0.33-0.18-0.42C20.5,38.24,20.44,38.41,20.36,38.67z"
		/>
	<path class="st3" d="M22.51,39.18c0.03-0.29,0.07-0.59,0.46-0.78c0.21-0.1,0.49-0.13,0.81-0.1c0.53,0.05,0.78,0.24,0.9,0.37
		c0.23,0.23,0.21,0.43,0.18,0.79c-0.06,0.6-0.13,0.65-0.76,1.08c-0.6,0.41-0.67,0.45-0.79,0.72l1.37,0.13l-0.06,0.68l-2.38-0.22
		c0.08-0.82,0.1-0.99,1.03-1.61c0.57-0.38,0.67-0.44,0.69-0.72l0.03-0.27c0.01-0.08,0.03-0.32-0.28-0.35
		c-0.32-0.03-0.35,0.22-0.35,0.3l-0.05,0.51l-0.84-0.08L22.51,39.18z"/>
	<path class="st3" d="M25.56,39.23c-0.02-0.17-0.05-0.44,0.22-0.68c0.27-0.22,0.67-0.27,0.82-0.29c0.29-0.03,0.58-0.03,0.83,0.07
		c0.37,0.16,0.4,0.42,0.45,0.8c0.05,0.38,0.02,0.53-0.36,0.8c0.5,0.11,0.53,0.32,0.59,0.85c0.07,0.55,0.13,1.06-1.06,1.2
		c-1.11,0.13-1.22-0.26-1.28-0.73l-0.05-0.43l0.88-0.11l0.04,0.38c0.01,0.12,0.04,0.34,0.35,0.3c0.32-0.04,0.29-0.27,0.26-0.51
		c-0.06-0.47-0.07-0.58-0.4-0.54l-0.38,0.05l-0.07-0.61c0.65-0.08,0.72-0.1,0.68-0.43c-0.05-0.4-0.08-0.54-0.39-0.51
		c-0.31,0.04-0.28,0.24-0.27,0.32l0.04,0.3l-0.84,0.1L25.56,39.23z"/>
	<path class="st3" d="M30.15,39.02l0.18,0.59l-1.49,0.46l-0.18-0.59L30.15,39.02z"/>
	<path class="st3" d="M33.43,38.68c0.16,0.3,0.25,0.55,0.13,0.82c-0.09,0.23-0.31,0.47-0.68,0.67c-0.52,0.27-0.85,0.23-0.96,0.2
		c-0.33-0.07-0.44-0.29-0.63-0.67l0.77-0.4l0.12,0.22c0.04,0.09,0.14,0.27,0.42,0.12c0.25-0.13,0.24-0.26,0.15-0.43l-0.35-0.67
		c-0.07,0.16-0.14,0.32-0.43,0.47c-0.29,0.15-0.6,0.16-0.82,0.04c-0.2-0.11-0.34-0.33-0.47-0.58c-0.25-0.48-0.29-0.71-0.19-0.98
		c0.04-0.1,0.17-0.39,0.68-0.66c1.03-0.54,1.38,0.14,1.51,0.39L33.43,38.68z M31.35,37.95c0.05,0.09,0.22,0.42,0.27,0.47
		c0.11,0.12,0.26,0.09,0.36,0.04c0.09-0.05,0.16-0.12,0.18-0.21c0.02-0.09,0.01-0.13-0.16-0.48c-0.17-0.33-0.28-0.54-0.57-0.38
		C31.14,37.54,31.25,37.76,31.35,37.95z"/>
	<path class="st3" d="M33.22,36.26c0.24-0.26,0.33-0.46,0.25-0.84l0.57-0.48l2.33,2.77l-0.66,0.55l-1.71-2.03
		c-0.12,0.3-0.16,0.38-0.3,0.59L33.22,36.26z"/>
	<path class="st3" d="M35.5,34.62c-0.14-0.11-0.35-0.27-0.32-0.63c0.03-0.35,0.28-0.67,0.37-0.79c0.18-0.23,0.38-0.43,0.64-0.54
		c0.37-0.15,0.58,0.01,0.88,0.25c0.3,0.24,0.4,0.36,0.32,0.82c0.43-0.28,0.6-0.15,1.02,0.18c0.43,0.34,0.84,0.65,0.11,1.6
		c-0.68,0.88-1.05,0.69-1.42,0.39l-0.34-0.27l0.54-0.7l0.3,0.23c0.1,0.08,0.27,0.21,0.46-0.03c0.2-0.25,0.01-0.39-0.18-0.54
		c-0.37-0.29-0.46-0.36-0.66-0.09l-0.23,0.3l-0.49-0.38c0.4-0.52,0.43-0.58,0.17-0.78c-0.32-0.25-0.44-0.32-0.63-0.08
		c-0.19,0.24-0.03,0.37,0.04,0.42l0.24,0.19l-0.52,0.67L35.5,34.62z"/>
	<path class="st3" d="M37.3,32.18c-0.16-0.08-0.4-0.19-0.45-0.55c-0.04-0.35,0.13-0.71,0.2-0.85c0.13-0.26,0.28-0.5,0.51-0.67
		c0.33-0.23,0.57-0.11,0.92,0.06c0.35,0.17,0.46,0.27,0.48,0.74c0.36-0.36,0.55-0.27,1.03-0.04c0.49,0.24,0.96,0.46,0.44,1.54
		c-0.48,1.01-0.88,0.89-1.31,0.69l-0.39-0.19l0.38-0.8l0.34,0.16c0.11,0.05,0.31,0.15,0.44-0.13c0.14-0.29-0.07-0.39-0.29-0.49
		c-0.43-0.2-0.52-0.25-0.67,0.05l-0.17,0.34l-0.55-0.27c0.28-0.59,0.3-0.66,0-0.8c-0.36-0.17-0.5-0.22-0.63,0.06
		c-0.13,0.28,0.05,0.37,0.13,0.4l0.27,0.13l-0.37,0.76L37.3,32.18z"/>
</g>
<path class="st4" d="M30.45,19.79h4.98c1.98,0,2.65,0.53,2.65,1.86v1.86c0,1.74-0.88,2.06-2.5,2.06h-2.4v3.3h-2.73V19.79z
	 M34.52,23.97c1,0.01,1-0.23,1-1.39c0-0.86,0-1.04-0.33-1.17c-0.19-0.06-1.68-0.06-2.01-0.06v2.62H34.52z"/>
<path class="st5" d="M14.24,27.67h-0.26c-0.46,0-0.83-0.37-0.83-0.83v-5.07c0-0.46,0.37-0.83,0.83-0.83h0.26
	c0.46,0,0.83,0.37,0.83,0.83v5.07C15.07,27.3,14.7,27.67,14.24,27.67z"/>
<g>
	<path class="st6" d="M17.77,22.63h-2.7v-0.56c0-0.49-0.1-0.79-0.95-0.79c-0.77,0-0.85,0.38-0.85,0.8v4.39
		c0,0.56,0.1,0.88,0.92,0.88c0.88,0,0.88-0.44,0.88-0.88v-1.1h2.77v0.79c0,1.68-0.5,2.69-3.72,2.69c-3.02,0-3.59-0.89-3.59-2.28
		v-4.36c0-0.63,0.08-1.15,0.56-1.61c0.85-0.81,2.28-0.86,3.09-0.86c0.98,0,1.98,0.11,2.72,0.59c0.82,0.51,0.87,1.24,0.87,1.79V22.63
		z"/>
</g>
<g>
	<g>
		<path class="st7" d="M6.11,21.7l-0.09,0.57l0.25,0.04l0.08-0.5l0.19,0.03l-0.08,0.5l0.45,0.07l-0.04,0.24L5.8,22.48l0.12-0.81
			L6.11,21.7z"/>
		<path class="st7" d="M6.78,20.78l-0.06,0.24l0.41,0.1l-0.05,0.23L6.03,21.1l0.13-0.55c0.02-0.08,0.04-0.14,0.07-0.18
			c0.03-0.04,0.06-0.07,0.1-0.09c0.03-0.02,0.07-0.03,0.1-0.04s0.07-0.01,0.12,0c0.05,0.01,0.1,0.04,0.14,0.07
			c0.04,0.04,0.07,0.09,0.07,0.16c0.03-0.05,0.07-0.08,0.11-0.09c0.04-0.01,0.1-0.01,0.17,0.01l0.07,0.02
			c0.05,0.01,0.08,0.02,0.1,0.02c0.03,0,0.05-0.01,0.07-0.03L7.3,20.4l-0.06,0.26c-0.02,0-0.05,0-0.06,0c-0.03,0-0.06,0-0.09-0.01
			l-0.1-0.02c-0.07-0.01-0.12-0.01-0.14,0.01C6.82,20.66,6.8,20.71,6.78,20.78z M6.62,20.59c-0.01-0.05-0.04-0.08-0.1-0.1
			c-0.06-0.02-0.11,0-0.14,0.04c-0.02,0.02-0.03,0.06-0.05,0.11l-0.06,0.27l0.28,0.07l0.06-0.27C6.62,20.66,6.63,20.62,6.62,20.59z"
			/>
		<path class="st7" d="M7.63,19.42c-0.05,0.16-0.13,0.27-0.24,0.32c-0.13,0.08-0.29,0.09-0.48,0.03c-0.19-0.06-0.31-0.16-0.37-0.3
			c-0.05-0.11-0.06-0.24,0-0.4c0.05-0.16,0.13-0.27,0.24-0.32c0.13-0.08,0.29-0.09,0.48-0.03c0.19,0.06,0.31,0.16,0.37,0.3
			C7.67,19.13,7.68,19.27,7.63,19.42z M7.42,19.12c-0.05-0.07-0.13-0.13-0.24-0.17c-0.12-0.04-0.21-0.04-0.29-0.01
			c-0.08,0.03-0.14,0.1-0.16,0.19c-0.03,0.09-0.02,0.17,0.02,0.25c0.05,0.07,0.13,0.13,0.24,0.17c0.12,0.04,0.21,0.04,0.29,0
			c0.08-0.03,0.13-0.1,0.16-0.19C7.47,19.27,7.46,19.19,7.42,19.12z"/>
		<path class="st7" d="M8.03,18.19L7.95,18.4l-1-0.42l0.14-0.32l0.87,0.14l-0.7-0.52l0.14-0.32l1,0.42l-0.09,0.21l-0.67-0.28
			c-0.02-0.01-0.05-0.02-0.08-0.04c-0.03-0.01-0.06-0.03-0.08-0.03l0.75,0.55l-0.09,0.22L7.2,17.84c0.02,0.01,0.05,0.02,0.08,0.03
			c0.04,0.01,0.06,0.03,0.08,0.03L8.03,18.19z"/>
		<path class="st7" d="M9.06,15.74c0.03-0.05,0.05-0.09,0.05-0.13c0.01-0.07,0-0.12-0.06-0.15c-0.03-0.02-0.06-0.02-0.1,0
			c-0.03,0.02-0.07,0.06-0.12,0.11l-0.08,0.09c-0.08,0.09-0.15,0.15-0.2,0.17c-0.08,0.04-0.17,0.04-0.26-0.02
			c-0.08-0.05-0.13-0.12-0.15-0.22c-0.02-0.1,0.01-0.21,0.08-0.34c0.06-0.11,0.14-0.18,0.23-0.22C8.56,15,8.66,15,8.76,15.06
			l-0.12,0.2c-0.06-0.03-0.11-0.03-0.17,0.01c-0.03,0.02-0.07,0.06-0.09,0.11c-0.03,0.05-0.05,0.1-0.04,0.15
			c0,0.04,0.02,0.08,0.06,0.1c0.03,0.02,0.07,0.02,0.1,0c0.02-0.01,0.06-0.05,0.11-0.11l0.14-0.15c0.06-0.07,0.12-0.11,0.17-0.13
			c0.08-0.03,0.16-0.03,0.24,0.02c0.09,0.05,0.14,0.13,0.15,0.23c0.02,0.1-0.01,0.22-0.09,0.35c-0.08,0.13-0.16,0.22-0.26,0.26
			c-0.1,0.04-0.2,0.04-0.29-0.02l0.12-0.2c0.05,0.02,0.09,0.02,0.12,0.02C8.96,15.87,9.01,15.82,9.06,15.74z"/>
		<path class="st7" d="M9.76,14.17l-0.55-0.38l0.14-0.2l0.55,0.38c0.09,0.07,0.16,0.13,0.19,0.2c0.06,0.13,0.03,0.27-0.09,0.44
			c-0.11,0.16-0.24,0.24-0.38,0.24c-0.07-0.01-0.16-0.04-0.25-0.11l-0.55-0.38l0.14-0.2l0.55,0.38c0.06,0.04,0.11,0.07,0.15,0.07
			c0.07,0.01,0.13-0.02,0.18-0.11c0.06-0.08,0.07-0.15,0.03-0.21C9.86,14.25,9.82,14.21,9.76,14.17z"/>
		<path class="st7" d="M10.59,13.13l-0.16,0.19l0.3,0.25l-0.15,0.19l-0.84-0.68l0.32-0.39c0.07-0.09,0.15-0.14,0.24-0.16
			c0.09-0.02,0.18,0.01,0.27,0.08c0.1,0.08,0.15,0.16,0.14,0.25C10.72,12.93,10.67,13.03,10.59,13.13z M10.49,12.9
			c0-0.04-0.02-0.08-0.07-0.11c-0.04-0.04-0.08-0.05-0.12-0.04c-0.04,0.01-0.08,0.04-0.11,0.08L10.05,13l0.25,0.2l0.14-0.17
			C10.47,12.98,10.49,12.94,10.49,12.9z"/>
		<path class="st7" d="M11.7,11.77l-0.39,0.41l0.2,0.19l0.44-0.46l0.14,0.13l-0.61,0.63l-0.78-0.75l0.59-0.61l0.14,0.13l-0.42,0.44
			l0.17,0.16l0.39-0.41L11.7,11.77z"/>
		<path class="st7" d="M12.56,11.03l-0.19,0.17l0.28,0.32l-0.18,0.16l-0.72-0.81l0.42-0.38c0.06-0.05,0.11-0.09,0.16-0.1
			c0.04-0.02,0.09-0.02,0.13-0.02c0.04,0,0.07,0.01,0.1,0.03c0.03,0.02,0.06,0.04,0.09,0.07c0.03,0.04,0.06,0.09,0.07,0.14
			c0.01,0.06,0,0.11-0.03,0.17c0.05-0.02,0.1-0.02,0.14-0.01c0.04,0.01,0.09,0.05,0.14,0.1l0.05,0.05c0.03,0.04,0.06,0.06,0.07,0.07
			c0.02,0.02,0.05,0.02,0.07,0.02l0.02,0.02L13,11.21c-0.02-0.01-0.04-0.02-0.05-0.03c-0.02-0.02-0.05-0.04-0.07-0.06l-0.07-0.07
			c-0.05-0.05-0.09-0.08-0.12-0.08C12.66,10.96,12.61,10.99,12.56,11.03z M12.54,10.79c0.02-0.05,0.01-0.09-0.03-0.14
			c-0.04-0.05-0.09-0.07-0.14-0.05c-0.03,0.01-0.06,0.03-0.1,0.06l-0.21,0.19l0.19,0.22l0.2-0.18
			C12.5,10.85,12.53,10.82,12.54,10.79z"/>
		<path class="st7" d="M12.92,9.87l0.19-0.15l0.67,0.85l-0.19,0.15L12.92,9.87z"/>
		<path class="st7" d="M14.67,9.96c-0.14,0.09-0.26,0.13-0.38,0.11c-0.16-0.02-0.29-0.11-0.4-0.27c-0.11-0.16-0.15-0.32-0.11-0.47
			c0.02-0.12,0.1-0.23,0.24-0.32c0.14-0.09,0.26-0.13,0.38-0.11c0.15,0.02,0.29,0.11,0.4,0.27c0.11,0.16,0.15,0.32,0.11,0.47
			C14.89,9.76,14.81,9.86,14.67,9.96z M14.7,9.59c0.01-0.09-0.02-0.18-0.09-0.28c-0.07-0.1-0.14-0.16-0.23-0.18
			c-0.08-0.02-0.17-0.01-0.24,0.05C14.05,9.23,14.01,9.3,14,9.38c-0.01,0.09,0.02,0.18,0.09,0.28c0.07,0.1,0.15,0.16,0.23,0.18
			c0.08,0.02,0.17,0.01,0.25-0.05C14.64,9.75,14.69,9.68,14.7,9.59z"/>
		<path class="st7" d="M15.76,8.74l-0.22,0.12l0.21,0.37l-0.21,0.12l-0.54-0.94l0.49-0.28c0.07-0.04,0.13-0.06,0.18-0.07
			c0.05-0.01,0.09,0,0.13,0.01c0.04,0.01,0.07,0.03,0.1,0.05c0.03,0.02,0.05,0.05,0.08,0.09c0.03,0.04,0.04,0.1,0.04,0.15
			c0,0.06-0.02,0.11-0.07,0.16c0.06-0.01,0.1,0,0.14,0.02c0.04,0.02,0.08,0.06,0.11,0.13l0.04,0.06c0.02,0.04,0.04,0.07,0.06,0.08
			c0.02,0.02,0.04,0.03,0.07,0.03l0.01,0.02L16.16,9c-0.02-0.02-0.03-0.03-0.04-0.04c-0.02-0.02-0.04-0.05-0.05-0.08L16.01,8.8
			c-0.04-0.06-0.07-0.09-0.1-0.1C15.87,8.69,15.82,8.71,15.76,8.74z M15.79,8.5c0.03-0.04,0.03-0.09,0-0.14
			c-0.03-0.06-0.07-0.08-0.13-0.08c-0.03,0-0.07,0.02-0.11,0.04l-0.24,0.14l0.14,0.25l0.24-0.14C15.74,8.55,15.77,8.52,15.79,8.5z"
			/>
		<path class="st7" d="M17.92,6.97L18,7.15l-0.32,0.13l0.35,0.82L17.8,8.2l-0.35-0.82l-0.32,0.14l-0.07-0.18L17.92,6.97z"/>
		<path class="st7" d="M19.26,7.68c-0.16,0.05-0.29,0.05-0.4,0c-0.14-0.06-0.25-0.18-0.31-0.37c-0.06-0.19-0.05-0.35,0.03-0.48
			c0.06-0.11,0.16-0.19,0.32-0.24c0.16-0.05,0.29-0.05,0.4,0c0.14,0.06,0.24,0.18,0.31,0.37c0.06,0.18,0.05,0.34-0.03,0.48
			C19.52,7.54,19.42,7.62,19.26,7.68z M19.38,7.33c0.03-0.08,0.03-0.18-0.01-0.29c-0.04-0.11-0.09-0.2-0.17-0.24
			c-0.07-0.05-0.16-0.05-0.25-0.02c-0.09,0.03-0.15,0.09-0.19,0.17c-0.03,0.08-0.03,0.18,0.01,0.29c0.04,0.12,0.1,0.2,0.17,0.24
			c0.07,0.04,0.16,0.05,0.25,0.02C19.29,7.46,19.35,7.41,19.38,7.33z"/>
		<path class="st7" d="M21.42,6.91c0.06-0.01,0.1-0.03,0.13-0.04c0.06-0.04,0.09-0.08,0.07-0.14c-0.01-0.03-0.03-0.06-0.07-0.07
			c-0.04-0.01-0.09-0.02-0.16-0.02l-0.13,0c-0.12,0-0.21-0.01-0.26-0.03c-0.09-0.03-0.14-0.1-0.16-0.21c-0.02-0.09,0-0.18,0.06-0.26
			c0.06-0.08,0.16-0.13,0.31-0.16c0.12-0.02,0.23-0.01,0.32,0.03c0.1,0.04,0.16,0.12,0.18,0.23L21.5,6.28
			c-0.02-0.06-0.06-0.1-0.12-0.12c-0.04-0.01-0.09-0.01-0.14,0c-0.06,0.01-0.11,0.03-0.14,0.06c-0.03,0.03-0.04,0.07-0.04,0.11
			c0.01,0.04,0.03,0.06,0.07,0.07c0.03,0.01,0.08,0.01,0.16,0.01l0.2,0c0.09,0,0.16,0.01,0.21,0.04c0.08,0.04,0.13,0.1,0.14,0.2
			c0.02,0.1,0,0.19-0.07,0.26c-0.07,0.08-0.17,0.13-0.32,0.16c-0.15,0.03-0.27,0.02-0.37-0.03c-0.1-0.05-0.16-0.12-0.18-0.24
			l0.23-0.05c0.02,0.05,0.04,0.08,0.06,0.1C21.26,6.92,21.33,6.93,21.42,6.91z"/>
		<path class="st7" d="M23.05,6.4l-0.08-0.66l0.24-0.03l0.08,0.66c0.01,0.11,0,0.21-0.03,0.27c-0.06,0.12-0.19,0.2-0.38,0.22
			c-0.2,0.02-0.34-0.02-0.43-0.13c-0.05-0.06-0.07-0.15-0.09-0.26l-0.08-0.66l0.24-0.03l0.08,0.66c0.01,0.07,0.02,0.13,0.05,0.16
			c0.04,0.06,0.1,0.08,0.2,0.07c0.1-0.01,0.16-0.05,0.18-0.11C23.06,6.53,23.06,6.47,23.05,6.4z"/>
		<path class="st7" d="M24.43,6.73l-0.52,0.02l-0.04-1.08l0.56-0.02c0.14,0,0.24,0.03,0.31,0.1c0.04,0.04,0.06,0.1,0.06,0.16
			c0,0.07-0.01,0.12-0.05,0.16c-0.02,0.02-0.05,0.04-0.09,0.06c0.06,0.02,0.11,0.05,0.14,0.09c0.03,0.04,0.05,0.09,0.05,0.16
			c0,0.06-0.01,0.12-0.05,0.17c-0.02,0.03-0.05,0.06-0.08,0.09c-0.04,0.03-0.08,0.05-0.13,0.06C24.55,6.72,24.49,6.72,24.43,6.73z
			 M24.53,6.04c0.03-0.02,0.05-0.05,0.04-0.1c0-0.05-0.02-0.08-0.07-0.1c-0.04-0.01-0.08-0.01-0.14-0.01l-0.25,0.01l0.01,0.24
			l0.28-0.01C24.45,6.07,24.49,6.06,24.53,6.04z M24.41,6.25l-0.29,0.01l0.01,0.29l0.28-0.01c0.05,0,0.09-0.01,0.12-0.02
			c0.05-0.03,0.07-0.07,0.07-0.14c0-0.06-0.03-0.09-0.08-0.11C24.5,6.25,24.46,6.25,24.41,6.25z"/>
		<path class="st7" d="M25.45,5.64l0.24,0.01l-0.04,0.89l0.57,0.02l-0.01,0.19L25.4,6.72L25.45,5.64z"/>
		<path class="st7" d="M26.81,5.72l0.24,0.02l-0.11,1.08L26.71,6.8L26.81,5.72z"/>
		<path class="st7" d="M27.71,6.92l-0.22-0.04l0.18-1.07l0.35,0.06l0.07,0.87l0.35-0.8L28.78,6L28.6,7.07l-0.22-0.04l0.12-0.72
			c0-0.02,0.01-0.05,0.02-0.09c0.01-0.04,0.01-0.07,0.02-0.09l-0.37,0.86l-0.23-0.04l-0.06-0.93c0,0.02-0.01,0.05-0.01,0.09
			c-0.01,0.04-0.01,0.07-0.01,0.09L27.71,6.92z"/>
		<path class="st7" d="M30.03,6.93l-0.54-0.14l-0.07,0.27l0.62,0.16l-0.05,0.19l-0.85-0.22l0.27-1.05l0.82,0.21l-0.05,0.19
			l-0.59-0.15l-0.06,0.22l0.54,0.14L30.03,6.93z"/>
		<path class="st7" d="M32.03,8.03c-0.11,0.04-0.22,0.03-0.35-0.02c-0.16-0.06-0.26-0.15-0.31-0.28c-0.05-0.13-0.05-0.27,0.02-0.44
			C31.45,7.12,31.56,7,31.7,6.95c0.12-0.05,0.25-0.05,0.38,0.01c0.18,0.07,0.29,0.18,0.33,0.32c0.02,0.08,0.02,0.15,0,0.22
			L32.19,7.4c0-0.05,0-0.1-0.01-0.13c-0.02-0.06-0.08-0.11-0.16-0.14c-0.08-0.03-0.16-0.03-0.23,0.02
			c-0.07,0.04-0.13,0.12-0.17,0.23c-0.04,0.11-0.05,0.21-0.02,0.28s0.08,0.13,0.16,0.16c0.08,0.03,0.15,0.03,0.21,0
			c0.03-0.02,0.07-0.05,0.1-0.09l0.22,0.09C32.22,7.92,32.14,7.99,32.03,8.03z"/>
		<path class="st7" d="M33.43,8.3l0.29-0.6l0.22,0.11l-0.29,0.6c-0.05,0.1-0.11,0.18-0.17,0.22c-0.12,0.07-0.26,0.07-0.44-0.02
			c-0.18-0.09-0.28-0.2-0.29-0.34C32.74,8.19,32.76,8.1,32.81,8l0.29-0.6l0.22,0.11l-0.29,0.6C33,8.18,32.98,8.23,32.98,8.27
			c0,0.07,0.04,0.12,0.13,0.17c0.09,0.04,0.16,0.04,0.21,0C33.36,8.41,33.39,8.37,33.43,8.3z"/>
		<path class="st7" d="M34.4,9.13c0.05,0.03,0.09,0.05,0.13,0.06c0.07,0.02,0.12,0,0.15-0.06c0.02-0.03,0.02-0.06,0-0.1
			C34.66,9,34.62,8.96,34.57,8.91l-0.09-0.08c-0.09-0.08-0.15-0.15-0.17-0.2c-0.04-0.08-0.04-0.17,0.02-0.26
			c0.05-0.08,0.12-0.13,0.22-0.15c0.1-0.02,0.21,0.01,0.34,0.09c0.1,0.06,0.18,0.14,0.22,0.24c0.04,0.1,0.04,0.19-0.02,0.3
			l-0.2-0.12c0.03-0.06,0.03-0.11-0.01-0.17c-0.02-0.03-0.06-0.07-0.11-0.09c-0.05-0.03-0.1-0.05-0.15-0.05
			c-0.04,0-0.08,0.02-0.1,0.06c-0.02,0.03-0.02,0.07,0,0.1c0.01,0.02,0.05,0.06,0.11,0.12l0.15,0.14c0.07,0.06,0.11,0.12,0.13,0.17
			c0.03,0.08,0.03,0.16-0.02,0.24c-0.05,0.09-0.13,0.13-0.23,0.15c-0.1,0.02-0.22-0.01-0.34-0.09c-0.13-0.08-0.22-0.16-0.26-0.26
			c-0.04-0.1-0.03-0.2,0.02-0.29l0.2,0.12c-0.02,0.05-0.03,0.09-0.02,0.12C34.27,9.03,34.32,9.08,34.4,9.13z"/>
		<path class="st7" d="M36.46,9.38l-0.11,0.16l-0.28-0.2l-0.51,0.73l-0.2-0.14l0.51-0.73L35.58,9l0.11-0.16L36.46,9.38z"/>
		<path class="st7" d="M36.58,10.88c-0.13-0.1-0.2-0.22-0.21-0.34c-0.03-0.15,0.02-0.31,0.15-0.46c0.13-0.15,0.27-0.23,0.42-0.23
			c0.12-0.01,0.25,0.04,0.37,0.14c0.13,0.1,0.2,0.22,0.21,0.34c0.03,0.15-0.02,0.3-0.15,0.46c-0.12,0.15-0.26,0.23-0.42,0.23
			C36.83,11.03,36.71,10.99,36.58,10.88z M36.94,10.8c0.09-0.02,0.17-0.07,0.24-0.16c0.08-0.09,0.11-0.18,0.11-0.27
			c0-0.09-0.04-0.16-0.11-0.22c-0.07-0.06-0.15-0.08-0.24-0.07c-0.09,0.01-0.17,0.07-0.24,0.16c-0.08,0.09-0.11,0.19-0.11,0.27
			c0,0.09,0.04,0.16,0.11,0.22C36.78,10.79,36.86,10.82,36.94,10.8z"/>
		<path class="st7" d="M37.58,11.71l-0.16-0.16l0.76-0.77l0.25,0.25l-0.45,0.75l0.74-0.46l0.25,0.24l-0.76,0.77l-0.16-0.16
			l0.51-0.52c0.01-0.01,0.04-0.04,0.06-0.06c0.03-0.03,0.05-0.05,0.06-0.06l-0.79,0.49l-0.17-0.16l0.48-0.8
			c-0.01,0.01-0.03,0.04-0.06,0.06c-0.03,0.03-0.05,0.05-0.06,0.06L37.58,11.71z"/>
		<path class="st7" d="M39.47,13.04l-0.37-0.43l-0.21,0.18l0.42,0.49l-0.15,0.13l-0.57-0.66l0.82-0.71l0.55,0.64l-0.15,0.13
			l-0.4-0.46l-0.17,0.15l0.37,0.43L39.47,13.04z"/>
		<path class="st7" d="M40.12,13.97l-0.15-0.2l-0.34,0.25l-0.14-0.19l0.87-0.64l0.33,0.46c0.05,0.07,0.08,0.12,0.09,0.17
			c0.01,0.05,0.01,0.09,0,0.13c-0.01,0.04-0.02,0.07-0.04,0.1c-0.02,0.03-0.04,0.06-0.08,0.08c-0.04,0.03-0.09,0.05-0.15,0.06
			c-0.06,0.01-0.11-0.01-0.17-0.05c0.01,0.05,0.01,0.1,0,0.14c-0.02,0.04-0.06,0.08-0.12,0.13l-0.06,0.04
			c-0.04,0.03-0.07,0.05-0.08,0.06c-0.02,0.02-0.03,0.05-0.02,0.07l-0.02,0.02l-0.16-0.21c0.01-0.02,0.03-0.04,0.04-0.05
			c0.02-0.02,0.04-0.04,0.07-0.06l0.08-0.06c0.06-0.04,0.08-0.08,0.09-0.11C40.18,14.08,40.16,14.03,40.12,13.97z M40.36,13.97
			c0.04,0.03,0.09,0.02,0.14-0.01c0.05-0.04,0.07-0.08,0.07-0.13c0-0.03-0.02-0.06-0.05-0.11l-0.17-0.23l-0.23,0.17l0.16,0.22
			C40.31,13.93,40.34,13.96,40.36,13.97z"/>
		<path class="st7" d="M41.1,16c0.03,0.05,0.06,0.09,0.08,0.11c0.05,0.05,0.11,0.06,0.16,0.03c0.03-0.02,0.05-0.05,0.05-0.08
			c0-0.04-0.01-0.09-0.03-0.16l-0.04-0.12c-0.04-0.12-0.05-0.2-0.05-0.26c0.01-0.09,0.05-0.17,0.15-0.22
			c0.08-0.05,0.17-0.05,0.27-0.02c0.09,0.03,0.17,0.12,0.25,0.24c0.06,0.11,0.08,0.21,0.07,0.32c-0.01,0.11-0.06,0.19-0.16,0.25
			l-0.11-0.2c0.05-0.04,0.08-0.08,0.08-0.15c0-0.04-0.02-0.09-0.04-0.14c-0.03-0.05-0.06-0.09-0.1-0.11c-0.04-0.02-0.08-0.02-0.11,0
			c-0.03,0.02-0.05,0.05-0.05,0.09c0,0.03,0.01,0.08,0.03,0.15l0.06,0.2c0.03,0.09,0.04,0.16,0.03,0.21
			c-0.01,0.09-0.06,0.15-0.14,0.2c-0.09,0.05-0.18,0.05-0.27,0.01c-0.1-0.04-0.18-0.12-0.25-0.25c-0.07-0.13-0.1-0.25-0.09-0.36
			c0.01-0.11,0.07-0.19,0.17-0.24l0.11,0.2c-0.04,0.03-0.06,0.06-0.08,0.09C41.04,15.85,41.06,15.92,41.1,16z"/>
		<path class="st7" d="M42.2,17.48l-0.24-0.51l-0.25,0.12l0.27,0.58l-0.18,0.08l-0.37-0.8l0.98-0.46l0.36,0.77l-0.17,0.08
			l-0.26-0.56l-0.21,0.1l0.24,0.51L42.2,17.48z"/>
		<path class="st7" d="M42.57,18.55l-0.09-0.23l-0.4,0.15l-0.08-0.22l1.01-0.38l0.2,0.53c0.03,0.08,0.04,0.14,0.04,0.19
			c0,0.05-0.01,0.09-0.03,0.13c-0.02,0.03-0.04,0.06-0.06,0.09c-0.03,0.03-0.06,0.05-0.1,0.06c-0.05,0.02-0.1,0.02-0.16,0.01
			c-0.06-0.01-0.11-0.04-0.15-0.09c0,0.06-0.01,0.1-0.04,0.14c-0.03,0.03-0.08,0.06-0.15,0.09l-0.07,0.03
			c-0.05,0.02-0.08,0.03-0.09,0.04c-0.02,0.02-0.04,0.04-0.04,0.06l-0.03,0.01l-0.09-0.25c0.02-0.02,0.04-0.03,0.05-0.03
			c0.03-0.02,0.05-0.03,0.08-0.04l0.09-0.04c0.06-0.02,0.1-0.05,0.12-0.09C42.6,18.66,42.6,18.61,42.57,18.55z M42.81,18.62
			c0.04,0.04,0.08,0.05,0.14,0.03c0.06-0.02,0.09-0.06,0.1-0.11c0-0.03,0-0.07-0.02-0.12l-0.1-0.26l-0.27,0.1l0.1,0.26
			C42.77,18.56,42.79,18.6,42.81,18.62z"/>
		<path class="st7" d="M43.51,19.23l0.07,0.25l-0.72,0.47l0.86,0.02l0.07,0.24l-1.15-0.08l-0.06-0.22L43.51,19.23z"/>
		<path class="st7" d="M43.9,20.72l0.05,0.23l-1.06,0.23l-0.05-0.23L43.9,20.72z"/>
		<path class="st7" d="M43.22,22.54c-0.09-0.07-0.14-0.18-0.16-0.31c-0.03-0.16,0-0.3,0.09-0.41c0.08-0.11,0.21-0.18,0.39-0.2
			c0.19-0.03,0.34,0,0.46,0.09c0.1,0.08,0.16,0.19,0.19,0.34c0.03,0.19-0.01,0.34-0.11,0.45c-0.06,0.06-0.12,0.1-0.19,0.11
			l-0.04-0.24c0.05-0.02,0.08-0.05,0.11-0.08c0.04-0.05,0.05-0.12,0.04-0.2c-0.01-0.09-0.06-0.15-0.13-0.19
			c-0.07-0.04-0.17-0.05-0.29-0.03c-0.12,0.02-0.21,0.06-0.26,0.12c-0.05,0.06-0.07,0.13-0.06,0.22c0.01,0.08,0.05,0.14,0.11,0.18
			c0.03,0.02,0.08,0.03,0.13,0.04l0.04,0.24C43.41,22.65,43.3,22.61,43.22,22.54z"/>
		<path class="st7" d="M43.75,23.99l-0.04-0.56l-0.28,0.02l0.05,0.64l-0.19,0.01l-0.07-0.87l1.08-0.08l0.06,0.85l-0.19,0.01
			l-0.05-0.61l-0.23,0.02l0.04,0.56L43.75,23.99z"/>
	</g>
</g>
<g>
	<g>
		<path class="st8" d="M5.51,31.7L4.4,32.08c-0.35,0.12-0.42,0.39-0.35,0.59c0.08,0.22,0.3,0.35,0.54,0.26l1.2-0.4l0.03,0.1
			l-1.21,0.41c-0.3,0.1-0.56-0.05-0.65-0.33c-0.08-0.23-0.02-0.4,0.14-0.58c-0.24-0.04-0.39-0.14-0.47-0.38
			c-0.09-0.27,0.01-0.55,0.32-0.66l1.21-0.41l0.03,0.1L4,31.19c-0.24,0.08-0.35,0.31-0.27,0.54c0.07,0.2,0.29,0.37,0.63,0.26
			l1.11-0.38L5.51,31.7z"/>
		<path class="st8" d="M4.54,34.07l1.59-0.75l0.04,0.09l-0.72,0.34l0.41,0.88l0.72-0.34l0.04,0.1l-1.59,0.75L5,35.04l0.79-0.37
			l-0.42-0.88l-0.79,0.37L4.54,34.07z"/>
		<path class="st8" d="M6.72,36.35l-0.49-0.83c-0.45,0.26-0.43,0.77-0.25,1.08l0.08,0.14l-0.08,0.05l-0.1-0.17
			c-0.22-0.38-0.17-0.9,0.32-1.19c0.49-0.29,0.97-0.07,1.2,0.3l0.1,0.17l-0.08,0.05l-0.1-0.17c-0.23-0.38-0.71-0.47-1.01-0.3
			l0.49,0.83L6.72,36.35z"/>
		<path class="st8" d="M6.46,37.53l1.01-0.71c0.27-0.19,0.57-0.15,0.75,0.11c0.19,0.26,0.16,0.55-0.06,0.7
			c-0.17,0.12-0.35,0.14-0.53,0.02l0,0c0.09,0.18,0.05,0.36-0.14,0.5l-0.39,0.28l-0.06-0.09l0.4-0.29c0.15-0.11,0.21-0.29,0.03-0.53
			l-0.21-0.29l0.07-0.05l0.17,0.23c0.18,0.25,0.4,0.28,0.59,0.14c0.18-0.13,0.2-0.36,0.06-0.56c-0.16-0.22-0.39-0.23-0.61-0.08
			l-1.01,0.72L6.46,37.53z"/>
		<path class="st8" d="M8.92,39.31L8.3,38.58c-0.39,0.33-0.3,0.84-0.07,1.11l0.1,0.12l-0.07,0.06l-0.13-0.15
			c-0.28-0.33-0.32-0.86,0.11-1.23c0.43-0.37,0.95-0.24,1.23,0.09l0.13,0.15l-0.07,0.06l-0.13-0.15c-0.29-0.34-0.78-0.34-1.04-0.12
			l0.62,0.73L8.92,39.31z"/>
		<path class="st8" d="M9.97,41.45l0.27,0.24c0.26,0.23,0.47,0.19,0.61,0.03c0.16-0.18,0.16-0.4-0.06-0.59l-0.3-0.26l0.06-0.07
			l0.19,0.17C11,41.18,11.19,41.2,11.37,41c0.14-0.16,0.11-0.36-0.08-0.52c-0.19-0.17-0.42-0.18-0.62,0.04l-0.84,0.94l-0.08-0.07
			l0.79-0.89c0.27-0.3,0.54-0.31,0.81-0.07c0.26,0.23,0.24,0.49,0.09,0.66c-0.12,0.13-0.27,0.22-0.47,0.14l0,0
			c0.11,0.1,0.14,0.38-0.04,0.58c-0.17,0.19-0.44,0.24-0.71,0l-0.31-0.28L9.97,41.45z"/>
		<path class="st8" d="M11.26,42.67L12,41.68c0.2-0.27,0.49-0.32,0.75-0.13c0.26,0.19,0.32,0.47,0.16,0.69
			c-0.13,0.17-0.29,0.24-0.49,0.18l0,0c0.14,0.14,0.16,0.33,0.02,0.52l-0.29,0.39l-0.09-0.07l0.3-0.4c0.11-0.15,0.11-0.34-0.13-0.52
			l-0.29-0.22l0.05-0.07l0.23,0.17c0.25,0.18,0.46,0.14,0.6-0.05c0.13-0.18,0.08-0.4-0.12-0.55c-0.22-0.16-0.44-0.1-0.6,0.11
			l-0.74,0.99L11.26,42.67z"/>
		<path class="st8" d="M12.93,43.84l0.94-1.48l0.09,0.06l-0.94,1.48L12.93,43.84z"/>
		<path class="st8" d="M14.78,42.92l-0.6,1.08c-0.12,0.21-0.08,0.45,0.12,0.56l0.29,0.16l-0.04,0.08l-0.32-0.18
			c-0.19-0.11-0.31-0.37-0.14-0.67l0.6-1.08L14.78,42.92z"/>
		<path class="st8" d="M16.04,43.58l-0.53,1.12c-0.1,0.22-0.05,0.45,0.16,0.55l0.3,0.14l-0.04,0.08l-0.33-0.16
			c-0.2-0.09-0.33-0.35-0.19-0.66l0.53-1.12L16.04,43.58z"/>
		<path class="st8" d="M16.67,45.78l0.65-1.63l0.1,0.04l-0.65,1.63L16.67,45.78z"/>
		<path class="st8" d="M18.82,46.53l-0.1-0.03l0.26-0.82l-0.86-0.27l0.03-0.09l0.86,0.27l0.08-0.25c0.09-0.28-0.05-0.52-0.33-0.61
			c-0.28-0.09-0.53,0.02-0.62,0.3l-0.37,1.16l-0.1-0.03l0.36-1.13c0.12-0.36,0.41-0.5,0.76-0.39c0.35,0.11,0.51,0.4,0.39,0.76
			L18.82,46.53z"/>
		<path class="st8" d="M19.72,46.76l0.34-1.61c0.01-0.06,0.06-0.13,0.16-0.11c0.07,0.01,0.1,0.04,0.12,0.13l0.39,1.69
			c0.01,0.02,0.02,0.04,0.03,0.04c0.02,0,0.03-0.01,0.04-0.04l0.35-1.62l0.1,0.02l-0.35,1.65c-0.02,0.08-0.07,0.11-0.15,0.1
			c-0.09-0.02-0.12-0.1-0.13-0.15l-0.37-1.61c-0.02-0.08-0.03-0.11-0.05-0.11c-0.02,0-0.03,0.01-0.04,0.04l-0.34,1.61L19.72,46.76z"
			/>
		<path class="st8" d="M22.24,47.21l-0.1-0.01l0.21-1.65l-0.5-0.06l0.01-0.09l1.09,0.14l-0.01,0.09l-0.5-0.06L22.24,47.21z"/>
		<path class="st8" d="M24.79,47.38l0.01-1.75l0.11,0l-0.01,1.75L24.79,47.38z"/>
		<path class="st8" d="M25.86,47.38l-0.12-1.75l0.38-0.03c0.46-0.03,0.91,0.3,0.94,0.82c0.03,0.53-0.31,0.9-0.76,0.93l-0.25,0.02
			l-0.01-0.09l0.24-0.02c0.46-0.03,0.7-0.42,0.67-0.83c-0.03-0.44-0.39-0.76-0.87-0.73l-0.23,0.02l0.11,1.65L25.86,47.38z"/>
		<path class="st8" d="M28.8,46.2l-0.95,0.15c0.08,0.51,0.56,0.69,0.91,0.64l0.16-0.02l0.01,0.09l-0.2,0.03
			c-0.43,0.07-0.91-0.17-0.99-0.73c-0.09-0.56,0.29-0.93,0.72-1l0.2-0.03l0.01,0.09l-0.19,0.03c-0.44,0.07-0.7,0.49-0.65,0.83
			l0.95-0.15L28.8,46.2z"/>
		<path class="st8" d="M30.97,46.59l-0.1,0.03l-0.2-0.83l-0.87,0.21l-0.02-0.09l0.87-0.21l-0.06-0.26c-0.07-0.29-0.31-0.41-0.6-0.34
			s-0.44,0.29-0.37,0.58l0.29,1.18l-0.1,0.03l-0.28-1.15c-0.09-0.37,0.09-0.64,0.44-0.73c0.36-0.09,0.64,0.07,0.73,0.44L30.97,46.59
			z"/>
		<path class="st8" d="M32.28,44.42l-0.55,0.19c-0.27,0.1-0.32,0.24-0.26,0.42c0.18,0.51,1.09-0.12,1.31,0.51
			c0.1,0.28-0.05,0.49-0.37,0.6l-0.6,0.21l-0.03-0.09l0.58-0.2c0.27-0.09,0.39-0.26,0.32-0.46c-0.19-0.56-1.09,0.11-1.31-0.53
			c-0.09-0.25,0.07-0.44,0.3-0.52l0.59-0.2L32.28,44.42z"/>
		<path class="st8" d="M35.94,44.55l-0.09,0.05l-0.4-0.76l-0.79,0.42l-0.04-0.08l0.8-0.42l-0.12-0.24c-0.14-0.26-0.4-0.33-0.66-0.19
			s-0.36,0.39-0.22,0.65l0.56,1.08l-0.09,0.05l-0.55-1.05c-0.18-0.34-0.07-0.65,0.25-0.82c0.32-0.17,0.64-0.08,0.82,0.25
			L35.94,44.55z"/>
		<path class="st8" d="M36.73,44.08l-0.67-1.04c-0.18-0.28-0.13-0.57,0.14-0.75c0.27-0.17,0.55-0.13,0.7,0.09
			c0.11,0.18,0.13,0.36,0,0.52l0,0c0.18-0.08,0.37-0.03,0.49,0.16l0.26,0.4l-0.09,0.06l-0.27-0.42c-0.1-0.16-0.28-0.22-0.53-0.06
			l-0.3,0.2L36.4,43.2l0.24-0.16c0.26-0.17,0.3-0.38,0.17-0.58c-0.12-0.19-0.35-0.21-0.56-0.08c-0.23,0.15-0.25,0.38-0.1,0.6
			l0.67,1.04L36.73,44.08z"/>
		<path class="st8" d="M38.62,41.69l-0.76,0.59c0.32,0.41,0.82,0.33,1.1,0.11l0.13-0.1l0.06,0.07l-0.16,0.12
			c-0.34,0.27-0.87,0.29-1.22-0.16c-0.35-0.45-0.2-0.96,0.15-1.22l0.16-0.12l0.06,0.07l-0.15,0.12c-0.35,0.27-0.37,0.77-0.16,1.04
			l0.76-0.59L38.62,41.69z"/>
		<path class="st8" d="M40.72,40.96l-0.91-0.88c-0.2-0.19-0.24-0.5,0.01-0.75c0.21-0.22,0.52-0.25,0.76-0.01
			c0.25,0.24,0.22,0.54,0.01,0.76l-0.24,0.24l-0.07-0.07l0.24-0.24c0.17-0.18,0.18-0.42-0.02-0.62c-0.2-0.19-0.44-0.18-0.62,0
			c-0.18,0.18-0.17,0.44-0.01,0.6l0.92,0.89L40.72,40.96z"/>
		<path class="st8" d="M41.98,39.6l-0.95-0.78c-0.26-0.21-0.29-0.51-0.09-0.75c0.2-0.25,0.49-0.29,0.69-0.12
			c0.16,0.13,0.23,0.3,0.15,0.5l0,0c0.15-0.13,0.34-0.14,0.52,0.01l0.37,0.31l-0.07,0.09l-0.38-0.32c-0.14-0.12-0.33-0.12-0.52,0.11
			l-0.23,0.28l-0.07-0.06l0.18-0.22c0.19-0.24,0.17-0.45-0.01-0.6c-0.17-0.14-0.4-0.1-0.56,0.09c-0.17,0.21-0.12,0.44,0.08,0.61
			l0.96,0.79L41.98,39.6z"/>
		<path class="st8" d="M43.23,38l-1.43-1.01l0.06-0.09l1.43,1.01L43.23,38z"/>
		<path class="st8" d="M43.85,37.11l-1.41-0.85c-0.06-0.03-0.1-0.1-0.05-0.18c0.04-0.06,0.07-0.08,0.17-0.07l1.72,0.19
			c0.02,0,0.04,0,0.05-0.02c0.01-0.01,0-0.03-0.03-0.05l-1.42-0.86l0.05-0.09l1.45,0.88c0.07,0.04,0.09,0.1,0.04,0.17
			c-0.05,0.08-0.13,0.08-0.19,0.07l-1.65-0.18c-0.08-0.01-0.11-0.01-0.12,0.01c-0.01,0.02,0,0.03,0.02,0.05l1.41,0.85L43.85,37.11z"
			/>
		<path class="st8" d="M45.1,34.87l-0.05,0.09l-1.49-0.74l-0.22,0.45l-0.08-0.04l0.49-0.99l0.08,0.04l-0.22,0.45L45.1,34.87z"/>
		<path class="st8" d="M45.19,32.52l-0.36,0.89c0.48,0.19,0.88-0.13,1.01-0.46l0.06-0.15l0.08,0.03l-0.07,0.19
			c-0.16,0.41-0.61,0.69-1.14,0.48c-0.53-0.21-0.65-0.73-0.49-1.13l0.07-0.19l0.08,0.03l-0.07,0.18c-0.17,0.41,0.06,0.85,0.38,0.98
			l0.36-0.89L45.19,32.52z"/>
		<path class="st8" d="M46.28,32.01l-1.68-0.5l0.11-0.36c0.13-0.45,0.6-0.75,1.1-0.6c0.51,0.15,0.73,0.6,0.6,1.04l-0.07,0.24
			l-0.09-0.03l0.07-0.23c0.13-0.44-0.15-0.8-0.54-0.92c-0.42-0.13-0.85,0.1-0.98,0.56l-0.07,0.23l1.59,0.48L46.28,32.01z"/>
	</g>
</g>
<g>
	<path class="st7" d="M6.93,28.12l-0.19,0.03l-0.05-0.34L5.8,27.94l-0.04-0.24l0.88-0.13L6.6,27.22l0.19-0.03L6.93,28.12z"/>
	<path class="st7" d="M6.08,29.39l0.47-0.1l-0.1-0.44l-0.47,0.1l-0.05-0.23l1.06-0.23l0.05,0.23l-0.4,0.09l0.1,0.44l0.4-0.09
		l0.05,0.24l-1.06,0.23L6.08,29.39z"/>
	<path class="st7" d="M6.96,30.8L6.8,30.25l-0.27,0.08l0.18,0.62l-0.19,0.06l-0.25-0.84l1.04-0.31l0.24,0.82l-0.18,0.06L7.2,30.13
		L6.98,30.2l0.16,0.54L6.96,30.8z"/>
	<path class="st7" d="M7.49,32.45l-0.1-0.23l-0.36,0.15l-0.09-0.22l1-0.42l0.2,0.47c0.05,0.11,0.06,0.2,0.03,0.29
		s-0.09,0.15-0.2,0.2c-0.12,0.05-0.21,0.05-0.29,0.01C7.6,32.65,7.54,32.57,7.49,32.45z M7.74,32.47c0.04,0.02,0.08,0.02,0.13,0
		c0.05-0.02,0.08-0.05,0.09-0.09c0.01-0.04,0-0.08-0.02-0.14l-0.09-0.21l-0.29,0.12l0.09,0.21C7.68,32.41,7.71,32.45,7.74,32.47z"/>
	<path class="st7" d="M7.7,33.89c-0.08-0.15-0.1-0.28-0.06-0.4c0.04-0.15,0.14-0.27,0.32-0.36c0.18-0.09,0.34-0.11,0.48-0.05
		c0.12,0.04,0.21,0.13,0.29,0.28c0.08,0.15,0.1,0.28,0.06,0.4c-0.04,0.15-0.14,0.27-0.32,0.36c-0.17,0.09-0.33,0.11-0.48,0.05
		C7.88,34.13,7.78,34.04,7.7,33.89z M8.07,33.96c0.08,0.02,0.18,0,0.29-0.05c0.11-0.06,0.18-0.12,0.21-0.2
		c0.03-0.08,0.03-0.16-0.02-0.25c-0.04-0.09-0.11-0.14-0.19-0.16c-0.09-0.02-0.18,0-0.29,0.05c-0.11,0.06-0.18,0.12-0.21,0.21
		c-0.03,0.08-0.03,0.16,0.02,0.25C7.92,33.89,7.98,33.94,8.07,33.96z"/>
	<path class="st7" d="M9.75,35.18l0.13,0.21l-1.09,0.3l-0.12-0.2l0.46-0.46l0.16-0.15l-0.2,0.08l-0.61,0.22L8.35,35l0.74-0.86
		l0.14,0.22l-0.44,0.46l-0.13,0.12l0.16-0.06l0.6-0.22l0.14,0.22L9.1,35.32l-0.13,0.12l0.16-0.06L9.75,35.18z"/>
	<path class="st7" d="M10.09,36.69l-0.34-0.45L9.53,36.4l0.39,0.51l-0.16,0.12l-0.53-0.7l0.87-0.65l0.51,0.68l-0.15,0.12l-0.37-0.49
		L9.9,36.12l0.34,0.45L10.09,36.69z"/>
	<path class="st7" d="M10.72,37.52l-0.16-0.19l-0.32,0.28l-0.16-0.18l0.82-0.71l0.37,0.43c0.05,0.06,0.09,0.12,0.1,0.16
		c0.02,0.04,0.02,0.09,0.02,0.13c0,0.04-0.01,0.07-0.03,0.11c-0.02,0.03-0.04,0.06-0.07,0.09c-0.04,0.03-0.09,0.06-0.14,0.07
		c-0.06,0.01-0.11,0-0.17-0.03c0.02,0.05,0.02,0.1,0.01,0.14c-0.01,0.04-0.05,0.09-0.11,0.14L10.83,38
		c-0.04,0.03-0.06,0.06-0.07,0.07c-0.02,0.02-0.02,0.05-0.02,0.07l-0.02,0.02l-0.18-0.2c0.01-0.02,0.02-0.04,0.03-0.05
		c0.02-0.03,0.04-0.05,0.06-0.07l0.08-0.07c0.05-0.05,0.08-0.09,0.08-0.12C10.79,37.62,10.77,37.57,10.72,37.52z M10.97,37.5
		c0.05,0.02,0.09,0.01,0.14-0.03c0.05-0.04,0.07-0.09,0.05-0.14c-0.01-0.03-0.03-0.06-0.06-0.1l-0.19-0.21l-0.22,0.19l0.18,0.21
		C10.91,37.46,10.94,37.49,10.97,37.5z"/>
	<path class="st7" d="M11.93,39.4c-0.12-0.11-0.19-0.23-0.2-0.35c-0.02-0.16,0.04-0.31,0.17-0.45c0.13-0.15,0.28-0.22,0.43-0.21
		c0.12,0,0.24,0.05,0.37,0.16c0.12,0.11,0.19,0.23,0.2,0.35c0.02,0.15-0.04,0.3-0.17,0.45c-0.13,0.14-0.28,0.22-0.43,0.21
		C12.18,39.57,12.06,39.52,11.93,39.4z M12.3,39.34c0.09-0.01,0.17-0.06,0.25-0.15c0.08-0.09,0.12-0.18,0.13-0.27
		c0-0.09-0.03-0.16-0.1-0.23c-0.07-0.06-0.15-0.09-0.24-0.08c-0.09,0.01-0.17,0.06-0.25,0.15c-0.08,0.09-0.12,0.18-0.13,0.27
		c0,0.09,0.03,0.16,0.1,0.23C12.13,39.33,12.21,39.35,12.3,39.34z"/>
	<path class="st7" d="M13.95,39.87l-0.46-0.36l-0.15,0.2l0.4,0.31l-0.12,0.15l-0.4-0.31l-0.28,0.36l-0.19-0.15l0.67-0.86l0.65,0.51
		L13.95,39.87z"/>
	<path class="st7" d="M15.31,41.28l-0.48-0.3l-0.15,0.24l0.55,0.34l-0.1,0.17l-0.75-0.47l0.57-0.92l0.72,0.45l-0.1,0.16l-0.52-0.32
		l-0.12,0.2l0.48,0.3L15.31,41.28z"/>
	<path class="st7" d="M16.39,42.41l-0.26-0.14l-0.02-0.43l-0.38,0.22l-0.25-0.13l0.59-0.32L16,40.97l0.26,0.14l0.02,0.41l0.35-0.21
		l0.25,0.13l-0.56,0.3L16.39,42.41z"/>
	<path class="st7" d="M17.4,42.43l-0.23-0.1l-0.16,0.36l-0.22-0.1l0.44-0.99l0.46,0.2c0.11,0.05,0.18,0.11,0.22,0.19
		c0.04,0.08,0.04,0.17-0.01,0.28c-0.05,0.12-0.12,0.19-0.2,0.21C17.61,42.5,17.51,42.49,17.4,42.43z M17.59,42.27
		c0.04-0.01,0.07-0.04,0.09-0.09c0.02-0.05,0.02-0.09,0-0.13c-0.02-0.03-0.06-0.06-0.11-0.09l-0.21-0.09l-0.13,0.29l0.21,0.09
		C17.5,42.28,17.55,42.28,17.59,42.27z"/>
	<path class="st7" d="M18.98,42.96l-0.53-0.19l-0.09,0.26l0.61,0.22l-0.07,0.18l-0.83-0.3l0.37-1.02l0.8,0.29l-0.06,0.18l-0.58-0.21
		l-0.08,0.22l0.53,0.19L18.98,42.96z"/>
	<path class="st7" d="M19.95,43.3l-0.24-0.07l-0.11,0.41l-0.23-0.06l0.29-1.05l0.55,0.15c0.08,0.02,0.14,0.05,0.17,0.08
		c0.04,0.03,0.07,0.06,0.09,0.1c0.02,0.03,0.03,0.07,0.03,0.1c0.01,0.04,0,0.07-0.01,0.12c-0.01,0.05-0.04,0.1-0.08,0.14
		c-0.04,0.04-0.09,0.06-0.16,0.06c0.05,0.03,0.08,0.07,0.09,0.11c0.01,0.04,0.01,0.1-0.01,0.17l-0.02,0.07
		c-0.01,0.05-0.02,0.08-0.02,0.1c0,0.03,0.01,0.05,0.03,0.07l-0.01,0.03l-0.26-0.07c0-0.03,0-0.04,0-0.06
		c0-0.03,0.01-0.06,0.01-0.09l0.03-0.1c0.02-0.07,0.02-0.12,0-0.14C20.06,43.34,20.02,43.32,19.95,43.3z M20.14,43.15
		c0.05-0.01,0.09-0.04,0.1-0.1c0.02-0.06,0.01-0.11-0.03-0.15c-0.02-0.02-0.06-0.04-0.11-0.05l-0.27-0.08l-0.08,0.28l0.27,0.07
		C20.07,43.15,20.11,43.15,20.14,43.15z"/>
	<path class="st7" d="M21.83,43.05l-0.04,0.19l-0.34-0.07l-0.18,0.88L21.03,44l0.18-0.88l-0.34-0.07l0.04-0.19L21.83,43.05z"/>
	<path class="st7" d="M22.18,43.1l0.24,0.04l-0.16,1.07l-0.24-0.04L22.18,43.1z"/>
	<path class="st7" d="M23.21,44.17c0.06,0.01,0.1,0,0.14,0c0.07-0.02,0.11-0.05,0.11-0.12c0-0.04-0.01-0.06-0.04-0.09
		c-0.03-0.02-0.08-0.04-0.15-0.07l-0.12-0.04c-0.12-0.04-0.2-0.07-0.24-0.11c-0.07-0.06-0.1-0.14-0.09-0.25
		c0.01-0.1,0.05-0.17,0.14-0.23c0.08-0.06,0.2-0.08,0.34-0.06c0.12,0.01,0.22,0.05,0.3,0.12c0.08,0.07,0.12,0.16,0.11,0.28
		l-0.23-0.02c0-0.07-0.02-0.11-0.08-0.15c-0.04-0.02-0.08-0.03-0.14-0.04c-0.06-0.01-0.11,0-0.15,0.02s-0.06,0.05-0.07,0.09
		c0,0.04,0.01,0.07,0.05,0.09c0.02,0.01,0.07,0.03,0.15,0.06l0.2,0.06c0.09,0.03,0.15,0.06,0.19,0.1c0.06,0.06,0.09,0.13,0.08,0.23
		c-0.01,0.1-0.06,0.18-0.14,0.23c-0.09,0.06-0.2,0.08-0.35,0.07c-0.15-0.01-0.27-0.06-0.35-0.13c-0.08-0.07-0.12-0.16-0.1-0.28
		l0.23,0.02c0,0.05,0.01,0.09,0.03,0.11C23.05,44.13,23.12,44.16,23.21,44.17z"/>
	<path class="st7" d="M24.96,43.94l-0.56-0.01l-0.01,0.28l0.64,0.01l0,0.2l-0.88-0.02l0.03-1.09l0.85,0.02l0,0.19l-0.61-0.01
		l-0.01,0.23l0.56,0.01L24.96,43.94z"/>
	<path class="st7" d="M26.59,44.37c-0.12,0.01-0.21-0.01-0.28-0.07c-0.07-0.06-0.11-0.13-0.12-0.21c-0.01-0.07,0.01-0.12,0.04-0.17
		c0.03-0.05,0.08-0.1,0.16-0.15l0.02-0.02c-0.04-0.03-0.07-0.07-0.09-0.1c-0.02-0.04-0.03-0.07-0.04-0.11
		c-0.01-0.08,0.02-0.14,0.07-0.19c0.05-0.05,0.12-0.08,0.21-0.09c0.08-0.01,0.15,0.01,0.21,0.05c0.06,0.04,0.09,0.1,0.1,0.17
		c0.01,0.06-0.01,0.12-0.03,0.16s-0.07,0.08-0.13,0.12l0.18,0.18c0.02-0.03,0.03-0.06,0.04-0.09c0.01-0.03,0.01-0.06,0.01-0.1
		l0.2-0.02c0,0.07-0.01,0.13-0.03,0.2c-0.01,0.04-0.04,0.08-0.07,0.13l0.23,0.22l-0.27,0.02l-0.09-0.08
		c-0.04,0.04-0.07,0.07-0.1,0.08C26.74,44.34,26.67,44.37,26.59,44.37z M26.54,43.88c-0.05,0.04-0.09,0.07-0.1,0.1
		c-0.02,0.03-0.02,0.06-0.02,0.09c0,0.04,0.02,0.07,0.06,0.09c0.03,0.03,0.07,0.04,0.12,0.03c0.04,0,0.07-0.01,0.1-0.03
		c0.03-0.02,0.06-0.04,0.08-0.06L26.54,43.88z M26.49,43.51c0,0.02,0.01,0.04,0.03,0.06c0.01,0.01,0.03,0.04,0.07,0.07
		c0.03-0.02,0.05-0.04,0.06-0.06c0.02-0.03,0.03-0.06,0.03-0.09c0-0.02-0.01-0.04-0.03-0.06c-0.02-0.02-0.04-0.02-0.07-0.02
		c-0.02,0-0.04,0.01-0.05,0.02C26.5,43.46,26.49,43.48,26.49,43.51z"/>
	<path class="st7" d="M28.84,43.59l-0.25,0.05l0.09,0.42l-0.23,0.05l-0.22-1.06l0.56-0.11c0.08-0.01,0.14-0.02,0.19-0.01
		c0.05,0.01,0.09,0.03,0.12,0.05c0.03,0.02,0.06,0.05,0.08,0.08c0.02,0.03,0.04,0.07,0.04,0.11c0.01,0.05,0.01,0.1-0.01,0.16
		c-0.02,0.05-0.06,0.1-0.11,0.13c0.06,0.01,0.1,0.03,0.13,0.06c0.03,0.03,0.05,0.09,0.07,0.16l0.01,0.07
		c0.01,0.05,0.02,0.08,0.03,0.1c0.01,0.03,0.03,0.04,0.06,0.05l0.01,0.03l-0.26,0.05c-0.01-0.02-0.02-0.04-0.03-0.05
		c-0.01-0.03-0.02-0.06-0.03-0.09l-0.02-0.1c-0.01-0.07-0.04-0.11-0.07-0.13C28.96,43.58,28.91,43.58,28.84,43.59z M28.94,43.37
		c0.04-0.03,0.06-0.07,0.05-0.13c-0.01-0.06-0.04-0.1-0.1-0.12c-0.03-0.01-0.07-0.01-0.12,0.01l-0.28,0.06l0.06,0.29l0.27-0.06
		C28.88,43.4,28.92,43.39,28.94,43.37z"/>
	<path class="st7" d="M30.53,43.11l-0.54,0.15l0.08,0.27l0.62-0.18l0.05,0.19l-0.85,0.24l-0.3-1.05l0.82-0.23l0.05,0.18l-0.59,0.17
		l0.06,0.22l0.54-0.15L30.53,43.11z"/>
	<path class="st7" d="M31.55,43.1c0.05-0.02,0.1-0.04,0.13-0.06c0.06-0.04,0.07-0.1,0.05-0.15c-0.01-0.03-0.04-0.05-0.08-0.06
		c-0.04-0.01-0.09,0-0.17,0.01l-0.12,0.02c-0.12,0.02-0.21,0.02-0.26,0.01c-0.09-0.02-0.15-0.08-0.19-0.18
		c-0.03-0.09-0.03-0.18,0.02-0.27c0.05-0.09,0.14-0.15,0.28-0.2c0.12-0.04,0.22-0.05,0.33-0.02c0.1,0.03,0.17,0.09,0.22,0.2
		l-0.22,0.08c-0.03-0.06-0.07-0.09-0.13-0.1c-0.04,0-0.09,0-0.14,0.02c-0.06,0.02-0.1,0.05-0.13,0.08
		c-0.03,0.03-0.03,0.07-0.02,0.11c0.01,0.04,0.04,0.06,0.08,0.06c0.03,0,0.08,0,0.16-0.01l0.2-0.03c0.09-0.01,0.16-0.01,0.21,0.01
		c0.08,0.02,0.14,0.08,0.17,0.17c0.03,0.09,0.02,0.18-0.03,0.27c-0.05,0.09-0.15,0.16-0.29,0.21c-0.14,0.05-0.27,0.06-0.37,0.03
		c-0.1-0.03-0.17-0.1-0.21-0.21l0.22-0.08c0.02,0.04,0.05,0.07,0.08,0.09C31.39,43.14,31.46,43.14,31.55,43.1z"/>
	<path class="st7" d="M32.97,42.73c-0.15,0.07-0.28,0.08-0.4,0.04c-0.15-0.05-0.26-0.16-0.35-0.34c-0.08-0.18-0.09-0.34-0.02-0.48
		c0.05-0.11,0.14-0.2,0.29-0.27c0.15-0.07,0.28-0.08,0.4-0.04c0.15,0.04,0.26,0.15,0.34,0.34c0.08,0.18,0.09,0.34,0.02,0.48
		C33.22,42.57,33.12,42.66,32.97,42.73z M33.06,42.37c0.02-0.08,0.01-0.18-0.04-0.29c-0.05-0.11-0.11-0.19-0.19-0.22
		c-0.08-0.04-0.16-0.04-0.25,0c-0.09,0.04-0.14,0.1-0.17,0.19c-0.03,0.08-0.01,0.18,0.04,0.29c0.05,0.11,0.12,0.19,0.19,0.22
		c0.08,0.04,0.16,0.04,0.25,0C32.98,42.51,33.04,42.45,33.06,42.37z"/>
	<path class="st7" d="M34.32,41.55l-0.32-0.59l0.22-0.12l0.32,0.59c0.06,0.1,0.08,0.19,0.08,0.26c-0.01,0.14-0.1,0.26-0.27,0.35
		c-0.18,0.1-0.32,0.11-0.44,0.04c-0.06-0.04-0.12-0.11-0.18-0.21l-0.32-0.59l0.22-0.12l0.32,0.59c0.04,0.07,0.07,0.11,0.1,0.13
		c0.06,0.04,0.13,0.04,0.21-0.01c0.09-0.05,0.13-0.1,0.12-0.17C34.37,41.66,34.35,41.61,34.32,41.55z"/>
	<path class="st7" d="M35.36,40.9l-0.21,0.14l0.23,0.36l-0.2,0.13l-0.59-0.91l0.48-0.31c0.07-0.04,0.13-0.07,0.17-0.08
		c0.05-0.01,0.09-0.01,0.13,0c0.04,0.01,0.07,0.02,0.1,0.04c0.03,0.02,0.06,0.05,0.08,0.08c0.03,0.04,0.04,0.09,0.05,0.15
		c0,0.06-0.02,0.11-0.06,0.16c0.06-0.01,0.1-0.01,0.14,0.01c0.04,0.02,0.08,0.06,0.12,0.12l0.04,0.06c0.03,0.04,0.05,0.07,0.06,0.08
		c0.02,0.02,0.04,0.03,0.07,0.03L36,41l-0.22,0.15c-0.02-0.02-0.03-0.03-0.04-0.04c-0.02-0.02-0.04-0.05-0.06-0.07l-0.06-0.08
		c-0.04-0.06-0.08-0.09-0.11-0.09C35.47,40.84,35.42,40.86,35.36,40.9z M35.38,40.65c0.03-0.04,0.03-0.09-0.01-0.14
		c-0.04-0.05-0.08-0.08-0.13-0.07c-0.03,0-0.07,0.02-0.11,0.05l-0.24,0.15l0.16,0.25l0.23-0.15C35.33,40.71,35.36,40.68,35.38,40.65
		z"/>
	<path class="st7" d="M37.01,40.15c-0.02,0.11-0.09,0.21-0.2,0.29c-0.13,0.1-0.27,0.14-0.4,0.12c-0.14-0.02-0.26-0.1-0.36-0.24
		c-0.11-0.15-0.16-0.3-0.14-0.45c0.02-0.13,0.09-0.24,0.21-0.32c0.16-0.12,0.31-0.16,0.45-0.12c0.08,0.02,0.14,0.06,0.19,0.11
		l-0.19,0.15c-0.04-0.03-0.08-0.05-0.12-0.06c-0.06-0.01-0.13,0.01-0.2,0.06c-0.07,0.05-0.11,0.12-0.11,0.21
		c0,0.08,0.04,0.17,0.11,0.27c0.07,0.1,0.15,0.15,0.23,0.17c0.08,0.02,0.15,0,0.22-0.05c0.07-0.05,0.1-0.11,0.11-0.18
		c0-0.04-0.01-0.08-0.03-0.14l0.19-0.15C37.01,39.93,37.03,40.04,37.01,40.15z"/>
	<path class="st7" d="M37.86,38.9l-0.42,0.37l0.19,0.21l0.48-0.43l0.13,0.15l-0.66,0.58l-0.72-0.81l0.64-0.56l0.13,0.14l-0.46,0.41
		l0.15,0.17l0.42-0.37L37.86,38.9z"/>
	<path class="st7" d="M38.76,38.46c0.04-0.04,0.07-0.08,0.09-0.11c0.03-0.06,0.03-0.12-0.02-0.16c-0.03-0.02-0.06-0.03-0.09-0.02
		c-0.04,0.01-0.09,0.04-0.15,0.08l-0.1,0.07c-0.1,0.07-0.18,0.11-0.23,0.12c-0.09,0.02-0.17-0.01-0.25-0.08
		c-0.07-0.07-0.1-0.15-0.09-0.25c0.01-0.1,0.06-0.2,0.16-0.31c0.09-0.09,0.18-0.14,0.28-0.16c0.1-0.02,0.2,0.01,0.28,0.09
		l-0.16,0.17c-0.05-0.04-0.1-0.05-0.16-0.03c-0.04,0.01-0.08,0.04-0.12,0.08c-0.04,0.04-0.07,0.09-0.08,0.13
		c-0.01,0.04,0,0.08,0.03,0.11c0.03,0.03,0.06,0.03,0.1,0.02c0.03-0.01,0.07-0.03,0.14-0.08l0.17-0.11c0.08-0.05,0.14-0.08,0.2-0.09
		c0.09-0.01,0.16,0.01,0.23,0.08c0.07,0.07,0.1,0.16,0.09,0.26c-0.01,0.1-0.07,0.21-0.17,0.31c-0.11,0.11-0.21,0.17-0.32,0.19
		c-0.11,0.02-0.2-0.01-0.28-0.09l0.16-0.17c0.04,0.03,0.08,0.04,0.11,0.05C38.63,38.56,38.7,38.53,38.76,38.46z"/>
	<path class="st7" d="M40.45,36.61c0,0.11-0.03,0.22-0.12,0.33c-0.1,0.13-0.22,0.2-0.36,0.22c-0.14,0.01-0.28-0.03-0.41-0.14
		c-0.15-0.12-0.23-0.25-0.25-0.4c-0.01-0.13,0.03-0.25,0.12-0.37c0.12-0.15,0.26-0.23,0.41-0.23c0.08,0,0.15,0.02,0.21,0.06
		l-0.15,0.19c-0.05-0.02-0.09-0.03-0.13-0.02c-0.06,0.01-0.12,0.04-0.18,0.11c-0.05,0.07-0.07,0.15-0.05,0.23
		c0.02,0.08,0.08,0.16,0.18,0.23c0.1,0.07,0.18,0.11,0.27,0.1c0.08-0.01,0.15-0.04,0.2-0.11c0.05-0.07,0.07-0.13,0.06-0.2
		c-0.01-0.04-0.03-0.08-0.06-0.13l0.15-0.19C40.41,36.4,40.45,36.5,40.45,36.61z"/>
	<path class="st7" d="M41.21,35.72c-0.09,0.14-0.2,0.22-0.32,0.25c-0.15,0.04-0.31,0.01-0.47-0.1c-0.17-0.11-0.26-0.24-0.28-0.39
		c-0.02-0.12,0.01-0.25,0.1-0.39c0.09-0.14,0.2-0.22,0.32-0.25c0.15-0.04,0.3-0.01,0.47,0.1c0.16,0.11,0.26,0.24,0.28,0.39
		C41.34,35.45,41.31,35.58,41.21,35.72z M41.1,35.37c-0.02-0.08-0.09-0.16-0.19-0.23c-0.1-0.07-0.2-0.1-0.28-0.09
		c-0.09,0.01-0.16,0.06-0.21,0.14c-0.05,0.08-0.07,0.16-0.04,0.25c0.02,0.08,0.09,0.16,0.19,0.23c0.1,0.07,0.2,0.1,0.28,0.08
		c0.09-0.01,0.16-0.06,0.21-0.14C41.11,35.54,41.12,35.45,41.1,35.37z"/>
	<path class="st7" d="M41.85,34.63l-0.11,0.2l-0.95-0.52L40.96,34l0.85,0.23l-0.65-0.59l0.17-0.31l0.95,0.52l-0.11,0.2l-0.64-0.35
		c-0.02-0.01-0.04-0.02-0.08-0.04c-0.03-0.02-0.06-0.03-0.08-0.04l0.69,0.63l-0.11,0.21l-0.9-0.25c0.02,0.01,0.04,0.02,0.08,0.04
		c0.03,0.02,0.06,0.03,0.08,0.04L41.85,34.63z"/>
	<path class="st7" d="M42.74,32.88l-0.22,0.48l-0.99-0.44l0.23-0.52c0.06-0.13,0.14-0.2,0.23-0.23c0.06-0.01,0.11-0.01,0.17,0.02
		c0.06,0.03,0.1,0.07,0.12,0.11c0.01,0.03,0.02,0.06,0.02,0.11c0.04-0.05,0.09-0.07,0.14-0.08c0.05-0.01,0.11,0,0.16,0.02
		c0.06,0.03,0.1,0.07,0.14,0.12c0.02,0.03,0.04,0.07,0.04,0.11c0.01,0.04,0.01,0.09,0,0.14C42.78,32.77,42.76,32.82,42.74,32.88z
		 M42.16,32.49c0-0.04-0.03-0.06-0.07-0.08c-0.05-0.02-0.09-0.01-0.12,0.02c-0.03,0.03-0.05,0.07-0.07,0.12l-0.1,0.23l0.22,0.1
		l0.12-0.26C42.15,32.57,42.16,32.53,42.16,32.49z M42.3,32.69l-0.12,0.26l0.26,0.12l0.12-0.26c0.02-0.05,0.03-0.09,0.03-0.12
		c0-0.06-0.03-0.1-0.09-0.13c-0.05-0.02-0.1-0.02-0.14,0.02C42.34,32.61,42.32,32.64,42.3,32.69z"/>
	<path class="st7" d="M42.07,31.64l0.09-0.23l1.01,0.39l-0.09,0.23L42.07,31.64z"/>
	<path class="st7" d="M43.64,30.43l-0.07,0.23l-0.88,0.22l0.74,0.23l-0.07,0.22L42.32,31l0.08-0.24l0.86-0.21l-0.72-0.23l0.07-0.22
		L43.64,30.43z"/>
	<path class="st7" d="M43.5,29.02l-0.13,0.55l0.27,0.07l0.15-0.63l0.19,0.05l-0.2,0.86l-1.06-0.25l0.2-0.83l0.19,0.04l-0.14,0.6
		l0.22,0.05l0.13-0.55L43.5,29.02z"/>
</g>
<g>
	<g>
		<path class="st1" d="M21.84,16.91v0.02c0.12,0.01,0.26,0.01,0.4,0.01c0.3,0,0.59-0.01,0.88-0.06l0.02,0.02
			c-0.02,0.05-0.02,0.1-0.02,0.15c0,0.06,0,0.12,0.02,0.17l-0.04,0.02c-0.27,0-0.55-0.02-0.82-0.02c-0.29,0-0.57,0-0.86,0.02v-0.09
			l0.21-0.22c0.63-0.65,1.01-1.11,1.01-1.63c0-0.42-0.24-0.58-0.56-0.58c-0.4,0-0.46,0.22-0.54,0.49l-0.09-0.05l0.08-0.34
			c0.05-0.19,0.06-0.24,0.32-0.34c0.03-0.01,0.17-0.06,0.32-0.06c0.36,0,0.79,0.2,0.79,0.72c0,0.39-0.24,0.76-0.48,1.03L21.84,16.91
			z"/>
		<path class="st1" d="M24.39,16.37h-0.6c-0.18,0-0.34,0-0.52,0.02l-0.04-0.1c0.43-0.64,0.87-1.26,1.33-1.86h0.15
			c-0.01,0.1-0.02,0.27-0.02,0.38v1.34h0.11c0.14,0,0.27-0.01,0.34-0.04l0.02,0.02c-0.01,0.04-0.02,0.08-0.02,0.12
			c0,0.04,0.01,0.08,0.02,0.12l-0.02,0.02c-0.08-0.02-0.19-0.02-0.34-0.02h-0.11v0.47c0,0.26,0.07,0.26,0.46,0.29l0.02,0.02v0.08
			l-0.02,0.02c-0.19,0-0.39-0.02-0.58-0.02c-0.24,0-0.47,0.01-0.71,0.02l-0.02-0.02v-0.08l0.02-0.02c0.52-0.03,0.53-0.05,0.53-0.43
			V16.37z M24.39,14.87L24.39,14.87c-0.16,0.17-0.84,1.12-0.89,1.27h0.89V14.87z"/>
		<path class="st1" d="M26.37,14.04h0.2l-1.14,3.23h-0.2L26.37,14.04z"/>
		<path class="st1" d="M26.94,17.19c0.26-0.4,1.26-2.06,1.39-2.42l-0.02-0.02c-0.46,0-0.92,0.02-1.37,0.05l-0.02-0.03
			c0.01-0.03,0.02-0.08,0.02-0.17c0-0.07-0.01-0.13-0.02-0.16l0.04-0.02c0.16,0.04,0.43,0.04,0.89,0.05c0.43,0,0.65-0.02,0.83-0.05
			l0.02,0.07c-0.51,0.88-0.97,1.78-1.4,2.74l-0.03,0.02c-0.05-0.01-0.09-0.02-0.14-0.02c-0.07,0-0.12,0-0.17,0.02L26.94,17.19z"/>
	</g>
</g>
</svg>
