<?xml version="1.0" encoding="utf-8"?>
<!-- Generator: Adobe Illustrator 24.0.3, SVG Export Plug-In . SVG Version: 6.00 Build 0)  -->
<svg version="1.1" id="Layer_1" xmlns="http://www.w3.org/2000/svg" xmlns:xlink="http://www.w3.org/1999/xlink" x="0px" y="0px"
	 viewBox="0 0 254.06 57.42" style="enable-background:new 0 0 254.06 57.42;" xml:space="preserve">
<style type="text/css">
	.st0{fill:#FEE600;}
	.st1{fill:#010101;}
	.st2{fill:#EC1A5A;}
	.st3{fill:#089BD5;}
	.st4{fill:#FAFCFE;}
	.st5{fill:#010101;stroke:#010101;stroke-width:0.0967;stroke-miterlimit:10;}
	.st6{fill:#FFFFFF;}
	.st7{font-family:'MyriadPro-Regular';}
	.st8{font-size:25.8379px;}
	.st9{font-size:19.5795px;}
</style>
<g>
	<g>
		<circle class="st0" cx="28.75" cy="28.7" r="27.05"/>
		<g>
			<g>
				<path class="st1" d="M7.3,33.62c0.48,0.1,0.77,0.48,0.97,0.97c0.19,0.77-0.19,1.45-0.97,1.74c-0.87,0.29-1.64-0.19-1.84-0.97
					c-0.1-0.48,0-0.77,0.1-0.97L5.37,34.2l0.77-0.19v0.1c-0.1,0.1-0.19,0.19-0.29,0.29c-0.19,0.29-0.29,0.58-0.19,0.87
					c0.1,0.48,0.58,0.87,1.35,0.68c0.68-0.19,1.16-0.77,1.06-1.45c-0.19-0.48-0.58-0.68-0.77-0.68L7.3,33.62z"/>
				<path class="st1" d="M6.05,30.82c0.87-0.1,1.55,0.48,1.64,1.16c0.1,0.77-0.39,1.45-1.26,1.64c-0.87,0.1-1.45-0.48-1.64-1.16
					C4.69,31.69,5.18,30.92,6.05,30.82z M6.34,33.14c0.68-0.1,1.35-0.58,1.26-1.16s-0.87-0.77-1.45-0.68
					c-0.48,0.1-1.26,0.48-1.16,1.16C5.08,33.04,5.85,33.24,6.34,33.14z"/>
				<path class="st1" d="M4.69,30.82c0-0.1,0-0.19,0-0.39s0-0.19,0-0.39c0.19-0.1,0.29-0.19,0.48-0.39
					c0.29-0.29,1.26-1.06,1.55-1.35c-1.06,0-1.35,0-1.55,0c-0.48,0-0.48,0-0.48,0.48H4.6c0-0.19,0-0.29,0-0.48s0-0.29,0-0.48h0.1
					c0,0.29,0,0.29,0.39,0.29c0.19,0,1.93,0,2.32,0v0.1l-2.32,2.03c0.29,0,1.64,0,1.93-0.1c0.19,0,0.29-0.1,0.29-0.48h0.1
					c0,0.19,0,0.39,0,0.48c0,0.19,0,0.29,0,0.48H7.3c0-0.1,0-0.19-0.1-0.29c-0.1,0-0.1,0-0.48,0H4.98c-0.1,0.1-0.19,0.19-0.19,0.39
					L4.69,30.82z"/>
				<path class="st1" d="M6.53,24.93c0,0.29,0,0.29,0.77,0.39c0.1,0.19,0.29,0.58,0.19,1.16c-0.1,0.97-0.87,1.45-1.55,1.35
					c-0.87-0.1-1.35-0.87-1.26-1.55c0-0.48,0.29-0.87,0.39-0.97l-0.19-0.19l0.87,0.1v0.1c-0.19,0-0.29,0.1-0.48,0.19
					c-0.19,0.1-0.39,0.39-0.48,0.77c0,0.39,0.48,0.97,1.26,1.06c0.19,0,0.58,0,0.87-0.1c0.39-0.19,0.48-0.48,0.48-0.77
					c0-0.29-0.1-0.48-0.19-0.58c-0.1-0.1-0.1-0.1-0.39-0.1c-0.19,0-0.29,0-0.39,0c0,0-0.1,0.1-0.1,0.29h-0.1
					c0-0.19,0.1-0.39,0.1-0.58s0-0.29,0-0.48L6.53,24.93z"/>
				<path class="st1" d="M4.98,24.45c0.1-0.19,0.1-0.29,0.1-0.48c0-0.19,0.1-0.39,0.1-0.58h0.1c0,0.19,0,0.29,0.1,0.39
					c0.1,0,0.19,0.1,0.58,0.19l0.77,0.19c0.29,0.1,0.48,0.1,0.68,0.1c0.1,0,0.19,0,0.19,0c0.1-0.1,0.19-0.58,0.19-0.68
					c0-0.19,0.1-0.48-0.58-0.97l0.1-0.1C7.69,22.71,7.79,22.8,8.08,23l-0.48,2.13H7.5c0-0.19,0-0.29-0.1-0.39
					c-0.1,0-0.19,0-0.68-0.19l-0.97-0.19c-0.1,0-0.39-0.1-0.48-0.1C5.18,24.25,5.18,24.25,4.98,24.45L4.98,24.45z"/>
				<path class="st1" d="M7.98,19.42c0.87,0.29,1.06,1.16,0.87,1.84c-0.29,0.68-1.06,1.06-1.84,0.77s-1.06-1.06-0.87-1.74
					C6.34,19.62,7.11,19.13,7.98,19.42z M7.11,21.64c0.58,0.19,1.35,0.19,1.64-0.39c0.29-0.58-0.39-1.06-0.97-1.35
					c-0.48-0.19-1.35-0.19-1.55,0.48C5.95,20.97,6.63,21.45,7.11,21.64z"/>
				<path class="st1" d="M6.92,18.46c0.1-0.1,0.1-0.19,0.19-0.39c0.1-0.1,0.1-0.19,0.19-0.39l2.42,0.29l-1.45-1.93
					c0.1-0.1,0.1-0.19,0.19-0.29c0.1-0.1,0.1-0.19,0.19-0.39l0.1,0.1c-0.1,0.29-0.1,0.29,0.19,0.48l1.45,0.77
					c0.29,0.19,0.39,0.19,0.58-0.1l0.1,0.1c-0.1,0.19-0.19,0.29-0.29,0.48c-0.1,0.1-0.19,0.29-0.29,0.48l-0.1-0.1
					c0.1-0.29,0.1-0.29-0.1-0.48l-1.84-1.06l1.64,2.22v0.1l-2.7-0.29l1.55,0.87c0.39,0.19,0.48,0.29,0.68,0l0.1,0.1
					c-0.1,0.1-0.1,0.19-0.19,0.39c-0.1,0.1-0.1,0.19-0.19,0.39l-0.1-0.1c0.1-0.29,0.1-0.39-0.39-0.58L7.5,18.36
					c-0.19-0.1-0.29-0.1-0.39,0.1H6.92z"/>
				<path class="st1" d="M9.04,14.79l1.26-1.55c0.29,0.1,0.39,0.1,0.77,0.19v0.1c-0.48,0-0.48,0-0.58,0.1
					c-0.19,0-0.29,0.1-0.58,0.48L9.62,14.4l0.87,0.68l0.19-0.29c0.19-0.29,0.19-0.39,0-0.68l0.1-0.1c0.1,0.1,0.29,0.19,0.39,0.39
					c0.1,0.1,0.29,0.19,0.39,0.29h-0.1c-0.39-0.19-0.48-0.19-0.77,0.19l-0.19,0.19l0.48,0.39c0.39,0.29,0.39,0.39,0.77-0.1l0.1-0.19
					c0.19-0.29,0.19-0.29,0-1.06h0.1c0.19,0.29,0.19,0.39,0.48,0.58l-1.35,1.74l-0.1-0.1c0.19-0.29,0.1-0.29,0-0.39
					c-0.1-0.1-0.29-0.19-0.58-0.48l-0.48-0.39c-0.1-0.1-0.39-0.29-0.48-0.39C9.33,14.69,9.24,14.79,9.04,14.79L9.04,14.79z"/>
				<path class="st1" d="M10.88,12.47c0.1-0.1,0.19-0.19,0.39-0.39c0.1-0.1,0.29-0.29,0.39-0.39c0.1-0.1,0.29-0.29,0.48-0.39
					c0.29-0.1,0.58,0,0.77,0.1c0.1,0.1,0.1,0.19,0.19,0.29c0.1,0.29,0,0.48-0.1,0.58c0.39,0.1,0.77,0.1,1.16,0.19
					c0.29,0,0.29,0,0.48-0.1l0.1,0.1c-0.1,0.1-0.19,0.1-0.19,0.19c-0.1,0.1-0.1,0.1-0.19,0.19c-0.19-0.1-0.29-0.1-0.58-0.1
					s-0.68-0.1-0.97-0.1l-0.1,0.1l-0.1,0.1c0.39,0.39,0.48,0.48,0.58,0.58c0.19,0.19,0.29,0.19,0.48-0.1l0.1,0.1
					c-0.1,0.1-0.29,0.29-0.39,0.39c-0.1,0.1-0.19,0.29-0.39,0.39l-0.19,0.1c0.19-0.29,0.19-0.29-0.19-0.68l-0.77-0.77
					c-0.1-0.1-0.39-0.39-0.48-0.39c-0.1-0.1-0.19,0-0.29,0.1L10.88,12.47z M11.46,12.08l0.87,0.87c0.1,0,0.1-0.1,0.1-0.1
					c0.29-0.19,0.29-0.39,0.29-0.48c0-0.19-0.1-0.29-0.19-0.48c-0.1-0.1-0.29-0.19-0.48-0.19c-0.19,0-0.29,0.1-0.48,0.29
					L11.46,12.08z"/>
				<path class="st1" d="M14.74,12.37c0.29-0.19,0.29-0.29,0.19-0.68c-0.19-0.68-0.39-1.35-0.68-2.13h-0.1
					c0.19-0.19,0.19-0.29,0.29-0.39c0.29,0.19,0.29,0.19,0.48,0.39l1.35,0.97c0.39,0.29,0.39,0.29,0.68,0.19l0.1,0.1
					c-0.1,0.1-0.29,0.19-0.48,0.39c-0.19,0.1-0.29,0.19-0.48,0.39L16,11.5c0.1-0.1,0.29-0.19,0.19-0.39
					c-0.1-0.1-0.48-0.39-0.68-0.48l-0.77,0.58c0.1,0.19,0.1,0.29,0.19,0.48c0,0.1,0.1,0.29,0.1,0.29c0.1,0.19,0.29,0,0.39-0.1
					l0.1,0.1c-0.1,0.1-0.29,0.19-0.39,0.29C15.03,12.27,14.94,12.37,14.74,12.37L14.74,12.37z M15.42,10.44
					c-0.39-0.19-0.77-0.48-1.06-0.68l0.39,1.16L15.42,10.44z"/>
				<path class="st1" d="M15.71,9.28c0-0.29-0.1-0.39-0.1-0.77l1.93-1.16c0.29,0.29,0.29,0.29,0.58,0.48l-0.1,0.1
					c-0.19-0.1-0.58-0.29-0.77-0.29c-0.1,0-0.19,0.1-0.48,0.29l0.97,1.64c0.1,0.1,0.19,0.29,0.19,0.39c0.1,0.1,0.19,0.1,0.48-0.1
					l0.1,0.1c-0.19,0.1-0.39,0.19-0.58,0.29s-0.39,0.19-0.58,0.39l-0.1-0.1c0.39-0.19,0.39-0.29,0.39-0.39c0-0.1-0.1-0.29-0.19-0.39
					l-0.97-1.64l-0.29,0.19C16.09,8.41,16,8.41,16,8.6c0,0.1,0,0.1-0.1,0.68L15.71,9.28z"/>
				<path class="st1" d="M17.83,7.15l1.84-0.77c0.19,0.19,0.29,0.29,0.58,0.48v0.1c-0.48-0.19-0.48-0.19-0.48-0.19
					c-0.19-0.1-0.39-0.1-0.77,0.1l-0.39,0.1l0.48,1.06l0.39-0.19c0.39-0.19,0.39-0.19,0.29-0.68h0.1c0.1,0.19,0.1,0.29,0.19,0.48
					c0.1,0.19,0.1,0.29,0.19,0.48h-0.1c-0.29-0.39-0.39-0.39-0.77-0.19l-0.29,0.1l0.29,0.58c0.19,0.68,0.19,0.68,0.68,0.48l0.19-0.1
					c0.29-0.1,0.39-0.19,0.48-0.97h0.1c0,0.39,0,0.39,0.1,0.77L18.9,9.66v-0.1c0.29-0.1,0.19-0.19,0.19-0.39
					c-0.1-0.19-0.1-0.39-0.29-0.68l-0.29-0.68c0-0.1-0.19-0.48-0.29-0.58s-0.1-0.1-0.29,0L17.83,7.15z"/>
				<path class="st1" d="M21.99,5.61c0.19,0,0.29-0.1,0.48-0.1c0,0,0.19-0.1,0.29-0.1s0.29-0.1,0.29-0.1c0.19-0.1,0.39-0.1,0.58-0.1
					c0.19,0.1,0.48,0.19,0.48,0.58c0.1,0.19,0,0.48-0.19,0.68c-0.19,0.19-0.39,0.19-0.97,0.39c0.1,0.39,0.19,0.77,0.19,0.87
					c0.19,0.19,0.29,0.19,0.48,0.1v0.1c-0.19,0-0.39,0.1-0.48,0.1c-0.19,0-0.29,0.1-0.48,0.1v-0.1c0.19-0.1,0.29-0.1,0.29-0.19
					c0-0.1-0.1-0.48-0.1-0.58l-0.19-0.77c0-0.1-0.19-0.68-0.19-0.77c-0.1-0.1-0.1-0.1-0.29-0.1H21.99z M23.05,6.77
					c0.39-0.1,0.48-0.1,0.58-0.19c0.19-0.19,0.19-0.48,0.19-0.68s-0.19-0.39-0.39-0.39c-0.19-0.1-0.29,0-0.68,0.1L23.05,6.77z"/>
				<path class="st1" d="M24.5,5.03c0.19,0,0.39,0,0.48-0.1c0.1,0,0.39-0.1,0.48-0.1c0.19,0,0.48,0,0.58,0
					c0.29,0.1,0.48,0.29,0.48,0.58c0,0.1,0,0.19,0,0.39c-0.1,0.29-0.29,0.39-0.39,0.48c0.29,0.29,0.58,0.58,0.87,0.87
					c0.19,0.19,0.19,0.19,0.48,0.19v0.1c-0.1,0-0.19,0-0.29,0s-0.19,0-0.29,0.1c-0.19-0.19-0.19-0.19-0.39-0.39
					c-0.19-0.19-0.48-0.48-0.68-0.68c-0.1,0-0.1,0-0.19,0c-0.1,0-0.1,0-0.19,0c0.1,0.48,0.1,0.68,0.1,0.77
					c0,0.29,0.1,0.29,0.48,0.29v0.1c-0.19,0-0.39,0-0.58,0.1c-0.19,0-0.39,0.1-0.58,0.1v-0.1c0.29-0.1,0.29-0.1,0.29-0.68l-0.1-1.16
					c0-0.1-0.1-0.48-0.1-0.68c0-0.1-0.1-0.1-0.29-0.1L24.5,5.03z M25.18,5.03l0.19,1.26c0.1,0,0.1,0,0.19,0
					c0.39,0,0.48-0.19,0.58-0.29c0.1-0.1,0.1-0.29,0.1-0.48s-0.1-0.29-0.19-0.39c-0.19-0.1-0.29-0.1-0.48-0.1H25.18z"/>
				<path class="st1" d="M27.49,4.64c0.19,0,0.39,0,0.48,0c0.19,0,0.39,0,0.48,0v0.1c-0.29,0-0.29,0.1-0.29,0.58v1.35
					c0,0.48,0,0.48,0.39,0.58v0.1c-0.19,0-0.39,0-0.48,0c-0.19,0-0.39,0-0.58,0v0c0.29-0.1,0.29-0.1,0.29-0.39c0-0.19,0-0.29,0-0.48
					V5.8c0-0.48,0-0.58,0-0.68c0-0.19-0.1-0.19-0.29-0.19V4.64z"/>
				<path class="st1" d="M29.23,4.64c0.1,0,0.19,0,0.39,0s0.19,0,0.39,0c0.1,0.19,0.1,0.29,0.29,0.48c0.29,0.39,0.97,1.35,1.16,1.74
					c0.1-1.06,0.1-1.35,0.1-1.55c0-0.48,0-0.48-0.39-0.48v-0.1c0.19,0,0.29,0,0.48,0s0.29,0,0.48,0v0.1c-0.29,0-0.29,0-0.39,0.29
					c0,0.19-0.19,1.93-0.19,2.32h-0.1l-1.74-2.51c0,0.29-0.1,1.64-0.1,1.93c0,0.19,0.1,0.29,0.48,0.29v0.1c-0.19,0-0.39,0-0.48-0.1
					c-0.19,0-0.29,0-0.48,0v-0.1c0.1,0,0.19,0,0.29-0.1c0-0.1,0-0.1,0.1-0.48l0.19-1.74c-0.1-0.1-0.19-0.19-0.39-0.19L29.23,4.64z"
					/>
				<path class="st1" d="M32.32,5.61c0.19-0.29,0.19-0.39,0.39-0.68l2.22,0.48c0,0.39,0,0.48,0.1,0.77h-0.1
					c-0.1-0.19-0.29-0.58-0.39-0.68c-0.1-0.1-0.19-0.1-0.58-0.19l-0.39,1.84c0,0.1-0.1,0.29-0.1,0.39s0.1,0.19,0.39,0.19v0.1
					c-0.19,0.1-0.48,0.1-0.68,0c-0.19-0.1-0.39-0.1-0.68-0.1v-0.1c0.39,0.1,0.39,0,0.48-0.1c0-0.1,0.1-0.29,0.1-0.39l0.39-1.93
					l-0.29-0.1c-0.1,0-0.19,0-0.39,0.1C32.81,5.32,32.81,5.32,32.32,5.61L32.32,5.61z"/>
				<path class="st1" d="M35.42,5.61c0.19,0.1,0.29,0.1,0.48,0.19c0.19,0.1,0.29,0.1,0.48,0.1v0.1c-0.39-0.1-0.39,0-0.48,0.48
					l-0.39,1.35c-0.19,0.48-0.19,0.48,0.19,0.58v0.1c-0.19-0.1-0.29-0.1-0.48-0.19c-0.19-0.1-0.39-0.1-0.48-0.19v-0.1
					c0.29,0.1,0.29,0,0.48-0.29c0-0.19,0.1-0.29,0.19-0.48l0.19-0.68c0.1-0.48,0.19-0.58,0.19-0.68c0-0.19,0-0.19-0.19-0.29
					L35.42,5.61z"/>
				<path class="st1" d="M37.06,6.09c0.1,0.1,0.19,0.1,0.29,0.19c0.1,0.1,0.19,0.1,0.29,0.1c0,0.19,0,0.29,0.1,0.58
					c0.1,0.39,0.48,1.55,0.58,2.03c0.48-0.97,0.58-1.26,0.58-1.35c0.19-0.39,0.19-0.39-0.19-0.58v-0.1c0.19,0.1,0.29,0.1,0.48,0.19
					c0.19,0.1,0.29,0.1,0.48,0.19v0.1c-0.19-0.1-0.29-0.1-0.48,0.19c-0.1,0.19-0.77,1.84-0.97,2.13l0,0l-0.87-2.9
					c-0.1,0.29-0.68,1.55-0.77,1.74c-0.1,0.19,0,0.29,0.29,0.48l-0.1,0.1c-0.1-0.29-0.19-0.29-0.39-0.39
					c-0.19-0.1-0.29-0.1-0.48-0.19v-0.1c0.1,0.1,0.19,0.1,0.29,0.1s0.1-0.1,0.19-0.39l0.77-1.64c-0.1-0.19-0.19-0.19-0.29-0.29
					L37.06,6.09z"/>
				<path class="st1" d="M41.6,10.34c-0.29-0.1-0.29-0.1-0.68,0.58c-0.29,0-0.68,0-1.06-0.29c-0.77-0.48-0.87-1.35-0.48-2.03
					c0.48-0.77,1.35-0.87,2.03-0.48c0.39,0.29,0.58,0.68,0.68,0.77h0.19l-0.39,0.77l-0.1-0.1c0-0.19,0.1-0.29,0-0.58
					c0-0.19-0.19-0.58-0.48-0.68c-0.48-0.29-1.16-0.1-1.55,0.58c-0.1,0.19-0.29,0.58-0.29,0.87c0,0.39,0.29,0.68,0.48,0.77
					c0.29,0.19,0.48,0.1,0.58,0.1c0.1,0,0.1,0,0.29-0.29c0.1-0.19,0.19-0.29,0.1-0.39c0-0.1-0.1-0.1-0.19-0.19l0.1-0.1
					c0.19,0.1,0.29,0.19,0.48,0.29c0.1,0.1,0.29,0.19,0.48,0.29L41.6,10.34z"/>
				<path class="st1" d="M42.95,11.69c-0.1,0.1-0.19,0.29-0.19,0.39c0,0.29,0.1,0.48,0.19,0.68c0.19,0.19,0.48,0.29,0.77,0
					c0.1-0.1,0.19-0.29,0.1-0.48c0-0.1-0.1-0.19-0.19-0.48c-0.1-0.19-0.29-0.58,0-0.97c0.29-0.29,0.77-0.39,1.16,0
					c0.19,0.19,0.19,0.39,0.29,0.48h0.19l-0.48,0.68l-0.1-0.1c0.1-0.19,0.29-0.68,0-1.06c-0.29-0.19-0.48-0.19-0.68,0
					c-0.1,0.1-0.19,0.19-0.1,0.39c0,0.19,0.1,0.29,0.19,0.58c0.19,0.19,0.39,0.68,0,1.06c-0.29,0.39-0.87,0.39-1.26,0
					c-0.29-0.19-0.29-0.39-0.29-0.58h-0.29C42.56,11.98,42.66,11.89,42.95,11.69L42.95,11.69z"/>
				<path class="st1" d="M45.85,11.69l1.35,1.55c-0.19,0.29-0.19,0.39-0.29,0.68h-0.1c0-0.48,0-0.48,0-0.58
					c0-0.19-0.1-0.39-0.39-0.68l-0.29-0.29l-0.87,0.77l0.29,0.29c0.19,0.29,0.29,0.29,0.68,0.1l0.1,0.1
					c-0.19,0.1-0.29,0.19-0.39,0.39c-0.1,0.1-0.29,0.19-0.39,0.39l-0.1-0.1c0.29-0.39,0.19-0.48-0.1-0.77l-0.19-0.19l-0.48,0.48
					c-0.39,0.39-0.39,0.39,0,0.77l0.1,0.19c0.19,0.19,0.29,0.29,1.06,0.19v0.1c-0.29,0.1-0.39,0.19-0.68,0.29l-1.45-1.84l0.1-0.1
					c0.19,0.19,0.29,0.19,0.39,0.1c0.19-0.1,0.29-0.19,0.58-0.48l0.58-0.48c0.1-0.1,0.39-0.39,0.39-0.39
					C45.85,11.98,45.85,11.98,45.85,11.69L45.85,11.69z"/>
				<path class="st1" d="M47.78,13.92c0.1,0.1,0.19,0.29,0.29,0.39c0,0.1,0.19,0.39,0.29,0.39c0.1,0.19,0.29,0.39,0.29,0.58
					c0.1,0.29-0.1,0.58-0.29,0.68c-0.1,0.1-0.19,0.1-0.39,0.1c-0.29,0-0.48-0.1-0.58-0.19c-0.1,0.39-0.19,0.77-0.39,1.16
					c-0.1,0.19-0.1,0.29,0,0.48l0,0.1c-0.1-0.1-0.1-0.19-0.19-0.29s-0.1-0.19-0.19-0.19c0.1-0.19,0.1-0.29,0.19-0.58
					c0.1-0.29,0.19-0.58,0.29-0.97c0-0.1-0.1-0.1-0.1-0.1l-0.1-0.1c-0.39,0.29-0.58,0.39-0.68,0.48c-0.19,0.19-0.19,0.19,0,0.48
					l-0.1,0.1c-0.1-0.19-0.19-0.29-0.29-0.48c-0.1-0.19-0.19-0.29-0.29-0.48l0.1-0.1c0.19,0.29,0.19,0.19,0.68-0.1l0.97-0.68
					c0.1-0.1,0.39-0.29,0.48-0.39S47.78,14.01,47.78,13.92L47.78,13.92z M48.07,14.59l-0.97,0.68c0,0.1,0.1,0.1,0.1,0.1
					c0.19,0.29,0.39,0.39,0.48,0.39c0.19,0,0.29,0,0.48-0.1c0.19-0.1,0.29-0.29,0.29-0.39c0-0.19,0-0.29-0.19-0.48L48.07,14.59z"/>
				<path class="st1" d="M49.13,15.85c0.1,0.19,0.19,0.39,0.29,0.48c0.1,0.19,0.19,0.39,0.29,0.48l-0.1,0.1
					c-0.1-0.19-0.19-0.29-0.29-0.19c-0.1,0.1-0.77,0.87-0.97,0.97c-0.19,0.19-0.19,0.29-0.48,0.48c0.77-0.1,1.16-0.19,1.64-0.19
					c0.1,0,0.29,0,0.39-0.1c0.19-0.1,0.1-0.29,0-0.39l0.1-0.1c0.1,0.1,0.1,0.29,0.19,0.39c0.1,0.1,0.19,0.29,0.19,0.39l-0.1,0.1
					c-0.19-0.19-0.29-0.19-0.87-0.1c-0.68,0.1-1.45,0.19-2.13,0.29v-0.1l1.55-1.84c0.19-0.29,0.29-0.39,0.19-0.58L49.13,15.85z"/>
				<path class="st1" d="M50.49,18.46c0.1,0.19,0.1,0.39,0.19,0.48c0.1,0.19,0.19,0.29,0.19,0.48h-0.1
					c-0.19-0.29-0.19-0.29-0.68-0.1l-1.26,0.58c-0.48,0.19-0.48,0.19-0.39,0.48h-0.1c-0.1-0.19-0.1-0.29-0.19-0.48
					c-0.1-0.19-0.19-0.29-0.19-0.48h0.1c0.19,0.29,0.19,0.29,0.48,0.1c0.19-0.1,0.29-0.1,0.39-0.19l0.68-0.29
					c0.48-0.19,0.58-0.19,0.58-0.29c0.19-0.1,0.19-0.19,0.1-0.39L50.49,18.46z"/>
				<path class="st1" d="M49.91,22.9c-0.48-0.1-0.87-0.39-0.97-0.87c-0.29-0.77,0.1-1.45,0.87-1.74c0.87-0.29,1.64,0.19,1.84,0.87
					c0.19,0.48,0,0.77,0,0.97l0.19,0.1l-0.77,0.29v-0.1c0.1-0.1,0.19-0.19,0.29-0.29c0.19-0.29,0.29-0.58,0.19-0.87
					c-0.19-0.48-0.68-0.77-1.45-0.58c-0.68,0.19-1.16,0.77-0.97,1.45c0.19,0.48,0.58,0.58,0.77,0.68L49.91,22.9z"/>
				<path class="st1" d="M52.03,22.61l0.39,1.93c-0.29,0.19-0.39,0.19-0.58,0.48l-0.1-0.1c0.29-0.39,0.29-0.39,0.29-0.48
					c0.1-0.19,0.1-0.29,0-0.77l0.1-0.29l-1.06,0.19l0.1,0.39c0.1,0.39,0.19,0.39,0.58,0.39v0.1c-0.19,0-0.39,0.1-0.58,0.1
					c-0.19,0-0.39,0.1-0.48,0.1v-0.1c0.39-0.19,0.39-0.29,0.29-0.68l-0.1-0.29l-0.68,0.1c-0.48,0.1-0.58,0.1-0.48,0.68v0.19
					c0.1,0.29,0.1,0.39,0.77,0.68v0.1c-0.39,0-0.48,0-0.77-0.1l-0.48-2.13h0.1c0.1,0.29,0.19,0.29,0.29,0.29
					c0.19,0,0.39-0.1,0.77-0.1l0.68-0.1c0.1,0,0.48-0.1,0.58-0.19c0.1-0.1,0.1-0.1,0.1-0.29L52.03,22.61z"/>
				<path class="st1" d="M50.68,25.8c-0.19,0-0.29,0.1-0.39,0.19C50.1,26.18,50,26.38,50,26.67c0,0.29,0.19,0.58,0.58,0.48
					c0.1,0,0.29-0.1,0.39-0.29c0.1-0.1,0.1-0.19,0.19-0.48c0-0.19,0.19-0.68,0.68-0.68s0.77,0.29,0.87,0.77c0,0.29,0,0.39-0.1,0.58
					l0.1,0.1l-0.77,0.1v-0.1c0.19-0.1,0.68-0.29,0.68-0.77c0-0.29-0.29-0.48-0.48-0.48c-0.1,0-0.29,0.1-0.29,0.19
					c-0.1,0.1-0.1,0.29-0.19,0.58c-0.1,0.29-0.19,0.77-0.77,0.77c-0.48,0-0.87-0.39-0.97-0.87c0-0.39,0.1-0.48,0.1-0.68l-0.19-0.19
					C50.29,25.8,50.39,25.8,50.68,25.8L50.68,25.8z"/>
				<path class="st1" d="M49.62,27.83c0,0.1,0.1,0.29,0.29,0.29c0.1,0,0.1-0.1,0.1-0.1c0-0.1,0.1-0.19,0.19-0.19
					c0.1,0,0.19,0.1,0.19,0.19c0,0.1-0.1,0.29-0.39,0.29c-0.19,0-0.48-0.1-0.58-0.48H49.62z"/>
				<path class="st1" d="M52.8,29.57c0,0.19,0,0.39-0.1,0.48c0,0.19,0,0.39,0,0.48h-0.1c0-0.29,0-0.39-0.58-0.39h-1.35
					c-0.48,0-0.48,0-0.58,0.29H50c0-0.19,0-0.39,0-0.48c0-0.19,0-0.39,0-0.58h0.1c0,0.29,0.1,0.29,0.39,0.39c0.19,0,0.29,0,0.48,0
					h0.68c0.48,0,0.58,0,0.68,0c0.19,0,0.19-0.1,0.19-0.29L52.8,29.57z"/>
				<path class="st1" d="M52.71,31.21c0,0.1,0,0.19-0.1,0.39c0,0.1,0,0.19,0,0.39c-0.19,0.1-0.29,0.1-0.58,0.29
					c-0.39,0.19-1.45,0.87-1.84,1.06c1.06,0.19,1.35,0.19,1.45,0.19c0.48,0.1,0.48,0,0.48-0.39h0.1c0,0.19-0.1,0.29-0.1,0.48
					c0,0.19,0,0.29-0.1,0.48h-0.1c0-0.29,0-0.29-0.29-0.39c-0.19,0-1.93-0.39-2.22-0.39v-0.1l2.61-1.55c-0.29,0-1.64-0.29-1.84-0.29
					c-0.19,0-0.29,0.1-0.39,0.39h-0.1c0-0.19,0.1-0.29,0.1-0.48s0-0.29,0.1-0.48H50c0,0.1,0,0.19,0,0.29c0,0,0.1,0.1,0.48,0.1
					l1.74,0.29c0.19-0.1,0.19-0.19,0.19-0.39L52.71,31.21z"/>
				<path class="st1" d="M49.42,36.13c-0.29-0.39-0.48-0.77-0.29-1.26c0.19-0.77,0.97-1.16,1.74-0.97c0.87,0.29,1.26,1.06,0.97,1.74
					c-0.1,0.48-0.39,0.68-0.58,0.77l0.1,0.19l-0.77-0.19v-0.1c0.19,0,0.29,0,0.48-0.1c0.39-0.1,0.58-0.39,0.68-0.58
					c0.1-0.48-0.1-1.06-0.87-1.26c-0.68-0.19-1.45,0-1.64,0.68c-0.19,0.48,0.1,0.77,0.29,0.97L49.42,36.13z"/>
			</g>
		</g>
		<path class="st1" d="M45.17,34.88c0,0.29-0.19,0.48-0.58,0.48c-0.29,0-0.58-0.19-0.58-0.48s0.19-0.48,0.58-0.48
			S45.17,34.59,45.17,34.88z M44.3,34.88c0,0.19,0.19,0.39,0.39,0.39c0.19,0,0.39-0.19,0.39-0.39c0-0.19-0.19-0.39-0.39-0.39
			C44.4,34.49,44.3,34.69,44.3,34.88z M44.59,35.17h-0.1v-0.48c0,0,0.1,0,0.19,0c0.1,0,0.19,0,0.19,0v0.1c0,0.1,0,0.1-0.1,0.1l0,0
			l0.1,0.1c0,0.1,0,0.1,0,0.1h-0.1v-0.1c0-0.1,0-0.1-0.1-0.1h-0.1L44.59,35.17z M44.59,34.88L44.59,34.88c0.1,0,0.19,0,0.19-0.1
			c0,0,0-0.1-0.1-0.1h-0.1C44.59,34.78,44.59,34.88,44.59,34.88z"/>
		<g>
			<path class="st2" d="M14.84,39.52c-0.19,0.1-0.39,0.29-0.77,0.1c-0.29-0.1-0.58-0.39-0.77-0.68c-0.1-0.19-0.48-0.68-0.29-1.16
				c0.1-0.29,0.19-0.39,0.68-0.68c0.39-0.29,0.58-0.29,0.97,0c-0.1-0.29-0.1-0.48,0.39-0.87c0.29-0.19,0.87-0.58,1.55,0.48
				c0.19,0.29,0.29,0.58,0.29,0.87c0,0.48-0.29,0.68-0.39,0.77c-0.39,0.29-0.58,0.39-1.06,0.1c0.1,0.48,0,0.58-0.39,0.87
				L14.84,39.52z M14.36,37.87c-0.19,0.1-0.39,0.29-0.48,0.29c-0.1,0.1,0,0.19,0,0.29c0.19,0.29,0.29,0.19,0.77-0.1
				c0.29-0.19,0.48-0.29,0.29-0.58C14.74,37.68,14.55,37.78,14.36,37.87z M15.61,37.1c-0.29,0.19-0.39,0.29-0.19,0.48
				c0.1,0.1,0.1,0.19,0.19,0.19c0.1,0,0.19,0,0.48-0.19c0.19-0.1,0.29-0.19,0.1-0.48C16,36.81,15.8,36.91,15.61,37.1z"/>
			<path class="st2" d="M16.87,38.84c0.29-0.29,0.87-0.77,1.74,0.1c0.29,0.29,0.58,0.68,0.58,1.06c0,0.39-0.19,0.58-0.48,0.77
				l-1.16,1.16c-0.39,0.39-0.87,0.68-1.74-0.1c-0.58-0.58-0.87-1.06-0.19-1.74L16.87,38.84z M18.03,39.9c0.1-0.1,0.19-0.19,0-0.48
				c-0.19-0.29-0.39-0.1-0.48,0l-1.35,1.45c-0.1,0.19-0.19,0.29,0,0.48c0.19,0.19,0.39,0.1,0.48,0L18.03,39.9z"/>
			<path class="st2" d="M18.99,40.87c0.19-0.29,0.68-0.87,1.74-0.19c0.39,0.19,0.68,0.48,0.77,0.97c0.1,0.39-0.1,0.58-0.29,0.87
				l-0.97,1.35c-0.29,0.48-0.77,0.87-1.74,0.19c-0.68-0.48-0.97-0.97-0.48-1.64L18.99,40.87z M20.34,41.74c0-0.1,0.19-0.29-0.1-0.48
				c-0.29-0.19-0.39,0-0.48,0.1l-1.06,1.64c-0.1,0.19-0.19,0.29,0.1,0.48c0.29,0.19,0.39,0,0.48-0.1L20.34,41.74z"/>
			<path class="st2" d="M22.76,43.67l-0.29,0.58l-1.55-0.68l0.29-0.58L22.76,43.67z"/>
			<path class="st2" d="M25.18,45.89c-0.1,0.19-0.1,0.48-0.48,0.58c-0.29,0.1-0.68,0-0.97,0c-0.19-0.1-0.77-0.19-0.97-0.68
				c-0.1-0.19-0.1-0.39,0.1-0.97c0.1-0.48,0.19-0.58,0.77-0.68c-0.29-0.19-0.48-0.29-0.29-0.97c0.1-0.29,0.29-0.97,1.45-0.68
				c0.29,0.1,0.58,0.19,0.77,0.39c0.29,0.29,0.19,0.68,0.19,0.87c-0.1,0.48-0.19,0.77-0.77,0.77c0.39,0.29,0.39,0.48,0.29,0.87
				L25.18,45.89z M23.73,45.12c0,0.19-0.1,0.48-0.1,0.58s0.1,0.19,0.19,0.19c0.29,0.1,0.39-0.1,0.48-0.48
				c0.1-0.39,0.19-0.58-0.19-0.68C23.92,44.64,23.82,44.83,23.73,45.12z M24.21,43.57c-0.1,0.29-0.1,0.48,0.19,0.58
				c0.1,0,0.19,0,0.29,0s0.1-0.1,0.19-0.48c0.1-0.19,0.1-0.39-0.19-0.48C24.31,43.19,24.31,43.38,24.21,43.57z"/>
			<path class="st2" d="M26.24,44.06c0-0.29,0.1-0.68,0.48-0.87c0.19-0.1,0.48-0.19,0.87-0.1c0.58,0,0.87,0.19,0.97,0.39
				c0.29,0.29,0.19,0.48,0.19,0.87c0,0.68-0.1,0.68-0.77,1.16c-0.68,0.48-0.68,0.48-0.87,0.77l1.45,0.1l-0.1,0.77l-2.61-0.19
				c0.1-0.87,0.1-1.06,1.06-1.74c0.58-0.39,0.68-0.48,0.77-0.77v-0.29c0-0.1,0-0.39-0.29-0.39c-0.39,0-0.39,0.19-0.39,0.29v0.58
				l-0.87-0.1L26.24,44.06z"/>
			<path class="st2" d="M29.14,44.06c0-0.19,0-0.48,0.29-0.77c0.29-0.19,0.77-0.29,0.87-0.29c0.29,0,0.58,0,0.87,0.1
				c0.39,0.19,0.39,0.48,0.48,0.87c0.1,0.39,0,0.58-0.39,0.87c0.58,0.1,0.58,0.39,0.58,0.97c0.1,0.58,0.1,1.16-1.16,1.26
				c-1.16,0.1-1.35-0.29-1.35-0.77v-0.48l0.97-0.1v0.39c0,0.1,0,0.39,0.39,0.29c0.39,0,0.29-0.29,0.29-0.58
				c-0.1-0.48-0.1-0.58-0.39-0.58H30.2l-0.19-0.58c0.68-0.1,0.77-0.1,0.77-0.48s-0.1-0.58-0.39-0.58c-0.29,0-0.29,0.29-0.29,0.39
				v0.29l-0.87,0.19L29.14,44.06z"/>
			<path class="st2" d="M33.77,44.06l0.19,0.68l-1.64,0.48l-0.19-0.77L33.77,44.06z"/>
			<path class="st2" d="M36.96,43.96c0.19,0.29,0.19,0.58,0.1,0.87c-0.1,0.19-0.39,0.48-0.77,0.68c-0.58,0.29-0.97,0.19-1.06,0.19
				c-0.39-0.1-0.48-0.29-0.68-0.77l0.87-0.39l0.1,0.29c0,0.1,0.1,0.29,0.48,0.19c0.29-0.1,0.29-0.29,0.19-0.48l-0.29-0.77
				c-0.1,0.19-0.19,0.29-0.48,0.48c-0.29,0.19-0.68,0.19-0.87,0c-0.19-0.1-0.39-0.39-0.48-0.68c-0.19-0.48-0.29-0.77-0.19-1.06
				c0-0.1,0.19-0.39,0.77-0.68c1.16-0.48,1.45,0.19,1.64,0.48L36.96,43.96z M34.84,42.99c0,0.1,0.19,0.48,0.29,0.48
				c0.1,0.1,0.29,0.1,0.39,0.1c0.1,0,0.19-0.1,0.19-0.19c0-0.1,0-0.19-0.19-0.48c-0.19-0.39-0.29-0.58-0.58-0.48
				C34.64,42.61,34.74,42.8,34.84,42.99z"/>
			<path class="st2" d="M36.67,41.54c0.29-0.29,0.39-0.48,0.29-0.87l0.68-0.48l2.32,3.19l-0.77,0.58l-1.64-2.32
				c-0.19,0.29-0.19,0.39-0.39,0.58L36.67,41.54z"/>
			<path class="st2" d="M38.99,40.1c-0.1-0.1-0.39-0.29-0.29-0.68c0.1-0.39,0.39-0.68,0.48-0.77c0.19-0.19,0.48-0.39,0.77-0.48
				c0.39-0.1,0.58,0.1,0.97,0.39c0.29,0.29,0.39,0.39,0.29,0.97c0.48-0.29,0.68-0.1,1.06,0.29c0.48,0.39,0.87,0.77,0,1.74
				c-0.77,0.87-1.16,0.68-1.55,0.29l-0.29-0.29l0.68-0.68l0.29,0.29c0.1,0.1,0.29,0.29,0.48,0c0.19-0.29,0.1-0.39-0.1-0.58
				c-0.39-0.39-0.48-0.39-0.68-0.19l-0.29,0.29l-0.48-0.48c0.48-0.48,0.48-0.58,0.29-0.77c-0.29-0.29-0.48-0.39-0.68-0.19
				c-0.19,0.19-0.1,0.39,0,0.48l0.19,0.19l-0.68,0.68L38.99,40.1z"/>
			<path class="st2" d="M40.92,37.97c-0.19-0.1-0.39-0.29-0.39-0.68s0.19-0.77,0.29-0.87c0.19-0.29,0.39-0.48,0.68-0.68
				c0.39-0.19,0.58,0,0.97,0.19c0.39,0.19,0.48,0.39,0.39,0.87c0.39-0.39,0.68-0.19,1.16,0.1c0.48,0.29,0.97,0.58,0.29,1.74
				c-0.68,0.97-1.06,0.87-1.45,0.58l-0.39-0.29l0.48-0.77l0.39,0.19c0.1,0.1,0.29,0.19,0.48-0.1c0.19-0.29,0-0.39-0.29-0.58
				c-0.39-0.29-0.48-0.29-0.77,0l-0.19,0.39l-0.58-0.39c0.39-0.58,0.39-0.68,0.1-0.87c-0.39-0.19-0.48-0.29-0.68,0
				c-0.19,0.29,0,0.39,0.1,0.48l0.29,0.19l-0.48,0.77L40.92,37.97z"/>
		</g>
		<path class="st2" d="M25.66,24.16h4.83c2.13,0,2.8,0.58,2.8,1.93v1.93c0,1.84-0.97,2.13-2.61,2.13h-2.03v3.48h-2.9v-9.47H25.66z
			 M29.52,28.5c1.06,0,1.06-0.19,1.06-1.45c0-0.87,0-1.06-0.39-1.26c-0.19-0.1-1.35-0.1-1.64-0.1v2.8H29.52z"/>
		<path class="st1" d="M20.63,27.15h-2.9v-0.58c0-0.48-0.1-0.87-0.97-0.87c-0.77,0-0.87,0.39-0.87,0.87v4.64
			c0,0.58,0.1,0.97,0.97,0.97c0.97,0,0.97-0.48,0.97-0.97v-1.16h2.9v0.87c0,1.74-0.48,2.8-3.96,2.8c-3.19,0-3.77-0.97-3.77-2.42
			v-4.64c0-0.68,0.1-1.26,0.58-1.74c0.87-0.87,2.42-0.87,3.28-0.87c1.06,0,2.13,0.1,2.9,0.58c0.87,0.58,0.97,1.35,0.97,1.93v0.58
			H20.63z"/>
		<path class="st3" d="M38.89,29.08l0.97,0.58v-3.38c0-0.39,0.29-0.68,0.68-0.68h0.58c0.39,0,0.68,0.29,0.68,0.68v0.77h2.61
			c0.1-2.03-0.19-2.99-3.38-2.99c-2.99,0-3.77,0.77-3.77,2.7C37.25,28.12,37.73,28.31,38.89,29.08z"/>
		<path class="st3" d="M43.14,28.79l-1.35-0.68v3.28c0,0.39-0.29,0.68-0.68,0.68h-0.58c-0.39,0-0.68-0.29-0.68-0.68v-1.35h-2.8
			c0,1.16,0,2.51,0.77,2.99c0.68,0.39,1.64,0.58,2.99,0.58c1.74,0,2.51-0.29,2.99-0.68s0.77-0.87,0.77-1.93
			C44.69,29.66,44.21,29.37,43.14,28.79z"/>
		<g>
			<path class="st1" d="M12.71,19.71c0.48,0.1,0.77,0.19,0.87,0.29l0,0c-0.1-0.1-0.29-0.29-0.68-0.68l0.1-0.19
				c0.58,0.19,0.77,0.19,0.87,0.29l0,0c-0.1-0.1-0.19-0.19-0.68-0.68l0.1-0.19l0.77,0.87l-0.1,0.19c-0.39-0.1-0.77-0.19-0.87-0.29
				l0,0c0.1,0.1,0.29,0.29,0.58,0.68l-0.1,0.19l-1.06-0.29L12.71,19.71z"/>
			<path class="st1" d="M13.58,18.36c0.48,0.19,0.77,0.29,0.87,0.39l0,0c-0.1-0.1-0.19-0.29-0.58-0.77l0.1-0.1
				c0.58,0.19,0.77,0.29,0.87,0.29l0,0c-0.1-0.1-0.19-0.19-0.58-0.68l0.1-0.19l0.68,0.87l-0.1,0.19c-0.39-0.1-0.77-0.29-0.87-0.29
				l0,0c0.1,0.1,0.29,0.39,0.58,0.68l-0.1,0.19l-1.06-0.39L13.58,18.36z"/>
			<path class="st1" d="M14.65,17.01c0.48,0.19,0.77,0.39,0.87,0.48l0,0c-0.1-0.1-0.19-0.29-0.48-0.77l0.1-0.1
				c0.58,0.29,0.77,0.39,0.87,0.39l0,0c-0.1-0.1-0.19-0.19-0.48-0.77l0.1-0.1l0.58,0.97l-0.1,0.19c-0.39-0.19-0.68-0.39-0.77-0.39
				l0,0c0.1,0.1,0.29,0.39,0.48,0.77l-0.29-0.1l-1.06-0.48L14.65,17.01z"/>
			<path class="st1" d="M16.38,16.72l-0.19-0.19l0.1-0.1l0.19,0.19L16.38,16.72z"/>
			<path class="st1" d="M17.25,15.27c0.1,0.19,0.1,0.48-0.1,0.77c-0.29,0.29-0.68,0.19-0.97-0.1c-0.29-0.29-0.39-0.68,0-1.06
				c0.29-0.19,0.58-0.19,0.77-0.1l-0.29,0.19c-0.1-0.1-0.29-0.1-0.48,0.1c-0.19,0.19-0.1,0.58,0.1,0.77s0.48,0.39,0.77,0.1
				c0.19-0.19,0.19-0.29,0.1-0.48L17.25,15.27z"/>
			<path class="st1" d="M18.12,14.4c0.19,0.19,0.19,0.58,0,0.77s-0.58,0.1-0.77-0.1s-0.19-0.58,0-0.77
				C17.54,14.11,17.83,14.21,18.12,14.4z M17.45,14.98c0.1,0.19,0.39,0.29,0.48,0.1c0.1-0.19,0.1-0.29,0-0.48
				c-0.1-0.19-0.39-0.29-0.48-0.1C17.25,14.59,17.25,14.79,17.45,14.98z"/>
			<path class="st1" d="M18.12,14.11c0-0.1-0.1-0.19-0.19-0.19l0.19-0.1l0.1,0.1c0-0.1,0-0.19,0.19-0.39c0.19-0.1,0.39-0.1,0.48,0.1
				l0.39,0.58l-0.19,0.1l-0.39-0.58c-0.1-0.1-0.19-0.19-0.39-0.1c-0.19,0.1-0.1,0.29,0,0.48l0.29,0.48v0.1L18.12,14.11z"/>
			<path class="st1" d="M20.34,13.53c0.19,0.29,0.19,0.58-0.19,0.68c-0.29,0.19-0.48,0.1-0.58-0.1l0.19-0.1c0.1,0.1,0.19,0.1,0.29,0
				c0.19-0.1,0.19-0.29,0.1-0.48v-0.1c0,0.1,0,0.19-0.19,0.39c-0.19,0.1-0.48,0-0.68-0.19c-0.19-0.29-0.1-0.58,0.1-0.77
				c0.19-0.1,0.29-0.1,0.39,0l-0.1-0.1l0.19-0.1c0,0.1,0.1,0.19,0.19,0.29L20.34,13.53z M19.38,13.53c0.1,0.19,0.29,0.29,0.48,0.19
				s0.19-0.29,0.1-0.48c-0.1-0.19-0.29-0.29-0.48-0.19C19.28,13.14,19.28,13.34,19.38,13.53z"/>
			<path class="st1" d="M20.63,13.53l-0.77-1.35l0.19-0.1l0.77,1.35L20.63,13.53z"/>
			<path class="st1" d="M21.7,12.37c0.1,0.29,0.1,0.58-0.19,0.77c-0.29,0.1-0.58,0-0.68-0.29c-0.1-0.29-0.1-0.58,0.19-0.77
				C21.21,11.98,21.5,12.08,21.7,12.37z M20.92,12.76c0.1,0.19,0.29,0.29,0.48,0.19s0.19-0.29,0.1-0.48
				c-0.1-0.19-0.29-0.29-0.48-0.19C20.83,12.27,20.83,12.47,20.92,12.76z"/>
			<path class="st1" d="M21.79,11.98c0-0.1-0.1-0.19-0.1-0.29l0.19-0.1c0,0,0,0.1,0.1,0.19c0-0.1,0.1-0.19,0.19-0.29
				c0.1-0.1,0.29,0,0.39,0.1c0-0.1,0.1-0.19,0.29-0.29c0.19-0.1,0.39,0,0.48,0.29l0.19,0.68l-0.19,0.1l-0.19-0.68
				c0-0.1-0.1-0.19-0.29-0.19c-0.19,0.1-0.19,0.19-0.1,0.39l0.19,0.58l-0.19,0.1l-0.29-0.68c0-0.1-0.1-0.19-0.29-0.19
				c-0.19,0.1-0.19,0.19-0.1,0.39l0.19,0.58l-0.19,0.1L21.79,11.98z"/>
			<path class="st1" d="M23.73,11.69c0.1,0.19,0.19,0.29,0.39,0.29c0.19-0.1,0.19-0.1,0.19-0.19l0.19-0.1c0,0.1-0.1,0.39-0.39,0.39
				c-0.29,0.1-0.48-0.1-0.58-0.39c-0.1-0.29,0-0.58,0.29-0.68c0.39-0.1,0.48,0.1,0.58,0.39v0.1L23.73,11.69z M24.21,11.4
				c0-0.19-0.19-0.29-0.39-0.19c-0.19,0.1-0.19,0.19-0.19,0.39L24.21,11.4z"/>
			<path class="st1" d="M24.69,11.11c0-0.1,0-0.19-0.1-0.29h0.19c0,0,0,0.1,0,0.19c0-0.19,0.1-0.29,0.29-0.29v0.19
				c-0.19,0.1-0.29,0.19-0.29,0.48l0.1,0.48h-0.19V11.11z"/>
			<path class="st1" d="M26.24,11.4c0,0.1,0,0.19,0,0.19h-0.19v-0.1c0,0.1-0.1,0.19-0.29,0.19c-0.29,0-0.39-0.1-0.39-0.29
				c0-0.19,0.1-0.39,0.48-0.39c0.1,0,0.1,0,0.19,0v-0.1c0-0.1-0.1-0.19-0.29-0.19c-0.19,0-0.19,0.1-0.19,0.19h-0.19
				c0-0.1,0-0.39,0.39-0.39c0.29,0,0.39,0,0.48,0.29V11.4z M26.04,11.11c0,0-0.1,0-0.19,0c-0.19,0-0.29,0.1-0.29,0.29
				c0,0.1,0.1,0.19,0.19,0.19C26.04,11.5,26.04,11.4,26.04,11.11L26.04,11.11z"/>
			<path class="st1" d="M26.33,10.53h0.19v-0.29h0.19v0.29h0.19v0.19h-0.19l0.1,0.58c0,0.1,0,0.19,0.1,0.1h0.1v0.1c0,0-0.1,0-0.19,0
				c-0.19,0-0.29-0.1-0.29-0.19l-0.1-0.68h-0.19L26.33,10.53z"/>
			<path class="st1" d="M27.3,11.02c0,0.19,0.1,0.39,0.29,0.39c0.19,0,0.19-0.1,0.29-0.19h0.19c0,0.1-0.1,0.29-0.48,0.39
				c-0.39,0-0.48-0.19-0.48-0.48s0.1-0.58,0.48-0.58s0.48,0.29,0.48,0.48v0.1L27.3,11.02z M27.88,10.82c0-0.19-0.1-0.29-0.29-0.29
				c-0.19,0-0.29,0.1-0.29,0.39L27.88,10.82z"/>
			<path class="st1" d="M28.36,9.95h0.58c0.29,0,0.48,0.19,0.48,0.39c0,0.29-0.19,0.48-0.48,0.39h-0.39v0.58h-0.19V9.95z
				 M28.56,10.73h0.39c0.19,0,0.29-0.1,0.29-0.29s-0.1-0.29-0.29-0.29h-0.39V10.73z"/>
			<path class="st1" d="M29.62,10.73c0-0.19,0-0.19,0-0.29h0.19c0,0,0,0.1,0,0.19c0.1-0.1,0.19-0.19,0.39-0.19v0.19
				c-0.19,0-0.39,0.1-0.39,0.39v0.48h-0.19V10.73z"/>
			<path class="st1" d="M30.39,10.44h0.19l-0.1,1.06H30.3L30.39,10.44z M30.49,9.95h0.19v0.19h-0.19V9.95z"/>
			<path class="st1" d="M30.87,10.82c0-0.1,0-0.19,0-0.29h0.19c0,0,0,0.1,0,0.19c0.1-0.1,0.19-0.19,0.39-0.19
				c0.19,0,0.39,0.19,0.29,0.48l-0.1,0.68h-0.19l0.1-0.68c0-0.19,0-0.29-0.19-0.29s-0.29,0.1-0.39,0.29l-0.1,0.58h-0.19L30.87,10.82
				z"/>
			<path class="st1" d="M32.03,10.73h0.19l0.1-0.29h0.19l-0.1,0.29l0.19,0.1v0.1l-0.19-0.1l-0.1,0.58c0,0.1,0,0.19,0.1,0.19h0.1v0.1
				c0,0-0.1,0-0.19,0c-0.19,0-0.19-0.1-0.19-0.29l0.1-0.68L32.03,10.73L32.03,10.73z"/>
			<path class="st1" d="M32.81,10.82H33l-0.29,1.06h-0.19L32.81,10.82z M33,10.34h0.19l-0.1,0.29H32.9L33,10.34z"/>
			<path class="st1" d="M33.29,11.21c0-0.1,0-0.19,0.1-0.29l0.19,0.1c0,0,0,0.1,0,0.19c0.1-0.1,0.19-0.19,0.39-0.1
				c0.19,0.1,0.29,0.19,0.19,0.48l-0.19,0.68l-0.19-0.1l0.19-0.68c0-0.19,0-0.29-0.19-0.29c-0.19-0.1-0.29,0.1-0.39,0.29l-0.19,0.58
				l-0.1-0.1L33.29,11.21z"/>
			<path class="st1" d="M35.03,12.56c-0.1,0.29-0.29,0.48-0.68,0.39c-0.29-0.1-0.29-0.29-0.29-0.48l0.19,0.1
				c0,0.1,0.1,0.19,0.19,0.29c0.19,0.1,0.29,0,0.39-0.29v-0.1c-0.1,0.1-0.19,0.1-0.39,0.1c-0.29-0.1-0.39-0.39-0.19-0.68
				c0.1-0.29,0.39-0.48,0.68-0.39c0.19,0.1,0.19,0.19,0.19,0.29c0-0.1,0-0.1,0.1-0.1l0.19,0.1c0,0.1-0.1,0.19-0.1,0.29L35.03,12.56z
				 M34.55,11.89c-0.1,0.19,0,0.39,0.19,0.48c0.19,0.1,0.29-0.1,0.39-0.29c0.1-0.19,0.1-0.39-0.19-0.48
				C34.74,11.5,34.55,11.69,34.55,11.89z"/>
			<path class="st1" d="M35.61,12.47c0,0.19,0,0.29,0.19,0.39c0.19,0.1,0.29,0,0.39-0.1c0.1-0.1,0-0.19-0.19-0.39
				c-0.29-0.19-0.39-0.39-0.29-0.58c0.1-0.19,0.29-0.29,0.58-0.19s0.39,0.39,0.29,0.58l-0.19-0.1c0-0.1,0-0.29-0.19-0.39
				c-0.19-0.1-0.29,0-0.39,0.1s0,0.19,0.19,0.39c0.39,0.29,0.39,0.48,0.29,0.58c-0.1,0.19-0.29,0.29-0.68,0.19
				c-0.29-0.19-0.39-0.39-0.29-0.58L35.61,12.47z"/>
			<path class="st1" d="M36.77,12.85c-0.1,0.19-0.1,0.39,0.1,0.48c0.19,0.1,0.19,0,0.29,0l0.19,0.1c-0.1,0.1-0.29,0.19-0.58,0.1
				c-0.29-0.19-0.29-0.48-0.19-0.68c0.19-0.29,0.39-0.39,0.68-0.29c0.29,0.19,0.29,0.48,0.19,0.68v0.1L36.77,12.85z M37.35,13.05
				c0.1-0.19,0.1-0.29-0.1-0.39c-0.19-0.1-0.29,0-0.39,0.1L37.35,13.05z"/>
			<path class="st1" d="M37.83,13.14c0.1-0.1,0.1-0.19,0.19-0.29l0.19,0.1c0,0-0.1,0.1-0.1,0.19c0.1-0.1,0.29-0.1,0.48,0l-0.1,0.19
				c-0.19-0.1-0.39-0.1-0.48,0.19l-0.29,0.48l-0.19-0.1L37.83,13.14z"/>
			<path class="st1" d="M38.8,13.34c-0.1,0.48-0.19,0.77-0.29,0.87l0,0c0.1-0.1,0.39-0.29,0.77-0.58l0.19,0.1l-0.97,0.68l-0.19-0.1
				l0.29-1.06L38.8,13.34z"/>
			<path class="st1" d="M39.57,13.92l0.19,0.1l-0.68,0.87l-0.19-0.1L39.57,13.92z M39.86,13.53l0.19,0.1l-0.19,0.19l-0.1-0.1
				L39.86,13.53z"/>
			<path class="st1" d="M40.25,15.36c-0.19,0.1-0.39,0.19-0.58,0s-0.19-0.48,0-0.77c0.19-0.19,0.48-0.29,0.77-0.1
				c0.19,0.19,0.19,0.39,0.1,0.58l-0.19-0.1c0-0.1,0.1-0.19-0.1-0.29c-0.19-0.1-0.29-0.1-0.48,0.1c-0.19,0.19-0.19,0.39,0,0.48
				c0.1,0.1,0.19,0.1,0.29,0L40.25,15.36z"/>
			<path class="st1" d="M40.63,15.46c-0.19,0.19-0.19,0.39,0,0.48c0.1,0.1,0.19,0.1,0.29,0.1l0.1,0.1c-0.1,0.1-0.29,0.1-0.58-0.1
				c-0.29-0.19-0.19-0.58,0-0.77c0.19-0.19,0.48-0.29,0.77-0.1c0.29,0.19,0.19,0.48,0,0.68c0,0,0,0.1-0.1,0.1L40.63,15.46z
				 M41.11,15.75c0.1-0.1,0.19-0.29,0-0.39c-0.1-0.1-0.29-0.1-0.48,0L41.11,15.75z"/>
			<path class="st1" d="M41.31,16.43c-0.1,0.1-0.1,0.19,0,0.29c0.1,0.1,0.19,0.1,0.29,0c0.1-0.1,0.1-0.1,0-0.29
				c-0.19-0.29-0.1-0.39,0-0.48c0.1-0.1,0.29-0.1,0.48,0.1c0.19,0.19,0.19,0.39,0.1,0.48l-0.1-0.1c0-0.1,0.1-0.19,0-0.29
				c-0.1-0.1-0.19-0.1-0.19,0c-0.1,0.1-0.1,0.1,0,0.29c0.19,0.29,0.1,0.39,0,0.48c-0.1,0.1-0.29,0.1-0.48-0.1
				c-0.19-0.19-0.19-0.39-0.1-0.58V16.43z"/>
			<path class="st1" d="M41.6,17.3l0.19-0.19l0.1,0.1l-0.1,0.19L41.6,17.3z"/>
			<path class="st1" d="M42.76,18.07c-0.19,0.1-0.39,0.1-0.58-0.1s-0.1-0.48,0.1-0.77c0.19-0.19,0.58-0.19,0.77,0s0.1,0.48,0,0.58
				l-0.1-0.1c0.1-0.1,0.1-0.19,0-0.29c-0.1-0.1-0.29-0.1-0.48,0c-0.19,0.19-0.29,0.39-0.1,0.48c0.1,0.1,0.19,0.1,0.29,0.1
				L42.76,18.07z"/>
			<path class="st1" d="M43.53,18.94c-0.29,0.19-0.58,0.19-0.77-0.1c-0.19-0.29-0.1-0.58,0.19-0.77c0.29-0.19,0.58-0.19,0.77,0.1
				C43.92,18.46,43.82,18.65,43.53,18.94z M43.14,18.26c-0.19,0.1-0.29,0.29-0.19,0.48s0.29,0.19,0.48,0
				c0.19-0.1,0.29-0.29,0.19-0.48C43.53,18.07,43.34,18.07,43.14,18.26z"/>
			<path class="st1" d="M43.92,18.94c0.1,0,0.19-0.1,0.19-0.1l0.1,0.19l-0.1,0.1c0.1,0,0.19,0,0.29,0.19c0.1,0.1,0.1,0.29,0,0.39
				c0.1,0,0.29,0,0.29,0.19c0.1,0.19,0.1,0.39-0.19,0.48l-0.58,0.39v-0.29l0.58-0.39c0.1-0.1,0.19-0.19,0.1-0.29
				c-0.1-0.19-0.19-0.19-0.39,0l-0.48,0.29l-0.1-0.19l0.58-0.39c0.1-0.1,0.19-0.19,0.1-0.29c-0.1-0.1-0.29-0.19-0.39,0l-0.58,0.29
				l-0.1-0.19L43.92,18.94z"/>
		</g>
		<g>
			<g>
				<path class="st4" d="M8.37,26.86l0.1-0.87h0.19l-0.1,0.58h0.29l0.1-0.58h0.19l-0.1,0.58h0.48v0.29H8.37z"/>
				<path class="st4" d="M8.66,24.64l0.1-0.1h0.1h0.1c0.1,0,0.1,0,0.1,0.1c0.1,0,0.1,0.1,0.1,0.19l0.1-0.1c0,0,0.1,0,0.19,0h0.1
					c0.1,0,0.1,0,0.1,0h0.1l0,0v0.29h-0.1h-0.1h-0.1c-0.1,0-0.1,0-0.19,0s-0.1,0.1-0.1,0.1l0.1,0.19l0.48,0.1l-0.1,0.19l-1.16-0.19
					l0.1-0.58C8.66,24.74,8.66,24.74,8.66,24.64z M8.75,25.22l0.29,0.1l0.1-0.29c0-0.1,0-0.1,0-0.1l-0.1-0.1c-0.1,0-0.1,0-0.19,0
					v0.1L8.75,25.22z"/>
				<path class="st4" d="M10.1,23.19c0.1,0.1,0.1,0.29,0,0.39c-0.1,0.19-0.1,0.29-0.19,0.39c-0.1,0.1-0.29,0.1-0.48,0.1
					c-0.19-0.1-0.39-0.19-0.39-0.29c-0.1-0.19-0.1-0.29-0.1-0.48c0.1-0.19,0.1-0.29,0.19-0.39c0.1-0.1,0.29-0.1,0.48-0.1
					C9.91,22.9,10.01,23,10.1,23.19z M9.91,23.29c-0.1-0.1-0.1-0.1-0.29-0.19c-0.1,0-0.19,0-0.29,0s-0.1,0.1-0.19,0.19
					c0,0.1,0,0.19,0,0.29c0.1,0.1,0.1,0.1,0.29,0.19c0.1,0,0.19,0,0.29,0s0.1-0.1,0.19-0.19C10.01,23.38,9.91,23.38,9.91,23.29z"/>
				<path class="st4" d="M9.62,21.35l0.1-0.39l1.06,0.39l-0.1,0.19l-0.77-0.29h-0.1h-0.1l0.87,0.58l-0.1,0.19l-0.97-0.1h0.1h0.1
					l0.77,0.29l-0.1,0.19l-1.06-0.39l0.1-0.39l0.87,0.1L9.62,21.35z"/>
				<path class="st4" d="M11.17,19.81c0.1,0,0.1,0,0.1,0c0.1,0,0.1-0.1,0.19-0.19c0-0.1,0.1-0.1,0.1-0.1c0-0.1,0-0.1-0.1-0.19h-0.1
					l-0.1,0.1l-0.1,0.1c-0.1,0.1-0.19,0.19-0.19,0.19c-0.1,0-0.19,0-0.29,0s-0.1-0.1-0.19-0.19c0-0.1,0-0.19,0.1-0.39
					c0.1-0.1,0.1-0.19,0.19-0.29c0.1,0,0.19,0,0.29,0l-0.1,0.19c-0.1,0-0.1,0-0.19,0l-0.1,0.1c0,0.1-0.1,0.1,0,0.19
					c0,0,0,0.1,0.1,0.1h0.1l0.1-0.1l0.1-0.19c0.1-0.1,0.1-0.1,0.19-0.1c0.1,0,0.19,0,0.29,0s0.1,0.1,0.19,0.19
					c0,0.1,0,0.19-0.1,0.39c-0.1,0.1-0.19,0.19-0.29,0.29c-0.1,0.1-0.19,0-0.29,0L11.17,19.81z"/>
				<path class="st4" d="M11.17,18.17l0.1-0.19l0.58,0.39c0.1,0,0.1,0.1,0.19,0.1s0.1,0,0.19-0.1c0.1-0.1,0.1-0.19,0-0.19l-0.1-0.1
					l-0.58-0.48l0.1-0.19l0.58,0.39c0.1,0.1,0.19,0.1,0.19,0.19c0.1,0.1,0,0.29-0.1,0.48s-0.19,0.29-0.39,0.29
					c-0.1,0-0.19,0-0.29-0.1L11.17,18.17z"/>
				<path class="st4" d="M13.1,16.52c0,0.1,0,0.19-0.1,0.29l-0.19,0.19l0.29,0.29l-0.19,0.19l-0.87-0.68l0.29-0.39
					c0.1-0.1,0.19-0.19,0.19-0.19c0.1,0,0.19,0,0.29,0.1C13,16.33,13.1,16.43,13.1,16.52z M12.62,16.43c0,0-0.1,0-0.1,0.1l-0.1,0.19
					l0.29,0.19l0.1-0.19l0.1-0.1c0,0,0-0.1-0.1-0.1S12.71,16.43,12.62,16.43z"/>
				<path class="st4" d="M13.78,14.98l-0.39,0.48l0.19,0.19l0.39-0.48l0.1,0.1l-0.39,0.48l0.19,0.19l0.48-0.48l0.19,0.1l-0.58,0.68
					l-0.87-0.77l0.58-0.68L13.78,14.98z"/>
				<path class="st4" d="M14.65,13.82c0.1,0,0.1,0,0.1,0h0.1c0,0,0.1,0,0.1,0.1l0.1,0.1c0,0.1,0,0.1,0,0.19c0.1,0,0.1,0,0.1,0
					c0.1,0,0.1,0.1,0.1,0.1l0.1,0.1l0.1,0.1h0.1l0,0l-0.1,0.19c0,0,0,0-0.1,0c0,0-0.1,0-0.1-0.1l-0.1-0.1c-0.1-0.1-0.1-0.1-0.1-0.1
					s-0.1,0-0.1,0.1l-0.19,0.19l0.29,0.29l-0.19,0.19l-0.77-0.87l0.39-0.39C14.65,13.92,14.65,13.82,14.65,13.82z M14.45,14.3
					l0.19,0.19l0.19-0.19l0.1-0.1c0-0.1,0-0.1,0-0.1c-0.1-0.1-0.1-0.1-0.1-0.1s-0.1,0-0.1,0.1L14.45,14.3z"/>
				<path class="st4" d="M16.29,13.92l-0.19,0.19l-0.77-0.87l0.19-0.19L16.29,13.92z"/>
				<path class="st4" d="M17.45,12.95c0,0.1-0.1,0.19-0.19,0.39c-0.1,0.19-0.29,0.1-0.39,0.1c-0.19,0-0.29-0.1-0.39-0.29
					s-0.19-0.29-0.1-0.48c0-0.1,0.1-0.19,0.19-0.39s0.29-0.1,0.39-0.1c0.19,0,0.29,0.1,0.48,0.29
					C17.35,12.66,17.45,12.76,17.45,12.95z M17.16,12.85c0-0.1,0-0.19-0.1-0.29c-0.1-0.1-0.19-0.19-0.29-0.19
					c-0.1,0-0.19,0-0.29,0.1c-0.1,0.1-0.1,0.1-0.1,0.19c0,0.1,0,0.19,0.1,0.29c0.1,0.1,0.19,0.19,0.29,0.19c0.1,0,0.19,0,0.29-0.1
					C17.16,13.05,17.16,12.95,17.16,12.85z"/>
				<path class="st4" d="M18.12,11.21h0.1c0,0,0.1,0,0.1,0.1l0.1,0.1c0,0.1,0,0.1,0,0.19s0,0.1-0.1,0.19c0.1,0,0.1,0,0.1,0l0.1,0.1
					v0.1c0,0.1,0,0.1,0.1,0.1c0,0,0,0,0.1,0l0,0l-0.19,0.1l0,0c0,0,0-0.1-0.1-0.1l-0.1-0.1c0-0.1-0.1-0.1-0.1-0.1s-0.1,0-0.1,0.1
					l-0.19,0.1l0.19,0.39l-0.19,0.1l-0.58-0.97l0.48-0.29C18.03,11.31,18.12,11.21,18.12,11.21z M17.74,11.69l0.19,0.29l0.19-0.1
					l0.1-0.1c0-0.1,0-0.1,0-0.1c0-0.1-0.1-0.1-0.1-0.1s-0.1,0-0.1,0.1L17.74,11.69z"/>
				<path class="st4" d="M20.44,9.95l0.1,0.19l-0.29,0.19l0.39,0.87l-0.19,0.1l-0.39-0.87l-0.29,0.19l-0.19-0.19L20.44,9.95z"/>
				<path class="st4" d="M22.28,10.44c-0.1,0.1-0.19,0.19-0.29,0.29c-0.19,0.1-0.29,0.1-0.39,0c-0.19-0.1-0.29-0.19-0.39-0.39
					c-0.1-0.19-0.1-0.39,0-0.48c0.1-0.1,0.19-0.19,0.29-0.29c0.19-0.1,0.29-0.1,0.39,0c0.19,0.1,0.29,0.19,0.39,0.39
					C22.28,10.05,22.28,10.24,22.28,10.44z M21.99,10.24c0-0.1,0-0.19,0-0.29s-0.1-0.19-0.19-0.29c-0.1-0.1-0.19-0.1-0.29,0
					c-0.1,0.1-0.1,0.19-0.19,0.19c0,0.1,0,0.19,0,0.29s0.1,0.19,0.19,0.19c0.1,0.1,0.19,0.1,0.29,0
					C21.89,10.44,21.99,10.34,21.99,10.24z"/>
				<path class="st4" d="M23.82,9.66c0,0.1,0,0.1,0.1,0.1c0,0,0.1,0,0.19,0c0.1,0,0.1,0,0.1-0.1c0.19,0,0.19,0,0.19-0.1
					c0,0,0-0.1-0.1-0.1c0,0-0.1,0-0.19,0h-0.1c-0.1,0-0.19,0-0.29,0c-0.1,0-0.19-0.1-0.19-0.19c0-0.1,0-0.19,0.1-0.29
					c0.1-0.1,0.19-0.19,0.29-0.19s0.19,0,0.39,0c0.1,0,0.1,0.1,0.19,0.19l-0.19,0.1c0-0.1-0.1-0.1-0.1-0.1s-0.1,0-0.19,0
					c-0.1,0-0.1,0-0.1,0.1v0.1c0,0,0,0.1,0.1,0.1c0,0,0.1,0,0.19,0h0.19c0.1,0,0.19,0,0.19,0c0.1,0,0.1,0.1,0.19,0.19
					c0,0.1,0,0.19-0.1,0.29c-0.19,0.1-0.29,0.19-0.48,0.19s-0.29,0-0.39,0c-0.1,0-0.19-0.1-0.19-0.29H23.82z"/>
				<path class="st4" d="M24.98,8.6h0.29l0.1,0.68c0,0.1,0,0.1,0.1,0.19c0,0.1,0.1,0.1,0.19,0.1c0.1,0,0.19-0.1,0.19-0.1
					s0-0.1,0-0.19l-0.1-0.68h0.29l0.1,0.68c0,0.1,0,0.19,0,0.29c-0.1,0.1-0.19,0.19-0.39,0.29c-0.19,0-0.39,0-0.48-0.1
					c0-0.1-0.1-0.19-0.1-0.29L24.98,8.6z"/>
				<path class="st4" d="M27.59,8.41c0,0.1,0.1,0.1,0.1,0.19c0,0.1,0,0.1,0,0.19c0,0,0,0.1-0.1,0.1c0.1,0,0.1,0.1,0.1,0.1
					s0.1,0.1,0.1,0.19c0,0.1,0,0.1,0,0.19c0,0,0,0.1-0.1,0.1l-0.1,0.1c0,0-0.1,0-0.19,0h-0.58l-0.1-1.16l0.58-0.1
					C27.4,8.31,27.49,8.31,27.59,8.41z M26.91,8.51V8.8h0.29h0.1V8.7c0-0.1,0-0.1-0.1-0.1h-0.1L26.91,8.51z M27.01,8.99v0.29h0.29
					h0.1l0.1-0.1c0-0.1,0-0.1-0.1-0.1h-0.1L27.01,8.99z"/>
				<path class="st4" d="M28.36,8.22h0.29v0.97h0.58v0.19h-0.87V8.22z"/>
				<path class="st4" d="M30.01,9.47h-0.29l0.1-1.16h0.29L30.01,9.47z"/>
				<path class="st4" d="M31.55,8.41l0.39,0.1l-0.1,1.16h-0.19l0.1-0.77V8.8V8.7l-0.39,0.87h-0.19l-0.1-0.97v0.1v0.1l-0.1,0.77
					h-0.29l0.1-1.16l0.39,0.1v0.77L31.55,8.41z"/>
				<path class="st4" d="M33.39,8.99l-0.58-0.1v0.19l0.58,0.1v0.19l-0.58-0.1l-0.1,0.29l0.68,0.1v0.19l-0.87-0.19l0.19-1.16
					l0.87,0.19L33.39,8.99z"/>
				<path class="st4" d="M35.03,9.38c0.1-0.1,0.29-0.1,0.39,0c0.19,0.1,0.29,0.19,0.39,0.29c0,0.1,0,0.19,0,0.19h-0.29
					c0-0.1,0-0.1,0-0.1c0-0.1-0.1-0.1-0.19-0.1c-0.1,0-0.19,0-0.19,0s-0.1,0.1-0.19,0.19c0,0.1,0,0.19,0,0.29s0.1,0.1,0.19,0.19
					c0.1,0,0.19,0,0.19,0l0.1-0.1l0.19,0.1c-0.1,0.1-0.19,0.19-0.29,0.19c-0.1,0.1-0.19,0.1-0.39,0c-0.19-0.1-0.29-0.19-0.29-0.29
					c-0.1-0.1-0.1-0.29,0-0.48S34.84,9.47,35.03,9.38z"/>
				<path class="st4" d="M36.48,9.76l0.29,0.1l-0.29,0.68c0,0.1,0,0.1,0,0.19c0,0.1,0,0.1,0.19,0.19c0.1,0,0.19,0,0.19,0l0.1-0.1
					l0.29-0.68l0.19,0.1l-0.29,0.58c0,0.1-0.1,0.19-0.19,0.19c-0.1,0.1-0.29,0.1-0.48,0c-0.19-0.1-0.29-0.19-0.29-0.39
					c0-0.1,0-0.19,0.1-0.29L36.48,9.76z"/>
				<path class="st4" d="M37.83,11.31c0,0.1,0,0.1,0,0.1c0,0.1,0.1,0.1,0.19,0.19c0.1,0,0.1,0.1,0.19,0.1c0.1,0,0.1,0,0.19-0.1v-0.1
					l-0.1-0.1l-0.1-0.1c-0.1-0.1-0.19-0.19-0.19-0.19c0-0.1,0-0.19,0-0.29s0.1-0.1,0.19-0.19s0.19,0,0.39,0.1
					c0.1,0.1,0.19,0.1,0.29,0.19c0,0.1,0,0.19,0,0.29l-0.19-0.1c0-0.1,0-0.1,0-0.19l-0.1-0.1c-0.1,0-0.1-0.1-0.19-0.1
					c-0.1,0-0.1,0-0.1,0.1v0.1l0.1,0.1l0.19,0.1c0.1,0.1,0.1,0.1,0.19,0.19c0,0.1,0,0.19,0,0.29s-0.48,0.19-0.58,0.19
					c-0.1,0-0.19,0-0.39-0.1c-0.19-0.1-0.19-0.19-0.29-0.29c-0.1-0.1,0-0.19,0-0.29L37.83,11.31z"/>
				<path class="st4" d="M40.15,11.69l-0.1,0.19l-0.29-0.19l-0.48,0.77l-0.19-0.1l0.48-0.77l-0.29-0.19l0.1-0.19L40.15,11.69z"/>
				<path class="st4" d="M40.73,13.43c-0.1,0-0.29,0-0.39-0.1c-0.1-0.1-0.19-0.19-0.19-0.39s0-0.29,0.1-0.48s0.29-0.29,0.48-0.29
					c0.1,0,0.29,0,0.39,0.1c0.1,0.1,0.19,0.19,0.19,0.39s0,0.29-0.1,0.48C41.02,13.34,40.92,13.43,40.73,13.43z M40.73,13.24
					c0.1,0,0.19-0.1,0.29-0.19c0.1-0.1,0.1-0.19,0.1-0.29s0-0.19-0.1-0.19c-0.1-0.1-0.19-0.1-0.29-0.1s-0.19,0.1-0.29,0.19
					c-0.1,0.1-0.1,0.19-0.1,0.29s0,0.19,0.1,0.19C40.54,13.24,40.63,13.24,40.73,13.24z"/>
				<path class="st4" d="M42.56,13.72l0.29,0.29l-0.77,0.87l-0.19-0.19l0.48-0.58c0,0,0,0,0.1-0.1c0.1-0.1,0-0.1,0.1-0.1l-0.77,0.58
					L41.6,14.3l0.48-0.87c0,0,0,0-0.1,0.1c0,0,0,0.1-0.1,0.1l-0.48,0.58l-0.19-0.19l0.77-0.87l0.29,0.29l-0.48,0.77L42.56,13.72z"/>
				<path class="st4" d="M43.82,15.27l-0.48-0.48l-0.19,0.19l0.39,0.39l-0.19,0.1l-0.39-0.39l-0.19,0.19l0.48,0.48l-0.19,0.1
					l-0.68-0.68l0.87-0.77l0.58,0.68L43.82,15.27z"/>
				<path class="st4" d="M44.88,16.23c0,0.1,0,0.1,0,0.1v0.1c0,0,0,0.1-0.1,0.1c0,0-0.1,0.1-0.19,0.1s-0.1,0-0.19-0.1
					c0,0.1,0,0.1,0,0.19l-0.1,0.1h-0.1l-0.1,0.1c0,0,0,0,0,0.1l0,0l-0.19-0.19l0,0c0,0,0,0,0.1-0.1l0.1-0.1c0.1,0,0.1-0.1,0.1-0.1
					s0-0.1-0.1-0.1l-0.19-0.19l-0.19,0.29l-0.19-0.19l0.87-0.68l0.39,0.48C44.88,16.14,44.88,16.14,44.88,16.23z M44.4,15.94
					l-0.19,0.19l0.19,0.19l0.1,0.1c0,0,0.1,0,0.19,0c0.1-0.1,0.1-0.1,0.1-0.1s0-0.1-0.1-0.1L44.4,15.94z"/>
				<path class="st4" d="M45.37,18.17l-0.1,0.1c0,0.1,0,0.1,0.1,0.19l0.1,0.1c0.1,0,0.1,0.1,0.19,0c0,0,0,0,0-0.1
					c0-0.1,0-0.1,0-0.19v-0.1c0-0.1-0.1-0.19-0.1-0.29s0-0.19,0.19-0.19c0.1-0.1,0.19-0.1,0.29,0c0.1,0,0.19,0.1,0.29,0.29
					c0.1,0.1,0.1,0.19,0.1,0.39c0,0.1-0.1,0.19-0.19,0.29l-0.1-0.19c0.1,0,0.1-0.1,0.1-0.19c0,0,0-0.1-0.1-0.1
					c0-0.1-0.1-0.1-0.1-0.1h-0.1v0.1c0,0,0,0.1,0,0.19l0.1,0.19c0,0.1,0,0.19,0,0.19c0,0.1-0.1,0.19-0.19,0.19
					c-0.1,0.1-0.19,0.1-0.29,0c-0.1,0-0.19-0.1-0.29-0.29c-0.1-0.1-0.1-0.29-0.1-0.39c0-0.1,0.1-0.19,0.19-0.29L45.37,18.17z"/>
				<path class="st4" d="M47.01,19.91l-0.39-0.58l-0.19,0.1l0.29,0.48L46.52,20l-0.29-0.48l-0.29,0.1l0.29,0.58l-0.19,0.1
					l-0.29-0.77l0.97-0.48l0.39,0.77L47.01,19.91z"/>
				<path class="st4" d="M47.68,21.16v0.1c0,0,0,0.1-0.1,0.1c0,0-0.1,0-0.1,0.1c0,0-0.1,0-0.19,0c-0.1,0-0.1,0-0.19-0.1
					c0,0.1,0,0.1,0,0.1s-0.1,0.1-0.19,0.1h-0.1h-0.1c0,0,0,0,0,0.1l0,0l-0.1-0.1l0,0h0.1h0.1c0.1,0,0.1-0.1,0.1-0.1v-0.1l-0.1-0.19
					l-0.39,0.19l-0.1-0.19l1.06-0.48l0.19,0.58C47.68,21.06,47.68,21.06,47.68,21.16z M47.39,20.68l-0.29,0.1l0.1,0.29
					c0,0,0,0.1,0.1,0.1c0,0,0.1,0,0.19,0c0.1,0,0.1-0.1,0.1-0.1v-0.1L47.39,20.68z"/>
				<path class="st4" d="M48.26,22.61l0.1,0.29H47.1l-0.1-0.19l0.97-0.77l0.1,0.29l-0.77,0.48L48.26,22.61z"/>
				<path class="st4" d="M47.49,23.96l-0.1-0.19l1.06-0.29l0.1,0.19L47.49,23.96z"/>
				<path class="st4" d="M48.65,24.45c0.1,0.1,0.19,0.19,0.19,0.39c0,0.19,0,0.39-0.1,0.48c-0.1,0-0.1,0-0.19,0.1v-0.29l0.1-0.1
					c0-0.1,0-0.1,0-0.19c0-0.1-0.1-0.19-0.19-0.19c-0.1,0-0.19,0-0.29,0s-0.19,0.1-0.29,0.1c0,0.1-0.1,0.1-0.1,0.19
					s0.1,0.1,0.1,0.19c0,0,0.1,0,0.19,0v0.29c-0.1,0-0.19,0-0.29-0.1c-0.1-0.1-0.19-0.19-0.19-0.29c0-0.19,0-0.29,0.1-0.48
					c0.1-0.19,0.19-0.19,0.39-0.19C48.36,24.35,48.46,24.35,48.65,24.45z"/>
				<path class="st4" d="M48.94,26.86l-0.1-0.68l-0.29,0.1l0.1,0.58h-0.19l-0.1-0.58h-0.29l0.1,0.68h-0.19l-0.1-0.97l1.16-0.1
					l0.1,0.87L48.94,26.86z"/>
			</g>
		</g>
		<g>
			<g>
				<path class="st5" d="M9.43,39.32L8.27,39.9c-0.29,0.19-0.29,0.48-0.19,0.68c0.1,0.19,0.39,0.29,0.58,0.19l1.26-0.68l0.1,0.1
					l-1.26,0.68c-0.29,0.19-0.58,0-0.77-0.19c-0.1-0.19-0.1-0.39,0.1-0.68c-0.29,0-0.39-0.1-0.58-0.29
					c-0.19-0.29-0.1-0.58,0.19-0.77l1.26-0.58v0.1l-1.16,0.68c-0.19,0.1-0.29,0.39-0.19,0.58c0.1,0.19,0.39,0.29,0.68,0.1l1.06-0.58
					L9.43,39.32z"/>
				<path class="st5" d="M8.75,41.83l1.55-1.06l0,0l-0.68,0.48l0.58,0.87l0.68-0.48l0.1,0.1L9.43,42.8l-0.1-0.1l0.77-0.48
					l-0.58-0.87L8.75,41.83L8.75,41.83z"/>
				<path class="st5" d="M11.26,43.67l-0.68-0.77c-0.39,0.39-0.39,0.87-0.1,1.16l0.1,0.1l-0.1,0.1l-0.1-0.19
					c-0.29-0.39-0.29-0.97,0.1-1.35c0.48-0.39,1.06-0.19,1.35,0.1l0.1,0.19l-0.1,0.1V42.9c-0.29-0.39-0.87-0.39-1.16-0.19
					L11.26,43.67L11.26,43.67z"/>
				<path class="st5" d="M10.97,44.73l0.97-0.97c0.29-0.29,0.58-0.29,0.87,0s0.29,0.58,0,0.77c-0.19,0.19-0.39,0.19-0.58,0.1l0,0
					c0.1,0.19,0.1,0.39-0.1,0.58l-0.39,0.39l-0.1-0.1l0.39-0.39c0.1-0.1,0.19-0.29-0.1-0.58l-0.29-0.29l0.1-0.1l0.19,0.19
					c0.19,0.19,0.48,0.19,0.68,0.1c0.19-0.19,0.19-0.39,0-0.58c-0.19-0.19-0.48-0.19-0.68,0L10.97,44.73L10.97,44.73z"/>
				<path class="st5" d="M13.68,46.08l-0.77-0.68c-0.39,0.39-0.19,0.97,0.1,1.16l0.1,0.1l-0.1,0.1l-0.19-0.19
					c-0.39-0.29-0.48-0.87-0.1-1.35s0.97-0.39,1.35-0.1l0.19,0.19l-0.1,0.1l-0.19-0.19c-0.39-0.29-0.87-0.29-1.16,0L13.68,46.08
					L13.68,46.08z"/>
				<path class="st5" d="M14.65,47.92l0.29,0.19c0.29,0.19,0.48,0.19,0.68,0c0.19-0.19,0.1-0.48-0.1-0.68l-0.39-0.29l0.1-0.1
					l0.19,0.19c0.29,0.19,0.48,0.19,0.68,0c0.1-0.19,0.1-0.39-0.1-0.58c-0.19-0.19-0.48-0.19-0.68,0.1l-0.77,1.06l-0.1-0.1
					l0.77-1.06c0.29-0.39,0.58-0.39,0.87-0.19c0.29,0.19,0.29,0.48,0.19,0.68c-0.19,0.39-0.39,0.48-0.58,0.39l0,0
					c0.1,0.1,0.19,0.39,0,0.68c-0.19,0.19-0.48,0.29-0.77,0.1L14.65,47.92L14.65,47.92z"/>
				<path class="st5" d="M16,48.89l0.68-1.16c0.19-0.29,0.48-0.39,0.77-0.19c0.29,0.19,0.39,0.48,0.19,0.68
					c-0.1,0.19-0.29,0.29-0.48,0.19l0,0c0.19,0.1,0.19,0.29,0.1,0.58l-0.29,0.48h-0.1l0.29-0.48c0.1-0.19,0.1-0.39-0.19-0.58
					l-0.39-0.19l0.1-0.1l0.29,0.19c0.29,0.19,0.48,0.1,0.68-0.1c0.1-0.19,0-0.48-0.19-0.58c-0.29-0.19-0.48-0.1-0.68,0.19L16,48.89
					L16,48.89z"/>
				<path class="st5" d="M17.64,49.85l0.87-1.64h0.1l-0.87,1.64H17.64z"/>
				<path class="st5" d="M19.28,48.6l-0.58,1.16c-0.1,0.19,0,0.48,0.19,0.58l0.29,0.19v0.1l-0.39-0.19c-0.19,0-0.29-0.29-0.19-0.68
					l0.58-1.16H19.28z"/>
				<path class="st5" d="M20.44,49.08l-0.48,1.26c-0.1,0.19,0,0.48,0.19,0.58l0.39,0.1v0.1l-0.39-0.19
					c-0.19-0.1-0.39-0.39-0.29-0.68l0.48-1.26L20.44,49.08z"/>
				<path class="st5" d="M21.02,51.4l0.58-1.74h0.1l-0.58,1.74H21.02z"/>
				<path class="st5" d="M23.15,51.98h-0.1l0.19-0.87l-0.97-0.29v-0.1l0.97,0.29l0.1-0.29c0.1-0.29-0.1-0.58-0.39-0.68
					c-0.29-0.1-0.58,0-0.68,0.39l-0.39,1.26h-0.1l0.29-1.26c0.1-0.39,0.39-0.58,0.77-0.48c0.39,0.1,0.58,0.39,0.48,0.77L23.15,51.98
					z"/>
				<path class="st5" d="M23.82,52.17l0.29-1.74c0-0.1,0.1-0.19,0.19-0.1c0.1,0,0.1,0,0.1,0.19l0.48,1.84l0,0l0,0l0.48-1.93h0.1
					l-0.29,1.84c0,0.1-0.1,0.1-0.19,0.1c-0.1,0-0.1-0.1-0.1-0.19l-0.48-1.74c0-0.1,0-0.1-0.1-0.1l0,0l-0.29,1.74L23.82,52.17z"/>
				<path class="st5" d="M26.33,52.46h-0.1l0.19-1.74l-0.48-0.1v-0.1l1.16,0.1v0.1l-0.48-0.1L26.33,52.46z"/>
				<path class="st5" d="M28.46,52.65v-1.93h0.1v1.93H28.46z"/>
				<path class="st5" d="M29.33,52.65l-0.1-1.93h0.39c0.48,0,0.97,0.29,0.97,0.87c0,0.58-0.39,0.97-0.87,0.97h-0.29v-0.1h0.29
					c0.48,0,0.77-0.48,0.77-0.87c0-0.48-0.39-0.77-0.97-0.77h-0.29l0.1,1.74V52.65z"/>
				<path class="st5" d="M32.32,51.4l-1.06,0.1c0.1,0.58,0.58,0.77,0.97,0.68h0.19v0.1h-0.19c-0.48,0.1-0.97-0.19-1.06-0.77
					c-0.1-0.58,0.39-0.97,0.77-1.06h0.19v0.1h-0.19c-0.48,0.1-0.77,0.48-0.68,0.87l1.06-0.1L32.32,51.4z"/>
				<path class="st5" d="M34.35,51.98h-0.1l-0.19-0.87L33.1,51.3v-0.1l0.97-0.19l-0.1-0.29c-0.1-0.29-0.29-0.48-0.68-0.39
					c-0.29,0.1-0.48,0.29-0.39,0.58l0.29,1.26h-0.1l-0.29-1.26c-0.1-0.39,0.1-0.68,0.48-0.77s0.68,0.1,0.77,0.48L34.35,51.98z"/>
				<path class="st5" d="M35.61,49.76l-0.58,0.19c-0.29,0.1-0.39,0.19-0.29,0.48c0.19,0.58,1.16-0.1,1.35,0.58
					c0.1,0.29-0.1,0.48-0.39,0.68l-0.68,0.1v-0.1l0.68-0.19c0.29-0.1,0.39-0.29,0.39-0.48c-0.19-0.58-1.16,0.1-1.35-0.68
					c-0.1-0.29,0.1-0.48,0.39-0.58l0.68-0.19L35.61,49.76z"/>
				<path class="st5" d="M39.09,50.34h-0.1l-0.39-0.87l-0.87,0.39v-0.1l0.87-0.39l-0.1-0.29c-0.1-0.29-0.39-0.39-0.68-0.29
					s-0.39,0.39-0.29,0.68l0.48,1.16h-0.1l-0.48-1.16c-0.19-0.39,0-0.68,0.29-0.87c0.29-0.19,0.68,0,0.87,0.29L39.09,50.34z"/>
				<path class="st5" d="M39.67,49.95l-0.68-1.16c-0.19-0.29-0.1-0.68,0.19-0.77c0.29-0.1,0.58-0.1,0.77,0.19
					c0.1,0.19,0.1,0.39,0,0.58l0,0c0.19-0.1,0.39,0,0.48,0.19l0.29,0.48h-0.1l-0.29-0.48c-0.1-0.19-0.29-0.29-0.58-0.1l-0.29,0.19
					v-0.1l0.29-0.19c0.29-0.19,0.39-0.39,0.19-0.58c-0.1-0.19-0.39-0.29-0.58-0.1c-0.29,0.19-0.29,0.39-0.19,0.68L39.67,49.95
					L39.67,49.95z"/>
				<path class="st5" d="M41.69,47.73l-0.87,0.58c0.29,0.48,0.87,0.48,1.16,0.19l0.19-0.1v0.1l-0.19,0.1
					c-0.39,0.29-0.97,0.19-1.26-0.29c-0.29-0.48-0.1-1.06,0.29-1.26l0.19-0.1v0.1l-0.19,0.1c-0.39,0.29-0.48,0.77-0.29,1.06
					L41.69,47.73L41.69,47.73z"/>
				<path class="st5" d="M43.63,47.44l-0.87-1.06c-0.19-0.19-0.19-0.58,0.1-0.77c0.29-0.19,0.58-0.19,0.77,0.1
					c0.19,0.29,0.19,0.58-0.1,0.77l-0.29,0.19l-0.1-0.1l0.29-0.19c0.19-0.19,0.19-0.48,0-0.68c-0.19-0.19-0.48-0.19-0.68-0.1
					c-0.19,0.19-0.19,0.48-0.1,0.68L43.63,47.44L43.63,47.44z"/>
				<path class="st5" d="M44.88,46.37l-0.97-0.97c-0.29-0.29-0.29-0.58,0-0.77c0.29-0.19,0.58-0.29,0.77,0
					c0.19,0.19,0.19,0.39,0.1,0.58l0,0c0.19-0.1,0.39-0.1,0.58,0.1l0.39,0.39l-0.1-0.1l-0.39-0.39c-0.1-0.19-0.29-0.19-0.58,0
					l-0.29,0.29l-0.1-0.1l0.19-0.19c0.19-0.19,0.19-0.48,0.1-0.68c-0.19-0.19-0.39-0.19-0.58,0c-0.19,0.19-0.19,0.48,0,0.68
					L44.88,46.37L44.88,46.37z"/>
				<path class="st5" d="M46.23,44.93l-1.35-1.26l0.1-0.1L46.23,44.93L46.23,44.93z"/>
				<path class="st5" d="M46.81,44.35l-1.35-1.16c-0.1,0-0.1-0.1,0-0.19c0-0.1,0.1-0.1,0.19,0l1.84,0.48c0,0,0,0,0.1,0
					c0,0,0,0,0-0.1l-1.35-1.16l0.1-0.1l1.45,1.16c0.1,0.1,0.1,0.1,0,0.19c-0.1,0.1-0.19,0.1-0.19,0l-1.93-0.48c-0.1,0-0.1,0-0.1,0
					s0,0,0,0.1L46.81,44.35L46.81,44.35z"/>
				<path class="st5" d="M48.36,42.32L48.36,42.32l-1.55-0.97l-0.29,0.48l-0.1-0.1l0.68-0.97l0.1,0.1l-0.29,0.48L48.36,42.32z"/>
				<path class="st5" d="M48.75,40.1l-0.48,0.87c0.48,0.29,0.97,0,1.16-0.29l0.1-0.19h0.1l-0.1,0.19c-0.19,0.39-0.77,0.68-1.26,0.29
					c-0.48-0.29-0.58-0.87-0.29-1.26l0.1-0.19h0.1l-0.29,0.29c-0.29,0.39-0.1,0.97,0.19,1.16L48.75,40.1L48.75,40.1z"/>
				<path class="st5" d="M49.81,40l-1.74-0.87l0.19-0.39c0.19-0.48,0.77-0.68,1.26-0.48C50,38.55,50.2,39.03,50,39.52l-0.1,0.29
					h-0.1l0.1-0.19c0.19-0.48,0-0.87-0.39-1.06c-0.39-0.19-0.97,0-1.16,0.39l-0.1,0.19l1.64,0.77L49.81,40z"/>
			</g>
		</g>
		<g>
			<path class="st4" d="M9.81,32.85H9.62l-0.1-0.39l-0.97,0.19l-0.1-0.29l0.97-0.19l-0.1-0.39h0.19L9.81,32.85z"/>
			<path class="st4" d="M8.75,33.53l1.06-0.29l0.1,0.29l-0.39,0.1l0.1,0.48l0.39-0.1l0.1,0.19l-1.16,0.29V34.2l0.48-0.1l-0.1-0.48
				l-0.48,0.1L8.75,33.53z"/>
			<path class="st4" d="M10.39,35.55l-0.29-0.58l-0.19,0.1l0.19,0.58l-0.19,0l-0.19-0.58l-0.29,0.1l0.19,0.68l-0.19,0.1l-0.29-0.87
				l1.06-0.39l0.29,0.87H10.39z"/>
			<path class="st4" d="M10.78,37.68c-0.1,0-0.19-0.1-0.19-0.19l-0.1-0.19l-0.39,0.19l-0.1-0.19l1.06-0.48l0.19,0.48
				c0.1,0.1,0.1,0.19,0.1,0.29c0,0.1-0.1,0.19-0.19,0.19C10.97,37.68,10.88,37.68,10.78,37.68z M11.07,37.29c0,0,0-0.1,0-0.19
				l-0.1-0.19l-0.29,0.19l0.1,0.19c0,0.1,0.1,0.1,0.1,0.1h0.1L11.07,37.29z"/>
			<path class="st4" d="M11.17,39.23c-0.1,0-0.19-0.1-0.29-0.29c-0.1-0.19-0.1-0.29-0.1-0.39c0-0.19,0.1-0.29,0.29-0.39
				c0.19-0.1,0.39-0.1,0.48-0.1s0.19,0.1,0.29,0.29c0.1,0.19,0.1,0.29,0.1,0.39c0,0.19-0.1,0.29-0.29,0.39
				C11.46,39.23,11.36,39.23,11.17,39.23z M11.26,38.94c0.1,0,0.19,0,0.29-0.1s0.19-0.1,0.19-0.19s0-0.19,0-0.29
				c0-0.1-0.1-0.19-0.19-0.19c-0.1,0-0.19,0-0.29,0.1c-0.1,0.1-0.19,0.1-0.19,0.19c0,0.1,0,0.19,0,0.29
				C11.07,38.94,11.17,38.94,11.26,38.94z"/>
			<path class="st4" d="M12.52,39.32l-0.48,0.48l-0.1,0.1l0.19-0.1l0.58-0.29l0.1,0.29l-0.48,0.48l-0.1,0.1l0.19-0.1l0.68-0.19
				l0.1,0.19l-1.16,0.48l-0.1-0.19l0.48-0.48l0.19-0.19L12.42,40l-0.68,0.29l-0.1-0.19l0.77-0.97L12.52,39.32z"/>
			<path class="st4" d="M13.87,41.54l-0.39-0.48l-0.19,0.19l0.39,0.48h-0.19l-0.39-0.48l-0.19,0.19l0.39,0.48l-0.19,0.1l-0.58-0.77
				l0.87-0.77l0.58,0.68L13.87,41.54z"/>
			<path class="st4" d="M14.84,42.32v0.1v0.1c0,0,0,0.1-0.1,0.1l-0.1,0.1c-0.1,0-0.1,0-0.19,0c0,0.1,0,0.1,0,0.19
				c0,0-0.1,0.1-0.1,0.19l-0.1,0.1l-0.1,0.1c0,0,0,0,0,0.1l0,0l-0.19-0.19c0,0,0,0,0-0.1c0,0,0,0,0.1-0.1l0.1-0.1
				c0.1,0,0.1-0.1,0.1-0.1s0-0.1-0.1-0.1l-0.19-0.19l-0.29,0.19l-0.19-0.19l0.87-0.77l0.39,0.48
				C14.84,42.22,14.84,42.32,14.84,42.32z M14.36,42.03l-0.19,0.19l0.19,0.19l0.1,0.1c0.1,0,0.1,0,0.1,0c0.1,0,0.1-0.1,0.1-0.19
				c0,0,0-0.1-0.1-0.1L14.36,42.03z"/>
			<path class="st4" d="M15.9,44.73c-0.1,0-0.29,0-0.39-0.19c-0.1-0.1-0.19-0.19-0.19-0.39c0-0.19,0-0.29,0.19-0.48
				c0.1-0.19,0.29-0.19,0.48-0.19c0.1,0,0.29,0,0.39,0.19c0.1,0.1,0.19,0.19,0.19,0.39c0,0.19,0,0.29-0.19,0.48
				C16.29,44.64,16.09,44.64,15.9,44.73z M15.9,44.44c0.1,0,0.19-0.1,0.29-0.19c0.1-0.1,0.1-0.19,0.1-0.29c0-0.1,0-0.19-0.1-0.19
				c-0.1-0.1-0.1-0.1-0.19-0.1c-0.1,0-0.19,0.1-0.29,0.19c-0.1,0.1-0.1,0.19-0.1,0.29s0,0.19,0.1,0.19
				C15.8,44.44,15.8,44.44,15.9,44.44z"/>
			<path class="st4" d="M17.06,44.25l0.68,0.48l-0.1,0.19l-0.48-0.39l-0.19,0.19l0.48,0.29l-0.1,0.19l-0.48-0.29l-0.19,0.39
				l-0.19-0.19L17.06,44.25z"/>
			<path class="st4" d="M19.48,45.99L18.9,45.7l-0.1,0.19l0.48,0.29l-0.1,0.19l-0.48-0.29l-0.1,0.29l0.58,0.29l-0.1,0.19l-0.77-0.48
				l0.58-0.97l0.77,0.48L19.48,45.99z"/>
			<path class="st4" d="M19.67,47.15l-0.29-0.1l0.58-0.39l-0.1-0.68l0.29,0.1v0.48l0.39-0.19l0.29,0.1l-0.58,0.29l0.1,0.68
				l-0.29-0.1v-0.48L19.67,47.15z"/>
			<path class="st4" d="M21.79,47.53c-0.1,0-0.19,0-0.29,0l-0.19-0.1l-0.19,0.39l-0.19-0.1l0.39-1.06l0.48,0.19
				c0.1,0,0.19,0.1,0.19,0.19c0,0.1,0,0.19,0,0.29C21.89,47.44,21.89,47.53,21.79,47.53z M21.7,47.05l-0.1-0.1l-0.19-0.1l-0.1,0.29
				l0.19,0.1c0.1,0,0.1,0,0.1,0s0.1,0,0.1-0.1C21.7,47.15,21.7,47.15,21.7,47.05z"/>
			<path class="st4" d="M23.34,47.53l-0.58-0.19l-0.1,0.19l0.58,0.19l-0.1,0.19l-0.58-0.19l-0.1,0.39l0.68,0.19l-0.1,0.19
				l-0.87-0.29l0.39-1.06l0.87,0.29L23.34,47.53z"/>
			<path class="st4" d="M24.6,47.73l0.1,0.1v0.1v0.1c0,0,0,0.1-0.1,0.19c0,0-0.1,0.1-0.19,0.1l0.1,0.1c0,0,0,0.1,0,0.19v0.1v0.1v0.1
				l0,0l-0.29-0.1c0,0,0,0,0-0.1v-0.1v-0.1c0-0.1,0-0.1,0-0.19c0-0.1-0.1,0-0.1-0.1l-0.19-0.1l-0.1,0.48l-0.19-0.1l0.29-1.16
				l0.58,0.1C24.5,47.63,24.5,47.73,24.6,47.73z M24.02,47.73l-0.1,0.29l0.29,0.1c0.1,0,0.1,0,0.1,0s0.1,0,0.1-0.1s0-0.1,0-0.19
				h-0.1L24.02,47.73z"/>
			<path class="st4" d="M26.14,47.92v0.19l-0.39-0.1l-0.1,0.97h-0.29l0.1-0.97l-0.39-0.1v-0.19L26.14,47.92z"/>
			<path class="st4" d="M26.62,49.18h-0.29l0.1-1.16h0.29L26.62,49.18z"/>
			<path class="st4" d="M27.4,48.89v0.1c0,0,0.1,0.1,0.19,0.1c0.1,0,0.1,0,0.19,0c0.1,0,0.1-0.1,0.1-0.1v-0.1c0,0-0.1,0-0.19-0.1
				h-0.1c-0.1,0-0.19-0.1-0.29-0.1c-0.1-0.1-0.1-0.19-0.1-0.29s0-0.19,0.1-0.29c0.1-0.1,0.19-0.1,0.39-0.1c0.1,0,0.19,0,0.29,0.1
				c0.1,0.1,0.1,0.19,0.1,0.29h-0.19c0-0.1,0-0.1-0.1-0.19c0,0-0.1,0-0.19,0c-0.1,0-0.1,0-0.19,0c-0.1,0-0.1,0.1-0.1,0.1
				s0,0.1,0.1,0.1c0,0,0.1,0,0.19,0.1l0.19,0.1c0.1,0,0.19,0.1,0.19,0.1c0.1,0.1,0.1,0.1,0.1,0.19s-0.1,0.19-0.1,0.29
				c-0.1,0.1-0.19,0.1-0.39,0.1s-0.29,0-0.39-0.1c-0.1-0.1-0.1-0.19-0.1-0.29L27.4,48.89z"/>
			<path class="st4" d="M29.52,48.31h-0.68v0.19h0.58v0.19h-0.58v0.29h0.68v0.19h-0.97v-1.16h0.87L29.52,48.31z"/>
			<path class="st4" d="M30.78,48.69c0-0.1,0.1-0.1,0.19-0.19l0,0l-0.1-0.1v-0.1c0-0.1,0-0.19,0.1-0.19c0.1-0.1,0.1-0.1,0.19-0.1
				c0.1,0,0.19,0,0.19,0c0.1,0,0.1,0.1,0.1,0.19c0,0.1,0,0.1,0,0.19s-0.1,0.1-0.1,0.1l0.19,0.19v-0.1v-0.1h0.19c0,0.1,0,0.19,0,0.19
				s0,0.1-0.1,0.19l0.29,0.19h-0.29l-0.1-0.1l-0.1,0.1c-0.1,0-0.1,0.1-0.19,0.1s-0.19,0-0.29-0.1c-0.1-0.1-0.1-0.1-0.1-0.19
				C30.78,48.79,30.78,48.69,30.78,48.69z M31.07,48.89h0.1h0.1c0,0,0.1,0,0.1-0.1l-0.19-0.19c-0.1,0-0.1,0.1-0.1,0.1v0.1
				C31.07,48.89,31.07,48.89,31.07,48.89z M31.16,48.31L31.16,48.31c0.1,0,0.1,0,0.1,0v-0.1c0,0,0,0,0-0.1c0,0,0,0-0.1,0
				c0,0,0,0-0.1,0C31.07,48.21,31.07,48.21,31.16,48.31C31.07,48.31,31.07,48.31,31.16,48.31z"/>
			<path class="st4" d="M33.68,47.53h0.1c0,0,0.1,0,0.1,0.1v0.1c0,0,0,0.1,0,0.19s-0.1,0.1-0.1,0.19c0.1,0,0.1,0,0.1,0.1
				c0,0,0.1,0.1,0.1,0.19v0.1v0.1c0,0,0,0,0.1,0l0,0l-0.29,0.1c0,0,0,0,0-0.1v-0.1v-0.1c0-0.1,0-0.1-0.1-0.1c0,0-0.1,0-0.19,0
				l-0.19,0.1l0.1,0.48l-0.19,0.1l-0.29-1.16l0.58-0.19C33.58,47.53,33.58,47.53,33.68,47.53z M33.19,47.82l0.1,0.29l0.29-0.1
				c0.1,0,0.1,0,0.1,0s0.1-0.1,0-0.19c-0.1-0.1,0-0.1-0.1-0.1h-0.1L33.19,47.82z"/>
			<path class="st4" d="M35.22,47.24l-0.58,0.19l0.1,0.19l0.58-0.19l0.1,0.19l-0.58,0.19l0.1,0.29l0.68-0.19l0.1,0.19l-0.87,0.29
				l-0.39-1.06l0.87-0.29L35.22,47.24z"/>
			<path class="st4" d="M36.09,47.53C36.09,47.53,36.09,47.63,36.09,47.53c0.19,0.1,0.19,0.1,0.29,0.1c0.1,0,0.1,0,0.1-0.1
				c0.1,0,0.1-0.1,0-0.19c0,0,0-0.1-0.1-0.1c0,0-0.1,0-0.19,0h-0.1c-0.1,0-0.19,0-0.29,0s-0.19-0.1-0.19-0.19s0-0.19,0-0.29
				c0-0.1,0.19-0.19,0.29-0.19s0.19-0.1,0.39,0c0.19,0.1,0.19,0.1,0.19,0.19l-0.19,0.1c0-0.1-0.1-0.1-0.19-0.1c0,0-0.1,0-0.19,0
				c-0.1,0-0.1,0.1-0.1,0.1v0.1c0,0,0,0.1,0.1,0.1c0,0,0.1,0,0.19,0h0.19c0.1,0,0.19,0,0.19,0c0.1,0,0.19,0.1,0.19,0.19
				s0,0.19,0,0.29c-0.1,0.1-0.19,0.19-0.29,0.19c-0.1,0-0.29,0.1-0.39,0c-0.1,0-0.19-0.1-0.19-0.19L36.09,47.53z"/>
			<path class="st4" d="M38.22,46.86c0,0.1-0.19,0.19-0.29,0.29c-0.1,0.1-0.29,0.1-0.39,0.1c-0.19,0-0.29-0.19-0.39-0.29
				c-0.1-0.19-0.1-0.39,0-0.48c0-0.1,0.19-0.19,0.29-0.29s0.29-0.1,0.39-0.1c0.19,0,0.29,0.19,0.39,0.29
				C38.22,46.47,38.22,46.66,38.22,46.86z M37.93,46.76c0-0.1,0-0.19-0.1-0.29s-0.1-0.19-0.19-0.19c-0.1,0-0.19,0-0.29,0
				s-0.19,0.1-0.19,0.19c0,0.1,0,0.19,0,0.29c0.1,0.1,0.1,0.19,0.19,0.19c0.1,0,0.19,0,0.29,0C37.93,46.86,37.93,46.86,37.93,46.76z
				"/>
			<path class="st4" d="M38.22,45.6l0.19-0.1l0.39,0.58c0,0.1,0.1,0.1,0.1,0.1c0.1,0,0.1,0,0.19,0c0.1-0.1,0.1-0.1,0.1-0.19
				c0,0,0-0.1-0.1-0.19l-0.19-0.58l0.19-0.1l0.39,0.58c0.1,0.1,0.1,0.19,0.1,0.29c0,0.19-0.1,0.29-0.29,0.39
				c-0.19,0.1-0.29,0.1-0.48,0.1c-0.1,0-0.1-0.1-0.19-0.19L38.22,45.6z"/>
			<path class="st4" d="M40.15,44.44c0,0,0.1,0,0.19,0h0.1c0,0,0.1,0,0.1,0.1c0,0,0,0.1,0.1,0.19c0,0.1,0,0.1-0.1,0.19
				c0.1,0,0.1,0,0.19,0l0.1,0.1v0.1c0,0,0,0.1,0.1,0.1c0.1,0,0,0,0.1,0l0,0l-0.19,0.19l0,0c0,0,0,0-0.1-0.1l-0.1-0.1
				c0-0.1-0.1-0.1-0.1-0.1s-0.1,0-0.19,0.1l-0.19,0.19l0.29,0.39l-0.19,0.19l-0.68-0.97l0.48-0.29
				C40.05,44.44,40.05,44.44,40.15,44.44z M39.86,44.83l0.19,0.29l0.19-0.19l0.1-0.1c0,0,0-0.1,0-0.19s-0.1-0.1-0.1-0.1h-0.1
				L39.86,44.83z"/>
			<path class="st4" d="M40.82,43.96c0-0.1,0.1-0.29,0.19-0.39c0.19-0.1,0.29-0.19,0.48-0.1c0.1,0,0.19,0.1,0.19,0.1l-0.19,0.19
				c0,0-0.1,0-0.1-0.1c-0.1,0-0.1,0-0.19,0.1s-0.1,0.1-0.1,0.19s0,0.19,0.1,0.29c0.1,0.1,0.19,0.19,0.29,0.19s0.19,0,0.19-0.1
				c0.1-0.1,0.1-0.1,0.1-0.19c0,0,0-0.1,0-0.19l0.19-0.19c0.1,0.1,0.1,0.19,0.1,0.29s-0.1,0.19-0.19,0.29
				c-0.1,0.1-0.29,0.19-0.39,0.1s-0.29-0.1-0.39-0.19C40.92,44.35,40.82,44.15,40.82,43.96z"/>
			<path class="st4" d="M42.56,42.51l-0.48,0.48l0.19,0.19l0.48-0.39l0.1,0.19l-0.48,0.39l0.19,0.19l0.48-0.48l0.19,0.19l-0.68,0.68
				l-0.77-0.97l0.68-0.58L42.56,42.51z"/>
			<path class="st4" d="M43.53,42.51h0.1c0.1,0,0.1,0,0.19-0.1l0.1-0.1c0-0.1,0-0.1,0-0.19h-0.1c0,0-0.1,0-0.19,0.1l-0.1,0.1
				c-0.1,0.1-0.19,0.1-0.19,0.19c-0.1,0-0.19,0-0.29-0.1s-0.1-0.19-0.1-0.29s0.1-0.19,0.19-0.29c0.1-0.1,0.19-0.19,0.29-0.19
				s0.19,0,0.29,0.1l-0.19,0.19c-0.1,0-0.1,0-0.19,0c0,0-0.1,0-0.1,0.1c0,0-0.1,0.1-0.1,0.19v0.1h0.1c0,0,0.1,0,0.19-0.1l0.19-0.1
				c0.1-0.1,0.19-0.1,0.19-0.1c0.1,0,0.19,0,0.29,0.1c0.1,0.1,0.1,0.19,0.1,0.29s-0.1,0.19-0.19,0.29c-0.1,0.1-0.29,0-0.39,0
				c-0.1,0-0.19,0-0.29-0.1L43.53,42.51z"/>
			<path class="st4" d="M44.3,40.48c0-0.1,0-0.29,0.1-0.39c0.1-0.19,0.29-0.29,0.39-0.29c0.1,0,0.19,0,0.19,0.1l-0.19,0.19
				c-0.1,0-0.1,0-0.1,0c-0.1,0-0.1,0-0.19,0.1c-0.1,0.1-0.1,0.19,0,0.19c0.1,0,0.1,0.19,0.19,0.19s0.19,0.1,0.29,0.1
				s0.19,0,0.19-0.1s0.1-0.19,0-0.19c0,0,0-0.1-0.1-0.1l0.19-0.19c0.1,0.1,0.1,0.19,0.19,0.29c0.1,0.1,0,0.19-0.1,0.39
				c-0.1,0.19-0.19,0.19-0.39,0.19c-0.19,0-0.29,0-0.48-0.1C44.4,40.77,44.3,40.58,44.3,40.48z"/>
			<path class="st4" d="M46.33,39.03c0,0.1,0,0.29-0.1,0.39c-0.1,0.19-0.19,0.19-0.29,0.29c-0.19,0-0.29,0-0.48-0.1
				c-0.19-0.1-0.29-0.19-0.29-0.39c0-0.1,0-0.29,0.1-0.39c0.1-0.19,0.19-0.19,0.29-0.29c0.19,0,0.29,0,0.48,0.1
				S46.33,38.84,46.33,39.03z M46.14,39.03c0-0.1-0.1-0.19-0.19-0.19c-0.1-0.1-0.19-0.1-0.29-0.1c-0.1,0-0.19,0.1-0.19,0.19
				c0,0.1-0.1,0.19,0,0.29s0.1,0.19,0.19,0.19c0.1,0.1,0.19,0.1,0.29,0.1s0.19-0.1,0.19-0.19C46.14,39.23,46.14,39.13,46.14,39.03z"
				/>
			<path class="st4" d="M46.14,37.2l0.19-0.29l1.06,0.48l-0.1,0.19l-0.68-0.39c0,0,0,0-0.1,0c-0.1,0-0.1,0-0.1,0l0.77,0.68
				l-0.1,0.19l-0.97-0.19c0,0,0,0,0.1,0s0.1,0,0.1,0l0.68,0.39l-0.1,0.19l-1.06-0.48l0.19-0.29l0.87,0.19L46.14,37.2z"/>
			<path class="st4" d="M46.91,35.65c0.1,0,0.1,0,0.19,0c0.1,0,0.1,0.1,0.1,0.1v0.1c0,0,0.1-0.1,0.19-0.1c0.1,0,0.1,0,0.19,0
				c0.1,0,0.1,0.1,0.19,0.1v0.1c0,0,0,0.1,0,0.19c0,0,0,0.1,0,0.19l-0.19,0.48l-1.06-0.39l0.19-0.58
				C46.81,35.75,46.81,35.65,46.91,35.65z M46.81,36.23l0.19,0.1l0.1-0.29v-0.1c0,0,0-0.1-0.1-0.1h-0.1c0,0,0,0.1-0.1,0.1
				L46.81,36.23z M47.2,36.42l0.29,0.1l0.1-0.29v-0.1c0-0.1,0-0.1-0.1-0.1s-0.1,0-0.19,0c0,0,0,0.1-0.1,0.1V36.42z"/>
			<path class="st4" d="M48.17,35.17l-0.1,0.19l-1.06-0.39l0.1-0.19L48.17,35.17z"/>
			<path class="st4" d="M47.2,34.4l0.1-0.29l0.87-0.29l-0.77-0.19l0.1-0.19l1.16,0.29l-0.1,0.29l-0.97,0.29l0.77,0.19l-0.1,0.19
				L47.2,34.4z"/>
			<path class="st4" d="M47.97,32.08l-0.1,0.68h0.19l0.1-0.58h0.19l-0.1,0.58l0.29,0.1l0.1-0.68h0.19l-0.19,0.87l-1.06-0.1
				l0.19-0.87H47.97z"/>
		</g>
		<g>
			<g>
				<path class="st1" d="M26.33,19.42L26.33,19.42c0.1,0,0.19,0,0.29,0c0.19,0,0.48,0,0.68,0l0,0v0.1v0.1l0,0c-0.19,0-0.39,0-0.58,0
					s-0.39,0-0.68,0v-0.1l0.19-0.19c0.48-0.48,0.77-0.87,0.77-1.26c0-0.29-0.19-0.48-0.39-0.48c-0.29,0-0.39,0.19-0.39,0.39h-0.1
					l0.1-0.29c0-0.1,0-0.19,0.19-0.29c0,0,0.1,0,0.19,0c0.29,0,0.58,0.19,0.58,0.48c0,0.29-0.19,0.58-0.39,0.77L26.33,19.42z"/>
				<path class="st1" d="M28.27,19.04h-0.48c-0.1,0-0.29,0-0.39,0v-0.1c0.29-0.48,0.68-0.97,0.97-1.35h0.1c0,0.1,0,0.19,0,0.29v0.97
					h0.1c0.1,0,0.19,0,0.29,0l0,0v0.1v0.1l0,0c-0.1,0-0.1,0-0.29,0h-0.1v0.39c0,0.19,0.1,0.19,0.39,0.19l0,0v0.1l0,0
					c-0.1,0-0.29,0-0.48,0c-0.19,0-0.39,0-0.48,0l0,0v-0.1l0,0c0.39,0,0.39,0,0.39-0.29V19.04z M28.27,17.97L28.27,17.97
					c-0.1,0.1-0.58,0.87-0.68,0.97h0.68V17.97z"/>
				<path class="st1" d="M29.72,17.3h0.1l-0.87,2.42h-0.1L29.72,17.3z"/>
				<path class="st1" d="M30.2,19.62c0.19-0.29,0.97-1.55,1.06-1.84l0,0c-0.39,0-0.68,0-1.06,0l0,0v-0.1c0-0.1,0-0.1,0-0.1l0,0
					c0.1,0,0.29,0,0.68,0c0.29,0,0.48,0,0.58,0l0,0c-0.39,0.68-0.77,1.35-1.06,2.03l0,0h-0.1C30.3,19.71,30.2,19.71,30.2,19.62
					L30.2,19.62z"/>
			</g>
		</g>
	</g>
	<g>
		<text transform="matrix(1 0 0 1 68.9845 29.8986)" class="st6 st7 st8">CONGLOMERATE </text>
		<text transform="matrix(1 0 0 1 72.4259 47.9152)" class="st6 st7 st9">Printing Services, inc.</text>
	</g>
</g>
</svg>
