<?xml version="1.0" encoding="utf-8"?>
<!-- Generator: Adobe Illustrator 24.0.3, SVG Export Plug-In . SVG Version: 6.00 Build 0)  -->
<svg version="1.1" id="Layer_1" xmlns="http://www.w3.org/2000/svg" xmlns:xlink="http://www.w3.org/1999/xlink" x="0px" y="0px"
	 viewBox="0 0 55.9 55.4" style="enable-background:new 0 0 55.9 55.4;" xml:space="preserve">
<style type="text/css">
	.st0{fill:#FEE600;}
	.st1{fill:#010101;}
	.st2{fill:#EC1A5A;}
	.st3{fill:#089BD5;}
	.st4{fill:#FAFCFE;}
	.st5{fill:#010101;stroke:#010101;stroke-width:9.670000e-02;stroke-miterlimit:10;}
</style>
<g>
	<circle class="st0" cx="27.7" cy="27.4" r="27"/>
	<g>
		<g>
			<path class="st1" d="M6.2,32.3c0.5,0.1,0.8,0.5,1,1C7.4,34,7,34.7,6.2,35c-0.9,0.3-1.6-0.2-1.8-1c-0.1-0.5,0-0.8,0.1-1l-0.2-0.2
				l0.8-0.2v0.1C5,32.9,4.9,33,4.8,33.1c-0.2,0.3-0.3,0.6-0.2,0.9c0.1,0.5,0.6,0.9,1.3,0.7c0.7-0.2,1.2-0.8,1.1-1.5
				c-0.2-0.5-0.6-0.7-0.8-0.7L6.2,32.3z"/>
			<path class="st1" d="M5,29.5c0.9-0.1,1.6,0.5,1.6,1.2c0.1,0.8-0.4,1.5-1.3,1.6c-0.9,0.1-1.4-0.5-1.6-1.2
				C3.6,30.4,4.1,29.6,5,29.5z M5.3,31.8c0.7-0.1,1.3-0.6,1.3-1.2S5.7,29.9,5.1,30c-0.5,0.1-1.3,0.5-1.2,1.2
				C4,31.7,4.8,31.9,5.3,31.8z"/>
			<path class="st1" d="M3.6,29.5c0-0.1,0-0.2,0-0.4s0-0.2,0-0.4c0.2-0.1,0.3-0.2,0.5-0.4C4.4,28,5.4,27.3,5.7,27
				c-1.1,0-1.3,0-1.6,0c-0.5,0-0.5,0-0.5,0.5H3.5c0-0.2,0-0.3,0-0.5s0-0.3,0-0.5h0.1c0,0.3,0,0.3,0.4,0.3c0.2,0,1.9,0,2.3,0v0.1
				l-2.3,2c0.3,0,1.6,0,1.9-0.1c0.2,0,0.3-0.1,0.3-0.5h0.1c0,0.2,0,0.4,0,0.5c0,0.2,0,0.3,0,0.5H6.2c0-0.1,0-0.2-0.1-0.3
				C6,29,6,29,5.7,29H3.9C3.8,29.1,3.7,29.2,3.6,29.5L3.6,29.5z"/>
			<path class="st1" d="M5.5,23.6c0,0.3,0,0.3,0.8,0.4c0.1,0.2,0.3,0.6,0.2,1.2c-0.1,1-0.9,1.5-1.5,1.4C4,26.4,3.5,25.6,3.6,25
				c0-0.5,0.3-0.9,0.4-1l-0.2-0.2l0.9,0.1V24c-0.2,0-0.3,0.1-0.5,0.2C4,24.3,3.8,24.6,3.7,25c0,0.4,0.5,1,1.3,1.1
				c0.2,0,0.6,0,0.9-0.1c0.4-0.2,0.5-0.5,0.5-0.8s-0.1-0.5-0.2-0.6c-0.1-0.1-0.1-0.1-0.4-0.1c-0.2,0-0.3,0-0.4,0
				c0,0-0.1,0.1-0.1,0.3H5.2c0-0.2,0.1-0.4,0.1-0.6s0-0.3,0-0.5L5.5,23.6z"/>
			<path class="st1" d="M3.9,23.1C4,22.9,4,22.8,4,22.7c0-0.2,0.1-0.4,0.1-0.6h0.1c0,0.2,0,0.3,0.1,0.4c0.1,0,0.2,0.1,0.6,0.2
				l0.8,0.2c0.3,0.1,0.5,0.1,0.7,0.1c0.1,0,0.2,0,0.2,0c0.1-0.1,0.2-0.6,0.2-0.7c0-0.2,0.1-0.5-0.6-1l0.1-0.1
				c0.4,0.2,0.5,0.3,0.8,0.5l-0.5,2.1H6.4c0-0.2,0-0.3-0.1-0.4c-0.1,0-0.2,0-0.7-0.2l-1-0.2c-0.1,0-0.4-0.1-0.5-0.1
				C4.1,22.9,4.1,22.9,3.9,23.1L3.9,23.1z"/>
			<path class="st1" d="M6.9,18.1c0.9,0.3,1.1,1.2,0.9,1.8C7.5,20.6,6.7,21,6,20.7S4.9,19.7,5.1,19C5.3,18.3,6.1,17.8,6.9,18.1z
				 M6.1,20.3c0.6,0.2,1.3,0.2,1.6-0.4s-0.4-1.1-1-1.4c-0.5-0.2-1.3-0.2-1.6,0.5C4.9,19.7,5.6,20.1,6.1,20.3z"/>
			<path class="st1" d="M5.9,17.1C6,17,6,17,6.1,16.8c0.1-0.1,0.1-0.2,0.2-0.4l2.4,0.3l-1.4-1.9c0.1-0.1,0.1-0.2,0.2-0.3
				c0.1-0.1,0.1-0.2,0.2-0.4l0.1,0.1c-0.1,0.3-0.1,0.3,0.2,0.5l1.4,0.8c0.3,0.2,0.4,0.2,0.6-0.1l0.1,0.1c-0.1,0.2-0.2,0.3-0.3,0.5
				c-0.1,0.1-0.2,0.3-0.3,0.5l-0.1-0.1C9.4,16,9.4,16,9.2,15.8l-1.8-1.1L9,16.9V17l-2.7-0.3l1.6,0.9c0.4,0.2,0.5,0.3,0.7,0l0.1,0.1
				c-0.1,0.1-0.1,0.2-0.2,0.4c-0.1,0.1-0.1,0.2-0.2,0.4l-0.1-0.1c0.1-0.3,0.1-0.4-0.4-0.6L6.4,17c-0.2-0.1-0.3-0.1-0.4,0.1
				C6.1,17.1,5.9,17.1,5.9,17.1z"/>
			<path class="st1" d="M8,13.5l1.3-1.6C9.5,12,9.6,12,10,12.1v0.1c-0.5,0-0.5,0-0.6,0.1c-0.2,0-0.3,0.1-0.6,0.5l-0.3,0.3l0.9,0.7
				l0.2-0.3c0.2-0.3,0.2-0.4,0-0.7l0.1-0.1c0.1,0.1,0.3,0.2,0.4,0.4c0.1,0.1,0.3,0.2,0.4,0.3h-0.1c-0.4-0.2-0.5-0.2-0.8,0.2
				l-0.2,0.2l0.5,0.4c0.4,0.3,0.4,0.4,0.8-0.1l0.1-0.2c0.2-0.3,0.2-0.3,0-1.1h0.1c0.2,0.3,0.2,0.4,0.5,0.6L10,15.1L9.9,15
				c0.2-0.3,0.1-0.3,0-0.4c-0.1-0.1-0.3-0.2-0.6-0.5l-0.5-0.4c-0.1-0.1-0.4-0.3-0.5-0.4C8.3,13.4,8.2,13.5,8,13.5L8,13.5z"/>
			<path class="st1" d="M9.8,11.2c0.1-0.1,0.2-0.2,0.4-0.4c0.1-0.1,0.3-0.3,0.4-0.4s0.3-0.3,0.5-0.4c0.3-0.1,0.6,0,0.8,0.1
				c0.1,0.1,0.1,0.2,0.2,0.3c0.1,0.3,0,0.5-0.1,0.6c0.4,0.1,0.8,0.1,1.2,0.2c0.3,0,0.3,0,0.5-0.1l0.1,0.1c-0.1,0.1-0.2,0.1-0.2,0.2
				c-0.1,0.1-0.1,0.1-0.2,0.2c-0.2-0.1-0.3-0.1-0.6-0.1s-0.7-0.1-1-0.1l-0.1,0.1l-0.1,0.1c0.4,0.4,0.5,0.5,0.6,0.6
				c0.2,0.2,0.3,0.2,0.5-0.1l0.1,0.1c-0.1,0.1-0.3,0.3-0.4,0.4s-0.2,0.3-0.4,0.4L11.7,13c0.2-0.3,0.2-0.3-0.2-0.7l-0.8-0.8
				c-0.1-0.1-0.4-0.4-0.5-0.4c-0.1-0.1-0.2,0-0.3,0.1L9.8,11.2z M10.4,10.8l0.9,0.9c0.1,0,0.1-0.1,0.1-0.1c0.3-0.2,0.3-0.4,0.3-0.5
				c0-0.2-0.1-0.3-0.2-0.5c-0.1-0.1-0.3-0.2-0.5-0.2s-0.3,0.1-0.5,0.3L10.4,10.8z"/>
			<path class="st1" d="M13.7,11.1c0.3-0.2,0.3-0.3,0.2-0.7c-0.2-0.7-0.4-1.4-0.7-2.1h-0.1c0.2-0.2,0.2-0.3,0.3-0.4
				C13.7,8,13.7,8,13.9,8.2l1.4,1c0.4,0.3,0.4,0.3,0.7,0.2L16,9.5c-0.1,0.1-0.3,0.2-0.5,0.4c-0.2,0.1-0.3,0.2-0.5,0.4l-0.1-0.1
				c0.1-0.1,0.3-0.2,0.2-0.4c-0.1-0.1-0.5-0.4-0.7-0.5l-0.8,0.6c0.1,0.2,0.1,0.3,0.2,0.5c0,0.1,0.1,0.3,0.1,0.3
				c0.1,0.2,0.3,0,0.4-0.1l0.1,0.1c-0.1,0.1-0.3,0.2-0.4,0.3C14,11,13.9,11.1,13.7,11.1L13.7,11.1z M14.4,9.1
				c-0.4-0.2-0.8-0.5-1.1-0.7l0.4,1.2L14.4,9.1z"/>
			<path class="st1" d="M14.7,8c0-0.3-0.1-0.4-0.1-0.8L16.5,6c0.3,0.3,0.3,0.3,0.6,0.5L17,6.6c-0.2-0.1-0.6-0.3-0.8-0.3
				c-0.1,0-0.2,0.1-0.5,0.3l1,1.6c0.1,0.1,0.2,0.3,0.2,0.4c0.1,0.1,0.2,0.1,0.5-0.1l0.1,0.1c-0.2,0.1-0.4,0.2-0.6,0.3
				s-0.4,0.2-0.6,0.4l-0.1-0.1c0.4-0.2,0.4-0.3,0.4-0.4s-0.1-0.3-0.2-0.4l-1-1.6L15.1,7c-0.1,0.1-0.2,0.1-0.2,0.3
				c0,0.1,0,0.1-0.1,0.7L14.7,8z"/>
			<path class="st1" d="M16.8,5.8l1.8-0.8c0.2,0.2,0.3,0.3,0.6,0.5v0.1c-0.5-0.2-0.5-0.2-0.5-0.2c-0.2-0.1-0.4-0.1-0.8,0.1l-0.4,0.1
				L18,6.7l0.4-0.2c0.4-0.2,0.4-0.2,0.3-0.7h0.1C18.9,6,18.9,6.1,19,6.3c0.1,0.2,0.1,0.3,0.2,0.5h-0.1c-0.3-0.4-0.4-0.4-0.8-0.2
				L18,6.7l0.3,0.6C18.5,8,18.5,8,19,7.8l0.2-0.1c0.3-0.1,0.4-0.2,0.5-1h0.1c0,0.4,0,0.4,0.1,0.8l-2,0.9V8.2C18.1,8.1,18,8.1,18,7.9
				c-0.1-0.2-0.1-0.4-0.3-0.7l-0.3-0.7c0-0.1-0.2-0.5-0.3-0.6S17.1,5.8,16.8,5.8L16.8,5.8z"/>
			<path class="st1" d="M20.9,4.3c0.2,0,0.3-0.1,0.5-0.1c0,0,0.2-0.1,0.3-0.1S22,4,22,4c0.2-0.1,0.4-0.1,0.6-0.1
				c0.2,0.1,0.5,0.2,0.5,0.6c0.1,0.2,0,0.5-0.2,0.7c-0.2,0.2-0.4,0.2-1,0.4c0.1,0.4,0.2,0.8,0.2,0.9c0.2,0.2,0.3,0.2,0.5,0.1v0.1
				c-0.2,0-0.4,0.1-0.5,0.1c-0.2,0-0.3,0.1-0.5,0.1V6.7c0.2-0.1,0.3-0.1,0.3-0.2c0-0.1-0.1-0.5-0.1-0.6l-0.2-0.8
				c0-0.1-0.2-0.7-0.2-0.8c-0.1-0.1-0.1-0.1-0.3-0.1L20.9,4.3L20.9,4.3z M22,5.5c0.4-0.1,0.5-0.1,0.6-0.2c0.2-0.2,0.2-0.5,0.2-0.7
				s-0.2-0.4-0.4-0.4c-0.2-0.1-0.3,0-0.7,0.1L22,5.5z"/>
			<path class="st1" d="M23.4,3.7c0.2,0,0.4,0,0.5-0.1c0.1,0,0.4-0.1,0.5-0.1c0.2,0,0.5,0,0.6,0c0.3,0.1,0.5,0.3,0.5,0.6
				c0,0.1,0,0.2,0,0.4c-0.1,0.3-0.3,0.4-0.4,0.5c0.3,0.3,0.6,0.6,0.9,0.9C26.1,6,26.1,6,26.4,6v0.1c-0.1,0-0.2,0-0.3,0
				s-0.2,0-0.3,0.1C25.7,6,25.7,6,25.5,5.8c-0.2-0.2-0.5-0.5-0.7-0.7c-0.1,0-0.1,0-0.2,0c-0.1,0-0.1,0-0.2,0
				c0.1,0.5,0.1,0.7,0.1,0.8c0,0.3,0.1,0.3,0.5,0.3v0.1c-0.2,0-0.4,0-0.6,0.1c-0.2,0-0.4,0.1-0.6,0.1V6.4c0.3-0.1,0.3-0.1,0.3-0.7
				L24,4.6c0-0.1-0.1-0.5-0.1-0.7c0-0.1-0.1-0.1-0.3-0.1L23.4,3.7z M24.1,3.7L24.3,5c0.1,0,0.1,0,0.2,0c0.4,0,0.5-0.2,0.6-0.3
				s0.1-0.3,0.1-0.5S25.1,3.9,25,3.8c-0.2-0.1-0.3-0.1-0.5-0.1H24.1z"/>
			<path class="st1" d="M26.4,3.3c0.2,0,0.4,0,0.5,0c0.2,0,0.4,0,0.5,0v0.1c-0.3,0-0.3,0.1-0.3,0.6v1.3c0,0.5,0,0.5,0.4,0.6V6
				c-0.2,0-0.4,0-0.5,0c-0.2,0-0.4,0-0.6,0l0,0c0.3-0.1,0.3-0.1,0.3-0.4c0-0.2,0-0.3,0-0.5V4.5c0-0.5,0-0.6,0-0.7
				c0-0.2-0.1-0.2-0.3-0.2C26.4,3.6,26.4,3.3,26.4,3.3z"/>
			<path class="st1" d="M28.2,3.3c0.1,0,0.2,0,0.4,0s0.2,0,0.4,0c0.1,0.2,0.1,0.3,0.3,0.5c0.3,0.4,1,1.3,1.2,1.7
				c0.1-1.1,0.1-1.3,0.1-1.6c0-0.5,0-0.5-0.4-0.5V3.4c0.2,0,0.3,0,0.5,0s0.3,0,0.5,0v0.1c-0.3,0-0.3,0-0.4,0.3
				c0,0.2-0.2,1.9-0.2,2.3h-0.1l-1.7-2.5c0,0.3-0.1,1.6-0.1,1.9c0,0.2,0.1,0.3,0.5,0.3v0.1c-0.2,0-0.4,0-0.5-0.1c-0.2,0-0.3,0-0.5,0
				V5.7c0.1,0,0.2,0,0.3-0.1c0-0.1,0-0.1,0.1-0.5l0.2-1.7c-0.1-0.1-0.2-0.2-0.4-0.2L28.2,3.3z"/>
			<path class="st1" d="M31.3,4.3c0.2-0.3,0.2-0.4,0.4-0.7l2.2,0.5c0,0.4,0,0.5,0.1,0.8h-0.1c-0.1-0.2-0.3-0.6-0.4-0.7
				S33.3,4.1,32.9,4l-0.4,1.8c0,0.1-0.1,0.3-0.1,0.4s0.1,0.2,0.4,0.2v0.1c-0.2,0.1-0.5,0.1-0.7,0c-0.2-0.1-0.4-0.1-0.7-0.1V6.3
				c0.4,0.1,0.4,0,0.5-0.1c0-0.1,0.1-0.3,0.1-0.4l0.4-1.9l-0.3-0.1c-0.1,0-0.2,0-0.4,0.1C31.8,4,31.8,4,31.3,4.3L31.3,4.3z"/>
			<path class="st1" d="M34.4,4.3c0.2,0.1,0.3,0.1,0.5,0.2c0.2,0.1,0.3,0.1,0.5,0.1v0.1c-0.4-0.1-0.4,0-0.5,0.5l-0.4,1.3
				C34.3,7,34.3,7,34.6,7.1v0.1c-0.2-0.1-0.3-0.1-0.5-0.2c-0.2-0.1-0.4-0.1-0.5-0.2V6.7c0.3,0.1,0.3,0,0.5-0.3
				c0-0.2,0.1-0.3,0.2-0.5l0.2-0.7c0.1-0.5,0.2-0.6,0.2-0.7c0-0.2,0-0.2-0.2-0.3L34.4,4.3z"/>
			<path class="st1" d="M36,4.8c0.1,0.1,0.2,0.1,0.3,0.2c0.1,0.1,0.2,0.1,0.3,0.1c0,0.2,0,0.3,0.1,0.6c0.1,0.4,0.5,1.6,0.6,2
				c0.5-1,0.6-1.3,0.6-1.3C38,5.9,38,5.9,37.7,5.7V5.6c0.2,0.1,0.3,0.1,0.5,0.2c0.2,0.1,0.3,0.1,0.5,0.2v0.1C38.4,6,38.3,6,38.1,6.3
				c-0.1,0.2-0.8,1.8-1,2.1l0,0l-0.9-2.9c-0.1,0.3-0.7,1.5-0.8,1.7c-0.1,0.2,0,0.3,0.3,0.5l-0.1,0.1c-0.1-0.3-0.2-0.3-0.4-0.4
				c-0.2-0.1-0.3-0.1-0.5-0.2V7.2c0.1,0.1,0.2,0.1,0.3,0.1s0.1-0.1,0.2-0.4l0.8-1.6C36,5.1,35.9,5.1,35.8,5L36,4.8z"/>
			<path class="st1" d="M40.5,9c-0.3-0.1-0.3-0.1-0.7,0.6c-0.3,0-0.7,0-1.1-0.3c-0.8-0.5-0.9-1.4-0.5-2c0.5-0.8,1.3-0.9,2-0.5
				c0.4,0.3,0.6,0.7,0.7,0.8h0.2l-0.4,0.8l-0.1-0.1c0-0.2,0.1-0.3,0-0.6c0-0.2-0.2-0.6-0.5-0.7c-0.5-0.3-1.2-0.1-1.5,0.6
				c-0.1,0.2-0.3,0.6-0.3,0.9c0,0.4,0.3,0.7,0.5,0.8c0.3,0.2,0.5,0.1,0.6,0.1c0.1,0,0.1,0,0.3-0.3c0.1-0.2,0.2-0.3,0.1-0.4
				c0-0.1-0.1-0.1-0.2-0.2l0.1-0.1c0.2,0.1,0.3,0.2,0.5,0.3c0.1,0.1,0.3,0.2,0.5,0.3L40.5,9z"/>
			<path class="st1" d="M41.9,10.4c-0.1,0.1-0.2,0.3-0.2,0.4c0,0.3,0.1,0.5,0.2,0.7c0.2,0.2,0.5,0.3,0.8,0c0.1-0.1,0.2-0.3,0.1-0.5
				c0-0.1-0.1-0.2-0.2-0.5c-0.1-0.2-0.3-0.6,0-1c0.3-0.3,0.8-0.4,1.2,0c0.2,0.2,0.2,0.4,0.3,0.5h0.2l-0.5,0.7l-0.1-0.1
				c0.1-0.2,0.3-0.7,0-1.1c-0.3-0.2-0.5-0.2-0.7,0c-0.1,0.1-0.2,0.2-0.1,0.4c0,0.2,0.1,0.3,0.2,0.6c0.2,0.2,0.4,0.7,0,1.1
				c-0.3,0.4-0.9,0.4-1.3,0c-0.3-0.2-0.3-0.4-0.3-0.6h-0.3C41.5,10.7,41.6,10.6,41.9,10.4L41.9,10.4z"/>
			<path class="st1" d="M44.8,10.4l1.3,1.6c-0.2,0.3-0.2,0.4-0.3,0.7h-0.1c0-0.5,0-0.5,0-0.6c0-0.2-0.1-0.4-0.4-0.7l-0.3-0.3
				l-0.9,0.8l0.3,0.3c0.2,0.3,0.3,0.3,0.7,0.1l0.1,0.1c-0.2,0.1-0.3,0.2-0.4,0.4c-0.1,0.1-0.3,0.2-0.4,0.4L44.4,13
				c0.3-0.4,0.2-0.5-0.1-0.8L44.1,12l-0.5,0.5c-0.4,0.4-0.4,0.4,0,0.8l0.1,0.2c0.2,0.2,0.3,0.3,1.1,0.2v0.1
				c-0.3,0.1-0.4,0.2-0.7,0.3l-1.5-1.8l0.1-0.1c0.2,0.2,0.3,0.2,0.4,0.1c0.2-0.1,0.3-0.2,0.6-0.5l0.6-0.5c0.1-0.1,0.4-0.4,0.4-0.4
				C44.8,10.7,44.8,10.7,44.8,10.4L44.8,10.4z"/>
			<path class="st1" d="M46.7,12.6c0.1,0.1,0.2,0.3,0.3,0.4c0,0.1,0.2,0.4,0.3,0.4c0.1,0.2,0.3,0.4,0.3,0.6c0.1,0.3-0.1,0.6-0.3,0.7
				c-0.1,0.1-0.2,0.1-0.4,0.1c-0.3,0-0.5-0.1-0.6-0.2c-0.1,0.4-0.2,0.8-0.4,1.2c-0.1,0.2-0.1,0.3,0,0.5v0.1
				c-0.1-0.1-0.1-0.2-0.2-0.3c-0.1-0.1-0.1-0.2-0.2-0.2c0.1-0.2,0.1-0.3,0.2-0.6c0.1-0.3,0.2-0.6,0.3-1c0-0.1-0.1-0.1-0.1-0.1
				l-0.1-0.1c-0.4,0.3-0.6,0.4-0.7,0.5c-0.2,0.2-0.2,0.2,0,0.5l-0.1,0.1c-0.1-0.2-0.2-0.3-0.3-0.5c-0.1-0.2-0.2-0.3-0.3-0.5l0.1-0.1
				c0.2,0.3,0.2,0.2,0.7-0.1l1-0.7c0.1-0.1,0.4-0.3,0.5-0.4S46.7,12.7,46.7,12.6L46.7,12.6z M47,13.3L46,14c0,0.1,0.1,0.1,0.1,0.1
				c0.2,0.3,0.4,0.4,0.5,0.4c0.2,0,0.3,0,0.5-0.1s0.3-0.3,0.3-0.4c0-0.2,0-0.3-0.2-0.5L47,13.3z"/>
			<path class="st1" d="M48.1,14.5c0.1,0.2,0.2,0.4,0.3,0.5c0.1,0.2,0.2,0.4,0.3,0.5l-0.1,0.1c-0.1-0.2-0.2-0.3-0.3-0.2
				c-0.1,0.1-0.8,0.9-1,1c-0.2,0.2-0.2,0.3-0.5,0.5c0.8-0.1,1.2-0.2,1.6-0.2c0.1,0,0.3,0,0.4-0.1c0.2-0.1,0.1-0.3,0-0.4l0.1-0.1
				c0.1,0.1,0.1,0.3,0.2,0.4c0.1,0.1,0.2,0.3,0.2,0.4L49.2,17c-0.2-0.2-0.3-0.2-0.9-0.1c-0.7,0.1-1.5,0.2-2.1,0.3V17l1.5-1.8
				c0.2-0.3,0.3-0.4,0.2-0.6L48.1,14.5z"/>
			<path class="st1" d="M49.4,17.1c0.1,0.2,0.1,0.4,0.2,0.5c0.1,0.2,0.2,0.3,0.2,0.5h-0.1c-0.2-0.3-0.2-0.3-0.7-0.1l-1.3,0.6
				c-0.5,0.2-0.5,0.2-0.4,0.5h-0.1c-0.1-0.2-0.1-0.3-0.2-0.5c-0.1-0.2-0.2-0.3-0.2-0.5H47c0.2,0.3,0.2,0.3,0.5,0.1
				c0.2-0.1,0.3-0.1,0.4-0.2l0.7-0.3c0.5-0.2,0.6-0.2,0.6-0.3c0.2-0.1,0.2-0.2,0.1-0.4L49.4,17.1z"/>
			<path class="st1" d="M48.9,21.6c-0.5-0.1-0.9-0.4-1-0.9c-0.3-0.8,0.1-1.5,0.9-1.7c0.9-0.3,1.6,0.2,1.8,0.9c0.2,0.5,0,0.8,0,1
				l0.2,0.1L50,21.2v-0.1c0.1-0.1,0.2-0.2,0.3-0.3c0.2-0.3,0.3-0.6,0.2-0.9c-0.2-0.5-0.7-0.8-1.5-0.6c-0.7,0.2-1.2,0.8-1,1.5
				C48.3,21.3,48.7,21.4,48.9,21.6L48.9,21.6z"/>
			<path class="st1" d="M51,21.3l0.4,1.9c-0.3,0.2-0.4,0.2-0.6,0.5l-0.1-0.1c0.3-0.4,0.3-0.4,0.3-0.5c0.1-0.2,0.1-0.3,0-0.8l0.1-0.3
				L50,22.3l0.1,0.4c0.1,0.4,0.2,0.4,0.6,0.4v0.1c-0.2,0-0.4,0.1-0.6,0.1c-0.2,0-0.4,0.1-0.5,0.1v-0.1c0.4-0.2,0.4-0.3,0.3-0.7
				l-0.1-0.3l-0.7,0.1c-0.5,0.1-0.6,0.1-0.5,0.7v0.2c0.1,0.3,0.1,0.4,0.8,0.7V24c-0.4,0-0.5,0-0.8-0.1l-0.5-2.1h0.1
				c0.1,0.3,0.2,0.3,0.3,0.3c0.2,0,0.4-0.1,0.8-0.1l0.7-0.1c0.1,0,0.5-0.1,0.6-0.2c0.1-0.1,0.1-0.1,0.1-0.3L51,21.3z"/>
			<path class="st1" d="M49.6,24.5c-0.2,0-0.3,0.1-0.4,0.2c-0.2,0.2-0.3,0.4-0.3,0.7s0.2,0.6,0.6,0.5c0.1,0,0.3-0.1,0.4-0.3
				c0.1-0.1,0.1-0.2,0.2-0.5c0-0.2,0.2-0.7,0.7-0.7s0.8,0.3,0.9,0.8c0,0.3,0,0.4-0.1,0.6l0.1,0.1l-0.8,0.1v-0.1
				c0.2-0.1,0.7-0.3,0.7-0.8c0-0.3-0.3-0.5-0.5-0.5c-0.1,0-0.3,0.1-0.3,0.2c-0.1,0.1-0.1,0.3-0.2,0.6c-0.1,0.3-0.2,0.8-0.8,0.8
				c-0.5,0-0.9-0.4-1-0.9c0-0.4,0.1-0.5,0.1-0.7l-0.2-0.2C49.2,24.5,49.3,24.5,49.6,24.5L49.6,24.5z"/>
			<path class="st1" d="M48.6,26.5c0,0.1,0.1,0.3,0.3,0.3c0.1,0,0.1-0.1,0.1-0.1c0-0.1,0.1-0.2,0.2-0.2c0.1,0,0.2,0.1,0.2,0.2
				c0,0.1-0.1,0.3-0.4,0.3c-0.2,0-0.5-0.1-0.6-0.5C48.4,26.5,48.6,26.5,48.6,26.5z"/>
			<path class="st1" d="M51.7,28.3c0,0.2,0,0.4-0.1,0.5c0,0.2,0,0.4,0,0.5h-0.1c0-0.3,0-0.4-0.6-0.4h-1.3c-0.5,0-0.5,0-0.6,0.3h-0.1
				c0-0.2,0-0.4,0-0.5c0-0.2,0-0.4,0-0.6H49c0,0.3,0.1,0.3,0.4,0.4c0.2,0,0.3,0,0.5,0h0.7c0.5,0,0.6,0,0.7,0c0.2,0,0.2-0.1,0.2-0.3
				L51.7,28.3z"/>
			<path class="st1" d="M51.7,29.9c0,0.1,0,0.2-0.1,0.4c0,0.1,0,0.2,0,0.4c-0.2,0.1-0.3,0.1-0.6,0.3c-0.4,0.2-1.5,0.9-1.8,1.1
				c1.1,0.2,1.3,0.2,1.5,0.2c0.5,0.1,0.5,0,0.5-0.4h0.1c0,0.2-0.1,0.3-0.1,0.5s0,0.3-0.1,0.5h-0.1c0-0.3,0-0.3-0.3-0.4
				c-0.2,0-1.9-0.4-2.2-0.4v-0.1l2.6-1.5c-0.3,0-1.6-0.3-1.8-0.3c-0.2,0-0.3,0.1-0.4,0.4h-0.1c0-0.2,0.1-0.3,0.1-0.5s0-0.3,0.1-0.5
				h0.1c0,0.1,0,0.2,0,0.3c0,0,0.1,0.1,0.5,0.1l1.7,0.3c0.2-0.1,0.2-0.2,0.2-0.4L51.7,29.9z"/>
			<path class="st1" d="M48.4,34.8c-0.3-0.4-0.5-0.8-0.3-1.3c0.2-0.8,1-1.2,1.7-1c0.9,0.3,1.3,1.1,1,1.7c-0.1,0.5-0.4,0.7-0.6,0.8
				l0.1,0.2l-0.8-0.2V35c0.2,0,0.3,0,0.5-0.1c0.4-0.1,0.6-0.4,0.7-0.6c0.1-0.5-0.1-1.1-0.9-1.3c-0.7-0.2-1.5,0-1.6,0.7
				c-0.2,0.5,0.1,0.8,0.3,1L48.4,34.8z"/>
		</g>
	</g>
	<path class="st1" d="M44.1,33.6c0,0.3-0.2,0.5-0.6,0.5c-0.3,0-0.6-0.2-0.6-0.5s0.2-0.5,0.6-0.5S44.1,33.3,44.1,33.6z M43.2,33.6
		c0,0.2,0.2,0.4,0.4,0.4c0.2,0,0.4-0.2,0.4-0.4c0-0.2-0.2-0.4-0.4-0.4C43.3,33.2,43.2,33.4,43.2,33.6z M43.5,33.9L43.5,33.9
		l-0.1-0.5c0,0,0.1,0,0.2,0c0.1,0,0.2,0,0.2,0v0.1c0,0.1,0,0.1-0.1,0.1l0,0l0.1,0.1c0,0.1,0,0.1,0,0.1h-0.1v-0.1
		c0-0.1,0-0.1-0.1-0.1h-0.1L43.5,33.9z M43.5,33.6L43.5,33.6c0.1,0,0.2,0,0.2-0.1c0,0,0-0.1-0.1-0.1h-0.1
		C43.5,33.5,43.5,33.6,43.5,33.6z"/>
	<g>
		<path class="st2" d="M13.8,38.2c-0.2,0.1-0.4,0.3-0.8,0.1c-0.3-0.1-0.6-0.4-0.8-0.7c-0.1-0.2-0.5-0.7-0.3-1.2
			c0.1-0.3,0.2-0.4,0.7-0.7c0.4-0.3,0.6-0.3,1,0c-0.1-0.3-0.1-0.5,0.4-0.9c0.3-0.2,0.9-0.6,1.6,0.5c0.2,0.3,0.3,0.6,0.3,0.9
			c0,0.5-0.3,0.7-0.4,0.8c-0.4,0.3-0.6,0.4-1.1,0.1c0.1,0.5,0,0.6-0.4,0.9L13.8,38.2z M13.3,36.6c-0.2,0.1-0.4,0.3-0.5,0.3
			c-0.1,0.1,0,0.2,0,0.3c0.2,0.3,0.3,0.2,0.8-0.1c0.3-0.2,0.5-0.3,0.3-0.6C13.7,36.4,13.5,36.5,13.3,36.6z M14.6,35.8
			c-0.3,0.2-0.4,0.3-0.2,0.5c0.1,0.1,0.1,0.2,0.2,0.2c0.1,0,0.2,0,0.5-0.2c0.2-0.1,0.3-0.2,0.1-0.5C14.9,35.5,14.7,35.6,14.6,35.8z"
			/>
		<path class="st2" d="M15.8,37.5c0.3-0.3,0.9-0.8,1.7,0.1c0.3,0.3,0.6,0.7,0.6,1.1c0,0.4-0.2,0.6-0.5,0.8l-1.2,1.2
			c-0.4,0.4-0.9,0.7-1.7-0.1c-0.6-0.6-0.9-1.1-0.2-1.7L15.8,37.5z M17,38.6c0.1-0.1,0.2-0.2,0-0.5s-0.4-0.1-0.5,0l-1.3,1.5
			c-0.1,0.2-0.2,0.3,0,0.5s0.4,0.1,0.5,0L17,38.6z"/>
		<path class="st2" d="M17.9,39.6c0.2-0.3,0.7-0.9,1.7-0.2c0.4,0.2,0.7,0.5,0.8,1c0.1,0.4-0.1,0.6-0.3,0.9l-1,1.3
			c-0.3,0.5-0.8,0.9-1.7,0.2c-0.7-0.5-1-1-0.5-1.6L17.9,39.6z M19.3,40.4c0-0.1,0.2-0.3-0.1-0.5s-0.4,0-0.5,0.1l-1.1,1.6
			c-0.1,0.2-0.2,0.3,0.1,0.5s0.4,0,0.5-0.1L19.3,40.4z"/>
		<path class="st2" d="M21.7,42.4l-0.3,0.6l-1.5-0.7l0.3-0.6L21.7,42.4z"/>
		<path class="st2" d="M24.1,44.6c-0.1,0.2-0.1,0.5-0.5,0.6c-0.3,0.1-0.7,0-1,0c-0.2-0.1-0.8-0.2-1-0.7c-0.1-0.2-0.1-0.4,0.1-1
			c0.1-0.5,0.2-0.6,0.8-0.7c-0.3-0.2-0.5-0.3-0.3-1c0.1-0.3,0.3-1,1.5-0.7c0.3,0.1,0.6,0.2,0.8,0.4c0.3,0.3,0.2,0.7,0.2,0.9
			c-0.1,0.5-0.2,0.8-0.8,0.8c0.4,0.3,0.4,0.5,0.3,0.9L24.1,44.6z M22.7,43.8c0,0.2-0.1,0.5-0.1,0.6s0.1,0.2,0.2,0.2
			c0.3,0.1,0.4-0.1,0.5-0.5c0.1-0.4,0.2-0.6-0.2-0.7C22.9,43.3,22.8,43.5,22.7,43.8z M23.2,42.3c-0.1,0.3-0.1,0.5,0.2,0.6
			c0.1,0,0.2,0,0.3,0s0.1-0.1,0.2-0.5c0.1-0.2,0.1-0.4-0.2-0.5C23.3,41.9,23.3,42.1,23.2,42.3z"/>
		<path class="st2" d="M25.2,42.7c0-0.3,0.1-0.7,0.5-0.9c0.2-0.1,0.5-0.2,0.9-0.1c0.6,0,0.9,0.2,1,0.4c0.3,0.3,0.2,0.5,0.2,0.9
			c0,0.7-0.1,0.7-0.8,1.2c-0.7,0.5-0.7,0.5-0.9,0.8l1.5,0.1l-0.1,0.8l-2.6-0.2c0.1-0.9,0.1-1.1,1.1-1.7c0.6-0.4,0.7-0.5,0.8-0.8
			v-0.3c0-0.1,0-0.4-0.3-0.4c-0.4,0-0.4,0.2-0.4,0.3v0.6l-0.9-0.1L25.2,42.7z"/>
		<path class="st2" d="M28.1,42.7c0-0.2,0-0.5,0.3-0.8c0.3-0.2,0.8-0.3,0.9-0.3c0.3,0,0.6,0,0.9,0.1c0.4,0.2,0.4,0.5,0.5,0.9
			c0.1,0.4,0,0.6-0.4,0.9c0.6,0.1,0.6,0.4,0.6,1c0.1,0.6,0.1,1.2-1.2,1.3c-1.2,0.1-1.4-0.3-1.4-0.8v-0.5l1-0.1v0.4
			c0,0.1,0,0.4,0.4,0.3c0.4,0,0.3-0.3,0.3-0.6c-0.1-0.5-0.1-0.6-0.4-0.6h-0.4L29,43.3c0.7-0.1,0.8-0.1,0.8-0.5s-0.1-0.6-0.4-0.6
			c-0.3,0-0.3,0.3-0.3,0.4V43l-0.9,0.2L28.1,42.7z"/>
		<path class="st2" d="M32.7,42.7l0.2,0.7l-1.6,0.5l-0.2-0.8L32.7,42.7z"/>
		<path class="st2" d="M35.9,42.6c0.2,0.3,0.2,0.6,0.1,0.9c-0.1,0.2-0.4,0.5-0.8,0.7c-0.6,0.3-1,0.2-1.1,0.2
			c-0.4-0.1-0.5-0.3-0.7-0.8l0.9-0.4l0.1,0.3c0,0.1,0.1,0.3,0.5,0.2c0.3-0.1,0.3-0.3,0.2-0.5l-0.3-0.8c-0.1,0.2-0.2,0.3-0.5,0.5
			s-0.7,0.2-0.9,0c-0.2-0.1-0.4-0.4-0.5-0.7c-0.2-0.5-0.3-0.8-0.2-1.1c0-0.1,0.2-0.4,0.8-0.7c1.2-0.5,1.5,0.2,1.6,0.5L35.9,42.6z
			 M33.8,41.7c0,0.1,0.2,0.5,0.3,0.5c0.1,0.1,0.3,0.1,0.4,0.1s0.2-0.1,0.2-0.2c0-0.1,0-0.2-0.2-0.5c-0.2-0.4-0.3-0.6-0.6-0.5
			C33.6,41.3,33.7,41.5,33.8,41.7z"/>
		<path class="st2" d="M35.6,40.2c0.3-0.3,0.4-0.5,0.3-0.9l0.7-0.5l2.3,3.2l-0.8,0.6l-1.6-2.3c-0.2,0.3-0.2,0.4-0.4,0.6L35.6,40.2z"
			/>
		<path class="st2" d="M37.9,38.8c-0.1-0.1-0.4-0.3-0.3-0.7s0.4-0.7,0.5-0.8c0.2-0.2,0.5-0.4,0.8-0.5c0.4-0.1,0.6,0.1,1,0.4
			c0.3,0.3,0.4,0.4,0.3,1c0.5-0.3,0.7-0.1,1.1,0.3c0.5,0.4,0.9,0.8,0,1.7c-0.8,0.9-1.2,0.7-1.5,0.3l-0.3-0.3l0.7-0.7l0.3,0.3
			c0.1,0.1,0.3,0.3,0.5,0s0.1-0.4-0.1-0.6c-0.4-0.4-0.5-0.4-0.7-0.2l-0.3,0.3l-0.5-0.5c0.5-0.5,0.5-0.6,0.3-0.8
			c-0.3-0.3-0.5-0.4-0.7-0.2c-0.2,0.2-0.1,0.4,0,0.5l0.2,0.2l-0.7,0.7L37.9,38.8z"/>
		<path class="st2" d="M39.9,36.7c-0.2-0.1-0.4-0.3-0.4-0.7s0.2-0.8,0.3-0.9c0.2-0.3,0.4-0.5,0.7-0.7c0.4-0.2,0.6,0,1,0.2
			s0.5,0.4,0.4,0.9c0.4-0.4,0.7-0.2,1.2,0.1c0.5,0.3,1,0.6,0.3,1.7c-0.7,1-1.1,0.9-1.5,0.6l-0.4-0.3l0.5-0.8l0.4,0.2
			c0.1,0.1,0.3,0.2,0.5-0.1c0.2-0.3,0-0.4-0.3-0.6c-0.4-0.3-0.5-0.3-0.8,0l-0.2,0.4l-0.6-0.4c0.4-0.6,0.4-0.7,0.1-0.9
			c-0.4-0.2-0.5-0.3-0.7,0c-0.2,0.3,0,0.4,0.1,0.5l0.3,0.2l-0.5,0.8L39.9,36.7z"/>
	</g>
	<path class="st2" d="M24.6,22.8h4.8c2.1,0,2.8,0.6,2.8,1.9v1.9c0,1.8-1,2.1-2.6,2.1h-2v3.5h-2.9L24.6,22.8L24.6,22.8z M28.5,27.2
		c1.1,0,1.1-0.2,1.1-1.5c0-0.9,0-1.1-0.4-1.3c-0.2-0.1-1.4-0.1-1.6-0.1v2.8L28.5,27.2L28.5,27.2z"/>
	<path class="st1" d="M19.6,25.8h-2.9v-0.6c0-0.5-0.1-0.9-1-0.9c-0.8,0-0.9,0.4-0.9,0.9v4.6c0,0.6,0.1,1,1,1c1,0,1-0.5,1-1v-1.2h2.9
		v0.9c0,1.7-0.5,2.8-4,2.8c-3.2,0-3.8-1-3.8-2.4v-4.6c0-0.7,0.1-1.3,0.6-1.7c0.9-0.9,2.4-0.9,3.3-0.9c1.1,0,2.1,0.1,2.9,0.6
		c0.9,0.6,1,1.4,1,1.9v0.6L19.6,25.8L19.6,25.8z"/>
	<path class="st3" d="M37.8,27.8l1,0.6V25c0-0.4,0.3-0.7,0.7-0.7h0.6c0.4,0,0.7,0.3,0.7,0.7v0.8h2.6c0.1-2-0.2-3-3.4-3
		c-3,0-3.8,0.8-3.8,2.7C36.2,26.8,36.7,27,37.8,27.8z"/>
	<path class="st3" d="M42.1,27.5l-1.3-0.7v3.3c0,0.4-0.3,0.7-0.7,0.7h-0.6c-0.4,0-0.7-0.3-0.7-0.7v-1.4H36c0,1.2,0,2.5,0.8,3
		c0.7,0.4,1.6,0.6,3,0.6c1.7,0,2.5-0.3,3-0.7s0.8-0.9,0.8-1.9C43.6,28.3,43.2,28.1,42.1,27.5z"/>
	<g>
		<path class="st1" d="M11.7,18.4c0.5,0.1,0.8,0.2,0.9,0.3l0,0c-0.1-0.1-0.3-0.3-0.7-0.7l0.1-0.2c0.6,0.2,0.8,0.2,0.9,0.3l0,0
			c-0.1-0.1-0.2-0.2-0.7-0.7l0.1-0.2l0.8,0.9l-0.1,0.2c-0.4-0.1-0.8-0.2-0.9-0.3l0,0c0.1,0.1,0.3,0.3,0.6,0.7l-0.1,0.2l-1.1-0.3
			L11.7,18.4z"/>
		<path class="st1" d="M12.5,17c0.5,0.2,0.8,0.3,0.9,0.4l0,0c-0.1-0.1-0.2-0.3-0.6-0.8l0.1-0.1c0.6,0.2,0.8,0.3,0.9,0.3l0,0
			c-0.1-0.1-0.2-0.2-0.6-0.7l0.1-0.2l0.7,0.9L13.9,17c-0.4-0.1-0.8-0.3-0.9-0.3l0,0c0.1,0.1,0.3,0.4,0.6,0.7l-0.1,0.2l-1.1-0.4
			L12.5,17z"/>
		<path class="st1" d="M13.6,15.7c0.5,0.2,0.8,0.4,0.9,0.5l0,0c-0.1-0.1-0.2-0.3-0.5-0.8l0.1-0.1c0.6,0.3,0.8,0.4,0.9,0.4l0,0
			c-0.1-0.1-0.2-0.2-0.5-0.8l0.1-0.1l0.6,1L15.1,16c-0.4-0.2-0.7-0.4-0.8-0.4l0,0c0.1,0.1,0.3,0.4,0.5,0.8l-0.3-0.1l-1.1-0.5
			L13.6,15.7z"/>
		<path class="st1" d="M15.3,15.4l-0.2-0.2l0.1-0.1l0.2,0.2L15.3,15.4z"/>
		<path class="st1" d="M16.2,14c0.1,0.2,0.1,0.5-0.1,0.8c-0.3,0.3-0.7,0.2-1-0.1c-0.3-0.3-0.4-0.7,0-1.1c0.3-0.2,0.6-0.2,0.8-0.1
			l-0.3,0.2c-0.1-0.1-0.3-0.1-0.5,0.1c-0.2,0.2-0.1,0.6,0.1,0.8c0.2,0.2,0.5,0.4,0.8,0.1c0.2-0.2,0.2-0.3,0.1-0.5L16.2,14z"/>
		<path class="st1" d="M17.1,13.1c0.2,0.2,0.2,0.6,0,0.8s-0.6,0.1-0.8-0.1s-0.2-0.6,0-0.8C16.5,12.8,16.8,12.9,17.1,13.1z
			 M16.4,13.7c0.1,0.2,0.4,0.3,0.5,0.1c0.1-0.2,0.1-0.3,0-0.5s-0.4-0.3-0.5-0.1C16.2,13.3,16.2,13.5,16.4,13.7z"/>
		<path class="st1" d="M17.1,12.8c0-0.1-0.1-0.2-0.2-0.2l0.2-0.1l0.1,0.1c0-0.1,0-0.2,0.2-0.4c0.2-0.1,0.4-0.1,0.5,0.1l0.4,0.6
			L18,13l-0.4-0.6c-0.1-0.1-0.2-0.2-0.4-0.1c-0.2,0.1-0.1,0.3,0,0.5l0.3,0.5v0.1L17.1,12.8z"/>
		<path class="st1" d="M19.3,12.2c0.2,0.3,0.2,0.6-0.2,0.7c-0.3,0.2-0.5,0.1-0.6-0.1l0.2-0.1c0.1,0.1,0.2,0.1,0.3,0
			c0.2-0.1,0.2-0.3,0.1-0.5v-0.1c0,0.1,0,0.2-0.2,0.4c-0.2,0.1-0.5,0-0.7-0.2c-0.2-0.3-0.1-0.6,0.1-0.8c0.2-0.1,0.3-0.1,0.4,0
			l-0.1-0.1l0.2-0.1c0,0.1,0.1,0.2,0.2,0.3L19.3,12.2z M18.3,12.2c0.1,0.2,0.3,0.3,0.5,0.2s0.2-0.3,0.1-0.5
			c-0.1-0.2-0.3-0.3-0.5-0.2C18.2,11.8,18.2,12,18.3,12.2z"/>
		<path class="st1" d="M19.6,12.2l-0.8-1.4l0.2-0.1l0.8,1.4L19.6,12.2z"/>
		<path class="st1" d="M20.6,11.1c0.1,0.3,0.1,0.6-0.2,0.8c-0.3,0.1-0.6,0-0.7-0.3S19.7,11,20,10.8C20.2,10.7,20.4,10.8,20.6,11.1z
			 M19.9,11.4c0.1,0.2,0.3,0.3,0.5,0.2s0.2-0.3,0.1-0.5C20.3,11,20.2,10.9,20,11C19.8,11,19.8,11.2,19.9,11.4z"/>
		<path class="st1" d="M20.7,10.7c0-0.1-0.1-0.2-0.1-0.3l0.2-0.1c0,0,0,0.1,0.1,0.2c0-0.1,0.1-0.2,0.2-0.3c0.1-0.1,0.3,0,0.4,0.1
			c0-0.1,0.1-0.2,0.3-0.3s0.4,0,0.5,0.3l0.2,0.7l-0.2,0.1l-0.2-0.7c0-0.1-0.1-0.2-0.3-0.2c-0.2,0.1-0.2,0.2-0.1,0.4l0.2,0.6
			l-0.2,0.1l-0.3-0.7c0-0.1-0.1-0.2-0.3-0.2c-0.2,0.1-0.2,0.2-0.1,0.4l0.2,0.6L21,11.5L20.7,10.7z"/>
		<path class="st1" d="M22.7,10.4c0.1,0.2,0.2,0.3,0.4,0.3c0.2-0.1,0.2-0.1,0.2-0.2l0.2-0.1c0,0.1-0.1,0.4-0.4,0.4
			c-0.3,0.1-0.5-0.1-0.6-0.4s0-0.6,0.3-0.7c0.4-0.1,0.5,0.1,0.6,0.4v0.1L22.7,10.4z M23.2,10.1c0-0.2-0.2-0.3-0.4-0.2
			c-0.2,0.1-0.2,0.2-0.2,0.4L23.2,10.1z"/>
		<path class="st1" d="M23.6,9.8c0-0.1,0-0.2-0.1-0.3h0.2c0,0,0,0.1,0,0.2c0-0.2,0.1-0.3,0.3-0.3v0.2c-0.2,0.1-0.3,0.2-0.3,0.5
			l0.1,0.5h-0.2V9.8z"/>
		<path class="st1" d="M25.2,10.1c0,0.1,0,0.2,0,0.2H25v-0.1c0,0.1-0.1,0.2-0.3,0.2c-0.3,0-0.4-0.1-0.4-0.3s0.1-0.4,0.5-0.4
			c0.1,0,0.1,0,0.2,0V9.6c0-0.1-0.1-0.2-0.3-0.2s-0.2,0.1-0.2,0.2h-0.2c0-0.1,0-0.4,0.4-0.4c0.3,0,0.4,0,0.5,0.3
			C25.2,9.5,25.2,10.1,25.2,10.1z M25,9.8c0,0-0.1,0-0.2,0c-0.2,0-0.3,0.1-0.3,0.3c0,0.1,0.1,0.2,0.2,0.2C25,10.2,25,10.1,25,9.8
			L25,9.8z"/>
		<path class="st1" d="M25.3,9.2h0.2V8.9h0.2v0.3h0.2v0.2h-0.2l0.1,0.6c0,0.1,0,0.2,0.1,0.1H26v0.1c0,0-0.1,0-0.2,0
			c-0.2,0-0.3-0.1-0.3-0.2l-0.1-0.7h-0.2L25.3,9.2z"/>
		<path class="st1" d="M26.2,9.7c0,0.2,0.1,0.4,0.3,0.4s0.2-0.1,0.3-0.2H27c0,0.1-0.1,0.3-0.5,0.4c-0.4,0-0.5-0.2-0.5-0.5
			s0.1-0.6,0.5-0.6S27,9.5,27,9.7v0.1L26.2,9.7z M26.8,9.5c0-0.2-0.1-0.3-0.3-0.3s-0.3,0.1-0.3,0.4L26.8,9.5z"/>
		<path class="st1" d="M27.3,8.6h0.6c0.3,0,0.5,0.2,0.5,0.4c0,0.3-0.2,0.5-0.5,0.4h-0.4V10h-0.2V8.6z M27.5,9.4h0.4
			c0.2,0,0.3-0.1,0.3-0.3s-0.1-0.3-0.3-0.3h-0.4V9.4z"/>
		<path class="st1" d="M28.6,9.4c0-0.2,0-0.2,0-0.3h0.2c0,0,0,0.1,0,0.2c0.1-0.1,0.2-0.2,0.4-0.2v0.2c-0.2,0-0.4,0.1-0.4,0.4v0.5
			h-0.2V9.4z"/>
		<path class="st1" d="M29.3,9.1h0.2l-0.1,1.1h-0.2L29.3,9.1z M29.4,8.6h0.2v0.2h-0.2V8.6z"/>
		<path class="st1" d="M29.8,9.5c0-0.1,0-0.2,0-0.3H30c0,0,0,0.1,0,0.2c0.1-0.1,0.2-0.2,0.4-0.2c0.2,0,0.4,0.2,0.3,0.5l-0.1,0.7
			h-0.2l0.1-0.7c0-0.2,0-0.3-0.2-0.3S30,9.5,29.9,9.7l-0.1,0.6h-0.2L29.8,9.5z"/>
		<path class="st1" d="M31,9.4h0.2l0.1-0.3h0.2l-0.1,0.3l0.2,0.1v0.1l-0.2-0.1l-0.1,0.6c0,0.1,0,0.2,0.1,0.2h0.1v0.1
			c0,0-0.1,0-0.2,0c-0.2,0-0.2-0.1-0.2-0.3l0.1-0.7H31L31,9.4z"/>
		<path class="st1" d="M31.8,9.5h0.2l-0.3,1.1h-0.2L31.8,9.5z M31.9,9h0.2L32,9.3h-0.2L31.9,9z"/>
		<path class="st1" d="M32.2,9.9c0-0.1,0-0.2,0.1-0.3l0.2,0.1c0,0,0,0.1,0,0.2c0.1-0.1,0.2-0.2,0.4-0.1c0.2,0.1,0.3,0.2,0.2,0.5
			L32.9,11l-0.2-0.1l0.2-0.7c0-0.2,0-0.3-0.2-0.3c-0.2-0.1-0.3,0.1-0.4,0.3l-0.2,0.6L32,10.7L32.2,9.9z"/>
		<path class="st1" d="M34,11.2c-0.1,0.3-0.3,0.5-0.7,0.4C33,11.5,33,11.3,33,11.2l0.2,0.1c0,0.1,0.1,0.2,0.2,0.3
			c0.2,0.1,0.3,0,0.4-0.3v-0.1c-0.1,0.1-0.2,0.1-0.4,0.1c-0.3-0.1-0.4-0.4-0.2-0.7c0.1-0.3,0.4-0.5,0.7-0.4c0.2,0.1,0.2,0.2,0.2,0.3
			c0-0.1,0-0.1,0.1-0.1l0.2,0.1c0,0.1-0.1,0.2-0.1,0.3L34,11.2z M33.5,10.6c-0.1,0.2,0,0.4,0.2,0.5c0.2,0.1,0.3-0.1,0.4-0.3
			s0.1-0.4-0.2-0.5C33.7,10.2,33.5,10.4,33.5,10.6z"/>
		<path class="st1" d="M34.6,11.2c0,0.2,0,0.3,0.2,0.4s0.3,0,0.4-0.1s0-0.2-0.2-0.4c-0.3-0.2-0.4-0.4-0.3-0.6s0.3-0.3,0.6-0.2
			s0.4,0.4,0.3,0.6l-0.2-0.1c0-0.1,0-0.3-0.2-0.4s-0.3,0-0.4,0.1s0,0.2,0.2,0.4c0.4,0.3,0.4,0.5,0.3,0.6c-0.1,0.2-0.3,0.3-0.7,0.2
			c-0.3-0.2-0.4-0.4-0.3-0.6L34.6,11.2z"/>
		<path class="st1" d="M35.7,11.5c-0.1,0.2-0.1,0.4,0.1,0.5c0.2,0.1,0.2,0,0.3,0l0.2,0.1c-0.1,0.1-0.3,0.2-0.6,0.1
			c-0.3-0.2-0.3-0.5-0.2-0.7c0.2-0.3,0.4-0.4,0.7-0.3c0.3,0.2,0.3,0.5,0.2,0.7V12L35.7,11.5z M36.3,11.7c0.1-0.2,0.1-0.3-0.1-0.4
			c-0.2-0.1-0.3,0-0.4,0.1L36.3,11.7z"/>
		<path class="st1" d="M36.8,11.8c0.1-0.1,0.1-0.2,0.2-0.3l0.2,0.1c0,0-0.1,0.1-0.1,0.2c0.1-0.1,0.3-0.1,0.5,0L37.4,12
			c-0.2-0.1-0.4-0.1-0.5,0.2l-0.3,0.5l-0.2-0.1L36.8,11.8z"/>
		<path class="st1" d="M37.7,12c-0.1,0.5-0.2,0.8-0.3,0.9l0,0c0.1-0.1,0.4-0.3,0.8-0.6l0.2,0.1l-1,0.7L37.3,13l0.3-1.1L37.7,12z"/>
		<path class="st1" d="M38.5,12.6l0.2,0.1L38,13.6l-0.2-0.1L38.5,12.6z M38.8,12.2l0.2,0.1l-0.2,0.2l-0.1-0.1L38.8,12.2z"/>
		<path class="st1" d="M39.2,14c-0.2,0.1-0.4,0.2-0.6,0s-0.2-0.5,0-0.8c0.2-0.2,0.5-0.3,0.8-0.1c0.2,0.2,0.2,0.4,0.1,0.6l-0.2-0.1
			c0-0.1,0.1-0.2-0.1-0.3c-0.2-0.1-0.3-0.1-0.5,0.1c-0.2,0.2-0.2,0.4,0,0.5c0.1,0.1,0.2,0.1,0.3,0L39.2,14z"/>
		<path class="st1" d="M39.6,14.1c-0.2,0.2-0.2,0.4,0,0.5c0.1,0.1,0.2,0.1,0.3,0.1l0.1,0.1c-0.1,0.1-0.3,0.1-0.6-0.1
			c-0.3-0.2-0.2-0.6,0-0.8c0.2-0.2,0.5-0.3,0.8-0.1s0.2,0.5,0,0.7c0,0,0,0.1-0.1,0.1L39.6,14.1z M40.1,14.4c0.1-0.1,0.2-0.3,0-0.4
			c-0.1-0.1-0.3-0.1-0.5,0L40.1,14.4z"/>
		<path class="st1" d="M40.3,15.1c-0.1,0.1-0.1,0.2,0,0.3s0.2,0.1,0.3,0c0.1-0.1,0.1-0.1,0-0.3c-0.2-0.3-0.1-0.4,0-0.5
			c0.1-0.1,0.3-0.1,0.5,0.1c0.2,0.2,0.2,0.4,0.1,0.5L41,15.1c0-0.1,0.1-0.2,0-0.3s-0.2-0.1-0.2,0c-0.1,0.1-0.1,0.1,0,0.3
			c0.2,0.3,0.1,0.4,0,0.5c-0.1,0.1-0.3,0.1-0.5-0.1c-0.2-0.2-0.2-0.4-0.1-0.6C40.3,14.9,40.3,15.1,40.3,15.1z"/>
		<path class="st1" d="M40.5,16l0.2-0.2l0.1,0.1l-0.1,0.2L40.5,16z"/>
		<path class="st1" d="M41.7,16.8c-0.2,0.1-0.4,0.1-0.6-0.1s-0.1-0.5,0.1-0.8c0.2-0.2,0.6-0.2,0.8,0c0.2,0.2,0.1,0.5,0,0.6l-0.1-0.1
			c0.1-0.1,0.1-0.2,0-0.3c-0.1-0.1-0.3-0.1-0.5,0c-0.2,0.2-0.3,0.4-0.1,0.5c0.1,0.1,0.2,0.1,0.3,0.1L41.7,16.8z"/>
		<path class="st1" d="M42.5,17.6c-0.3,0.2-0.6,0.2-0.8-0.1s-0.1-0.6,0.2-0.8c0.3-0.2,0.6-0.2,0.8,0.1
			C42.9,17.1,42.8,17.3,42.5,17.6z M42.1,16.9c-0.2,0.1-0.3,0.3-0.2,0.5s0.3,0.2,0.5,0c0.2-0.1,0.3-0.3,0.2-0.5
			C42.5,16.8,42.3,16.8,42.1,16.9z"/>
		<path class="st1" d="M42.9,17.6c0.1,0,0.2-0.1,0.2-0.1l0.1,0.2l-0.1,0.1c0.1,0,0.2,0,0.3,0.2c0.1,0.1,0.1,0.3,0,0.4
			c0.1,0,0.3,0,0.3,0.2c0.1,0.2,0.1,0.4-0.2,0.5l-0.6,0.4v-0.3l0.6-0.4c0.1-0.1,0.2-0.2,0.1-0.3c-0.1-0.2-0.2-0.2-0.4,0l-0.5,0.3
			l-0.1-0.2l0.6-0.4c0.1-0.1,0.2-0.2,0.1-0.3c-0.1-0.1-0.3-0.2-0.4,0l-0.6,0.3L42.2,18L42.9,17.6z"/>
	</g>
	<g>
		<g>
			<path class="st4" d="M7.3,25.5l0.1-0.9h0.2l-0.1,0.6h0.3l0.1-0.6h0.2L8,25.3h0.5v0.3H7.3z"/>
			<path class="st4" d="M7.6,23.3l0.1-0.1h0.1h0.1c0.1,0,0.1,0,0.1,0.1c0.1,0,0.1,0.1,0.1,0.2l0.1-0.1c0,0,0.1,0,0.2,0h0.1
				c0.1,0,0.1,0,0.1,0h0.1l0,0v0.3H8.6H8.5H8.4c-0.1,0-0.1,0-0.2,0s-0.1,0.1-0.1,0.1L8.2,24l0.5,0.1l-0.1,0.2l-1.2-0.2l0.1-0.6
				C7.6,23.4,7.6,23.4,7.6,23.3z M7.7,23.9L8,24l0.1-0.3c0-0.1,0-0.1,0-0.1L8,23.5c-0.1,0-0.1,0-0.2,0v0.1L7.7,23.9z"/>
			<path class="st4" d="M9,21.9c0.1,0.1,0.1,0.3,0,0.4c-0.1,0.2-0.1,0.3-0.2,0.4c-0.1,0.1-0.3,0.1-0.5,0.1C8.2,22.7,8,22.6,8,22.5
				c-0.1-0.2-0.1-0.3-0.1-0.5C8,21.8,8,21.7,8.1,21.6c0.1-0.1,0.3-0.1,0.5-0.1C8.9,21.6,9,21.7,9,21.9z M8.9,22
				c-0.1-0.1-0.1-0.1-0.3-0.2c-0.1,0-0.2,0-0.3,0S8.2,21.9,8.1,22c0,0.1,0,0.2,0,0.3c0.1,0.1,0.1,0.1,0.3,0.2c0.1,0,0.2,0,0.3,0
				s0.1-0.1,0.2-0.2C9,22.1,8.9,22.1,8.9,22z"/>
			<path class="st4" d="M8.6,20l0.1-0.4L9.7,20l-0.1,0.2l-0.8-0.3H8.8H8.7l0.9,0.6l-0.1,0.2l-1-0.1h0.1h0.1l0.8,0.3l-0.1,0.2
				l-1.1-0.4l0.1-0.4l0.9,0.1L8.6,20z"/>
			<path class="st4" d="M10.1,18.5c0.1,0,0.1,0,0.1,0c0.1,0,0.1-0.1,0.2-0.2c0-0.1,0.1-0.1,0.1-0.1c0-0.1,0-0.1-0.1-0.2h-0.1
				l-0.1,0.1l-0.1,0.1c-0.1,0.1-0.2,0.2-0.2,0.2c-0.1,0-0.2,0-0.3,0s-0.1-0.1-0.2-0.2c0-0.1,0-0.2,0.1-0.4c0.1-0.1,0.1-0.2,0.2-0.3
				c0.1,0,0.2,0,0.3,0l-0.1,0.2c-0.1,0-0.1,0-0.2,0l-0.1,0.1c0,0.1-0.1,0.1,0,0.2c0,0,0,0.1,0.1,0.1h0.1L9.9,18l0.1-0.2
				c0.1-0.1,0.1-0.1,0.2-0.1c0.1,0,0.2,0,0.3,0s0.1,0.1,0.2,0.2c0,0.1,0,0.2-0.1,0.4c-0.1,0.1-0.2,0.2-0.3,0.3s-0.2,0-0.3,0
				L10.1,18.5z"/>
			<path class="st4" d="M10.1,16.9l0.1-0.2l0.6,0.4c0.1,0,0.1,0.1,0.2,0.1s0.1,0,0.2-0.1c0.1-0.1,0.1-0.2,0-0.2l-0.1-0.1l-0.6-0.5
				l0.1-0.2l0.6,0.4c0.1,0.1,0.2,0.1,0.2,0.2c0.1,0.1,0,0.3-0.1,0.5s-0.2,0.3-0.4,0.3c-0.1,0-0.2,0-0.3-0.1L10.1,16.9z"/>
			<path class="st4" d="M12,15.2c0,0.1,0,0.2-0.1,0.3l-0.2,0.2L12,16l-0.2,0.2L11,15.5l0.3-0.4c0.1-0.1,0.2-0.2,0.2-0.2
				c0.1,0,0.2,0,0.3,0.1C11.9,15,12,15.1,12,15.2z M11.6,15.1c0,0-0.1,0-0.1,0.1l-0.1,0.2l0.3,0.2l0.1-0.2l0.1-0.1
				c0,0,0-0.1-0.1-0.1S11.7,15.1,11.6,15.1z"/>
			<path class="st4" d="M12.7,13.7l-0.4,0.5l0.2,0.2l0.4-0.5L13,14l-0.4,0.5l0.2,0.2l0.5-0.5l0.2,0.1l-0.6,0.7L12,14.2l0.6-0.7
				L12.7,13.7z"/>
			<path class="st4" d="M13.6,12.5c0.1,0,0.1,0,0.1,0h0.1c0,0,0.1,0,0.1,0.1l0.1,0.1c0,0.1,0,0.1,0,0.2c0.1,0,0.1,0,0.1,0
				c0.1,0,0.1,0.1,0.1,0.1l0.1,0.1l0.1,0.1h0.1l0,0l-0.1,0.2c0,0,0,0-0.1,0c0,0-0.1,0-0.1-0.1l-0.1-0.1C14,13.1,14,13.1,14,13.1
				s-0.1,0-0.1,0.1l-0.2,0.2l0.3,0.3l-0.2,0.2L13,13l0.4-0.4C13.6,12.6,13.6,12.5,13.6,12.5z M13.4,13l0.2,0.2l0.2-0.2l0.1-0.1
				c0-0.1,0-0.1,0-0.1c-0.1-0.1-0.1-0.1-0.1-0.1s-0.1,0-0.1,0.1L13.4,13z"/>
			<path class="st4" d="M15.2,12.6L15,12.8l-0.8-0.9l0.2-0.2L15.2,12.6z"/>
			<path class="st4" d="M16.4,11.6c0,0.1-0.1,0.2-0.2,0.4c-0.1,0.2-0.3,0.1-0.4,0.1c-0.2,0-0.3-0.1-0.4-0.3s-0.2-0.3-0.1-0.5
				c0-0.1,0.1-0.2,0.2-0.4s0.3-0.1,0.4-0.1c0.2,0,0.3,0.1,0.5,0.3C16.3,11.3,16.4,11.4,16.4,11.6z M16.1,11.5c0-0.1,0-0.2-0.1-0.3
				c-0.1-0.1-0.2-0.2-0.3-0.2s-0.2,0-0.3,0.1s-0.1,0.1-0.1,0.2c0,0.1,0,0.2,0.1,0.3s0.2,0.2,0.3,0.2s0.2,0,0.3-0.1
				C16.1,11.7,16.1,11.6,16.1,11.5z"/>
			<path class="st4" d="M17.1,9.9h0.1c0,0,0.1,0,0.1,0.1l0.1,0.1c0,0.1,0,0.1,0,0.2s0,0.1-0.1,0.2c0.1,0,0.1,0,0.1,0l0.1,0.1v0.1
				c0,0.1,0,0.1,0.1,0.1c0,0,0,0,0.1,0l0,0l-0.2,0.1l0,0c0,0,0-0.1-0.1-0.1l-0.1-0.1c0-0.1-0.1-0.1-0.1-0.1s-0.1,0-0.1,0.1l-0.2,0.1
				l0.2,0.4l-0.2,0.1l-0.6-1l0.5-0.3C17,10,17.1,9.9,17.1,9.9z M16.7,10.4l0.2,0.3l0.2-0.1l0.1-0.1c0-0.1,0-0.1,0-0.1
				c0-0.1-0.1-0.1-0.1-0.1s-0.1,0-0.1,0.1L16.7,10.4z"/>
			<path class="st4" d="M19.4,8.6l0.1,0.2L19.2,9l0.4,0.9L19.4,10L19,9.1l-0.3,0.2l-0.2-0.2L19.4,8.6z"/>
			<path class="st4" d="M21.2,9.1c-0.1,0.1-0.2,0.2-0.3,0.3c-0.2,0.1-0.3,0.1-0.4,0c-0.2-0.1-0.3-0.2-0.4-0.4
				c-0.1-0.2-0.1-0.4,0-0.5c0.1-0.1,0.2-0.2,0.3-0.3c0.2-0.1,0.3-0.1,0.4,0c0.2,0.1,0.3,0.2,0.4,0.4C21.2,8.7,21.2,8.9,21.2,9.1z
				 M20.9,8.9c0-0.1,0-0.2,0-0.3s-0.1-0.2-0.2-0.3c-0.1-0.1-0.2-0.1-0.3,0s-0.1,0.2-0.2,0.2c0,0.1,0,0.2,0,0.3S20.4,9,20.5,9
				c0.1,0.1,0.2,0.1,0.3,0C20.8,9.1,20.9,9,20.9,8.9z"/>
			<path class="st4" d="M22.8,8.3c0,0.1,0,0.1,0.1,0.1c0,0,0.1,0,0.2,0c0.1,0,0.1,0,0.1-0.1c0.2,0,0.2,0,0.2-0.1c0,0,0-0.1-0.1-0.1
				c0,0-0.1,0-0.2,0H23c-0.1,0-0.2,0-0.3,0S22.5,8,22.5,8c0-0.1,0-0.2,0.1-0.3s0.2-0.2,0.3-0.2s0.2,0,0.4,0c0.1,0,0.1,0.1,0.2,0.2
				l-0.2,0.1c0-0.1-0.1-0.1-0.1-0.1s-0.1,0-0.2,0c-0.1,0-0.1,0-0.1,0.1v0.1c0,0,0,0.1,0.1,0.1c0,0,0.1,0,0.2,0h0.2
				c0.1,0,0.2,0,0.2,0c0.1,0,0.1,0.1,0.2,0.2c0,0.1,0,0.2-0.1,0.3c-0.2,0.1-0.3,0.2-0.5,0.2s-0.3,0-0.4,0c-0.1,0-0.2-0.1-0.2-0.3
				H22.8z"/>
			<path class="st4" d="M23.9,7.3h0.3L24.3,8c0,0.1,0,0.1,0.1,0.2c0,0.1,0.1,0.1,0.2,0.1c0.1,0,0.2-0.1,0.2-0.1s0-0.1,0-0.2
				l-0.1-0.7H25L25.1,8c0,0.1,0,0.2,0,0.3c-0.1,0.1-0.2,0.2-0.4,0.3c-0.2,0-0.4,0-0.5-0.1c0-0.1-0.1-0.2-0.1-0.3L23.9,7.3z"/>
			<path class="st4" d="M26.5,7.1c0,0.1,0.1,0.1,0.1,0.2c0,0.1,0,0.1,0,0.2c0,0,0,0.1-0.1,0.1c0.1,0,0.1,0.1,0.1,0.1
				s0.1,0.1,0.1,0.2c0,0.1,0,0.1,0,0.2c0,0,0,0.1-0.1,0.1l-0.1,0.1c0,0-0.1,0-0.2,0h-0.6l-0.1-1.2L26.2,7C26.3,7,26.4,7,26.5,7.1z
				 M25.9,7.2v0.3h0.3h0.1V7.4c0-0.1,0-0.1-0.1-0.1H26L25.9,7.2z M26,7.7V8h0.3h0.1l0.1-0.1c0-0.1,0-0.1-0.1-0.1h-0.1L26,7.7z"/>
			<path class="st4" d="M27.3,6.9h0.3v1h0.6v0.2h-0.9V6.9z"/>
			<path class="st4" d="M29,8.2h-0.3L28.8,7h0.3L29,8.2z"/>
			<path class="st4" d="M30.5,7.1l0.4,0.1l-0.1,1.2h-0.2l0.1-0.8V7.5V7.4l-0.4,0.9h-0.2l-0.1-1v0.1v0.1l-0.1,0.8h-0.3l0.1-1.2
				l0.4,0.1V8L30.5,7.1z"/>
			<path class="st4" d="M32.3,7.7l-0.6-0.1v0.2l0.6,0.1v0.2L31.8,8l-0.1,0.3l0.7,0.1v0.2l-0.9-0.2l0.2-1.2l0.9,0.2L32.3,7.7z"/>
			<path class="st4" d="M34,8.1c0.1-0.1,0.3-0.1,0.4,0c0.2,0.1,0.3,0.2,0.4,0.3c0,0.1,0,0.2,0,0.2h-0.3c0-0.1,0-0.1,0-0.1
				c0-0.1-0.1-0.1-0.2-0.1c-0.1,0-0.2,0-0.2,0S34,8.4,33.9,8.5c0,0.1,0,0.2,0,0.3S34,8.9,34.1,9c0.1,0,0.2,0,0.2,0l0.1-0.1L34.6,9
				c-0.1,0.1-0.2,0.2-0.3,0.2c-0.1,0.1-0.2,0.1-0.4,0c-0.2-0.1-0.3-0.2-0.3-0.3c-0.1-0.1-0.1-0.3,0-0.5S33.8,8.2,34,8.1z"/>
			<path class="st4" d="M35.4,8.4l0.3,0.1l-0.3,0.7c0,0.1,0,0.1,0,0.2c0,0.1,0,0.1,0.2,0.2c0.1,0,0.2,0,0.2,0l0.1-0.1l0.3-0.7
				l0.2,0.1l-0.3,0.6c0,0.1-0.1,0.2-0.2,0.2c-0.1,0.1-0.3,0.1-0.5,0s-0.3-0.2-0.3-0.4c0-0.1,0-0.2,0.1-0.3L35.4,8.4z"/>
			<path class="st4" d="M36.8,10c0,0.1,0,0.1,0,0.1c0,0.1,0.1,0.1,0.2,0.2c0.1,0,0.1,0.1,0.2,0.1c0.1,0,0.1,0,0.2-0.1v-0.1l-0.1-0.1
				L37.1,10C37,9.9,37,9.8,37,9.8c0-0.1,0-0.2,0-0.3s0.1-0.1,0.2-0.2s0.2,0,0.4,0.1c0.1,0.1,0.2,0.1,0.3,0.2c0,0.1,0,0.2,0,0.3
				l-0.2-0.1c0-0.1,0-0.1,0-0.2l-0.1-0.1c-0.1,0-0.1-0.1-0.2-0.1c-0.1,0-0.1,0-0.1,0.1v0.1l0.1,0.1l0.2,0.1c0.1,0.1,0.1,0.1,0.2,0.2
				c0,0.1,0,0.2,0,0.3s-0.5,0.2-0.6,0.2c-0.1,0-0.2,0-0.4-0.1c-0.2-0.1-0.2-0.2-0.3-0.3c-0.1-0.1,0-0.2,0-0.3L36.8,10z"/>
			<path class="st4" d="M39.1,10.4L39,10.6l-0.3-0.2l-0.5,0.8L38,11l0.5-0.8l-0.3-0.2l0.1-0.2L39.1,10.4z"/>
			<path class="st4" d="M39.7,12.1c-0.1,0-0.3,0-0.4-0.1s-0.2-0.2-0.2-0.4s0-0.3,0.1-0.5s0.3-0.3,0.5-0.3c0.1,0,0.3,0,0.4,0.1
				s0.2,0.2,0.2,0.4s0,0.3-0.1,0.5C40,12,39.9,12.1,39.7,12.1z M39.7,11.9c0.1,0,0.2-0.1,0.3-0.2c0.1-0.1,0.1-0.2,0.1-0.3
				s0-0.2-0.1-0.2c-0.1-0.1-0.2-0.1-0.3-0.1s-0.2,0.1-0.3,0.2c-0.1,0.1-0.1,0.2-0.1,0.3s0,0.2,0.1,0.2
				C39.5,11.9,39.6,11.9,39.7,11.9z"/>
			<path class="st4" d="M41.5,12.4l0.3,0.3L41,13.6l-0.2-0.2l0.5-0.6c0,0,0,0,0.1-0.1s0-0.1,0.1-0.1l-0.8,0.6L40.5,13l0.5-0.9
				c0,0,0,0-0.1,0.1c0,0,0,0.1-0.1,0.1l-0.5,0.6l-0.2-0.2l0.8-0.9l0.3,0.3l-0.5,0.8L41.5,12.4z"/>
			<path class="st4" d="M42.8,14l-0.5-0.5l-0.2,0.2l0.4,0.4l-0.2,0.1l-0.4-0.4L41.7,14l0.5,0.5L42,14.5l-0.7-0.7l0.9-0.8l0.6,0.7
				L42.8,14z"/>
			<path class="st4" d="M43.8,14.9c0,0.1,0,0.1,0,0.1v0.1c0,0,0,0.1-0.1,0.1c0,0-0.1,0.1-0.2,0.1s-0.1,0-0.2-0.1c0,0.1,0,0.1,0,0.2
				l-0.1,0.1h-0.1L43,15.6c0,0,0,0,0,0.1l0,0l-0.2-0.2l0,0c0,0,0,0,0.1-0.1l0.1-0.1c0.1,0,0.1-0.1,0.1-0.1s0-0.1-0.1-0.1l-0.2-0.2
				l-0.2,0.3L42.5,15l0.9-0.7L43.8,14.9C43.8,14.8,43.8,14.8,43.8,14.9z M43.3,14.6l-0.2,0.2l0.2,0.2l0.1,0.1c0,0,0.1,0,0.2,0
				c0.1-0.1,0.1-0.1,0.1-0.1s0-0.1-0.1-0.1L43.3,14.6z"/>
			<path class="st4" d="M44.3,16.9L44.2,17c0,0.1,0,0.1,0.1,0.2l0.1,0.1c0.1,0,0.1,0.1,0.2,0c0,0,0,0,0-0.1s0-0.1,0-0.2v-0.1
				c0-0.1-0.1-0.2-0.1-0.3s0-0.2,0.2-0.2c0.1-0.1,0.2-0.1,0.3,0c0.1,0,0.2,0.1,0.3,0.3c0.1,0.1,0.1,0.2,0.1,0.4
				c0,0.1-0.1,0.2-0.2,0.3l-0.1-0.2c0.1,0,0.1-0.1,0.1-0.2c0,0,0-0.1-0.1-0.1c0-0.1-0.1-0.1-0.1-0.1h-0.1v0.1c0,0,0,0.1,0,0.2
				l0.1,0.2c0,0.1,0,0.2,0,0.2c0,0.1-0.1,0.2-0.2,0.2c-0.1,0.1-0.2,0.1-0.3,0c-0.1,0-0.2-0.1-0.3-0.3c-0.1-0.1-0.1-0.3-0.1-0.4
				c0-0.1,0.1-0.2,0.2-0.3L44.3,16.9z"/>
			<path class="st4" d="M46,18.6L45.6,18l-0.2,0.1l0.3,0.5l-0.2,0.1l-0.3-0.5l-0.3,0.1l0.3,0.6L45,19l-0.3-0.8l1-0.5l0.4,0.8
				L46,18.6z"/>
			<path class="st4" d="M46.6,19.8v0.1c0,0,0,0.1-0.1,0.1c0,0-0.1,0-0.1,0.1c0,0-0.1,0-0.2,0c-0.1,0-0.1,0-0.2-0.1
				c0,0.1,0,0.1,0,0.1s-0.1,0.1-0.2,0.1h-0.1h-0.1c0,0,0,0,0,0.1l0,0l-0.1-0.1l0,0h0.1h0.1c0.1,0,0.1-0.1,0.1-0.1V20l-0.1-0.2
				L45.4,20l-0.1-0.2l1.1-0.5l0.2,0.6C46.6,19.7,46.6,19.7,46.6,19.8z M46.3,19.4L46,19.5l0.1,0.3c0,0,0,0.1,0.1,0.1
				c0,0,0.1,0,0.2,0c0.1,0,0.1-0.1,0.1-0.1v-0.1L46.3,19.4z"/>
			<path class="st4" d="M47.2,21.3l0.1,0.3H46l-0.1-0.2l1-0.8l0.1,0.3l-0.8,0.5L47.2,21.3z"/>
			<path class="st4" d="M46.4,22.6l-0.1-0.2l1.1-0.3l0.1,0.2L46.4,22.6z"/>
			<path class="st4" d="M47.6,23.1c0.1,0.1,0.2,0.2,0.2,0.4c0,0.2,0,0.4-0.1,0.5c-0.1,0-0.1,0-0.2,0.1v-0.3l0.1-0.1
				c0-0.1,0-0.1,0-0.2c0-0.1-0.1-0.2-0.2-0.2c-0.1,0-0.2,0-0.3,0s-0.2,0.1-0.3,0.1c0,0.1-0.1,0.1-0.1,0.2s0.1,0.1,0.1,0.2
				c0,0,0.1,0,0.2,0v0.3c-0.1,0-0.2,0-0.3-0.1c-0.1-0.1-0.2-0.2-0.2-0.3c0-0.2,0-0.3,0.1-0.5C46.7,23,46.8,23,47,23
				C47.3,23,47.4,23,47.6,23.1z"/>
			<path class="st4" d="M47.9,25.5l-0.1-0.7L47.5,25l0.1,0.6h-0.2L47.3,25H47l0.1,0.7h-0.2l-0.1-1l1.2-0.1l0.1,0.9L47.9,25.5z"/>
		</g>
	</g>
	<g>
		<g>
			<path class="st5" d="M8.4,38l-1.2,0.6c-0.3,0.2-0.3,0.5-0.2,0.7c0.1,0.2,0.4,0.3,0.6,0.2l1.3-0.7L9,38.9l-1.3,0.7
				c-0.3,0.2-0.6,0-0.8-0.2C6.8,39.2,6.8,39,7,38.7c-0.3,0-0.4-0.1-0.6-0.3c-0.2-0.3-0.1-0.6,0.2-0.8L7.9,37v0.1l-1.2,0.7
				c-0.2,0.1-0.3,0.4-0.2,0.6c0.1,0.2,0.4,0.3,0.7,0.1L8.4,38L8.4,38z"/>
			<path class="st5" d="M7.7,40.5l1.6-1.1l0,0l-0.7,0.5l0.6,0.9l0.7-0.5l0.1,0.1l-1.6,1.1l-0.1-0.1L9,40.9L8.5,40L7.7,40.5L7.7,40.5
				z"/>
			<path class="st5" d="M10.2,42.4l-0.7-0.8c-0.4,0.4-0.4,0.9-0.1,1.2l0.1,0.1l-0.1,0.1l-0.1-0.2c-0.3-0.4-0.3-1,0.1-1.3
				c0.5-0.4,1.1-0.2,1.4,0.1l0.1,0.2l-0.1,0.1v-0.2c-0.3-0.4-0.9-0.4-1.2-0.2L10.2,42.4L10.2,42.4z"/>
			<path class="st5" d="M9.9,43.4l1-1c0.3-0.3,0.6-0.3,0.9,0s0.3,0.6,0,0.8c-0.2,0.2-0.4,0.2-0.6,0.1l0,0c0.1,0.2,0.1,0.4-0.1,0.6
				l-0.4,0.4l-0.1-0.1l0.4-0.4c0.1-0.1,0.2-0.3-0.1-0.6l-0.3-0.3l0.1-0.1l0.2,0.2c0.2,0.2,0.5,0.2,0.7,0.1c0.2-0.2,0.2-0.4,0-0.6
				c-0.2-0.2-0.5-0.2-0.7,0L9.9,43.4L9.9,43.4z"/>
			<path class="st5" d="M12.6,44.8l-0.8-0.7c-0.4,0.4-0.2,1,0.1,1.2l0.1,0.1L12,45.4l-0.2-0.2c-0.4-0.3-0.5-0.9-0.1-1.3
				s1-0.4,1.4-0.1l0.2,0.2l-0.1,0.1l-0.2-0.2c-0.4-0.3-0.9-0.3-1.2,0L12.6,44.8L12.6,44.8z"/>
			<path class="st5" d="M13.6,46.6l0.3,0.2c0.3,0.2,0.5,0.2,0.7,0c0.2-0.2,0.1-0.5-0.1-0.7l-0.4-0.3l0.1-0.1l0.2,0.2
				c0.3,0.2,0.5,0.2,0.7,0c0.1-0.2,0.1-0.4-0.1-0.6c-0.2-0.2-0.5-0.2-0.7,0.1l-0.8,1.1l-0.1-0.1l0.8-1.1c0.3-0.4,0.6-0.4,0.9-0.2
				c0.3,0.2,0.3,0.5,0.2,0.7c-0.2,0.4-0.4,0.5-0.6,0.4l0,0c0.1,0.1,0.2,0.4,0,0.7c-0.2,0.2-0.5,0.3-0.8,0.1L13.6,46.6L13.6,46.6z"/>
			<path class="st5" d="M14.9,47.6l0.7-1.2c0.2-0.3,0.5-0.4,0.8-0.2c0.3,0.2,0.4,0.5,0.2,0.7c-0.1,0.2-0.3,0.3-0.5,0.2l0,0
				c0.2,0.1,0.2,0.3,0.1,0.6l-0.3,0.5h-0.1l0.3-0.5c0.1-0.2,0.1-0.4-0.2-0.6l-0.4-0.2l0.1-0.1l0.3,0.2c0.3,0.2,0.5,0.1,0.7-0.1
				c0.1-0.2,0-0.5-0.2-0.6c-0.3-0.2-0.5-0.1-0.7,0.2L14.9,47.6L14.9,47.6z"/>
			<path class="st5" d="M16.6,48.5l0.9-1.6h0.1l-0.9,1.6H16.6z"/>
			<path class="st5" d="M18.2,47.3l-0.6,1.2c-0.1,0.2,0,0.5,0.2,0.6l0.3,0.2v0.1l-0.4-0.2c-0.2,0-0.3-0.3-0.2-0.7L18.2,47.3
				L18.2,47.3z"/>
			<path class="st5" d="M19.4,47.8L18.9,49c-0.1,0.2,0,0.5,0.2,0.6l0.4,0.1v0.1l-0.4-0.2c-0.2-0.1-0.4-0.4-0.3-0.7l0.5-1.3
				L19.4,47.8z"/>
			<path class="st5" d="M20,50.1l0.6-1.7h0.1l-0.6,1.7H20z"/>
			<path class="st5" d="M22.1,50.7H22l0.2-0.9l-1-0.3v-0.1l1,0.3l0.1-0.3c0.1-0.3-0.1-0.6-0.4-0.7c-0.3-0.1-0.6,0-0.7,0.4l-0.4,1.3
				h-0.1l0.3-1.3c0.1-0.4,0.4-0.6,0.8-0.5c0.4,0.1,0.6,0.4,0.5,0.8L22.1,50.7z"/>
			<path class="st5" d="M22.8,50.9l0.3-1.7c0-0.1,0.1-0.2,0.2-0.1c0.1,0,0.1,0,0.1,0.2l0.5,1.8l0,0l0,0l0.5-1.9h0.1L24.1,51
				c0,0.1-0.1,0.1-0.2,0.1c-0.1,0-0.1-0.1-0.1-0.2l-0.5-1.7c0-0.1,0-0.1-0.1-0.1l0,0L23,50.8L22.8,50.9z"/>
			<path class="st5" d="M25.3,51.1h-0.1l0.2-1.7l-0.5-0.1v-0.1l1.2,0.1v0.1l-0.5-0.1L25.3,51.1z"/>
			<path class="st5" d="M27.4,51.3v-1.9h0.1v1.9H27.4z"/>
			<path class="st5" d="M28.3,51.3l-0.1-1.9h0.4c0.5,0,1,0.3,1,0.9c0,0.6-0.4,1-0.9,1L28.3,51.3l0.1-0.2h0.3c0.5,0,0.8-0.5,0.8-0.9
				c0-0.5-0.4-0.8-1-0.8h-0.3L28.3,51.3C28.3,51.2,28.3,51.3,28.3,51.3z"/>
			<path class="st5" d="M31.3,50.1l-1.1,0.1c0.1,0.6,0.6,0.8,1,0.7h0.2V51h-0.2c-0.5,0.1-1-0.2-1.1-0.8c-0.1-0.6,0.4-1,0.8-1.1h0.2
				v0.1h-0.2c-0.5,0.1-0.8,0.5-0.7,0.9L31.3,50.1L31.3,50.1z"/>
			<path class="st5" d="M33.3,50.7L33.3,50.7L33,49.8L32,50v-0.1l1-0.2l-0.1-0.3c-0.1-0.3-0.3-0.5-0.7-0.4c-0.3,0.1-0.5,0.3-0.4,0.6
				l0.3,1.3H32l-0.3-1.3c-0.1-0.4,0.1-0.7,0.5-0.8c0.4-0.1,0.7,0.1,0.8,0.5L33.3,50.7z"/>
			<path class="st5" d="M34.6,48.4L34,48.6c-0.3,0.1-0.4,0.2-0.3,0.5c0.2,0.6,1.2-0.1,1.3,0.6c0.1,0.3-0.1,0.5-0.4,0.7L34,50.5v-0.1
				l0.7-0.2c0.3-0.1,0.4-0.3,0.4-0.5c-0.2-0.6-1.2,0.1-1.3-0.7c-0.1-0.3,0.1-0.5,0.4-0.6l0.7-0.2L34.6,48.4z"/>
			<path class="st5" d="M38,49L38,49l-0.5-0.9l-0.9,0.4v-0.1l0.9-0.4l-0.1-0.3c-0.1-0.3-0.4-0.4-0.7-0.3s-0.4,0.4-0.3,0.7l0.5,1.2
				h-0.1l-0.5-1.2c-0.2-0.4,0-0.7,0.3-0.9s0.7,0,0.9,0.3L38,49z"/>
			<path class="st5" d="M38.6,48.6l-0.7-1.2c-0.2-0.3-0.1-0.7,0.2-0.8c0.3-0.1,0.6-0.1,0.8,0.2c0.1,0.2,0.1,0.4,0,0.6l0,0
				c0.2-0.1,0.4,0,0.5,0.2l0.3,0.5h-0.1l-0.3-0.5c-0.1-0.2-0.3-0.3-0.6-0.1l-0.3,0.2v-0.1l0.3-0.2c0.3-0.2,0.4-0.4,0.2-0.6
				c-0.1-0.2-0.4-0.3-0.6-0.1C38,47,38,47.2,38.1,47.5L38.6,48.6L38.6,48.6z"/>
			<path class="st5" d="M40.6,46.4L39.8,47c0.3,0.5,0.9,0.5,1.2,0.2l0.2-0.1v0.1l-0.2,0.1c-0.4,0.3-1,0.2-1.3-0.3
				c-0.3-0.5-0.1-1.1,0.3-1.3l0.2-0.1v0.1L40,45.8c-0.4,0.3-0.5,0.8-0.3,1.1L40.6,46.4L40.6,46.4z"/>
			<path class="st5" d="M42.6,46.1l-0.9-1.1c-0.2-0.2-0.2-0.6,0.1-0.8c0.3-0.2,0.6-0.2,0.8,0.1c0.2,0.3,0.2,0.6-0.1,0.8l-0.3,0.2
				l-0.1-0.1l0.3-0.2c0.2-0.2,0.2-0.5,0-0.7c-0.2-0.2-0.5-0.2-0.7-0.1c-0.2,0.2-0.2,0.5-0.1,0.7L42.6,46.1L42.6,46.1z"/>
			<path class="st5" d="M43.8,45.1l-1-1c-0.3-0.3-0.3-0.6,0-0.8s0.6-0.3,0.8,0c0.2,0.2,0.2,0.4,0.1,0.6l0,0c0.2-0.1,0.4-0.1,0.6,0.1
				l0.4,0.4l-0.1-0.1l-0.4-0.4c-0.1-0.2-0.3-0.2-0.6,0l-0.3,0.3l-0.1-0.1l0.2-0.2c0.2-0.2,0.2-0.5,0.1-0.7c-0.2-0.2-0.4-0.2-0.6,0
				c-0.2,0.2-0.2,0.5,0,0.7L43.8,45.1L43.8,45.1z"/>
			<path class="st5" d="M45.2,43.6l-1.3-1.3l0.1-0.1L45.2,43.6L45.2,43.6z"/>
			<path class="st5" d="M45.8,43l-1.3-1.2c-0.1,0-0.1-0.1,0-0.2c0-0.1,0.1-0.1,0.2,0l1.8,0.5c0,0,0,0,0.1,0c0,0,0,0,0-0.1l-1.3-1.2
				l0.1-0.1l1.5,1.2c0.1,0.1,0.1,0.1,0,0.2c-0.1,0.1-0.2,0.1-0.2,0l-1.9-0.5c-0.1,0-0.1,0-0.1,0s0,0,0,0.1L45.8,43L45.8,43z"/>
			<path class="st5" d="M47.3,41L47.3,41l-1.5-1l-0.3,0.5l-0.1-0.1l0.7-1l0.1,0.1L45.9,40L47.3,41z"/>
			<path class="st5" d="M47.7,38.8l-0.5,0.9c0.5,0.3,1,0,1.2-0.3l0.1-0.2h0.1l-0.1,0.2c-0.2,0.4-0.8,0.7-1.3,0.3
				c-0.5-0.3-0.6-0.9-0.3-1.3l0.1-0.2h0.1l-0.3,0.3c-0.3,0.4-0.1,1,0.2,1.2L47.7,38.8L47.7,38.8z"/>
			<path class="st5" d="M48.8,38.7L47,37.8l0.2-0.4c0.2-0.5,0.8-0.7,1.3-0.5c0.5,0.3,0.7,0.8,0.5,1.3l-0.1,0.3h-0.1l0.1-0.2
				c0.2-0.5,0-0.9-0.4-1.1c-0.4-0.2-1,0-1.2,0.4l-0.1,0.2L48.8,38.7L48.8,38.7z"/>
		</g>
	</g>
	<g>
		<path class="st4" d="M8.8,31.5H8.6l-0.1-0.4l-1,0.2L7.4,31l1-0.2l-0.1-0.4h0.2L8.8,31.5z"/>
		<path class="st4" d="M7.7,32.2l1.1-0.3l0.1,0.3l-0.4,0.1l0.1,0.5L9,32.7l0.1,0.2l-1.2,0.3v-0.3l0.5-0.1l-0.1-0.5l-0.5,0.1
			L7.7,32.2z"/>
		<path class="st4" d="M9.3,34.2L9,33.7l-0.2,0.1L9,34.3H8.9l-0.2-0.6l-0.3,0.1l0.2,0.7l-0.2,0.1l-0.3-0.9l1.1-0.4l0.3,0.9L9.3,34.2
			L9.3,34.2z"/>
		<path class="st4" d="M9.7,36.4c-0.1,0-0.2-0.1-0.2-0.2L9.4,36L9,36.2L8.9,36l1.1-0.5l0.2,0.5c0.1,0.1,0.1,0.2,0.1,0.3
			c0,0.1-0.1,0.2-0.2,0.2C9.9,36.4,9.8,36.4,9.7,36.4z M10,36c0,0,0-0.1,0-0.2l-0.1-0.2l-0.3,0.2L9.7,36c0,0.1,0.1,0.1,0.1,0.1
			L10,36L10,36z"/>
		<path class="st4" d="M10.1,37.9c-0.1,0-0.2-0.1-0.3-0.3c-0.1-0.2-0.1-0.3-0.1-0.4c0-0.2,0.1-0.3,0.3-0.4s0.4-0.1,0.5-0.1
			s0.2,0.1,0.3,0.3c0.1,0.2,0.1,0.3,0.1,0.4c0,0.2-0.1,0.3-0.3,0.4S10.3,37.9,10.1,37.9z M10.2,37.6c0.1,0,0.2,0,0.3-0.1
			s0.2-0.1,0.2-0.2s0-0.2,0-0.3c0-0.1-0.1-0.2-0.2-0.2c-0.1,0-0.2,0-0.3,0.1S10,37.1,10,37.1c0,0.1,0,0.2,0,0.3
			C10,37.6,10.1,37.6,10.2,37.6z"/>
		<path class="st4" d="M11.5,38L11,38.5l-0.1,0.1l0.2-0.1l0.6-0.3l0.1,0.3L11.3,39l-0.1,0.1l0.2-0.1l0.7-0.2l0.1,0.2L11,39.4
			l-0.1-0.2l0.5-0.5l0.2-0.2l-0.2,0.1L10.7,39l-0.1-0.2l0.8-1L11.5,38z"/>
		<path class="st4" d="M12.8,40.2l-0.4-0.5l-0.2,0.2l0.4,0.5h-0.2L12,39.9l-0.2,0.2l0.4,0.5l-0.2,0.1l-0.6-0.8l0.9-0.8l0.6,0.7
			L12.8,40.2z"/>
		<path class="st4" d="M13.8,41L13.8,41v0.2c0,0,0,0.1-0.1,0.1l-0.1,0.1c-0.1,0-0.1,0-0.2,0c0,0.1,0,0.1,0,0.2c0,0-0.1,0.1-0.1,0.2
			l-0.1,0.1L13.1,42c0,0,0,0,0,0.1l0,0l-0.2-0.2c0,0,0,0,0-0.1c0,0,0,0,0.1-0.1l0.1-0.1c0.1,0,0.1-0.1,0.1-0.1s0-0.1-0.1-0.1
			l-0.2-0.2l-0.3,0.2l-0.2-0.2l0.9-0.8L13.8,41C13.8,40.9,13.8,41,13.8,41z M13.3,40.7l-0.2,0.2l0.2,0.2l0.1,0.1c0.1,0,0.1,0,0.1,0
			c0.1,0,0.1-0.1,0.1-0.2c0,0,0-0.1-0.1-0.1L13.3,40.7z"/>
		<path class="st4" d="M14.8,43.4c-0.1,0-0.3,0-0.4-0.2c-0.1-0.1-0.2-0.2-0.2-0.4c0-0.2,0-0.3,0.2-0.5c0.1-0.2,0.3-0.2,0.5-0.2
			c0.1,0,0.3,0,0.4,0.2c0.1,0.1,0.2,0.2,0.2,0.4c0,0.2,0,0.3-0.2,0.5C15.2,43.3,15,43.3,14.8,43.4z M14.8,43.1
			c0.1,0,0.2-0.1,0.3-0.2c0.1-0.1,0.1-0.2,0.1-0.3c0-0.1,0-0.2-0.1-0.2c-0.1-0.1-0.1-0.1-0.2-0.1c-0.1,0-0.2,0.1-0.3,0.2
			c-0.1,0.1-0.1,0.2-0.1,0.3s0,0.2,0.1,0.2C14.7,43.1,14.7,43.1,14.8,43.1z"/>
		<path class="st4" d="M16,42.9l0.7,0.5l-0.1,0.2l-0.5-0.4l-0.2,0.2l0.5,0.3l-0.1,0.2l-0.5-0.3L15.6,44l-0.2-0.2L16,42.9z"/>
		<path class="st4" d="M18.4,44.7l-0.6-0.3l-0.1,0.2l0.5,0.3l-0.1,0.2l-0.5-0.3l-0.1,0.3l0.6,0.3L18,45.5l-0.8-0.5l0.6-1l0.8,0.5
			L18.4,44.7z"/>
		<path class="st4" d="M18.6,45.8l-0.3-0.1l0.6-0.4l-0.1-0.7l0.3,0.1v0.5l0.4-0.2l0.3,0.1l-0.6,0.3l0.1,0.7L19,46v-0.5L18.6,45.8z"
			/>
		<path class="st4" d="M20.7,46.2c-0.1,0-0.2,0-0.3,0l-0.2-0.1l-0.2,0.4l-0.2-0.1l0.4-1.1l0.5,0.2c0.1,0,0.2,0.1,0.2,0.2
			c0,0.1,0,0.2,0,0.3C20.8,46.1,20.8,46.2,20.7,46.2z M20.6,45.7l-0.1-0.1l-0.2-0.1l-0.1,0.3l0.2,0.1c0.1,0,0.1,0,0.1,0
			S20.6,45.9,20.6,45.7C20.6,45.8,20.6,45.8,20.6,45.7z"/>
		<path class="st4" d="M22.3,46.2L21.7,46l-0.1,0.2l0.6,0.2l-0.1,0.2l-0.6-0.2l-0.1,0.4l0.7,0.2L22,47.2l-0.9-0.3l0.4-1.1l0.9,0.3
			L22.3,46.2z"/>
		<path class="st4" d="M23.5,46.4l0.1,0.1v0.1v0.1c0,0,0,0.1-0.1,0.2c0,0-0.1,0.1-0.2,0.1l0.1,0.1c0,0,0,0.1,0,0.2v0.1v0.1v0.1l0,0
			l-0.3-0.1c0,0,0,0,0-0.1v-0.1v-0.1c0-0.1,0-0.1,0-0.2c0-0.1-0.1,0-0.1-0.1l-0.2-0.1l-0.1,0.5l-0.2-0.1l0.3-1.2l0.6,0.1
			C23.4,46.3,23.4,46.4,23.5,46.4z M23,46.4l-0.1,0.3l0.3,0.1c0.1,0,0.1,0,0.1,0s0.1,0,0.1-0.1s0-0.1,0-0.2h-0.1L23,46.4z"/>
		<path class="st4" d="M25.1,46.6v0.2l-0.4-0.1l-0.1,1h-0.3l0.1-1L24,46.6v-0.2L25.1,46.6z"/>
		<path class="st4" d="M25.6,47.9h-0.3l0.1-1.2h0.3L25.6,47.9z"/>
		<path class="st4" d="M26.3,47.6L26.3,47.6c0,0.1,0.1,0.2,0.2,0.2c0.1,0,0.1,0,0.2,0c0.1,0,0.1-0.1,0.1-0.1v-0.1c0,0-0.1,0-0.2-0.1
			h-0.1c-0.1,0-0.2-0.1-0.3-0.1c-0.1-0.1-0.1-0.2-0.1-0.3s0-0.2,0.1-0.3c0.1-0.1,0.2-0.1,0.4-0.1c0.1,0,0.2,0,0.3,0.1S27,47,27,47.1
			h-0.2c0-0.1,0-0.1-0.1-0.2c0,0-0.1,0-0.2,0c-0.1,0-0.1,0-0.2,0c-0.1,0-0.1,0.1-0.1,0.1s0,0.1,0.1,0.1c0,0,0.1,0,0.2,0.1l0.2,0.1
			c0.1,0,0.2,0.1,0.2,0.1c0.1,0.1,0.1,0.1,0.1,0.2s-0.1,0.2-0.1,0.3C26.8,48,26.7,48,26.5,48s-0.3,0-0.4-0.1
			C26,47.8,26,47.7,26,47.6L26.3,47.6z"/>
		<path class="st4" d="M28.5,47h-0.7v0.2h0.6v0.2h-0.6v0.3h0.7v0.2h-1v-1.2h0.9L28.5,47z"/>
		<path class="st4" d="M29.7,47.4c0-0.1,0.1-0.1,0.2-0.2l0,0l-0.1-0.1V47c0-0.1,0-0.2,0.1-0.2c0.1-0.1,0.1-0.1,0.2-0.1
			c0.1,0,0.2,0,0.2,0c0.1,0,0.1,0.1,0.1,0.2c0,0.1,0,0.1,0,0.2s-0.1,0.1-0.1,0.1l0.2,0.2v-0.1v-0.1h0.2c0,0.1,0,0.2,0,0.2
			s0,0.1-0.1,0.2l0.3,0.2h-0.3l-0.1-0.1l-0.1,0.1c-0.1,0-0.1,0.1-0.2,0.1s-0.2,0-0.3-0.1s-0.1-0.1-0.1-0.2
			C29.7,47.5,29.7,47.4,29.7,47.4z M30,47.6h0.1h0.1c0,0,0.1,0,0.1-0.1l-0.2-0.2c-0.1,0-0.1,0.1-0.1,0.1L30,47.6
			C30,47.6,30,47.6,30,47.6z M30.1,47L30.1,47c0.1,0,0.1,0,0.1,0v-0.1c0,0,0,0,0-0.1c0,0,0,0-0.1,0c0,0,0,0-0.1,0
			C30,46.9,30,46.9,30.1,47C30,47,30,47,30.1,47z"/>
		<path class="st4" d="M32.6,46.2L32.6,46.2c0.1,0,0.2,0,0.2,0.1v0.1c0,0,0,0.1,0,0.2s-0.1,0.1-0.1,0.2c0.1,0,0.1,0,0.1,0.1
			c0,0,0.1,0.1,0.1,0.2v0.1v0.1c0,0,0,0,0.1,0l0,0l-0.3,0.1c0,0,0,0,0-0.1v-0.1v-0.1c0-0.1,0-0.1-0.1-0.1c0,0-0.1,0-0.2,0l-0.2,0.1
			l0.1,0.5l-0.2,0.1l-0.3-1.2l0.6-0.2C32.5,46.2,32.5,46.2,32.6,46.2z M32.1,46.5l0.1,0.3l0.3-0.1c0.1,0,0.1,0,0.1,0s0.1-0.1,0-0.2
			c-0.1-0.1,0-0.1-0.1-0.1h-0.1L32.1,46.5z"/>
		<path class="st4" d="M34.2,45.9l-0.6,0.2l0.1,0.2l0.6-0.2l0.1,0.2l-0.6,0.2l0.1,0.3l0.7-0.2l0.1,0.2l-0.9,0.3L33.4,46l0.9-0.3
			L34.2,45.9z"/>
		<path class="st4" d="M35,46.2C35,46.2,35,46.3,35,46.2c0.2,0.1,0.2,0.1,0.3,0.1c0.1,0,0.1,0,0.1-0.1c0.1,0,0.1-0.1,0-0.2
			c0,0,0-0.1-0.1-0.1c0,0-0.1,0-0.2,0H35c-0.1,0-0.2,0-0.3,0s-0.2-0.1-0.2-0.2s0-0.2,0-0.3c0-0.1,0.2-0.2,0.3-0.2s0.2-0.1,0.4,0
			c0.2,0.1,0.2,0.1,0.2,0.2l-0.2,0.1c0-0.1-0.1-0.1-0.2-0.1c0,0-0.1,0-0.2,0c-0.1,0-0.1,0.1-0.1,0.1v0.1c0,0,0,0.1,0.1,0.1
			c0,0,0.1,0,0.2,0h0.2c0.1,0,0.2,0,0.2,0c0.1,0,0.2,0.1,0.2,0.2s0,0.2,0,0.3c-0.1,0.1-0.2,0.2-0.3,0.2c-0.1,0-0.3,0.1-0.4,0
			c-0.1,0-0.2-0.1-0.2-0.2L35,46.2z"/>
		<path class="st4" d="M37.2,45.5c0,0.1-0.2,0.2-0.3,0.3c-0.1,0.1-0.3,0.1-0.4,0.1c-0.2,0-0.3-0.2-0.4-0.3c-0.1-0.2-0.1-0.4,0-0.5
			c0-0.1,0.2-0.2,0.3-0.3s0.3-0.1,0.4-0.1c0.2,0,0.3,0.2,0.4,0.3C37.2,45.2,37.2,45.3,37.2,45.5z M36.9,45.4c0-0.1,0-0.2-0.1-0.3
			S36.7,45,36.6,45c-0.1,0-0.2,0-0.3,0s-0.2,0.1-0.2,0.2c0,0.1,0,0.2,0,0.3c0.1,0.1,0.1,0.2,0.2,0.2c0.1,0,0.2,0,0.3,0
			C36.9,45.5,36.9,45.5,36.9,45.4z"/>
		<path class="st4" d="M37.2,44.3l0.2-0.1l0.4,0.6c0,0.1,0.1,0.1,0.1,0.1c0.1,0,0.1,0,0.2,0c0.1-0.1,0.1-0.1,0.1-0.2
			c0,0,0-0.1-0.1-0.2l-0.2-0.6l0.2-0.1l0.4,0.6c0.1,0.1,0.1,0.2,0.1,0.3c0,0.2-0.1,0.3-0.3,0.4c-0.2,0.1-0.3,0.1-0.5,0.1
			c-0.1,0-0.1-0.1-0.2-0.2L37.2,44.3z"/>
		<path class="st4" d="M39.1,43.1c0,0,0.1,0,0.2,0h0.1c0,0,0.1,0,0.1,0.1c0,0,0,0.1,0.1,0.2c0,0.1,0,0.1-0.1,0.2c0.1,0,0.1,0,0.2,0
			l0.1,0.1v0.1c0,0,0,0.1,0.1,0.1s0,0,0.1,0l0,0l-0.2,0.2l0,0c0,0,0,0-0.1-0.1l-0.1-0.1c0-0.1-0.1-0.1-0.1-0.1s-0.1,0-0.2,0.1
			l-0.2,0.2l0.3,0.4l-0.2,0.2l-0.7-1l0.5-0.3C39,43.1,39,43.1,39.1,43.1z M38.8,43.5l0.2,0.3l0.2-0.2l0.1-0.1c0,0,0-0.1,0-0.2
			s-0.1-0.1-0.1-0.1h-0.1L38.8,43.5z"/>
		<path class="st4" d="M39.8,42.6c0-0.1,0.1-0.3,0.2-0.4c0.2-0.1,0.3-0.2,0.5-0.1c0.1,0,0.2,0.1,0.2,0.1l-0.2,0.2c0,0-0.1,0-0.1-0.1
			c-0.1,0-0.1,0-0.2,0.1S40,42.5,40,42.6s0,0.2,0.1,0.3c0.1,0.1,0.2,0.2,0.3,0.2s0.2,0,0.2-0.1c0.1-0.1,0.1-0.1,0.1-0.2
			c0,0,0-0.1,0-0.2l0.2-0.2c0.1,0.1,0.1,0.2,0.1,0.3s-0.1,0.2-0.2,0.3c-0.1,0.1-0.3,0.2-0.4,0.1S40.1,43,40,42.9
			C39.9,43,39.8,42.8,39.8,42.6z"/>
		<path class="st4" d="M41.5,41.2L41,41.7l0.2,0.2l0.5-0.4l0.1,0.2l-0.5,0.4l0.2,0.2l0.5-0.5l0.2,0.2l-0.7,0.7l-0.8-1l0.7-0.6
			L41.5,41.2z"/>
		<path class="st4" d="M42.5,41.2L42.5,41.2c0.2,0,0.2,0,0.3-0.1l0.1-0.1c0-0.1,0-0.1,0-0.2h-0.1c0,0-0.1,0-0.2,0.1L42.5,41
			c-0.1,0.1-0.2,0.1-0.2,0.2c-0.1,0-0.2,0-0.3-0.1s-0.1-0.2-0.1-0.3s0.1-0.2,0.2-0.3c0.1-0.1,0.2-0.2,0.3-0.2s0.2,0,0.3,0.1
			l-0.2,0.2c-0.1,0-0.1,0-0.2,0c0,0-0.1,0-0.1,0.1c0,0-0.1,0.1-0.1,0.2V41h0.1c0,0,0.1,0,0.2-0.1l0.2-0.1c0.1-0.1,0.2-0.1,0.2-0.1
			c0.1,0,0.2,0,0.3,0.1c0.1,0.1,0.1,0.2,0.1,0.3S43,41.3,43,41.4c-0.1,0.1-0.3,0-0.4,0s-0.2,0-0.3-0.1L42.5,41.2z"/>
		<path class="st4" d="M43.2,39.2c0-0.1,0-0.3,0.1-0.4c0.1-0.2,0.3-0.3,0.4-0.3s0.2,0,0.2,0.1l-0.2,0.2c-0.1,0-0.1,0-0.1,0
			c-0.1,0-0.1,0-0.2,0.1c-0.1,0.1-0.1,0.2,0,0.2s0.1,0.2,0.2,0.2s0.2,0.1,0.3,0.1s0.2,0,0.2-0.1s0.1-0.2,0-0.2c0,0,0-0.1-0.1-0.1
			l0.2-0.2c0.1,0.1,0.1,0.2,0.2,0.3c0.1,0.1,0,0.2-0.1,0.4c-0.1,0.2-0.2,0.2-0.4,0.2c-0.2,0-0.3,0-0.5-0.1
			C43.3,39.5,43.2,39.3,43.2,39.2z"/>
		<path class="st4" d="M45.3,37.7c0,0.1,0,0.3-0.1,0.4c-0.1,0.2-0.2,0.2-0.3,0.3c-0.2,0-0.3,0-0.5-0.1s-0.3-0.2-0.3-0.4
			c0-0.1,0-0.3,0.1-0.4c0.1-0.2,0.2-0.2,0.3-0.3c0.2,0,0.3,0,0.5,0.1S45.3,37.5,45.3,37.7z M45.1,37.7c0-0.1-0.1-0.2-0.2-0.2
			c-0.1-0.1-0.2-0.1-0.3-0.1c-0.1,0-0.2,0.1-0.2,0.2c0,0.1-0.1,0.2,0,0.3s0.1,0.2,0.2,0.2c0.1,0.1,0.2,0.1,0.3,0.1s0.2-0.1,0.2-0.2
			S45.1,37.8,45.1,37.7z"/>
		<path class="st4" d="M45.1,35.9l0.2-0.3l1.1,0.5l-0.1,0.2l-0.7-0.4c0,0,0,0-0.1,0s-0.1,0-0.1,0l0.8,0.7L46,36.7l-1-0.2
			c0,0,0,0,0.1,0s0.1,0,0.1,0l0.7,0.4l-0.1,0.2l-1.1-0.5l0.2-0.3l0.9,0.2L45.1,35.9z"/>
		<path class="st4" d="M45.9,34.3c0.1,0,0.1,0,0.2,0c0.1,0,0.1,0.1,0.1,0.1v0.1c0,0,0.1-0.1,0.2-0.1c0.1,0,0.1,0,0.2,0
			c0.1,0,0.1,0.1,0.2,0.1v0.1c0,0,0,0.1,0,0.2c0,0,0,0.1,0,0.2l-0.2,0.5l-1.1-0.4l0.2-0.6C45.8,34.4,45.8,34.3,45.9,34.3z
			 M45.8,34.9l0.2,0.1l0.1-0.3v-0.1c0,0,0-0.1-0.1-0.1h-0.1c0,0,0,0.1-0.1,0.1L45.8,34.9z M46.1,35.1l0.3,0.1l0.1-0.3v-0.1
			c0-0.1,0-0.1-0.1-0.1s-0.1,0-0.2,0c0,0,0,0.1-0.1,0.1C46.1,34.8,46.1,35.1,46.1,35.1z"/>
		<path class="st4" d="M47.1,33.9L47,34L46,33.7l0.1-0.2L47.1,33.9z"/>
		<path class="st4" d="M46.1,33.1l0.1-0.3l0.9-0.3l-0.8-0.2l0.1-0.2l1.2,0.3l-0.1,0.3l-1,0.3l0.8,0.2l-0.1,0.2L46.1,33.1z"/>
		<path class="st4" d="M46.9,30.8l-0.1,0.7H47l0.1-0.6h0.2l-0.1,0.6l0.3,0.1l0.1-0.7h0.2l-0.2,0.9l-1.1-0.1l0.2-0.9H46.9z"/>
	</g>
	<g>
		<g>
			<path class="st1" d="M25.3,18.1L25.3,18.1c0.1,0,0.2,0,0.3,0c0.2,0,0.5,0,0.7,0l0,0v0.1v0.1l0,0c-0.2,0-0.4,0-0.6,0s-0.4,0-0.7,0
				v-0.1L25.3,18.1c0.4-0.6,0.7-1,0.7-1.4c0-0.3-0.2-0.5-0.4-0.5c-0.3,0-0.4,0.2-0.4,0.4h-0.1l0.1-0.3c0-0.1,0-0.2,0.2-0.3
				c0,0,0.1,0,0.2,0c0.3,0,0.6,0.2,0.6,0.5c0,0.3-0.2,0.6-0.4,0.8L25.3,18.1z"/>
			<path class="st1" d="M27.2,17.7h-0.5c-0.1,0-0.3,0-0.4,0v-0.1c0.3-0.5,0.7-1,1-1.4h0.1c0,0.1,0,0.2,0,0.3v1h0.1
				c0.1,0,0.2,0,0.3,0l0,0v0.1v0.1l0,0c-0.1,0-0.1,0-0.3,0h-0.1v0.4c0,0.2,0.1,0.2,0.4,0.2l0,0v0.1l0,0c-0.1,0-0.3,0-0.5,0
				c-0.2,0-0.4,0-0.5,0l0,0v-0.1l0,0c0.4,0,0.4,0,0.4-0.3L27.2,17.7L27.2,17.7z M27.2,16.7L27.2,16.7c-0.1,0.1-0.6,0.9-0.7,1h0.7
				V16.7z"/>
			<path class="st1" d="M28.7,16h0.1l-0.9,2.4h-0.1L28.7,16z"/>
			<path class="st1" d="M29.1,18.3c0.2-0.3,1-1.5,1.1-1.8l0,0c-0.4,0-0.7,0-1.1,0l0,0v-0.1c0-0.1,0-0.1,0-0.1l0,0c0.1,0,0.3,0,0.7,0
				c0.3,0,0.5,0,0.6,0l0,0c-0.4,0.7-0.8,1.4-1.1,2l0,0h-0.1C29.2,18.4,29.1,18.4,29.1,18.3L29.1,18.3z"/>
		</g>
	</g>
</g>
<g>
	<text transform="matrix(1 0 0 1 -180.1423 -66.7477)" style="fill:#FFFFFF; font-family:'ArialMT'; font-size:25.8379px;">CONGLOMERATE </text>
	<text transform="matrix(1 0 0 1 -176.7009 -48.731)" style="fill:#FFFFFF; font-family:'ArialMT'; font-size:19.5795px;">Printing Services, inc.</text>
</g>
</svg>
