<?xml version="1.0" encoding="utf-8"?>
<!-- Generator: Adobe Illustrator 24.0.3, SVG Export Plug-In . SVG Version: 6.00 Build 0)  -->
<svg version="1.1" id="Layer_1" xmlns="http://www.w3.org/2000/svg" xmlns:xlink="http://www.w3.org/1999/xlink" x="0px" y="0px"
	 viewBox="0 0 14.8 14.7" style="enable-background:new 0 0 14.8 14.7;" xml:space="preserve">
<style type="text/css">
	.st0{fill:#F7F7F9;}
	.st1{fill:#1B60A1;stroke:#115CA3;stroke-width:0.1043;stroke-miterlimit:10;}
	.st2{fill:#F8F7F9;}
	.st3{fill:#1B60A1;}
	.st4{fill:#FFFFFF;}
	.st5{fill:#F6F7F9;}
	.st6{fill:none;stroke:#1B60A1;stroke-width:0.73;stroke-linecap:round;stroke-linejoin:round;stroke-miterlimit:10;}
	.st7{fill:#ECECEE;}
	.st8{fill:none;stroke:#1B60A1;stroke-width:0.6032;stroke-linecap:round;stroke-linejoin:round;stroke-miterlimit:10;}
</style>
<g>
	<circle class="st0" cx="56.2" cy="-18" r="7"/>
	<path class="st1" d="M57.8-15.1c-0.8-0.1-1.5-0.3-2.1-0.8c-1.3-1-1.9-2.3-1.8-4c0-0.2,0.1-0.4,0.3-0.5c0.1-0.1,0.2-0.2,0.3-0.2
		c0.2-0.2,0.5-0.1,0.6,0.1c0.2,0.3,0.4,0.6,0.5,1c0.1,0.3,0,0.5-0.2,0.6c-0.3,0.2-0.3,0.3-0.2,0.6c0.2,0.7,0.6,1.2,1.2,1.5
		c0.2,0.1,0.3,0.1,0.5,0c0.1-0.1,0.1-0.1,0.2-0.2c0.1,0,0.3-0.1,0.3,0c0.3,0.2,0.6,0.4,0.9,0.6c0.1,0.1,0.2,0.2,0.2,0.3
		c0.1,0.2,0.1,0.3,0,0.5c-0.2,0.2-0.4,0.3-0.6,0.5C58-15.1,57.9-15.1,57.8-15.1z"/>
</g>
<g>
	<circle class="st2" cx="78" cy="-1.9" r="7"/>
	<g>
		<path class="st3" d="M80.3,0.7h-4.6C75.3,0.7,75,0.4,75,0v-3.5c0-0.4,0.3-0.7,0.7-0.7h4.6c0.4,0,0.7,0.3,0.7,0.7V0
			C81,0.4,80.7,0.7,80.3,0.7z"/>
		<path class="st4" d="M80.5-3.2L80.5-3.2c-0.1-0.2-0.3-0.2-0.5-0.1l-2,1.4l-2-1.4c-0.1-0.1-0.3-0.1-0.5,0.1l0,0
			c-0.1,0.1-0.1,0.3,0.1,0.5l2.2,1.5c0.1,0.1,0.2,0.1,0.3,0c0,0,0.1,0,0.1-0.1l2.2-1.5C80.6-2.8,80.6-3,80.5-3.2z"/>
	</g>
</g>
<g>
	<g>
		<circle class="st0" cx="-35.5" cy="-18.8" r="7"/>
	</g>
	<g>
		<path class="st3" d="M-34.3-17.1c-0.3,0-0.5,0.1-0.7,0.3l-2-1.2c0.1-0.1,0.1-0.2,0.1-0.4v-0.1l2-1.3c0.2,0.2,0.4,0.3,0.7,0.3
			c0.6,0,1-0.5,1-1c0-0.6-0.5-1-1-1c-0.6,0-1,0.5-1,1c0,0.1,0,0.2,0.1,0.3l-2,1.2c-0.2-0.2-0.5-0.4-0.9-0.4c-0.6,0-1,0.5-1,1
			c0,0.6,0.5,1,1,1c0.3,0,0.5-0.1,0.7-0.3l2,1.2c0,0.1,0,0.2,0,0.3c0,0.6,0.5,1,1,1c0.6,0,1-0.5,1-1C-33.3-16.7-33.7-17.1-34.3-17.1
			z"/>
	</g>
</g>
<g>
	<circle class="st5" cx="-51.1" cy="-19.9" r="7"/>
	<path class="st6" d="M-51.2-21.8c0.4-0.4,0.7-0.6,1.3-0.7c0.7,0,1.3,0.3,1.6,0.9c0.3,0.7,0.3,1.3-0.2,1.9c-0.8,0.9-1.6,1.7-2.4,2.5
		c-0.1,0.2-0.3,0.1-0.4,0c-0.8-0.8-1.6-1.6-2.4-2.5c-0.6-0.7-0.6-1.8,0.1-2.4c0.6-0.6,1.6-0.6,2.3,0C-51.3-21.9-51.2-21.9-51.2-21.8
		z"/>
</g>
<g>
	<path class="st7" d="M-96.3,7.3c0,3.9-3.2,7.1-7.1,7.1c-3.9,0-7.1-3.2-7.1-7.1s3.2-7.1,7.1-7.1C-99.5,0.2-96.3,3.4-96.3,7.3"/>
	<path class="st8" d="M-101.9,4.5c-0.7,0-1.4,0.6-1.7,1.2c-0.3-0.6-0.9-1.2-1.7-1.2c-1,0-1.8,0.8-1.8,1.8c0,2.1,2.1,2.6,3.5,4.6
		c1.3-2,3.5-2.6,3.5-4.6C-100.1,5.3-100.9,4.5-101.9,4.5L-101.9,4.5z"/>
</g>
<g>
	<path class="st7" d="M-11.2-13.1c0,3.9-3.2,7.1-7.1,7.1s-7.1-3.2-7.1-7.1s3.2-7.1,7.1-7.1S-11.2-17-11.2-13.1"/>
	<path class="st3" d="M-14.7-12.6l-3.7-2.9l-3.7,2.9v-1.2l3.7-2.9l3.7,2.9V-12.6z M-15.6-12.7v2.8h-1.8v-1.8h-1.8v1.8h-1.8v-2.8
		l2.8-2.1L-15.6-12.7z"/>
</g>
<path class="st7" d="M-19.2,4.9c0,3.9-3.2,7.1-7.1,7.1s-7.1-3.2-7.1-7.1s3.2-7.1,7.1-7.1S-19.2,1-19.2,4.9"/>
<g>
	<path class="st7" d="M16.4-25.3c0,3.9-3.2,7.1-7.1,7.1s-7.1-3.2-7.1-7.1s3.2-7.1,7.1-7.1S16.4-29.2,16.4-25.3"/>
	<path class="st3" d="M12.1-29.1h-6c-0.4,0-0.8,0.3-0.8,0.8v6.5c0,0.4,0.3,0.8,0.8,0.8h6c0.4,0,0.8-0.3,0.8-0.8v-6.5
		C12.9-28.8,12.5-29.1,12.1-29.1z M11.9-22.1H6.4v-6h5.5V-22.1z M7.4-25.6h3.5v0.5H7.4V-25.6z M7.4-24.6h3.5v0.5H7.4V-24.6z
		 M7.4-23.6h3.5v0.5H7.4V-23.6z M7.4-26.6h3.5v0.5H7.4V-26.6z"/>
</g>
<g>
	<path class="st3" d="M-23.8,7.7h-5.1c-0.4,0-0.8-0.3-0.8-0.8V3c0-0.4,0.3-0.8,0.8-0.8h5.1c0.4,0,0.8,0.3,0.8,0.8v3.9
		C-23,7.4-23.3,7.7-23.8,7.7z"/>
	<path class="st4" d="M-23.5,3.3c-0.2-0.2-0.4-0.2-0.6-0.1l-2.2,1.6l-2.2-1.6c-0.2-0.1-0.4-0.1-0.6,0.1c-0.1,0.1-0.1,0.3,0.1,0.6
		l2.5,1.7c0.1,0.1,0.2,0.1,0.4,0c0,0,0,0,0.1-0.1l2.4-1.7C-23.5,3.7-23.3,3.4-23.5,3.3z"/>
</g>
<g>
	<circle class="st7" cx="7.4" cy="7.3" r="7.1"/>
	<path class="st3" d="M5.7,4.4l0.4,0.4L4.7,6.3L4.3,5.9C4.2,5.7,4.1,5.5,4.1,5.2c0-0.6,0.5-1,1-1C5.3,4.2,5.6,4.3,5.7,4.4z M6.4,5.1
		L5,6.6l3.8,3.8l1.8,0.4l-0.4-1.8L6.4,5.1z M6.4,6.2l2.9,2.9L8.9,9.4L6.1,6.6L6.4,6.2z"/>
</g>
</svg>
