<?xml version="1.0" encoding="utf-8"?>
<!-- Generator: Adobe Illustrator 24.0.3, SVG Export Plug-In . SVG Version: 6.00 Build 0)  -->
<svg version="1.1" id="Layer_1" xmlns="http://www.w3.org/2000/svg" xmlns:xlink="http://www.w3.org/1999/xlink" x="0px" y="0px"
	 viewBox="0 0 14.8 14.7" style="enable-background:new 0 0 14.8 14.7;" xml:space="preserve">
<style type="text/css">
	.st0{fill:#F7F7F9;}
	.st1{fill:#1B60A1;stroke:#115CA3;stroke-width:0.1043;stroke-miterlimit:10;}
	.st2{fill:#F8F7F9;}
	.st3{fill:#1B60A1;}
	.st4{fill:#FFFFFF;}
	.st5{fill:#F6F7F9;}
	.st6{fill:none;stroke:#1B60A1;stroke-width:0.73;stroke-linecap:round;stroke-linejoin:round;stroke-miterlimit:10;}
</style>
<g>
	<circle class="st0" cx="40.8" cy="7.1" r="7"/>
	<path class="st1" d="M42.4,10c-0.8-0.1-1.5-0.3-2.1-0.8c-1.3-1-1.9-2.3-1.8-4c0-0.2,0.1-0.4,0.3-0.5c0.1-0.1,0.2-0.2,0.3-0.2
		c0.2-0.2,0.5-0.1,0.6,0.1c0.2,0.3,0.4,0.6,0.5,1c0.1,0.3,0,0.5-0.2,0.6c-0.3,0.2-0.3,0.3-0.2,0.6c0.2,0.7,0.6,1.2,1.2,1.5
		c0.2,0.1,0.3,0.1,0.5,0c0.1-0.1,0.1-0.1,0.2-0.2c0.1,0,0.3-0.1,0.3,0c0.3,0.2,0.6,0.4,0.9,0.6c0.1,0.1,0.2,0.2,0.2,0.3
		c0.1,0.2,0.1,0.3,0,0.5C43,9.7,42.8,9.8,42.6,10C42.5,10,42.4,10,42.4,10z"/>
</g>
<g>
	<circle class="st2" cx="71.1" cy="7.5" r="7"/>
	<g>
		<path class="st3" d="M73.3,10.1h-4.6c-0.4,0-0.7-0.3-0.7-0.7V5.9c0-0.4,0.3-0.7,0.7-0.7h4.6c0.4,0,0.7,0.3,0.7,0.7v3.5
			C74,9.8,73.7,10.1,73.3,10.1z"/>
		<path class="st4" d="M73.6,6.2L73.6,6.2C73.4,6,73.2,6,73.1,6.1l-2,1.4l-2-1.4C68.9,6,68.7,6,68.6,6.2l0,0
			c-0.1,0.1-0.1,0.3,0.1,0.5l2.2,1.5c0.1,0.1,0.2,0.1,0.3,0c0,0,0.1,0,0.1-0.1l2.2-1.5C73.6,6.5,73.7,6.3,73.6,6.2z"/>
	</g>
</g>
<g>
	<g>
		<circle class="st0" cx="100.9" cy="6.6" r="7"/>
	</g>
	<g>
		<path class="st3" d="M102.1,8.3c-0.3,0-0.5,0.1-0.7,0.3l-2-1.2c0-0.1,0-0.2,0-0.3c0,0,0-0.1,0-0.1l2-1.3c0.2,0.2,0.4,0.3,0.7,0.3
			c0.6,0,1-0.5,1-1c0-0.6-0.5-1-1-1c-0.6,0-1,0.5-1,1c0,0.1,0,0.2,0.1,0.3l-1.9,1.2c-0.2-0.3-0.5-0.4-0.8-0.4c-0.6,0-1,0.5-1,1
			s0.5,1,1,1c0.3,0,0.5-0.1,0.7-0.3l2,1.2c0,0.1,0,0.2,0,0.3c0,0.6,0.5,1,1,1c0.6,0,1-0.5,1-1C103.1,8.8,102.7,8.3,102.1,8.3z"/>
	</g>
</g>
<g>
	<circle class="st5" cx="7.4" cy="7.3" r="7"/>
	<path class="st6" d="M7.4,5.5c0.4-0.4,0.7-0.6,1.3-0.7c0.7,0,1.3,0.3,1.6,0.9c0.3,0.7,0.3,1.3-0.2,1.9c-0.8,0.9-1.6,1.7-2.4,2.5
		c-0.1,0.2-0.3,0.1-0.4,0C6.3,9.3,5.5,8.5,4.7,7.7C4.1,7,4.1,5.9,4.8,5.2c0.6-0.6,1.6-0.6,2.3,0C7.2,5.3,7.3,5.4,7.4,5.5z"/>
</g>
</svg>
