<?xml version="1.0" encoding="utf-8"?>
<!-- Generator: Adobe Illustrator 24.0.3, SVG Export Plug-In . SVG Version: 6.00 Build 0)  -->
<svg version="1.1" id="Layer_1" xmlns="http://www.w3.org/2000/svg" xmlns:xlink="http://www.w3.org/1999/xlink" x="0px" y="0px"
	 viewBox="0 0 14.8 14.7" style="enable-background:new 0 0 14.8 14.7;" xml:space="preserve">
<style type="text/css">
	.st0{fill:#F7F7F9;}
	.st1{fill:#1B60A1;stroke:#115CA3;stroke-width:0.1043;stroke-miterlimit:10;}
	.st2{fill:#F8F7F9;}
	.st3{fill:#1B60A1;}
	.st4{fill:#FFFFFF;}
	.st5{fill:#F6F7F9;}
	.st6{fill:none;stroke:#1B60A1;stroke-width:0.73;stroke-linecap:round;stroke-linejoin:round;stroke-miterlimit:10;}
</style>
<g>
	<circle class="st0" cx="43" cy="19.7" r="7"/>
	<path class="st1" d="M44.6,22.6c-0.8-0.1-1.5-0.3-2.1-0.8c-1.3-1-1.9-2.3-1.8-4c0-0.2,0.1-0.4,0.3-0.5c0.1-0.1,0.2-0.2,0.3-0.2
		c0.2-0.2,0.5-0.1,0.6,0.1c0.2,0.3,0.4,0.6,0.5,1c0.1,0.3,0,0.5-0.2,0.6c-0.3,0.2-0.3,0.3-0.2,0.6c0.2,0.7,0.6,1.2,1.2,1.5
		c0.2,0.1,0.3,0.1,0.5,0c0.1-0.1,0.1-0.1,0.2-0.2c0.1,0,0.3-0.1,0.3,0c0.3,0.2,0.6,0.4,0.9,0.6c0.1,0.1,0.2,0.2,0.2,0.3
		c0.1,0.2,0.1,0.3,0,0.5c-0.2,0.2-0.4,0.3-0.6,0.5C44.8,22.6,44.7,22.6,44.6,22.6z"/>
</g>
<g>
	<circle class="st2" cx="7.4" cy="7.3" r="7"/>
	<g>
		<path class="st3" d="M9.7,9.9H5c-0.4,0-0.7-0.3-0.7-0.7V5.7C4.3,5.3,4.6,5,5,5h4.6c0.4,0,0.7,0.3,0.7,0.7v3.5
			C10.4,9.6,10.1,9.9,9.7,9.9z"/>
		<path class="st4" d="M9.9,6L9.9,6C9.8,5.8,9.6,5.8,9.4,5.9l-2,1.4l-2-1.4C5.2,5.8,5,5.8,4.9,6l0,0C4.8,6.2,4.8,6.4,5,6.5L7.2,8
			c0.1,0.1,0.2,0.1,0.3,0c0,0,0.1,0,0.1-0.1l2.2-1.5C10,6.4,10,6.2,9.9,6z"/>
	</g>
</g>
<g>
	<g>
		<circle class="st0" cx="100.9" cy="6.6" r="7"/>
	</g>
	<g>
		<path class="st3" d="M102.1,8.3c-0.3,0-0.5,0.1-0.7,0.3l-2-1.2c0-0.1,0-0.2,0-0.3c0,0,0-0.1,0-0.1l2-1.3c0.2,0.2,0.4,0.3,0.7,0.3
			c0.6,0,1-0.5,1-1c0-0.6-0.5-1-1-1c-0.6,0-1,0.5-1,1c0,0.1,0,0.2,0.1,0.3l-1.9,1.2c-0.2-0.3-0.5-0.4-0.8-0.4c-0.6,0-1,0.5-1,1
			s0.5,1,1,1c0.3,0,0.5-0.1,0.7-0.3l2,1.2c0,0.1,0,0.2,0,0.3c0,0.6,0.5,1,1,1c0.6,0,1-0.5,1-1C103.1,8.8,102.7,8.3,102.1,8.3z"/>
	</g>
</g>
<g>
	<circle class="st5" cx="18.4" cy="30.8" r="7"/>
	<path class="st6" d="M18.3,28.9c0.4-0.4,0.7-0.6,1.3-0.7c0.7,0,1.3,0.3,1.6,0.9c0.3,0.7,0.3,1.3-0.2,1.9c-0.8,0.9-1.6,1.7-2.4,2.5
		c-0.1,0.2-0.3,0.1-0.4,0c-0.8-0.8-1.6-1.6-2.4-2.5c-0.6-0.7-0.6-1.8,0.1-2.4c0.6-0.6,1.6-0.6,2.3,0C18.2,28.8,18.3,28.8,18.3,28.9z
		"/>
</g>
</svg>
