<?xml version="1.0" encoding="utf-8"?>
<!-- Generator: Adobe Illustrator 24.0.3, SVG Export Plug-In . SVG Version: 6.00 Build 0)  -->
<svg version="1.1" id="Layer_1" xmlns="http://www.w3.org/2000/svg" xmlns:xlink="http://www.w3.org/1999/xlink" x="0px" y="0px"
	 viewBox="0 0 14.8 14.7" style="enable-background:new 0 0 14.8 14.7;" xml:space="preserve">
<style type="text/css">
	.st0{fill:#F7F7F9;}
	.st1{fill:#1B60A1;stroke:#115CA3;stroke-width:0.1043;stroke-miterlimit:10;}
	.st2{fill:#F8F7F9;}
	.st3{fill:#1B60A1;}
	.st4{fill:#FFFFFF;}
	.st5{fill:#F6F7F9;}
	.st6{fill:none;stroke:#1B60A1;stroke-width:0.73;stroke-linecap:round;stroke-linejoin:round;stroke-miterlimit:10;}
	.st7{fill:#ECECEE;}
	.st8{fill:none;stroke:#1B60A1;stroke-width:0.6032;stroke-linecap:round;stroke-linejoin:round;stroke-miterlimit:10;}
</style>
<g>
	<circle class="st0" cx="56.2" cy="-18" r="7"/>
	<path class="st1" d="M57.8-15.1c-0.8-0.1-1.5-0.3-2.1-0.8c-1.3-1-1.9-2.3-1.8-4c0-0.2,0.1-0.4,0.3-0.5c0.1-0.1,0.2-0.2,0.3-0.2
		c0.2-0.2,0.5-0.1,0.6,0.1c0.2,0.3,0.4,0.6,0.5,1c0.1,0.3,0,0.5-0.2,0.6c-0.3,0.2-0.3,0.3-0.2,0.6c0.2,0.7,0.6,1.2,1.2,1.5
		c0.2,0.1,0.3,0.1,0.5,0c0.1-0.1,0.1-0.1,0.2-0.2c0.1,0,0.3-0.1,0.3,0c0.3,0.2,0.6,0.4,0.9,0.6c0.1,0.1,0.2,0.2,0.2,0.3
		c0.1,0.2,0.1,0.3,0,0.5c-0.2,0.2-0.4,0.3-0.6,0.5C58-15.1,57.9-15.1,57.8-15.1z"/>
</g>
<g>
	<circle class="st2" cx="78" cy="-1.9" r="7"/>
	<g>
		<path class="st3" d="M80.3,0.7h-4.6C75.3,0.7,75,0.4,75,0v-3.5c0-0.4,0.3-0.7,0.7-0.7h4.6c0.4,0,0.7,0.3,0.7,0.7V0
			C81,0.4,80.7,0.7,80.3,0.7z"/>
		<path class="st4" d="M80.5-3.2L80.5-3.2c-0.1-0.2-0.3-0.2-0.5-0.1l-2,1.4l-2-1.4c-0.1-0.1-0.3-0.1-0.5,0.1l0,0
			c-0.1,0.1-0.1,0.3,0.1,0.5l2.2,1.5c0.1,0.1,0.2,0.1,0.3,0c0,0,0.1,0,0.1-0.1l2.2-1.5C80.6-2.8,80.6-3,80.5-3.2z"/>
	</g>
</g>
<g>
	<g>
		<circle class="st0" cx="-35.5" cy="-18.8" r="7"/>
	</g>
	<g>
		<path class="st3" d="M-34.3-17.1c-0.3,0-0.5,0.1-0.7,0.3l-2-1.2c0.1-0.1,0.1-0.2,0.1-0.4v-0.1l2-1.3c0.2,0.2,0.4,0.3,0.7,0.3
			c0.6,0,1-0.5,1-1c0-0.6-0.5-1-1-1c-0.6,0-1,0.5-1,1c0,0.1,0,0.2,0.1,0.3l-2,1.2c-0.2-0.2-0.5-0.4-0.9-0.4c-0.6,0-1,0.5-1,1
			c0,0.6,0.5,1,1,1c0.3,0,0.5-0.1,0.7-0.3l2,1.2c0,0.1,0,0.2,0,0.3c0,0.6,0.5,1,1,1c0.6,0,1-0.5,1-1C-33.3-16.7-33.7-17.1-34.3-17.1
			z"/>
	</g>
</g>
<g>
	<circle class="st5" cx="-51.1" cy="-19.9" r="7"/>
	<path class="st6" d="M-51.2-21.8c0.4-0.4,0.7-0.6,1.3-0.7c0.7,0,1.3,0.3,1.6,0.9c0.3,0.7,0.3,1.3-0.2,1.9c-0.8,0.9-1.6,1.7-2.4,2.5
		c-0.1,0.2-0.3,0.1-0.4,0c-0.8-0.8-1.6-1.6-2.4-2.5c-0.6-0.7-0.6-1.8,0.1-2.4c0.6-0.6,1.6-0.6,2.3,0C-51.3-21.9-51.2-21.9-51.2-21.8
		z"/>
</g>
<g>
	<circle class="st7" cx="-29.6" cy="7.2" r="7.8"/>
	<g>
		<path class="st3" d="M-27.1,10.1h-5.1c-0.4,0-0.8-0.3-0.8-0.8V5.5c0-0.4,0.3-0.8,0.8-0.8h5.1c0.4,0,0.8,0.3,0.8,0.8v3.9
			C-26.3,9.8-26.7,10.1-27.1,10.1z"/>
		<path class="st4" d="M-26.8,5.8L-26.8,5.8c-0.2-0.2-0.4-0.2-0.6-0.1l-2.2,1.6l-2.2-1.6c-0.2-0.1-0.4-0.1-0.6,0.1l0,0
			c-0.1,0.1-0.1,0.3,0.1,0.6l2.5,1.7c0.1,0.1,0.2,0.1,0.3,0c0,0,0.1,0,0.1-0.1l2.5-1.7C-26.8,6.1-26.7,5.9-26.8,5.8z"/>
	</g>
</g>
<g>
	<circle class="st7" cx="-140.4" cy="6.3" r="7.1"/>
	<path class="st3" d="M-142,3.4l0.4,0.4l-1.4,1.4l-0.4-0.4c-0.1-0.2-0.2-0.4-0.2-0.6c0-0.6,0.5-1,1-1C-142.4,3.2-142.2,3.3-142,3.4z
		 M-141.3,4.1l-1.4,1.4l3.8,3.8l1.8,0.4l-0.4-1.8L-141.3,4.1z M-141.4,5.2l2.9,2.9l-0.4,0.4l-2.9-2.9L-141.4,5.2z"/>
</g>
<g>
	<path class="st7" d="M-96.3,7.3c0,3.9-3.2,7.1-7.1,7.1s-7.1-3.2-7.1-7.1s3.2-7.1,7.1-7.1C-99.5,0.2-96.3,3.4-96.3,7.3"/>
	<path class="st8" d="M-101.9,4.5c-0.7,0-1.4,0.6-1.7,1.2c-0.3-0.6-0.9-1.2-1.7-1.2c-1,0-1.8,0.8-1.8,1.8c0,2.1,2.1,2.6,3.5,4.6
		c1.3-2,3.5-2.6,3.5-4.6C-100.1,5.3-100.9,4.5-101.9,4.5L-101.9,4.5z"/>
</g>
<g>
	<path class="st7" d="M-59.4,7.3c0,3.9-3.2,7.1-7.1,7.1s-7.1-3.2-7.1-7.1s3.2-7.1,7.1-7.1S-59.4,3.4-59.4,7.3"/>
	<path class="st3" d="M-62.8,7.8l-3.7-2.9l-3.7,2.9V6.6l3.7-2.9l3.7,2.9V7.8z M-63.7,7.7v2.8h-1.8V8.6h-1.8v1.8h-1.8V7.7l2.8-2.1
		L-63.7,7.7z"/>
</g>
<path class="st7" d="M14.5,7.3c0,3.9-3.2,7.1-7.1,7.1s-7.1-3.2-7.1-7.1s3.2-7.1,7.1-7.1S14.5,3.4,14.5,7.3"/>
<path class="st3" d="M9.6,4.3H4.8C4.5,4.3,4.2,4.6,4.2,5v5.2c0,0.3,0.2,0.6,0.6,0.6h4.8c0.3,0,0.6-0.2,0.6-0.6V4.9
	C10.2,4.6,9.9,4.3,9.6,4.3z M9.4,9.9H5V5.1h4.5V9.9z M5.8,7.1h2.9v0.4H5.8V7.1z M5.8,7.9h2.9v0.4H5.8V7.9z M5.8,8.7h2.9v0.4H5.8V8.7
	z M5.8,6.3h2.9v0.4H5.8V6.3z"/>
</svg>
