<?xml version="1.0" encoding="utf-8"?>
<!-- Generator: Adobe Illustrator 24.0.3, SVG Export Plug-In . SVG Version: 6.00 Build 0)  -->
<svg version="1.1" id="Layer_1" xmlns="http://www.w3.org/2000/svg" xmlns:xlink="http://www.w3.org/1999/xlink" x="0px" y="0px"
	 viewBox="0 0 14.8 14.7" style="enable-background:new 0 0 14.8 14.7;" xml:space="preserve">
<style type="text/css">
	.st0{fill:#F7F7F9;}
	.st1{fill:#1B60A1;stroke:#115CA3;stroke-width:0.1043;stroke-miterlimit:10;}
	.st2{fill:#F8F7F9;}
	.st3{fill:#1B60A1;}
	.st4{fill:#FFFFFF;}
	.st5{fill:#F6F7F9;}
	.st6{fill:none;stroke:#1B60A1;stroke-width:0.73;stroke-linecap:round;stroke-linejoin:round;stroke-miterlimit:10;}
</style>
<g>
	<circle class="st0" cx="43" cy="19.7" r="7"/>
	<path class="st1" d="M44.6,22.6c-0.8-0.1-1.5-0.3-2.1-0.8c-1.3-1-1.9-2.3-1.8-4c0-0.2,0.1-0.4,0.3-0.5c0.1-0.1,0.2-0.2,0.3-0.2
		c0.2-0.2,0.5-0.1,0.6,0.1c0.2,0.3,0.4,0.6,0.5,1c0.1,0.3,0,0.5-0.2,0.6c-0.3,0.2-0.3,0.3-0.2,0.6c0.2,0.7,0.6,1.2,1.2,1.5
		c0.2,0.1,0.3,0.1,0.5,0c0.1-0.1,0.1-0.1,0.2-0.2c0.1,0,0.3-0.1,0.3,0c0.3,0.2,0.6,0.4,0.9,0.6c0.1,0.1,0.2,0.2,0.2,0.3
		c0.1,0.2,0.1,0.3,0,0.5c-0.2,0.2-0.4,0.3-0.6,0.5C44.8,22.6,44.7,22.6,44.6,22.6z"/>
</g>
<g>
	<circle class="st2" cx="78" cy="-1.9" r="7"/>
	<g>
		<path class="st3" d="M80.3,0.7h-4.6c-0.4,0-0.7-0.3-0.7-0.7v-3.5c0-0.4,0.3-0.7,0.7-0.7h4.6c0.4,0,0.7,0.3,0.7,0.7V0
			C81,0.4,80.7,0.7,80.3,0.7z"/>
		<path class="st4" d="M80.5-3.2L80.5-3.2c-0.1-0.2-0.3-0.2-0.5-0.1l-2,1.4l-2-1.4c-0.1-0.1-0.3-0.1-0.5,0.1l0,0
			c-0.1,0.1-0.1,0.3,0.1,0.5l2.2,1.5c0.1,0.1,0.2,0.1,0.3,0c0,0,0.1,0,0.1-0.1l2.2-1.5C80.6-2.8,80.6-3,80.5-3.2z"/>
	</g>
</g>
<g>
	<g>
		<circle class="st0" cx="7.4" cy="7.4" r="7"/>
	</g>
	<g>
		<path class="st3" d="M8.6,9.1c-0.3,0-0.5,0.1-0.7,0.3l-2-1.2C6,8.1,6,8,6,7.8c0,0,0-0.1,0-0.1l2-1.3c0.2,0.2,0.4,0.3,0.7,0.3
			c0.6,0,1-0.5,1-1c0-0.6-0.5-1-1-1c-0.6,0-1,0.5-1,1c0,0.1,0,0.2,0.1,0.3L5.8,7.2C5.6,7,5.3,6.8,4.9,6.8c-0.6,0-1,0.5-1,1
			c0,0.6,0.5,1,1,1c0.3,0,0.5-0.1,0.7-0.3l2,1.2c0,0.1,0,0.2,0,0.3c0,0.6,0.5,1,1,1c0.6,0,1-0.5,1-1S9.2,9.1,8.6,9.1z"/>
	</g>
</g>
<g>
	<circle class="st5" cx="18.4" cy="30.8" r="7"/>
	<path class="st6" d="M18.3,28.9c0.4-0.4,0.7-0.6,1.3-0.7c0.7,0,1.3,0.3,1.6,0.9c0.3,0.7,0.3,1.3-0.2,1.9c-0.8,0.9-1.6,1.7-2.4,2.5
		c-0.1,0.2-0.3,0.1-0.4,0c-0.8-0.8-1.6-1.6-2.4-2.5c-0.6-0.7-0.6-1.8,0.1-2.4c0.6-0.6,1.6-0.6,2.3,0C18.2,28.8,18.3,28.8,18.3,28.9z
		"/>
</g>
</svg>
