<?xml version="1.0" encoding="utf-8"?>
<!-- Generator: Adobe Illustrator 24.0.3, SVG Export Plug-In . SVG Version: 6.00 Build 0)  -->
<svg version="1.1" id="Layer_1" xmlns="http://www.w3.org/2000/svg" xmlns:xlink="http://www.w3.org/1999/xlink" x="0px" y="0px"
	 viewBox="0 0 106.97 123.83" style="enable-background:new 0 0 106.97 123.83;" xml:space="preserve">
<style type="text/css">
	.st0{fill:#FCFDFD;stroke:#090405;stroke-width:0.2482;stroke-miterlimit:10;}
	.st1{fill:#FFFFFF;}
	.st2{fill:#FFEE00;stroke:#FFFFFF;stroke-width:0.0117;stroke-miterlimit:10;}
	.st3{fill:#FF0056;stroke:#FFFFFF;stroke-width:0.0117;stroke-miterlimit:10;}
	.st4{fill:#251F1F;stroke:#FFFFFF;stroke-width:0.0117;stroke-miterlimit:10;}
	.st5{fill:#00A7E6;stroke:#FFFFFF;stroke-width:0.0117;stroke-miterlimit:10;}
	.st6{fill:#ADAEA4;}
	.st7{fill:#251F1F;}
	.st8{fill:none;stroke:#FFFFFF;stroke-width:0.0117;stroke-miterlimit:10;}
	.st9{fill:none;stroke:#251F20;stroke-width:0.5998;stroke-linejoin:round;stroke-miterlimit:10;stroke-dasharray:1.1997,1.1997;}
	.st10{fill:none;stroke:#090405;stroke-width:0.3662;stroke-miterlimit:10;}
	.st11{fill:#FCFDFD;stroke:#090405;stroke-width:0.9766;stroke-miterlimit:10;}
	.st12{fill:#FFFFFF;stroke:#241F20;stroke-width:0.4883;stroke-miterlimit:10;}
	.st13{fill:#231F20;}
	.st14{fill:#009CDA;}
	.st15{fill:#FBE800;}
	.st16{fill:#FF0057;}
	.st17{fill:#010101;}
	.st18{fill:none;stroke:#13080A;stroke-width:0.7501;stroke-miterlimit:10;}
	.st19{fill:#FCFDFD;stroke:#090405;stroke-width:0.1875;stroke-miterlimit:10;}
	.st20{fill:#FFEE00;stroke:#FFFFFF;stroke-width:8.872499e-03;stroke-miterlimit:10;}
	.st21{fill:#FF0056;stroke:#FFFFFF;stroke-width:8.872499e-03;stroke-miterlimit:10;}
	.st22{fill:#251F1F;stroke:#FFFFFF;stroke-width:8.872499e-03;stroke-miterlimit:10;}
	.st23{fill:#00A7E6;stroke:#FFFFFF;stroke-width:8.872499e-03;stroke-miterlimit:10;}
	.st24{fill:none;stroke:#FFFFFF;stroke-width:8.872499e-03;stroke-miterlimit:10;}
	.st25{fill:none;stroke:#251F20;stroke-width:0.4532;stroke-linejoin:round;stroke-miterlimit:10;stroke-dasharray:0.9065,0.9065;}
	.st26{fill:none;stroke:#090405;stroke-width:0.2767;stroke-miterlimit:10;}
	.st27{fill:#FCFDFD;stroke:#090405;stroke-width:0.7379;stroke-miterlimit:10;}
	.st28{fill:#FFFFFF;stroke:#241F20;stroke-width:0.369;stroke-miterlimit:10;}
	.st29{fill:#FFEE00;}
	.st30{fill:#FF0056;}
	.st31{fill:#00A7E6;}
</style>
<g>
	<path class="st13" d="M31.5,45.35C30.84,45.68,29.53,46,27.84,46C23.93,46,21,43.54,21,39c0-4.34,2.94-7.28,7.23-7.28
		c1.73,0,2.82,0.37,3.29,0.62l-0.43,1.46c-0.68-0.33-1.64-0.58-2.79-0.58c-3.25,0-5.41,2.08-5.41,5.71c0,3.39,1.95,5.57,5.32,5.57
		c1.09,0,2.2-0.23,2.92-0.58L31.5,45.35z"/>
	<path class="st13" d="M33.74,32.13c0.9-0.19,2.2-0.29,3.43-0.29c1.91,0,3.14,0.35,4.01,1.13c0.7,0.62,1.09,1.56,1.09,2.63
		c0,1.83-1.15,3.04-2.61,3.54v0.06c1.07,0.37,1.71,1.36,2.03,2.8c0.45,1.93,0.78,3.27,1.07,3.8h-1.85
		c-0.23-0.39-0.53-1.58-0.92-3.31c-0.41-1.91-1.15-2.63-2.77-2.69h-1.69v6h-1.79V32.13z M35.53,38.44h1.83
		c1.91,0,3.12-1.05,3.12-2.63c0-1.79-1.29-2.57-3.19-2.59c-0.86,0-1.48,0.08-1.77,0.16V38.44z"/>
	<path class="st13" d="M51.98,39.3h-5.39v4.99h6v1.5H44.8V31.95h7.48v1.5h-5.69v4.38h5.39V39.3z"/>
	<path class="st13" d="M57.16,41.44l-1.44,4.36h-1.85l4.71-13.85h2.16l4.73,13.85h-1.91l-1.48-4.36H57.16z M61.7,40.04l-1.36-3.99
		c-0.31-0.9-0.51-1.73-0.72-2.53h-0.04c-0.21,0.82-0.43,1.67-0.7,2.51l-1.36,4.01H61.7z"/>
	<path class="st13" d="M68.55,33.47h-4.21v-1.52h10.26v1.52h-4.23V45.8h-1.81V33.47z"/>
	<path class="st13" d="M83.31,39.3h-5.39v4.99h6v1.5h-7.79V31.95h7.48v1.5h-5.69v4.38h5.39V39.3z"/>
	<path class="st13" d="M41.04,66.11l-1.44,4.36h-1.85l4.71-13.85h2.16l4.73,13.85h-1.91l-1.48-4.36H41.04z M45.58,64.72l-1.36-3.99
		c-0.31-0.9-0.51-1.73-0.72-2.53h-0.04c-0.21,0.82-0.43,1.67-0.7,2.51l-1.36,4.01H45.58z"/>
	<path class="st13" d="M51.38,70.47V56.62h1.95l4.44,7.01c1.03,1.62,1.83,3.08,2.49,4.5l0.04-0.02c-0.16-1.85-0.21-3.54-0.21-5.69
		v-5.8h1.69v13.85h-1.81l-4.4-7.03c-0.97-1.54-1.89-3.12-2.59-4.62l-0.06,0.02c0.1,1.75,0.14,3.41,0.14,5.71v5.92H51.38z"/>
	<path class="st13" d="M13.04,90.79l-1.44,4.36H9.75l4.71-13.85h2.16l4.73,13.85h-1.91l-1.48-4.36H13.04z M17.58,89.39l-1.36-3.99
		c-0.31-0.9-0.51-1.73-0.72-2.53h-0.04c-0.21,0.82-0.43,1.67-0.7,2.51l-1.36,4.01H17.58z"/>
	<path class="st13" d="M32.75,94.69c-0.66,0.33-1.97,0.66-3.66,0.66c-3.91,0-6.84-2.47-6.84-7.01c0-4.34,2.94-7.28,7.23-7.28
		c1.73,0,2.82,0.37,3.29,0.62l-0.43,1.46c-0.68-0.33-1.64-0.58-2.79-0.58c-3.25,0-5.41,2.08-5.41,5.71c0,3.39,1.95,5.57,5.32,5.57
		c1.09,0,2.2-0.23,2.92-0.58L32.75,94.69z"/>
	<path class="st13" d="M44.25,94.69c-0.66,0.33-1.97,0.66-3.66,0.66c-3.91,0-6.84-2.47-6.84-7.01c0-4.34,2.94-7.28,7.23-7.28
		c1.73,0,2.82,0.37,3.29,0.62l-0.43,1.46c-0.68-0.33-1.64-0.58-2.79-0.58c-3.25,0-5.41,2.08-5.41,5.71c0,3.39,1.95,5.57,5.32,5.57
		c1.09,0,2.2-0.23,2.92-0.58L44.25,94.69z"/>
	<path class="st13" d="M57.9,88.07c0,4.77-2.9,7.3-6.43,7.3c-3.66,0-6.23-2.84-6.23-7.03c0-4.4,2.73-7.28,6.43-7.28
		C55.45,81.06,57.9,83.96,57.9,88.07z M47.15,88.3c0,2.96,1.6,5.61,4.42,5.61c2.84,0,4.44-2.61,4.44-5.75
		c0-2.75-1.44-5.63-4.42-5.63C48.63,82.52,47.15,85.26,47.15,88.3z"/>
	<path class="st13" d="M62.01,81.29v8.2c0,3.1,1.38,4.42,3.23,4.42c2.06,0,3.37-1.36,3.37-4.42v-8.2h1.81v8.08c0,4.25-2.24,6-5.24,6
		c-2.84,0-4.97-1.62-4.97-5.92v-8.16H62.01z"/>
	<path class="st13" d="M73.53,95.14V81.29h1.95l4.44,7.01c1.03,1.62,1.83,3.08,2.49,4.5l0.04-0.02c-0.16-1.85-0.21-3.54-0.21-5.69
		v-5.8h1.69v13.85h-1.81l-4.4-7.03c-0.97-1.54-1.89-3.12-2.59-4.62l-0.06,0.02c0.1,1.75,0.14,3.41,0.14,5.71v5.92H73.53z"/>
	<path class="st13" d="M89.68,82.81h-4.21v-1.52h10.26v1.52h-4.23v12.33h-1.81V82.81z"/>
</g>
</svg>
