<?xml version="1.0" encoding="utf-8"?>
<!-- Generator: Adobe Illustrator 24.0.3, SVG Export Plug-In . SVG Version: 6.00 Build 0)  -->
<svg version="1.1" id="Layer_1" xmlns="http://www.w3.org/2000/svg" xmlns:xlink="http://www.w3.org/1999/xlink" x="0px" y="0px"
	 viewBox="0 0 107 123.8" style="enable-background:new 0 0 107 123.8;" xml:space="preserve">
<style type="text/css">
	.st0{fill:#FCFDFD;stroke:#090405;stroke-width:0.2482;stroke-miterlimit:10;}
	.st1{fill:#FFFFFF;}
	.st2{fill:#FFEE00;stroke:#FFFFFF;stroke-width:1.170000e-02;stroke-miterlimit:10;}
	.st3{fill:#FF0056;stroke:#FFFFFF;stroke-width:1.170000e-02;stroke-miterlimit:10;}
	.st4{fill:#251F1F;stroke:#FFFFFF;stroke-width:1.170000e-02;stroke-miterlimit:10;}
	.st5{fill:#00A7E6;stroke:#FFFFFF;stroke-width:1.170000e-02;stroke-miterlimit:10;}
	.st6{fill:#ADAEA4;}
	.st7{fill:#251F1F;}
	.st8{fill:none;stroke:#FFFFFF;stroke-width:1.170000e-02;stroke-miterlimit:10;}
	.st9{fill:none;stroke:#251F20;stroke-width:0.5998;stroke-linejoin:round;stroke-miterlimit:10;stroke-dasharray:1.1997,1.1997;}
	.st10{fill:none;stroke:#090405;stroke-width:0.3662;stroke-miterlimit:10;}
	.st11{fill:#FCFDFD;stroke:#090405;stroke-width:0.9766;stroke-miterlimit:10;}
	.st12{fill:#FFFFFF;stroke:#241F20;stroke-width:0.4883;stroke-miterlimit:10;}
	.st13{fill:#009CDA;}
	.st14{fill:#FBE800;}
	.st15{fill:#FF0057;}
	.st16{fill:#010101;}
	.st17{fill:none;stroke:#13080A;stroke-width:0.7501;stroke-miterlimit:10;}
	.st18{fill:#FCFDFD;stroke:#090405;stroke-width:0.1875;stroke-miterlimit:10;}
	.st19{fill:#FFEE00;stroke:#FFFFFF;stroke-width:8.872499e-03;stroke-miterlimit:10;}
	.st20{fill:#FF0056;stroke:#FFFFFF;stroke-width:8.872499e-03;stroke-miterlimit:10;}
	.st21{fill:#251F1F;stroke:#FFFFFF;stroke-width:8.872499e-03;stroke-miterlimit:10;}
	.st22{fill:#00A7E6;stroke:#FFFFFF;stroke-width:8.872499e-03;stroke-miterlimit:10;}
	.st23{fill:none;stroke:#FFFFFF;stroke-width:8.872499e-03;stroke-miterlimit:10;}
	.st24{fill:none;stroke:#251F20;stroke-width:0.4532;stroke-linejoin:round;stroke-miterlimit:10;stroke-dasharray:0.9065,0.9065;}
	.st25{fill:none;stroke:#090405;stroke-width:0.2767;stroke-miterlimit:10;}
	.st26{fill:#FCFDFD;stroke:#090405;stroke-width:0.7379;stroke-miterlimit:10;}
	.st27{fill:#FFFFFF;stroke:#241F20;stroke-width:0.369;stroke-miterlimit:10;}
	.st28{fill:#FFEE00;}
	.st29{fill:#FF0056;}
	.st30{fill:#00A7E6;}
	.st31{enable-background:new    ;}
</style>
<path class="st0" d="M351.9,124.5h-71c-9.7,0-17.5-7.8-17.5-17.5V18c0-9.7,7.8-17.5,17.5-17.5h71c9.7,0,17.5,7.8,17.5,17.5v89
	C369.4,116.6,361.6,124.5,351.9,124.5z"/>
<path class="st0" d="M353.1,124.5h-73.4c-9,0-16.3-7.3-16.3-16.3V16.8c0-9,7.3-16.3,16.3-16.3h73.4c9,0,16.3,7.3,16.3,16.3v91.4
	C369.4,117.1,362.1,124.5,353.1,124.5z"/>
<g>
	<path d="M337.9,55.6c0,12.1,0,24,0,35.9c0,2.4,0,2.4-2.5,2.4c-12.8,0-25.5,0-38.3,0c-1.7,0-2.1-0.5-2-2.1c0.1-12,0-24,0-36.2
		c-2.6-0.3-5.1-0.6-7.6-0.8c-1.6-0.1-2.4-0.6-2.7-2.2c-1-4.2-2.2-8.3-3.4-12.5c-0.4-1.2-0.2-1.8,1.1-2.3c7.3-2.9,14.5-6,22.2-7.6
		c0.4-0.1,0.7-0.6,1.1-0.9c0.1-0.1,0.2-0.4,0.3-0.6c0.7-2.3,2.1-3.1,4.5-2.9c4.4,0.2,8.8,0.1,13.2,0c1.2,0,2.1,0.3,2.5,1.5
		c0.6,2.3,2.2,3.1,4.5,3.5c7.1,1.3,13.6,4.7,20.3,7.3c0.4,0.1,0.7,1,0.6,1.3c-1.2,4.8-2.4,9.5-3.8,14.2c-0.1,0.5-1.1,1-1.7,1
		C343.5,55.1,340.8,55.3,337.9,55.6z M296.1,92.8c13.7,0,27.1,0,40.6,0c0-0.4,0.1-0.8,0.1-1.1c0-11.5,0-23,0-34.4
		c0-0.6-0.2-1.2-0.4-1.7c-1.5-4.5-2.6-9.2-1.6-14c0.6-2.6,1.5-5.2,2.4-8c-3.2-0.8-6.5-1.7-10-2.4c-0.6-0.1-1.5,0.2-1.9,0.6
		c-1.3,1.8-2.4,3.7-3.6,5.5c-0.3,0.5-0.5,1-0.9,1.6c-0.9-1.1-1.6-2-2.7-3.2c0,3.9-0.1,7.2,0,10.6c0,1.5-0.7,1.6-1.9,1.6
		c-1.1,0-1.8-0.2-1.8-1.6c0.1-3.1,0-6.1,0-9.2c0-0.4-0.1-0.8-0.1-1.3c-1,1.1-1.8,2-2.7,3.1c-0.4-0.8-0.5-1.4-0.9-1.9
		c-1.2-1.8-2.4-3.7-3.6-5.5c-0.2-0.3-0.9-0.6-1.2-0.6c-3.6,0.9-7.2,1.8-10.9,2.7c3.8,7,3.5,14,1.5,21.1c-0.4,1.3-0.7,2.7-0.7,4.1
		c0,10.6,0,21.2,0,31.8C296.1,91.4,296.1,92.1,296.1,92.8z M350.8,39.2c-3.6-1.5-7.1-2.8-10.6-4.3c-1.2-0.5-1.8-0.2-2.3,0.9
		c-2.9,5.9-2.7,12-0.8,18c0.1,0.3,0.8,0.7,1.1,0.7c2.6-0.2,5.2-0.5,7.9-0.8c0.4,0,1-0.5,1.1-0.9C348.4,48.3,349.5,43.8,350.8,39.2z
		 M282.1,39.2c1.3,4.6,2.4,9,3.7,13.4c0.1,0.5,0.9,1.1,1.4,1.2c2.4,0.4,4.9,0.5,7.4,0.8c1,0.1,1.5-0.3,1.7-1.2
		c0.9-3.9,1.4-7.8,0.7-11.8c-0.4-2.5-1.2-5-2.7-7.2C290.2,35.9,286.2,37.5,282.1,39.2z M315.5,32.9c-2.6-1.9-5.1-3.6-7.6-5.5
		c-0.5,0.8-0.8,1.5-1,1.8c1.9,2.6,3.6,5.1,5.4,7.6C313.3,35.7,314.4,34.3,315.5,32.9z M317.5,32.9c1.1,1.4,2.1,2.8,3.1,4
		c1.8-2.6,3.6-5,5.4-7.6c-0.2-0.5-0.6-1.1-0.9-1.8C322.5,29.3,320.1,31,317.5,32.9z M323.5,27.1c-4.8,0-9.4,0-14.1,0
		c1.4,1.3,2.8,2.1,4.6,2c1.6-0.2,3.3-0.1,5,0C320.8,29.2,322.2,28.6,323.5,27.1z M319.3,30.1c-1.9,0-3.7,0-5.6,0
		C316.9,32.7,316,32.8,319.3,30.1z M317.1,44.2c0-1.3,0-2.3,0-3.5c-0.5,0-0.9-0.1-1.3-0.1c0,1.3,0,2.5,0,3.7
		C316.3,44.3,316.7,44.2,317.1,44.2z M317.1,39.6c0.3-3.5,0.3-3.5-1.4-3.3c0,1.1,0,2.2,0,3.4C316.2,39.7,316.7,39.6,317.1,39.6z
		 M315.5,45.4c0.3,0.6,0.5,1.1,0.8,1.6c0,0,0.8-0.1,0.9-0.4c0.2-0.3,0-0.8,0-1.2C316.6,45.4,316.2,45.4,315.5,45.4z"/>
	<path class="st1" d="M296.1,92.8c0-0.7,0-1.4,0-2c0-10.6,0-21.2,0-31.8c0-1.4,0.3-2.8,0.7-4.1c2-7.1,2.3-14.1-1.5-21.1
		c3.7-1,7.3-1.9,10.9-2.7c0.3-0.1,1,0.2,1.2,0.6c1.2,1.8,2.4,3.6,3.6,5.5c0.3,0.5,0.5,1,0.9,1.9c1-1.1,1.8-2,2.7-3.1
		c0.1,0.6,0.1,1,0.1,1.3c0,3.1,0.1,6.1,0,9.2c0,1.4,0.6,1.6,1.8,1.6c1.2,0,1.9-0.1,1.9-1.6c-0.1-3.4,0-6.8,0-10.6
		c1,1.2,1.8,2.1,2.7,3.2c0.4-0.7,0.6-1.2,0.9-1.6c1.2-1.8,2.3-3.7,3.6-5.5c0.3-0.4,1.3-0.7,1.9-0.6c3.4,0.8,6.8,1.6,10,2.4
		c-0.9,2.8-1.8,5.4-2.4,8c-1,4.8,0,9.4,1.6,14c0.2,0.5,0.4,1.1,0.4,1.7c0,11.5,0,23,0,34.4c0,0.3,0,0.6-0.1,1.1
		C323.3,92.8,309.8,92.8,296.1,92.8z"/>
	<path class="st1" d="M350.8,39.2c-1.2,4.6-2.4,9.2-3.6,13.7c-0.1,0.4-0.7,0.9-1.1,0.9c-2.6,0.3-5.2,0.6-7.9,0.8
		c-0.4,0-1-0.4-1.1-0.7c-2-6.1-2.1-12.1,0.8-18c0.6-1.2,1.1-1.5,2.3-0.9C343.6,36.3,347.2,37.7,350.8,39.2z"/>
	<path class="st1" d="M282.1,39.2c4.1-1.6,8.1-3.2,12.2-4.9c1.4,2.3,2.2,4.7,2.7,7.2c0.6,4,0.1,7.9-0.7,11.8c-0.2,1-0.6,1.3-1.7,1.2
		c-2.5-0.3-4.9-0.5-7.4-0.8c-0.5-0.1-1.2-0.7-1.4-1.2C284.5,48.2,283.4,43.8,282.1,39.2z"/>
	<path class="st1" d="M315.5,32.9c-1.2,1.5-2.2,2.8-3.2,3.9c-1.8-2.5-3.6-5-5.4-7.6c0.2-0.3,0.5-0.9,1-1.8
		C310.5,29.2,312.9,31,315.5,32.9z"/>
	<path class="st1" d="M317.5,32.9c2.6-1.9,5-3.6,7.6-5.4c0.4,0.7,0.7,1.4,0.9,1.8c-1.8,2.6-3.6,5.1-5.4,7.6
		C319.6,35.7,318.6,34.3,317.5,32.9z"/>
	<path class="st1" d="M323.5,27.1c-1.3,1.5-2.7,2.1-4.5,2c-1.7-0.1-3.4-0.1-5,0c-1.8,0.2-3.2-0.6-4.6-2
		C314.2,27.1,318.8,27.1,323.5,27.1z"/>
	<path class="st1" d="M319.3,30.1c-3.2,2.7-2.4,2.5-5.6,0C315.6,30.1,317.4,30.1,319.3,30.1z"/>
	<path class="st1" d="M317.1,44.2c-0.4,0-0.8,0.1-1.3,0.1c0-1.2,0-2.4,0-3.7c0.4,0,0.8,0,1.3,0.1C317.1,41.8,317.1,42.9,317.1,44.2z
		"/>
	<path class="st1" d="M317.1,39.6c-0.5,0-0.9,0-1.4,0.1c0-1.2,0-2.3,0-3.4C317.4,36.1,317.5,36.2,317.1,39.6z"/>
	<path class="st1" d="M315.5,45.4c0.7,0,1.1,0,1.6,0c0,0.4,0.1,0.9,0,1.2c-0.1,0.2-0.8,0.4-0.9,0.4C316,46.5,315.8,45.9,315.5,45.4z
		"/>
	<path class="st2" d="M323.3,56.1h-5.9V54c0-0.4-0.3-0.8-0.8-0.9v-3.5c3.7,0.2,6.6,2.9,6.6,6.2C323.3,55.9,323.3,56,323.3,56.1z"/>
	<path class="st3" d="M315.1,54v2.1h-5.9c0.2-3.2,3-5.7,6.6-5.8V53C315.4,53.2,315.1,53.5,315.1,54z"/>
	<path class="st4" d="M309.2,58.5h5.9v2.1c0,0.4,0.3,0.8,0.8,0.9V65c-3.7-0.2-6.6-2.9-6.6-6.2C309.2,58.8,309.2,58.7,309.2,58.5z"/>
	<path class="st5" d="M317.4,60.7v-2.1h5.9c-0.2,3.2-3,5.7-6.6,5.8v-2.8C317.1,61.5,317.4,61.1,317.4,60.7z"/>
</g>
<g>
	<path d="M243.4-103.6c0,12.1,0,24,0,35.9c0,2.4,0,2.4-2.4,2.4c-12.8,0-25.5,0-38.3,0c-1.7,0-2.1-0.5-2.1-2.1c0.1-12,0-24,0-36.2
		c-2.6-0.3-5.1-0.6-7.6-0.8c-1.6-0.1-2.4-0.6-2.7-2.2c-1-4.2-2.2-8.3-3.4-12.4c-0.4-1.2-0.2-1.8,1.1-2.3c7.3-2.9,14.5-6.1,22.2-7.6
		c0.4-0.1,0.7-0.6,1.1-0.9c0.1-0.1,0.2-0.4,0.3-0.6c0.7-2.3,2.1-3.1,4.5-2.9c4.4,0.2,8.8,0.1,13.2,0.1c1.2,0,2.1,0.3,2.5,1.5
		c0.6,2.3,2.2,3.1,4.5,3.5c7.1,1.3,13.6,4.7,20.3,7.2c0.4,0.1,0.7,0.9,0.6,1.3c-1.2,4.8-2.4,9.5-3.8,14.2c-0.1,0.5-1.1,1-1.7,1
		C249.1-104.1,246.3-103.8,243.4-103.6z M201.7-66.4c13.7,0,27.1,0,40.6,0c0-0.4,0.1-0.8,0.1-1.1c0-11.5,0-22.9,0-34.4
		c0-0.6-0.2-1.2-0.4-1.7c-1.5-4.5-2.6-9.2-1.6-13.9c0.6-2.6,1.5-5.2,2.4-8c-3.2-0.8-6.6-1.7-9.9-2.4c-0.6-0.1-1.5,0.2-1.9,0.6
		c-1.3,1.8-2.4,3.7-3.6,5.5c-0.3,0.5-0.5,1-0.9,1.6c-0.9-1.1-1.6-1.9-2.7-3.2c0,3.9-0.1,7.2,0,10.6c0.1,1.5-0.7,1.6-1.9,1.6
		c-1.1,0-1.8-0.2-1.8-1.6c0.1-3.1,0-6.1,0-9.2c0-0.4-0.1-0.8-0.1-1.3c-1,1.1-1.8,2-2.7,3.1c-0.4-0.8-0.6-1.4-0.9-1.9
		c-1.2-1.8-2.4-3.7-3.6-5.5c-0.2-0.3-0.9-0.7-1.2-0.6c-3.6,0.8-7.2,1.8-10.9,2.7c3.8,7,3.6,14,1.5,21.1c-0.4,1.3-0.7,2.7-0.7,4.1
		c-0.1,10.6,0,21.2,0,31.8C201.7-67.7,201.7-67.1,201.7-66.4z M256.3-120c-3.6-1.4-7.1-2.8-10.6-4.3c-1.2-0.5-1.8-0.2-2.3,0.9
		c-2.9,5.9-2.7,11.9-0.8,18c0.1,0.3,0.8,0.7,1.1,0.7c2.6-0.2,5.2-0.4,7.9-0.8c0.4-0.1,1-0.5,1.1-0.9
		C253.9-110.9,255.1-115.4,256.3-120z M187.7-120c1.3,4.6,2.4,9,3.7,13.4c0.1,0.5,0.9,1.1,1.4,1.2c2.4,0.4,4.9,0.5,7.4,0.8
		c1,0.1,1.4-0.3,1.7-1.2c0.9-3.9,1.4-7.8,0.7-11.8c-0.4-2.5-1.2-5-2.7-7.2C195.8-123.2,191.8-121.7,187.7-120z M221.1-126.3
		c-2.6-1.9-5.1-3.6-7.6-5.5c-0.4,0.8-0.8,1.4-0.9,1.8c1.9,2.6,3.6,5.1,5.4,7.6C218.9-123.5,219.9-124.8,221.1-126.3z M223-126.3
		c1.1,1.4,2.1,2.8,3.1,4c1.8-2.6,3.6-5,5.4-7.6c-0.2-0.5-0.6-1.1-0.9-1.8C228.1-129.9,225.6-128.2,223-126.3z M229.1-132.1
		c-4.8,0-9.4,0-14.1,0c1.4,1.3,2.8,2.1,4.6,1.9c1.6-0.2,3.3-0.1,5,0C226.4-130,227.8-130.6,229.1-132.1z M224.8-129
		c-1.9,0-3.7,0-5.6,0C222.5-126.5,221.6-126.3,224.8-129z M222.7-115c0-1.3,0-2.3,0-3.5c-0.5,0-0.9-0.1-1.3-0.1c0,1.3,0,2.5,0,3.7
		C221.9-114.9,222.3-114.9,222.7-115z M222.7-119.6c0.3-3.4,0.3-3.5-1.4-3.3c0,1.1,0,2.2,0,3.4C221.8-119.5,222.2-119.5,222.7-119.6
		z M221.1-113.8c0.3,0.6,0.5,1.1,0.8,1.6c0,0.1,0.8-0.1,0.9-0.4c0.2-0.3,0-0.8,0-1.2C222.2-113.8,221.8-113.8,221.1-113.8z"/>
	<path class="st1" d="M201.7-66.4c0-0.7,0-1.4,0-2c0-10.6,0-21.2,0-31.8c0-1.4,0.3-2.8,0.7-4.1c2.1-7.1,2.3-14.1-1.5-21.1
		c3.7-0.9,7.3-1.9,10.9-2.7c0.3-0.1,1,0.2,1.2,0.6c1.2,1.8,2.4,3.6,3.6,5.5c0.3,0.5,0.5,1,0.9,1.9c1-1.1,1.8-2,2.7-3.1
		c0.1,0.6,0.1,1,0.1,1.3c0,3.1,0.1,6.1,0,9.2c0,1.4,0.6,1.6,1.8,1.6s1.9-0.1,1.9-1.6c-0.1-3.4,0-6.8,0-10.6c1,1.2,1.8,2.1,2.7,3.2
		c0.4-0.7,0.6-1.2,0.9-1.6c1.2-1.8,2.3-3.7,3.6-5.5c0.3-0.4,1.3-0.7,1.9-0.6c3.4,0.8,6.8,1.6,9.9,2.4c-0.9,2.8-1.8,5.4-2.4,8
		c-1,4.8,0,9.4,1.6,13.9c0.2,0.6,0.4,1.1,0.4,1.7c0,11.5,0,22.9,0,34.4c0,0.3-0.1,0.6-0.1,1.1C228.8-66.4,215.3-66.4,201.7-66.4z"/>
	<path class="st1" d="M256.3-120c-1.2,4.6-2.4,9.2-3.6,13.7c-0.1,0.4-0.7,0.9-1.1,0.9c-2.6,0.3-5.2,0.6-7.9,0.8
		c-0.4,0-1.1-0.4-1.1-0.7c-2-6.1-2.1-12.1,0.8-18.1c0.6-1.2,1.1-1.4,2.3-0.9C249.2-122.8,252.7-121.5,256.3-120z"/>
	<path class="st1" d="M187.7-120c4.1-1.6,8.1-3.2,12.2-4.9c1.4,2.3,2.2,4.7,2.7,7.2c0.6,4,0.1,7.9-0.7,11.8c-0.2,1-0.6,1.3-1.7,1.2
		c-2.4-0.3-4.9-0.5-7.4-0.8c-0.5-0.1-1.2-0.7-1.4-1.2C190.1-111,188.9-115.4,187.7-120z"/>
	<path class="st1" d="M221.1-126.3c-1.2,1.5-2.2,2.8-3.2,3.9c-1.8-2.5-3.6-5-5.4-7.6c0.2-0.3,0.5-0.9,0.9-1.8
		C216-129.9,218.5-128.2,221.1-126.3z"/>
	<path class="st1" d="M223-126.3c2.6-1.9,5-3.6,7.6-5.4c0.4,0.7,0.7,1.4,0.9,1.8c-1.8,2.6-3.6,5.1-5.4,7.6
		C225.2-123.5,224.1-124.9,223-126.3z"/>
	<path class="st1" d="M229.1-132.1c-1.3,1.5-2.7,2.1-4.6,1.9c-1.7-0.1-3.4-0.1-5,0c-1.8,0.2-3.2-0.6-4.6-1.9
		C219.8-132.1,224.3-132.1,229.1-132.1z"/>
	<path class="st1" d="M224.8-129c-3.2,2.7-2.4,2.6-5.6,0C221.2-129,222.9-129,224.8-129z"/>
	<path class="st1" d="M222.7-115c-0.4,0-0.8,0.1-1.3,0.1c0-1.2,0-2.4,0-3.7c0.4,0,0.8,0.1,1.3,0.1
		C222.7-117.3,222.7-116.3,222.7-115z"/>
	<path class="st1" d="M222.7-119.6c-0.5,0-0.9,0.1-1.4,0.1c0-1.2,0-2.3,0-3.4C223-123.1,223-123,222.7-119.6z"/>
	<path class="st1" d="M221.1-113.8c0.7,0,1.1,0,1.6,0c0,0.4,0.1,0.9,0,1.2c-0.1,0.2-0.8,0.4-0.9,0.4
		C221.6-112.7,221.4-113.2,221.1-113.8z"/>
	<path class="st2" d="M228.8-103.1H223v-2.1c0-0.4-0.3-0.8-0.8-0.9v-3.4c3.7,0.2,6.6,2.9,6.6,6.2
		C228.9-103.3,228.9-103.2,228.8-103.1z"/>
	<path class="st3" d="M220.7-105.2v2.1h-5.9c0.2-3.2,3-5.7,6.6-5.8v2.8C221-106,220.7-105.6,220.7-105.2z"/>
	<path class="st4" d="M214.8-100.6h5.9v2.1c0,0.4,0.3,0.8,0.8,0.9v3.4c-3.7-0.2-6.6-2.9-6.6-6.2
		C214.8-100.4,214.8-100.5,214.8-100.6z"/>
	<path class="st5" d="M222.9-98.5v-2.1h5.9c-0.2,3.2-3,5.7-6.6,5.8v-2.8C222.6-97.7,222.9-98.1,222.9-98.5z"/>
</g>
<g>
	<path class="st1" d="M186.1-54.1c0.2-1.3,0.4-2.4,0.6-3.6c6.4,0,12.7,0,19.2,0c-0.1,1.2-0.1,2.3-0.2,3.6
		C199.2-54.1,192.8-54.1,186.1-54.1z"/>
	<g>
		<path d="M196.5-58.8c3,0,6,0,8.9,0c1.2,0,1.7,0.3,1.5,1.6c-0.9,6.3-1.6,12.7-2.5,19c-0.8,5.1-1.7,10.1-2.6,15.1
			c-0.8,4.3,0.6,7.9,3.6,10.9c5,5,11.1,8.1,17.6,10.5c1.2,0.5,2.4,1.1,3.3,2c1.6,1.6,1,3.7-1.2,4.5c-0.6,0.2-1.1,0.3-1.7,0.4
			c-4.6,0.1-9.3,0.4-13.9,0.2c-2-0.1-4.1-0.8-5.8-1.7c-3.8-2.1-7.7-3.5-11.9-4.3c-1.5-0.3-2.9-0.8-4.3-1.4c-2.8-1.4-3.6-3.8-2.6-6.7
			c2.6-7.9,3-16,1.4-24.1c-1.5-7.9-2.1-15.8-0.8-23.8c0.4-2.2,0.4-2.2,2.6-2.2C190.9-58.8,193.7-58.8,196.5-58.8z M204.5-44.2
			c-6.3,0-12.4,0-18.7,0c0.4,3.1,0.5,6,1.1,8.9c1.9,9.3,2,18.4-1.2,27.5c-0.6,1.8,0,3.7,1.7,4.5c1.6,0.8,3.3,1.5,5.1,1.8
			c4.1,0.8,7.9,2.2,11.7,4.2c1.8,1,4,1.6,6.1,1.7c4,0.2,8.1,0,12.2-0.1c0.9,0,1.8-0.2,2.6-0.4c1.5-0.5,1.8-1.7,0.8-2.8
			c-0.7-0.7-1.6-1.2-2.6-1.6c-2.5-1.1-5.1-2-7.5-3.2c-4.7-2.3-9-5.2-12.3-9.3c-2-2.5-3.1-5.2-2.6-8.4c0.6-3.8,1.1-7.5,1.7-11.3
			C203.1-36.6,203.8-40.4,204.5-44.2z M186.1-54.1c6.6,0,13.1,0,19.6,0c0.1-1.3,0.1-2.4,0.2-3.6c-6.5,0-12.8,0-19.2,0
			C186.6-56.5,186.4-55.4,186.1-54.1z M185.8-49.8c6.6,0,13,0,19.4,0c0.1-1.1,0.2-2.1,0.4-3.1c-6.6,0-13,0-19.5,0
			C186-51.9,185.9-50.9,185.8-49.8z M185.9-48.7c0,1.1,0,2.1,0,3.3c6.3,0,12.4,0,18.7,0c0.1-1,0.3-2.1,0.4-3.3
			C198.6-48.7,192.3-48.7,185.9-48.7z"/>
		<path class="st1" d="M204.5-44.2c-0.7,3.8-1.4,7.6-2.1,11.4c-0.6,3.8-1.2,7.5-1.7,11.3c-0.5,3.2,0.6,6,2.6,8.4
			c3.3,4.1,7.6,7,12.3,9.3c2.4,1.2,5,2.1,7.5,3.2c0.9,0.4,1.9,0.9,2.6,1.6c1.1,1.1,0.7,2.3-0.8,2.8c-0.8,0.3-1.7,0.4-2.6,0.4
			c-4.1,0.1-8.1,0.3-12.2,0.1c-2.1-0.1-4.3-0.7-6.1-1.7c-3.7-2-7.6-3.3-11.7-4.2c-1.7-0.4-3.5-1-5.1-1.8c-1.7-0.8-2.3-2.8-1.7-4.5
			c3.2-9,3.1-18.2,1.2-27.5c-0.6-2.9-0.7-5.9-1.1-8.9C192.1-44.2,198.2-44.2,204.5-44.2z"/>
		<path class="st1" d="M185.8-49.8c0.1-1.1,0.1-2.1,0.2-3.1c6.5,0,12.9,0,19.5,0c-0.1,1-0.2,2-0.4,3.1
			C198.8-49.8,192.4-49.8,185.8-49.8z"/>
		<path class="st1" d="M185.9-48.7c6.4,0,12.6,0,19.1,0c-0.1,1.2-0.3,2.3-0.4,3.3c-6.2,0-12.4,0-18.7,0
			C185.9-46.5,185.9-47.5,185.9-48.7z"/>
		<path class="st2" d="M202.1-31h-5.5v-2c0-0.4-0.3-0.8-0.7-0.9v-3.2c3.5,0.2,6.2,2.7,6.2,5.8C202.1-31.2,202.1-31.1,202.1-31z"/>
		<path class="st3" d="M194.4-33v2h-5.5c0.2-3,2.9-5.3,6.2-5.5v2.6C194.7-33.8,194.4-33.4,194.4-33z"/>
		<path class="st4" d="M188.9-28.7h5.5v2c0,0.4,0.3,0.8,0.7,0.9v3.2c-3.5-0.2-6.2-2.7-6.2-5.8C188.9-28.5,188.9-28.6,188.9-28.7z"/>
		<path class="st5" d="M196.5-26.7v-2h5.5c-0.2,3-2.9,5.4-6.2,5.5v-2.6C196.2-26,196.5-26.3,196.5-26.7z"/>
	</g>
</g>
<g>
	<g>
		<path class="st6" d="M-100.3-50.8c-2.1,7.2-4.3,14.4-6.3,21.7c-0.5,1.7-1.1,2.1-2.8,1.5c-2.6-1-5.3-1.6-8-2.4
			c-0.8-0.2-1.4-0.4-1.1-1.6c3.8-13.4,7.5-26.8,11.1-40.2c1.4-5.2,4.1-8.7,9.6-9.9c2.1-0.5,4.1-1.5,6.2-2.2
			c-1.4-3.9-2.2-7.6-1.5-11.6c1.2-6.2,6.5-9.7,12.4-8c3.9,1.1,6.3,4.7,6.5,9.9c0.1,1.6-0.1,3.2-0.3,4.8c-0.2,1.5-0.6,3-1,4.8
			c2.5,0.9,4.9,2.1,7.5,2.7c4.5,1.2,7.2,3.8,8.3,8.3c2.3,8.9,4.7,17.8,7,26.7c1.3,4.8,2.4,9.7,3.6,14.5c0.3,1.1,0,1.6-1.1,1.9
			c-2.9,0.8-5.7,1.6-8.5,2.5c-1.3,0.4-1.7,0-2.1-1.2c-1.8-7-3.6-14-5.4-21.1c-0.1-0.3-0.1-0.5-0.2-0.8c-0.2,0-0.3,0-0.5,0
			c0.4,8.1,0.9,16.3,1.3,24.5c-0.8,0-1.4,0.1-2.1,0.1c-10.7,0-21.3,0-32,0c-1.6,0-2-0.5-1.9-2C-101.1-35.6-100.7-43.2-100.3-50.8
			C-100.1-50.8-100.2-50.8-100.3-50.8z M-76.9-83.8c1.5-3.6,2-7,1.7-10.6c-0.2-2.9-1-5.6-3.5-7.3c-5.1-3.5-11.7-0.7-13.2,5.6
			c-0.9,3.8-0.3,7.5,1.1,11c0.4,1.1,0.2,1.7-0.8,2.1c-1.7,0.7-3.3,1.3-5,1.9c-2.1,0.8-4.3,1.6-6,2.3c1,3.5,2.2,6.6,2.7,9.9
			c0.6,4.1,0.9,8.2,0.8,12.3c-0.2,9.3-0.8,18.6-1.2,27.8c0,0.6,0,1.2,0,1.9c11.3,0,22.5,0,33.8,0c0-0.7,0-1.3,0-1.8
			c-0.4-10.4-0.9-20.8-1-31.2c-0.1-6.4,0-12.9,3.8-18.7C-68.2-80.4-72.5-82.1-76.9-83.8z M-62.7-78.1c-0.5,0.6-0.8,0.9-0.9,1.2
			C-64.1-76-64.7-75-65-74c-1.8,6-2.4,12.3-1.2,18.4c1.7,9,4.3,17.9,6.6,26.8c0,0.2,0.3,0.4,0.4,0.5c3.2-1,6.3-1.9,9.4-2.9
			c-0.6-2.4-1.2-4.7-1.7-6.9c-2.8-11.1-5.7-22.2-8.6-33.3C-60.8-73.6-61.8-75.7-62.7-78.1z M-107.8-28.2c2-7,3.9-13.8,5.8-20.6
			c1.1-4.1,2.1-8.3,1.7-12.7c-0.3-4.4-0.3-8.9-2-13.2c-0.4-1-0.9-1.9-1.4-2.9c-0.2,0-0.4,0.1-0.6,0.1c-5.8,15-7.6,31.1-13.5,46.2
			C-114.4-30.2-111.2-29.2-107.8-28.2z"/>
		<path class="st6" d="M-76.9-83.8c4.4,1.7,8.7,3.4,13.1,5.1c-3.8,5.9-3.9,12.3-3.8,18.7c0.2,10.4,0.7,20.8,1,31.2
			c0,0.6,0,1.2,0,1.8c-11.3,0-22.5,0-33.8,0c0-0.6,0-1.3,0-1.9c0.4-9.3,0.9-18.5,1.2-27.8c0.1-4.1-0.2-8.2-0.8-12.3
			c-0.5-3.2-1.7-6.4-2.7-9.9c1.7-0.7,3.9-1.5,6-2.3c1.7-0.6,3.3-1.3,5-1.9c1-0.4,1.3-0.9,0.8-2.1c-1.4-3.5-2-7.2-1.1-11
			c1.5-6.2,8.2-9.1,13.2-5.6c2.5,1.8,3.3,4.4,3.5,7.3C-74.9-90.8-75.4-87.4-76.9-83.8z M-83.7-32.8c3.6,0,7.2,0,10.7,0
			c1.3,0,1.8-0.4,1.7-1.8c-0.1-2,0-3.9-0.1-5.9c0-0.6-0.3-1.3-0.7-1.7c-2.1-1.7-3.5-3.9-4.4-6.4c-0.2-0.6-1.2-1.2-1.8-1.2
			c-3.8-0.1-7.5,0-11.2-0.1c-1.1,0-1.5,0.5-1.8,1.5c-0.5,1.4-1,3.2-2.1,4c-2.5,2.1-3.1,4.6-2.8,7.6c0.1,0.7,0.1,1.4,0,2.1
			c-0.1,1.3,0.3,1.8,1.7,1.8C-90.8-32.8-87.2-32.8-83.7-32.8z M-77.4-93.2c-0.4-1.5-0.8-3.1-1.3-4.5c-0.8-2.1-2.6-3-4.8-3
			s-3.9,0.9-5,2.8c-2.8,4.9-1,11.5,3.8,14.3c0.5,0.3,1.5,0.3,2-0.1C-79.3-85.8-77.7-89.1-77.4-93.2z M-86.9-73.6
			c0.4-0.4,0.7-0.5,0.7-0.7c0.1-2.5,0.2-5.1,0.3-7.6c0-0.3-0.6-0.6-0.9-0.9c-0.3,0.4-0.8,0.8-0.8,1.2c0.1,2,0.3,4,0.5,5.9
			C-87.1-75.1-87-74.5-86.9-73.6z M-80.8-73.9c0.1,0,0.3,0,0.4,0c0.1-0.6,0.1-1.2,0.2-1.8c0.2-2,0.4-3.9,0.5-5.9
			c0-0.4-0.5-0.8-0.8-1.2c-0.3,0.3-0.8,0.6-0.8,0.9c0,2.4,0,4.7,0.1,7.1C-81.2-74.5-80.9-74.2-80.8-73.9z"/>
		<path class="st6" d="M-62.7-78.1c1,2.4,2,4.5,2.6,6.7c2.9,11.1,5.7,22.2,8.6,33.3c0.6,2.2,1.1,4.5,1.7,6.9c-3.2,1-6.3,1.9-9.4,2.9
			c-0.2-0.2-0.4-0.4-0.4-0.5c-2.2-8.9-4.8-17.8-6.6-26.8c-1.2-6.1-0.6-12.3,1.2-18.4c0.3-1,0.9-1.9,1.4-2.9
			C-63.5-77.2-63.2-77.5-62.7-78.1z"/>
		<path class="st6" d="M-107.8-28.2c-3.5-1-6.6-2-10-3c5.9-15.1,7.8-31.2,13.5-46.2c0.2,0,0.4-0.1,0.6-0.1c0.5,0.9,1,1.9,1.4,2.9
			c1.7,4.2,1.7,8.7,2,13.2c0.3,4.3-0.6,8.5-1.7,12.6C-103.9-42-105.8-35.2-107.8-28.2z"/>
		<path class="st6" d="M-83.7-32.8c-3.6,0-7.2-0.1-10.7,0c-1.4,0-1.8-0.5-1.7-1.8c0.1-0.7,0.1-1.4,0-2.1c-0.3-3,0.2-5.5,2.8-7.6
			c1.1-0.9,1.6-2.6,2.1-4c0.3-1,0.7-1.5,1.8-1.5c3.8,0.1,7.5,0,11.2,0.1c0.6,0,1.6,0.6,1.8,1.2c1,2.5,2.3,4.7,4.4,6.4
			c0.4,0.3,0.7,1.1,0.7,1.7c0.1,2,0,3.9,0.1,5.9c0.1,1.3-0.3,1.8-1.7,1.8C-76.5-32.8-80.1-32.8-83.7-32.8z M-72.3-33.8
			c0-2.3,0-4.5,0-6.7c0-0.4-0.3-0.9-0.6-1.2c-1.9-1.6-3.3-3.6-4.1-5.9c-0.2-0.5-1-1-1.5-1.1c-3.5-0.1-7-0.1-10.5,0
			c-0.4,0-1.1,0.5-1.2,0.9c-0.6,2.5-2.1,4.2-3.8,5.9c-0.4,0.4-1,1-1,1.6c-0.1,2.1-0.1,4.2-0.1,6.5C-87.5-33.8-80-33.8-72.3-33.8z"/>
		<path class="st6" d="M-77.4-93.2c-0.3,4.1-1.9,7.3-5.3,9.5c-0.5,0.3-1.5,0.3-2,0.1c-4.8-2.8-6.6-9.4-3.8-14.3
			c1.1-1.9,2.8-2.9,5-2.8c2.2,0,4,0.9,4.8,3C-78.2-96.2-77.8-94.7-77.4-93.2z M-78.4-93c-0.4-1.4-0.6-2.9-1.1-4.2
			c-0.6-1.7-2-2.4-3.8-2.5c-1.9-0.1-3.4,0.6-4.3,2.2c-2.4,4-1,10.1,2.8,12.7c0.8,0.6,1.4,0.6,2.2,0C-79.9-86.9-78.7-89.6-78.4-93z"
			/>
		<path class="st6" d="M-86.9-73.6c-0.1-0.9-0.2-1.4-0.2-2c-0.2-2-0.4-4-0.5-5.9c0-0.4,0.5-0.8,0.8-1.2c0.3,0.3,0.9,0.6,0.9,0.9
			c0,2.5-0.2,5.1-0.3,7.6C-86.3-74.2-86.5-74.1-86.9-73.6z"/>
		<path class="st6" d="M-80.8-73.9c-0.2-0.3-0.4-0.6-0.4-0.8c-0.1-2.4-0.1-4.7-0.1-7.1c0-0.3,0.5-0.6,0.8-0.9
			c0.3,0.4,0.8,0.8,0.8,1.2c-0.1,2-0.3,3.9-0.5,5.9c-0.1,0.6-0.1,1.2-0.2,1.8C-80.5-73.9-80.6-73.9-80.8-73.9z"/>
		<path class="st6" d="M-72.3-33.8c-7.8,0-15.2,0-22.9,0c0-2.2-0.1-4.4,0.1-6.5c0-0.5,0.6-1.2,1-1.6c1.7-1.7,3.3-3.4,3.8-5.9
			c0.1-0.4,0.8-0.9,1.2-0.9c3.5-0.1,7-0.1,10.5,0c0.5,0,1.3,0.6,1.5,1.1c0.9,2.3,2.2,4.3,4.1,5.9c0.3,0.3,0.6,0.8,0.6,1.2
			C-72.2-38.3-72.3-36.1-72.3-33.8z"/>
		<path class="st6" d="M-78.4-93c-0.2,3.4-1.5,6.2-4.2,8.2c-0.8,0.6-1.4,0.6-2.2,0c-3.8-2.7-5.2-8.7-2.8-12.7c1-1.6,2.4-2.3,4.3-2.2
			c1.8,0.1,3.1,0.8,3.8,2.5C-79-95.9-78.8-94.4-78.4-93z"/>
		<path class="st6" d="M-76.5-64.2h-6.7v-2.4c0-0.5-0.4-0.9-0.9-1.1v-3.9c4.2,0.2,7.6,3.3,7.6,7.1C-76.5-64.4-76.5-64.3-76.5-64.2z"
			/>
		<path class="st6" d="M-85.8-66.6v2.4h-6.7c0.2-3.6,3.5-6.5,7.5-6.7v3.2C-85.5-67.5-85.8-67.1-85.8-66.6z"/>
		<g>
			<path class="st6" d="M-92.5-61.4h6.7v2.4c0,0.5,0.4,0.9,0.9,1.1v3.9c-4.2-0.2-7.6-3.3-7.6-7.1C-92.5-61.2-92.5-61.3-92.5-61.4z"
				/>
			<path class="st6" d="M-92.5-61.4h6.7v2.4c0,0.5,0.4,0.9,0.9,1.1v3.9c-4.2-0.2-7.6-3.3-7.6-7.1C-92.5-61.2-92.5-61.3-92.5-61.4z"
				/>
		</g>
		<path class="st6" d="M-83.2-59v-2.4h6.7c-0.2,3.6-3.5,6.5-7.5,6.7v-3.2C-83.6-58.1-83.2-58.5-83.2-59z"/>
		<rect x="-99.2" y="-78" class="st6" width="28.9" height="38.4"/>
	</g>
	<g>
		<path d="M-100.3-50.8c-2.1,7.2-4.3,14.4-6.3,21.7c-0.5,1.7-1.1,2.1-2.8,1.5c-2.6-1-5.3-1.6-8-2.4c-0.8-0.2-1.4-0.4-1.1-1.6
			c3.8-13.4,7.5-26.8,11.1-40.2c1.4-5.2,4.1-8.7,9.6-9.9c2.1-0.5,4.1-1.5,6.2-2.2c-1.4-3.9-2.2-7.6-1.5-11.6c1.2-6.2,6.5-9.7,12.4-8
			c3.9,1.1,6.3,4.7,6.5,9.9c0.1,1.6-0.1,3.2-0.3,4.8c-0.2,1.5-0.6,3-1,4.8c2.5,0.9,4.9,2.1,7.5,2.7c4.5,1.2,7.2,3.8,8.3,8.3
			c2.3,8.9,4.7,17.8,7,26.7c1.3,4.8,2.4,9.7,3.6,14.5c0.3,1.1,0,1.6-1.1,1.9c-2.9,0.8-5.7,1.6-8.5,2.5c-1.3,0.4-1.7,0-2.1-1.2
			c-1.8-7-3.6-14-5.4-21.1c-0.1-0.3-0.1-0.5-0.2-0.8c-0.2,0-0.3,0-0.5,0c0.4,8.1,0.9,16.3,1.3,24.5c-0.8,0-1.4,0.1-2.1,0.1
			c-10.7,0-21.3,0-32,0c-1.6,0-2-0.5-1.9-2C-101.1-35.6-100.7-43.2-100.3-50.8C-100.1-50.8-100.2-50.8-100.3-50.8z M-76.9-83.8
			c1.5-3.6,2-7,1.7-10.6c-0.2-2.9-1-5.6-3.5-7.3c-5.1-3.5-11.7-0.7-13.2,5.6c-0.9,3.8-0.3,7.5,1.1,11c0.4,1.1,0.2,1.7-0.8,2.1
			c-1.7,0.7-3.3,1.3-5,1.9c-2.1,0.8-4.3,1.6-6,2.3c1,3.5,2.2,6.6,2.7,9.9c0.6,4.1,0.9,8.2,0.8,12.3c-0.2,9.3-0.8,18.6-1.2,27.8
			c0,0.6,0,1.2,0,1.9c11.3,0,22.5,0,33.8,0c0-0.7,0-1.3,0-1.8c-0.4-10.4-0.9-20.8-1-31.2c-0.1-6.4,0-12.9,3.8-18.7
			C-68.2-80.4-72.5-82.1-76.9-83.8z M-62.7-78.1c-0.5,0.6-0.8,0.9-0.9,1.2C-64.1-76-64.7-75-65-74c-1.8,6-2.4,12.3-1.2,18.4
			c1.7,9,4.3,17.9,6.6,26.8c0,0.2,0.3,0.4,0.4,0.5c3.2-1,6.3-1.9,9.4-2.9c-0.6-2.4-1.2-4.7-1.7-6.9c-2.8-11.1-5.7-22.2-8.6-33.3
			C-60.8-73.6-61.8-75.7-62.7-78.1z M-107.8-28.2c2-7,3.9-13.8,5.8-20.6c1.1-4.1,2.1-8.3,1.7-12.7c-0.3-4.4-0.3-8.9-2-13.2
			c-0.4-1-0.9-1.9-1.4-2.9c-0.2,0-0.4,0.1-0.6,0.1c-5.8,15-7.6,31.1-13.5,46.2C-114.4-30.2-111.2-29.2-107.8-28.2z"/>
		<path class="st1" d="M-76.9-83.8c4.4,1.7,8.7,3.4,13.1,5.1c-3.8,5.9-3.9,12.3-3.8,18.7c0.2,10.4,0.7,20.8,1,31.2
			c0,0.6,0,1.2,0,1.8c-11.3,0-22.5,0-33.8,0c0-0.6,0-1.3,0-1.9c0.4-9.3,0.9-18.5,1.2-27.8c0.1-4.1-0.2-8.2-0.8-12.3
			c-0.5-3.2-1.7-6.4-2.7-9.9c1.7-0.7,3.9-1.5,6-2.3c1.7-0.6,3.3-1.3,5-1.9c1-0.4,1.3-0.9,0.8-2.1c-1.4-3.5-2-7.2-1.1-11
			c1.5-6.2,8.2-9.1,13.2-5.6c2.5,1.8,3.3,4.4,3.5,7.3C-74.9-90.8-75.4-87.4-76.9-83.8z M-83.7-32.8c3.6,0,7.2,0,10.7,0
			c1.3,0,1.8-0.4,1.7-1.8c-0.1-2,0-3.9-0.1-5.9c0-0.6-0.3-1.3-0.7-1.7c-2.1-1.7-3.5-3.9-4.4-6.4c-0.2-0.6-1.2-1.2-1.8-1.2
			c-3.8-0.1-7.5,0-11.2-0.1c-1.1,0-1.5,0.5-1.8,1.5c-0.5,1.4-1,3.2-2.1,4c-2.5,2.1-3.1,4.6-2.8,7.6c0.1,0.7,0.1,1.4,0,2.1
			c-0.1,1.3,0.3,1.8,1.7,1.8C-90.8-32.8-87.2-32.8-83.7-32.8z M-77.4-93.2c-0.4-1.5-0.8-3.1-1.3-4.5c-0.8-2.1-2.6-3-4.8-3
			s-3.9,0.9-5,2.8c-2.8,4.9-1,11.5,3.8,14.3c0.5,0.3,1.5,0.3,2-0.1C-79.3-85.8-77.7-89.1-77.4-93.2z M-86.9-73.6
			c0.4-0.4,0.7-0.5,0.7-0.7c0.1-2.5,0.2-5.1,0.3-7.6c0-0.3-0.6-0.6-0.9-0.9c-0.3,0.4-0.8,0.8-0.8,1.2c0.1,2,0.3,4,0.5,5.9
			C-87.1-75.1-87-74.5-86.9-73.6z M-80.8-73.9c0.1,0,0.3,0,0.4,0c0.1-0.6,0.1-1.2,0.2-1.8c0.2-2,0.4-3.9,0.5-5.9
			c0-0.4-0.5-0.8-0.8-1.2c-0.3,0.3-0.8,0.6-0.8,0.9c0,2.4,0,4.7,0.1,7.1C-81.2-74.5-80.9-74.2-80.8-73.9z"/>
		<path class="st1" d="M-62.7-78.1c1,2.4,2,4.5,2.6,6.7c2.9,11.1,5.7,22.2,8.6,33.3c0.6,2.2,1.1,4.5,1.7,6.9c-3.2,1-6.3,1.9-9.4,2.9
			c-0.2-0.2-0.4-0.4-0.4-0.5c-2.2-8.9-4.8-17.8-6.6-26.8c-1.2-6.1-0.6-12.3,1.2-18.4c0.3-1,0.9-1.9,1.4-2.9
			C-63.5-77.2-63.2-77.5-62.7-78.1z"/>
		<path class="st1" d="M-107.8-28.2c-3.5-1-6.6-2-10-3c5.9-15.1,7.8-31.2,13.5-46.2c0.2,0,0.4-0.1,0.6-0.1c0.5,0.9,1,1.9,1.4,2.9
			c1.7,4.2,1.7,8.7,2,13.2c0.3,4.3-0.6,8.5-1.7,12.6C-103.9-42-105.8-35.2-107.8-28.2z"/>
		<path d="M-83.7-32.8c-3.6,0-7.2-0.1-10.7,0c-1.4,0-1.8-0.5-1.7-1.8c0.1-0.7,0.1-1.4,0-2.1c-0.3-3,0.2-5.5,2.8-7.6
			c1.1-0.9,1.6-2.6,2.1-4c0.3-1,0.7-1.5,1.8-1.5c3.8,0.1,7.5,0,11.2,0.1c0.6,0,1.6,0.6,1.8,1.2c1,2.5,2.3,4.7,4.4,6.4
			c0.4,0.3,0.7,1.1,0.7,1.7c0.1,2,0,3.9,0.1,5.9c0.1,1.3-0.3,1.8-1.7,1.8C-76.5-32.8-80.1-32.8-83.7-32.8z M-72.3-33.8
			c0-2.3,0-4.5,0-6.7c0-0.4-0.3-0.9-0.6-1.2c-1.9-1.6-3.3-3.6-4.1-5.9c-0.2-0.5-1-1-1.5-1.1c-3.5-0.1-7-0.1-10.5,0
			c-0.4,0-1.1,0.5-1.2,0.9c-0.6,2.5-2.1,4.2-3.8,5.9c-0.4,0.4-1,1-1,1.6c-0.1,2.1-0.1,4.2-0.1,6.5C-87.5-33.8-80-33.8-72.3-33.8z"/>
		<path d="M-77.4-93.2c-0.3,4.1-1.9,7.3-5.3,9.5c-0.5,0.3-1.5,0.3-2,0.1c-4.8-2.8-6.6-9.4-3.8-14.3c1.1-1.9,2.8-2.9,5-2.8
			c2.2,0,4,0.9,4.8,3C-78.2-96.2-77.8-94.7-77.4-93.2z M-78.4-93c-0.4-1.4-0.6-2.9-1.1-4.2c-0.6-1.7-2-2.4-3.8-2.5
			c-1.9-0.1-3.4,0.6-4.3,2.2c-2.4,4-1,10.1,2.8,12.7c0.8,0.6,1.4,0.6,2.2,0C-79.9-86.9-78.7-89.6-78.4-93z"/>
		<path d="M-86.9-73.6c-0.1-0.9-0.2-1.4-0.2-2c-0.2-2-0.4-4-0.5-5.9c0-0.4,0.5-0.8,0.8-1.2c0.3,0.3,0.9,0.6,0.9,0.9
			c0,2.5-0.2,5.1-0.3,7.6C-86.3-74.2-86.5-74.1-86.9-73.6z"/>
		<path d="M-80.8-73.9c-0.2-0.3-0.4-0.6-0.4-0.8c-0.1-2.4-0.1-4.7-0.1-7.1c0-0.3,0.5-0.6,0.8-0.9c0.3,0.4,0.8,0.8,0.8,1.2
			c-0.1,2-0.3,3.9-0.5,5.9c-0.1,0.6-0.1,1.2-0.2,1.8C-80.5-73.9-80.6-73.9-80.8-73.9z"/>
		<path class="st1" d="M-72.3-33.8c-7.8,0-15.2,0-22.9,0c0-2.2-0.1-4.4,0.1-6.5c0-0.5,0.6-1.2,1-1.6c1.7-1.7,3.3-3.4,3.8-5.9
			c0.1-0.4,0.8-0.9,1.2-0.9c3.5-0.1,7-0.1,10.5,0c0.5,0,1.3,0.6,1.5,1.1c0.9,2.3,2.2,4.3,4.1,5.9c0.3,0.3,0.6,0.8,0.6,1.2
			C-72.2-38.3-72.3-36.1-72.3-33.8z"/>
		<path class="st1" d="M-78.4-93c-0.2,3.4-1.5,6.2-4.2,8.2c-0.8,0.6-1.4,0.6-2.2,0c-3.8-2.7-5.2-8.7-2.8-12.7c1-1.6,2.4-2.3,4.3-2.2
			c1.8,0.1,3.1,0.8,3.8,2.5C-79-95.9-78.8-94.4-78.4-93z"/>
		<path class="st2" d="M-76.5-64.2h-6.7v-2.4c0-0.5-0.4-0.9-0.9-1.1v-3.9c4.2,0.2,7.6,3.3,7.6,7.1C-76.5-64.4-76.5-64.3-76.5-64.2z"
			/>
		<path class="st3" d="M-85.8-66.6v2.4h-6.7c0.2-3.6,3.5-6.5,7.5-6.7v3.2C-85.5-67.5-85.8-67.1-85.8-66.6z"/>
		<g>
			<path class="st7" d="M-92.5-61.4h6.7v2.4c0,0.5,0.4,0.9,0.9,1.1v3.9c-4.2-0.2-7.6-3.3-7.6-7.1C-92.5-61.2-92.5-61.3-92.5-61.4z"
				/>
			<path class="st8" d="M-92.5-61.4h6.7v2.4c0,0.5,0.4,0.9,0.9,1.1v3.9c-4.2-0.2-7.6-3.3-7.6-7.1C-92.5-61.2-92.5-61.3-92.5-61.4z"
				/>
		</g>
		<path class="st5" d="M-83.2-59v-2.4h6.7c-0.2,3.6-3.5,6.5-7.5,6.7v-3.2C-83.6-58.1-83.2-58.5-83.2-59z"/>
		<rect x="-99.2" y="-78" class="st9" width="28.9" height="38.4"/>
	</g>
</g>
<g>
	<g>
		<path class="st6" d="M-71.8,57.4c-2.5,0-5,0-7.9,0c-0.1,1-0.2,2-0.2,3c0,9.4,0.1,18.8,0.1,28.1c0,2.6,0.3,4.8,3.4,5.5
			c0.6,0.1,1,1.3,1.8,2.4c-5.7,0-10.7,0-16.8,0c1.2-1.2,1.9-1.9,2.6-2.7c1-1.2,2.8-2.3,2.8-3.5c0.2-10.8,0.1-21.7,0.1-32.8
			c-2.1,0-4.2,0-6.5,0c0,10.9,0,21.7,0,32.7c-6.8,0-13.3,0.4-19.8-0.1c-4.5-0.3-7.8-4.6-8.4-9.1c-0.1-0.9-0.2-1.9-0.3-3
			c-0.9-0.1-1.7-0.2-2.5-0.3c-5.7-0.5-9.7-4.7-9.9-10.4c-0.1-3.2,0-6.5,0-9.9c-2.3,0-4.3,0-6.4,0c-0.1,1-0.2,2-0.2,2.9
			c0,9.6,0,19.2,0,28.8c0,2.4,0.4,4.3,3.2,5c0.7,0.2,1.1,1.3,2.1,2.5c-5.9,0-10.9,0-15.9,0c-0.2-0.2-0.4-0.5-0.5-0.7
			c0.8-0.7,1.5-1.3,2.2-2c1-1.1,2.7-2.2,2.7-3.3c0.3-9.9,0.2-19.8,0.2-29.7c0-1-0.1-2.1-0.1-3.5c-2.6,0-5.1,0-7.9,0
			c0-6.8-0.2-13.2,0.1-19.6c0.1-3.5,2.9-5.4,6.9-5.4c9.4,0,18.8,0,28.1,0c12.5,0,25.1,0.1,37.6-0.1c4-0.1,7.2,0.8,9.3,4.4
			C-71.8,43.5-71.8,50.5-71.8,57.4z M-74.8,54.7c0-5.1,0-9.6,0-14.2c0-5.2-0.7-5.8-5.8-5.8c-21.5,0-43,0-64.5,0
			c-0.9,0-2.1-0.3-2.8,0.1c-1.2,0.8-2.9,2-2.9,3.1c-0.3,5.4-0.1,10.9-0.1,16.6c6,0,11.7,0,17.6,0c0.1-1,0.2-1.9,0.2-2.7
			c0.1-4.2,0.1-4.2-4-4.2c-2.8,0-5.6,0-8.4,0c0-2.2,0-4,0-5.8c22,0,43.7,0,65.6,0c0,2,0,3.7,0,5.8c-4.2,0-8.1,0-12.4,0
			c0,2-0.2,3.7,0.1,5.3c0.1,0.6,1.1,1.6,1.7,1.6C-85.5,54.8-80.4,54.7-74.8,54.7z"/>
	</g>
	<g>
		<path class="st1" d="M-71.8,57.4c-2.5,0-5,0-7.9,0c-0.1,1-0.2,2-0.2,3c0,9.4,0.1,18.8,0.1,28.1c0,2.6,0.3,4.8,3.4,5.5
			c0.6,0.1,1,1.3,1.8,2.4c-5.7,0-10.7,0-16.8,0c1.2-1.2,1.9-1.9,2.6-2.7c1-1.2,2.8-2.3,2.8-3.5c0.2-10.8,0.1-21.7,0.1-32.8
			c-2.1,0-4.2,0-6.5,0c0,10.9,0,21.7,0,32.7c-6.8,0-13.3,0.4-19.8-0.1c-4.5-0.3-7.8-4.6-8.4-9.1c-0.1-0.9-0.2-1.9-0.3-3
			c-0.9-0.1-1.7-0.2-2.5-0.3c-5.7-0.5-9.7-4.7-9.9-10.4c-0.1-3.2,0-6.5,0-9.9c-2.3,0-4.3,0-6.4,0c-0.1,1-0.2,2-0.2,2.9
			c0,9.6,0,19.2,0,28.8c0,2.4,0.4,4.3,3.2,5c0.7,0.2,1.1,1.3,2.1,2.5c-5.9,0-10.9,0-15.9,0c-0.2-0.2-0.4-0.5-0.5-0.7
			c0.8-0.7,1.5-1.3,2.2-2c1-1.1,2.7-2.2,2.7-3.3c0.3-9.9,0.2-19.8,0.2-29.7c0-1-0.1-2.1-0.1-3.5c-2.6,0-5.1,0-7.9,0
			c0-6.8-0.2-13.2,0.1-19.6c0.1-3.5,2.9-5.4,6.9-5.4c9.4,0,18.8,0,28.1,0c12.5,0,25.1,0.1,37.6-0.1c4-0.1,7.2,0.8,9.3,4.4
			C-71.8,43.5-71.8,50.5-71.8,57.4z M-74.8,54.7c0-5.1,0-9.6,0-14.2c0-5.2-0.7-5.8-5.8-5.8c-21.5,0-43,0-64.5,0
			c-0.9,0-2.1-0.3-2.8,0.1c-1.2,0.8-2.9,2-2.9,3.1c-0.3,5.4-0.1,10.9-0.1,16.6c6,0,11.7,0,17.6,0c0.1-1,0.2-1.9,0.2-2.7
			c0.1-4.2,0.1-4.2-4-4.2c-2.8,0-5.6,0-8.4,0c0-2.2,0-4,0-5.8c22,0,43.7,0,65.6,0c0,2,0,3.7,0,5.8c-4.2,0-8.1,0-12.4,0
			c0,2-0.2,3.7,0.1,5.3c0.1,0.6,1.1,1.6,1.7,1.6C-85.5,54.8-80.4,54.7-74.8,54.7z"/>
	</g>
	<g>
		<path class="st10" d="M-71.8,57.4c-2.5,0-5,0-7.9,0c-0.1,1-0.2,2-0.2,3c0,9.4,0.1,18.8,0.1,28.1c0,2.6,0.3,4.8,3.4,5.5
			c0.6,0.1,1,1.3,1.8,2.4c-5.7,0-10.7,0-16.8,0c1.2-1.2,1.9-1.9,2.6-2.7c1-1.2,2.8-2.3,2.8-3.5c0.2-10.8,0.1-21.7,0.1-32.8
			c-2.1,0-4.2,0-6.5,0c0,10.9,0,21.7,0,32.7c-6.8,0-13.3,0.4-19.8-0.1c-4.5-0.3-7.8-4.6-8.4-9.1c-0.1-0.9-0.2-1.9-0.3-3
			c-0.9-0.1-1.7-0.2-2.5-0.3c-5.7-0.5-9.7-4.7-9.9-10.4c-0.1-3.2,0-6.5,0-9.9c-2.3,0-4.3,0-6.4,0c-0.1,1-0.2,2-0.2,2.9
			c0,9.6,0,19.2,0,28.8c0,2.4,0.4,4.3,3.2,5c0.7,0.2,1.1,1.3,2.1,2.5c-5.9,0-10.9,0-15.9,0c-0.2-0.2-0.4-0.5-0.5-0.7
			c0.8-0.7,1.5-1.3,2.2-2c1-1.1,2.7-2.2,2.7-3.3c0.3-9.9,0.2-19.8,0.2-29.7c0-1-0.1-2.1-0.1-3.5c-2.6,0-5.1,0-7.9,0
			c0-6.8-0.2-13.2,0.1-19.6c0.1-3.5,2.9-5.4,6.9-5.4c9.4,0,18.8,0,28.1,0c12.5,0,25.1,0.1,37.6-0.1c4-0.1,7.2,0.8,9.3,4.4
			C-71.8,43.5-71.8,50.5-71.8,57.4z M-74.8,54.7c0-5.1,0-9.6,0-14.2c0-5.2-0.7-5.8-5.8-5.8c-21.5,0-43,0-64.5,0
			c-0.9,0-2.1-0.3-2.8,0.1c-1.2,0.8-2.9,2-2.9,3.1c-0.3,5.4-0.1,10.9-0.1,16.6c6,0,11.7,0,17.6,0c0.1-1,0.2-1.9,0.2-2.7
			c0.1-4.2,0.1-4.2-4-4.2c-2.8,0-5.6,0-8.4,0c0-2.2,0-4,0-5.8c22,0,43.7,0,65.6,0c0,2,0,3.7,0,5.8c-4.2,0-8.1,0-12.4,0
			c0,2-0.2,3.7,0.1,5.3c0.1,0.6,1.1,1.6,1.7,1.6C-85.5,54.8-80.4,54.7-74.8,54.7z"/>
	</g>
</g>
<g>
	<g>
		<path class="st6" d="M104.9-85.5c-6.3-1.4-12.7-2.6-19-4c-2.1-0.4-3.3,0-4.5,1.9c-5.6,8.6-17.9,8.7-23.5,0.2
			c-1.3-2-2.6-2.6-4.7-2.1c-0.8,0.2-1.6,0.2-2.3,0.3C43.7-87.6,36.4-86,29-84.4c1.6,6.1,3,11.5,4.4,17.1c4.3-0.9,8.4-1.8,12.8-2.8
			c0,14,0,27.6,0,41.2c15.8,0,31.2,0,47,0c0-13.8,0-27.4,0-41.2c4.5,1,8.5,1.8,12.7,2.8c1.5-5.7,2.9-11,4.3-16.6
			C108.2-84.4,106.6-85.1,104.9-85.5z"/>
		<path class="st6" d="M76.7-64.2h-5.5v-2c0-0.4-0.3-0.8-0.7-0.9v-3.2c3.5,0.2,6.2,2.7,6.2,5.8C76.7-64.3,76.7-64.2,76.7-64.2z"/>
		<path class="st6" d="M69-66.2v2h-5.5c0.2-3,2.9-5.3,6.2-5.5v2.6C69.3-66.9,69-66.6,69-66.2z"/>
		<g>
			<path class="st6" d="M63.5-61.8H69v2c0,0.4,0.3,0.8,0.7,0.9v3.2c-3.5-0.2-6.2-2.7-6.2-5.8C63.5-61.6,63.5-61.8,63.5-61.8z"/>
			<path class="st6" d="M63.5-61.8H69v2c0,0.4,0.3,0.8,0.7,0.9v3.2c-3.5-0.2-6.2-2.7-6.2-5.8C63.5-61.6,63.5-61.8,63.5-61.8z"/>
		</g>
		<path class="st6" d="M71.2-59.8v-2h5.5c-0.2,3-2.9,5.3-6.2,5.5V-59C70.9-59.1,71.2-59.4,71.2-59.8z"/>
	</g>
	<g>
		<path class="st11" d="M104.9-85.5c-6.3-1.4-12.7-2.6-19-4c-2.1-0.4-3.3,0-4.5,1.9c-5.6,8.6-17.9,8.7-23.5,0.2
			c-1.3-2-2.6-2.6-4.7-2.1c-0.8,0.2-1.6,0.2-2.3,0.3C43.7-87.6,36.4-86,29-84.4c1.6,6.1,3,11.5,4.4,17.1c4.3-0.9,8.4-1.8,12.8-2.8
			c0,14,0,27.6,0,41.2c15.8,0,31.2,0,47,0c0-13.8,0-27.4,0-41.2c4.5,1,8.5,1.8,12.7,2.8c1.5-5.7,2.9-11,4.3-16.6
			C108.2-84.4,106.6-85.1,104.9-85.5z"/>
		<path class="st2" d="M76.7-64.2h-5.5v-2c0-0.4-0.3-0.8-0.7-0.9v-3.2c3.5,0.2,6.2,2.7,6.2,5.8C76.7-64.3,76.7-64.2,76.7-64.2z"/>
		<path class="st3" d="M69-66.2v2h-5.5c0.2-3,2.9-5.3,6.2-5.5v2.6C69.3-66.9,69-66.6,69-66.2z"/>
		<g>
			<path class="st7" d="M63.5-61.8H69v2c0,0.4,0.3,0.8,0.7,0.9v3.2c-3.5-0.2-6.2-2.7-6.2-5.8C63.5-61.6,63.5-61.8,63.5-61.8z"/>
			<path class="st8" d="M63.5-61.8H69v2c0,0.4,0.3,0.8,0.7,0.9v3.2c-3.5-0.2-6.2-2.7-6.2-5.8C63.5-61.6,63.5-61.8,63.5-61.8z"/>
		</g>
		<path class="st5" d="M71.2-59.8v-2h5.5c-0.2,3-2.9,5.3-6.2,5.5V-59C70.9-59.1,71.2-59.4,71.2-59.8z"/>
	</g>
</g>
<g>
	<g>
		<rect x="43.6" y="-187.5" class="st6" width="48.6" height="65"/>
		<path class="st6" d="M74-160.6h-5.5v-2c0-0.4-0.3-0.8-0.7-0.9v-3.2C71.4-166.6,74.2-163.9,74-160.6L74-160.6z"/>
		<path class="st6" d="M66.4-162.6v2h-5.5c0.2-3,2.9-5.4,6.2-5.5v2.6C66.7-163.4,66.4-163.1,66.4-162.6z"/>
		<g>
			<path class="st6" d="M60.8-158.3h5.5v2c0,0.4,0.3,0.8,0.7,0.9v3.2C63.5-152.4,60.6-155.1,60.8-158.3L60.8-158.3z"/>
			<path class="st6" d="M60.8-158.3h5.5v2c0,0.4,0.3,0.8,0.7,0.9v3.2C63.5-152.4,60.6-155.1,60.8-158.3L60.8-158.3z"/>
		</g>
		<path class="st6" d="M68.5-156.3v-2H74c-0.2,3-2.9,5.4-6.2,5.5v-2.6C68.2-155.6,68.5-155.9,68.5-156.3z"/>
	</g>
	<g>
		<rect x="43.6" y="-187.5" class="st12" width="48.6" height="65"/>
		<path class="st2" d="M74-160.6h-5.5v-2c0-0.4-0.3-0.8-0.7-0.9v-3.2C71.4-166.6,74.2-163.9,74-160.6L74-160.6z"/>
		<path class="st3" d="M66.4-162.6v2h-5.5c0.2-3,2.9-5.4,6.2-5.5v2.6C66.7-163.4,66.4-163.1,66.4-162.6z"/>
		<g>
			<path class="st7" d="M60.8-158.3h5.5v2c0,0.4,0.3,0.8,0.7,0.9v3.2C63.5-152.4,60.6-155.1,60.8-158.3L60.8-158.3z"/>
			<path class="st8" d="M60.8-158.3h5.5v2c0,0.4,0.3,0.8,0.7,0.9v3.2C63.5-152.4,60.6-155.1,60.8-158.3L60.8-158.3z"/>
		</g>
		<path class="st5" d="M68.5-156.3v-2H74c-0.2,3-2.9,5.4-6.2,5.5v-2.6C68.2-155.6,68.5-155.9,68.5-156.3z"/>
	</g>
</g>
<text transform="matrix(1 0 0 1 188.0248 125.14)" style="fill:#231F20; font-family:'ArialMT'; font-size:20.5602px;">Custom</text>
<text transform="matrix(1 0 0 1 205.7948 149.8099)" style="fill:#231F20; font-family:'ArialMT'; font-size:20.5602px;">AN </text>
<text transform="matrix(1 0 0 1 177.2148 174.4799)" style="fill:#231F20; font-family:'ArialMT'; font-size:20.5602px;">ACCOUNT</text>
<rect x="599.7" y="489.6" class="st13" width="60.4" height="3"/>
<rect x="672.7" y="489.6" class="st14" width="60.4" height="3"/>
<rect x="746.9" y="489.6" class="st15" width="60.4" height="3"/>
<rect x="819.8" y="489.6" class="st16" width="60.4" height="3"/>
<g>
	<text transform="matrix(1 0 0 1 578.6865 21.0196)" style="fill:#241F20; font-family:'Arial-BoldMT'; font-size:25.9394px;">Catalogs</text>
	<text transform="matrix(1 0 0 1 578.6865 21.0196)" style="fill:#231F20; font-family:'Arial-BoldMT'; font-size:25.9394px;">Catalogs</text>
</g>
<g>
	
		<image style="overflow:visible;opacity:7.000000e-02;enable-background:new    ;" width="327" height="401" xlink:href="18849B6E5BEBE2.png"  transform="matrix(0.9969 0 0 0.9969 561.2107 23.6784)">
	</image>
	<g>
		<path class="st1" d="M859.9,411.2H588.2c-8.2,0-14.8-6.6-14.8-14.8V50.1c0-8.2,6.6-14.8,14.8-14.8h271.7c8.2,0,14.8,6.6,14.8,14.8
			v346.3C874.7,404.6,868,411.2,859.9,411.2z"/>
		<path class="st17" d="M859.9,411.2H588.2c-8.2,0-14.8-6.6-14.8-14.8V50.1c0-8.2,6.6-14.8,14.8-14.8h271.7
			c8.2,0,14.8,6.6,14.8,14.8v346.3C874.7,404.6,868,411.2,859.9,411.2z"/>
	</g>
</g>
<path class="st18" d="M650.6,146.5h-52.3c-7.7,0-13.9-6.2-13.9-13.9v-66c0-7.7,6.2-13.9,13.9-13.9h52.3c7.7,0,13.9,6.2,13.9,13.9v66
	C664.5,140.2,658.3,146.5,650.6,146.5z"/>
<path class="st18" d="M749.6,146.5h-51.4c-7.9,0-14.4-6.4-14.4-14.4v-65c0-7.9,6.4-14.4,14.4-14.4h51.4c7.9,0,14.4,6.4,14.4,14.4v65
	C764,140,757.5,146.5,749.6,146.5z"/>
<path class="st18" d="M850.2,146.5h-53.7c-7.3,0-13.2-5.9-13.2-13.2V65.9c0-7.3,5.9-13.2,13.2-13.2h53.7c7.3,0,13.2,5.9,13.2,13.2
	v67.3C863.5,140.5,857.5,146.5,850.2,146.5z"/>
<path class="st18" d="M750.3,262.2h-52.8c-7.5,0-13.7-6.1-13.7-13.6v-66.4c0-7.5,6.1-13.6,13.7-13.6h52.8c7.5,0,13.7,6.1,13.7,13.6
	v66.4C764,256.1,757.9,262.2,750.3,262.2z"/>
<path class="st18" d="M848.9,262.2h-51.1c-8,0-14.5-6.5-14.5-14.5V183c0-8,6.5-14.5,14.5-14.5h51.1c8,0,14.5,6.5,14.5,14.5v64.7
	C863.5,255.7,857,262.2,848.9,262.2z"/>
<path class="st18" d="M650.1,377.9h-51.2c-8,0-14.4-6.5-14.4-14.4v-64.9c0-8,6.5-14.4,14.4-14.4h51.2c8,0,14.4,6.5,14.4,14.4v64.9
	C664.5,371.4,658,377.9,650.1,377.9z"/>
<path class="st18" d="M660.3,159.1h-71.4c-2.5,0-4.5-2-4.5-4.5v-3.1c0-2.5,2-4.5,4.5-4.5h71.4c2.5,0,4.5,2,4.5,4.5v3.1
	C664.8,157.1,662.8,159.1,660.3,159.1z"/>
<path class="st18" d="M759.1,159.1h-69.6c-3,0-5.4-2.4-5.4-5.4v-1.3c0-3,2.4-5.4,5.4-5.4h69.6c3,0,5.4,2.4,5.4,5.4v1.3
	C764.5,156.7,762.1,159.1,759.1,159.1z"/>
<path class="st18" d="M759,274.8h-69.4c-3.1,0-5.5-2.5-5.5-5.5v-1.1c0-3.1,2.5-5.5,5.5-5.5H759c3.1,0,5.5,2.5,5.5,5.5v1.1
	C764.5,272.3,762.1,274.8,759,274.8z"/>
<path class="st18" d="M857.3,274.8H789c-3.4,0-6.1-2.7-6.1-6.1l0,0c0-3.4,2.7-6.1,6.1-6.1h68.3c3.4,0,6.1,2.7,6.1,6.1l0,0
	C863.4,272,860.7,274.8,857.3,274.8z"/>
<path class="st18" d="M650.2,146.5h-51.5c-7.9,0-14.3-6.4-14.3-14.3V67c0-7.9,6.4-14.3,14.3-14.3h51.5c7.9,0,14.3,6.4,14.3,14.3
	v65.2C664.5,140.1,658.1,146.5,650.2,146.5z"/>
<path class="st18" d="M749.6,146.5h-51.3c-8,0-14.4-6.5-14.4-14.4V67.2c0-8,6.5-14.4,14.4-14.4h51.3c8,0,14.4,6.5,14.4,14.4V132
	C764,140,757.5,146.5,749.6,146.5z"/>
<path class="st18" d="M851.1,146.5h-55.4c-6.8,0-12.3-5.5-12.3-12.4v-69c0-6.8,5.5-12.3,12.3-12.3h55.4c6.8,0,12.3,5.5,12.3,12.3v69
	C863.5,140.9,857.9,146.5,851.1,146.5z"/>
<path class="st18" d="M650,262.2h-51.2c-8,0-14.5-6.5-14.5-14.5V183c0-8,6.5-14.5,14.5-14.5H650c8,0,14.5,6.5,14.5,14.5v64.8
	C664.5,255.7,658,262.2,650,262.2z"/>
<path class="st18" d="M750.6,262.2h-53.3c-7.4,0-13.4-6-13.4-13.4v-66.9c0-7.4,6-13.4,13.4-13.4h53.3c7.4,0,13.4,6,13.4,13.4v66.9
	C764,256.2,758,262.2,750.6,262.2z"/>
<path class="st18" d="M749.3,377.9h-50.8c-8.1,0-14.7-6.6-14.7-14.7v-64.4c0-8.1,6.6-14.7,14.7-14.7h50.8c8.1,0,14.7,6.6,14.7,14.7
	v64.4C764,371.3,757.4,377.9,749.3,377.9z"/>
<path class="st18" d="M848.9,377.9h-51c-8,0-14.6-6.5-14.6-14.6v-64.6c0-8,6.5-14.6,14.6-14.6h51c8,0,14.6,6.5,14.6,14.6v64.6
	C863.5,371.3,856.9,377.9,848.9,377.9z"/>
<path class="st18" d="M660.1,159.1h-71c-2.6,0-4.7-2.1-4.7-4.7v-2.8c0-2.6,2.1-4.7,4.7-4.7h71c2.6,0,4.7,2.1,4.7,4.7v2.8
	C664.8,157,662.7,159.1,660.1,159.1z"/>
<path class="st18" d="M759.2,159.1h-69.8c-3,0-5.3-2.4-5.3-5.3v-1.5c0-2.9,2.4-5.3,5.3-5.3h69.8c3,0,5.3,2.4,5.3,5.3v1.5
	C764.5,156.7,762.2,159.1,759.2,159.1z"/>
<path class="st18" d="M658.8,274.8h-68.3c-3.4,0-6.1-2.7-6.1-6.1l0,0c0-3.4,2.7-6.1,6.1-6.1h68.3c3.4,0,6.1,2.7,6.1,6.1l0,0
	C664.8,272,662.1,274.8,658.8,274.8z"/>
<path class="st18" d="M758.5,390.4h-68.3c-3.4,0-6.1-2.7-6.1-6.1l0,0c0-3.4,2.7-6.1,6.1-6.1h68.3c3.4,0,6.1,2.7,6.1,6.1l0,0
	C764.5,387.7,761.8,390.4,758.5,390.4z"/>
<path class="st18" d="M857.8,390.4h-69.2c-3.1,0-5.6-2.5-5.6-5.6v-1c0-3.1,2.5-5.6,5.6-5.6h69.2c3.1,0,5.6,2.5,5.6,5.6v1
	C863.4,387.9,860.9,390.4,857.8,390.4z"/>
<path class="st18" d="M858.7,159.1H789c-3,0-5.3-2.4-5.3-5.3v-1.5c0-2.9,2.4-5.3,5.3-5.3h69.8c3,0,5.3,2.4,5.3,5.3v1.5
	C864.1,156.7,861.7,159.1,858.7,159.1z"/>
<path class="st18" d="M658.8,391.5h-68.3c-3.4,0-6.1-2.7-6.1-6.1l0,0c0-3.4,2.7-6.1,6.1-6.1h68.3c3.4,0,6.1,2.7,6.1,6.1l0,0
	C664.8,388.8,662.1,391.5,658.8,391.5z"/>
<g>
	<path d="M839.6,94.4c0,9.1,0,18.1,0,27.1c0,1.8,0,1.8-1.8,1.8c-9.7,0-19.3,0-28.9,0c-1.3,0-1.6-0.4-1.5-1.6c0-9.1,0-18.2,0-27.4
		c-1.9-0.2-3.8-0.5-5.8-0.6c-1.2-0.1-1.8-0.4-2.1-1.7c-0.8-3.2-1.7-6.3-2.6-9.4c-0.3-0.9-0.2-1.3,0.8-1.7c5.5-2.2,11-4.6,16.8-5.8
		c0.3-0.1,0.6-0.4,0.8-0.7c0.1-0.1,0.2-0.3,0.2-0.4c0.5-1.7,1.6-2.3,3.4-2.2c3.3,0.2,6.7,0.1,10,0c0.9,0,1.6,0.2,1.9,1.2
		c0.5,1.8,1.7,2.3,3.4,2.7c5.4,1,10.3,3.6,15.3,5.5c0.3,0.1,0.6,0.7,0.5,1c-0.9,3.6-1.8,7.2-2.8,10.7c-0.1,0.4-0.8,0.7-1.3,0.8
		C843.9,94.1,841.8,94.2,839.6,94.4z M808.1,122.5c10.3,0,20.5,0,30.7,0c0-0.3,0.1-0.6,0.1-0.8c0-8.7,0-17.3,0-26
		c0-0.4-0.1-0.9-0.3-1.3c-1.2-3.4-2-6.9-1.2-10.5c0.4-2,1.2-3.9,1.8-6.1c-2.4-0.6-5-1.3-7.5-1.8c-0.4-0.1-1.2,0.1-1.4,0.4
		c-1,1.3-1.8,2.8-2.7,4.2c-0.2,0.3-0.4,0.7-0.7,1.2c-0.7-0.8-1.2-1.5-2-2.4c0,2.9,0,5.5,0,8c0,1.2-0.5,1.2-1.4,1.2s-1.4-0.1-1.3-1.2
		c0.1-2.3,0-4.6,0-7c0-0.3-0.1-0.6-0.1-1c-0.7,0.8-1.3,1.5-2.1,2.3c-0.3-0.6-0.4-1.1-0.6-1.4c-0.9-1.4-1.8-2.8-2.7-4.2
		c-0.2-0.2-0.6-0.5-0.9-0.4c-2.7,0.7-5.4,1.3-8.2,2.1c2.9,5.3,2.7,10.6,1.1,15.9c-0.3,1-0.5,2.1-0.5,3.1c0,8,0,16,0,24.1
		C808.1,121.5,808.1,122,808.1,122.5z M849.3,82c-2.7-1.1-5.4-2.1-8-3.3c-0.9-0.4-1.3-0.2-1.8,0.7c-2.2,4.5-2.1,9-0.6,13.6
		c0.1,0.2,0.6,0.6,0.9,0.5c2-0.1,4-0.3,5.9-0.6c0.3,0,0.7-0.4,0.8-0.7C847.5,88.9,848.4,85.5,849.3,82z M797.5,82
		c1,3.5,1.8,6.8,2.8,10.1c0.1,0.4,0.6,0.8,1,0.9c1.8,0.3,3.7,0.4,5.6,0.6c0.8,0.1,1.1-0.2,1.3-0.9c0.7-3,1-5.9,0.6-8.9
		c-0.3-1.9-0.9-3.8-2-5.5C803.6,79.6,800.6,80.8,797.5,82z M822.8,77.3c-2-1.4-3.8-2.8-5.8-4.1c-0.3,0.6-0.6,1.1-0.7,1.3
		c1.4,2,2.7,3.8,4.1,5.8C821.1,79.4,821.9,78.4,822.8,77.3z M824.2,77.3c0.8,1.1,1.6,2.1,2.3,3c1.4-1.9,2.7-3.8,4.1-5.8
		c-0.2-0.3-0.4-0.8-0.7-1.4C828,74.6,826.2,75.8,824.2,77.3z M828.8,72.9c-3.6,0-7.1,0-10.7,0c1.1,1,2.1,1.6,3.5,1.5
		c1.2-0.1,2.5-0.1,3.8,0C826.7,74.5,827.8,74,828.8,72.9z M825.6,75.2c-1.4,0-2.8,0-4.2,0C823.8,77.1,823.1,77.2,825.6,75.2z
		 M824,85.8c0-0.9,0-1.8,0-2.7c-0.4,0-0.7,0-1-0.1c0,1,0,1.9,0,2.8C823.3,85.8,823.6,85.8,824,85.8z M824,82.3
		c0.2-2.6,0.2-2.7-1-2.5c0,0.8,0,1.7,0,2.6C823.3,82.4,823.6,82.4,824,82.3z M822.7,86.7c0.2,0.4,0.3,0.8,0.6,1.2
		c0,0,0.6-0.1,0.7-0.3c0.1-0.2,0-0.6,0-0.9C823.6,86.7,823.3,86.7,822.7,86.7z"/>
	<path class="st1" d="M808.1,122.5c0-0.6,0-1,0-1.5c0-8,0-16,0-24.1c0-1,0.2-2.1,0.5-3.1c1.5-5.4,1.7-10.7-1.1-15.9
		c2.8-0.7,5.5-1.4,8.2-2.1c0.3-0.1,0.7,0.2,0.9,0.4c0.9,1.4,1.8,2.8,2.7,4.2c0.2,0.4,0.4,0.8,0.6,1.4c0.7-0.8,1.3-1.5,2.1-2.3
		c0,0.4,0.1,0.7,0.1,1c0,2.3,0,4.6,0,7c0,1.1,0.5,1.2,1.3,1.2c0.9,0,1.5-0.1,1.4-1.2c-0.1-2.6,0-5.1,0-8c0.8,0.9,1.3,1.6,2,2.4
		c0.3-0.5,0.5-0.9,0.7-1.2c0.9-1.4,1.8-2.8,2.7-4.2c0.2-0.3,1-0.6,1.4-0.4c2.6,0.6,5.1,1.2,7.5,1.8c-0.7,2.1-1.4,4.1-1.8,6.1
		c-0.8,3.6,0,7.1,1.2,10.5c0.1,0.4,0.3,0.9,0.3,1.3c0,8.7,0,17.3,0,26c0,0.2,0,0.5-0.1,0.8C828.6,122.5,818.4,122.5,808.1,122.5z"/>
	<path class="st1" d="M849.3,82c-0.9,3.5-1.8,6.9-2.8,10.3c-0.1,0.3-0.5,0.7-0.8,0.7c-2,0.2-4,0.4-5.9,0.6c-0.3,0-0.8-0.3-0.9-0.5
		c-1.5-4.6-1.6-9.2,0.6-13.6c0.4-0.9,0.8-1.1,1.8-0.7C844,79.9,846.6,80.9,849.3,82z"/>
	<path class="st1" d="M797.5,82c3.1-1.2,6.1-2.4,9.2-3.7c1.1,1.7,1.7,3.6,2,5.5c0.5,3,0.1,6-0.6,8.9c-0.2,0.7-0.5,1-1.3,0.9
		c-1.8-0.2-3.7-0.3-5.6-0.6c-0.4-0.1-0.9-0.5-1-0.9C799.3,88.8,798.5,85.5,797.5,82z"/>
	<path class="st1" d="M822.8,77.3c-0.9,1.1-1.7,2.1-2.4,3c-1.4-1.9-2.7-3.8-4.1-5.8c0.1-0.3,0.4-0.7,0.7-1.3
		C818.9,74.5,820.8,75.8,822.8,77.3z"/>
	<path class="st1" d="M824.2,77.3c2-1.4,3.8-2.7,5.7-4.1c0.3,0.5,0.5,1,0.7,1.4c-1.4,1.9-2.7,3.8-4.1,5.8
		C825.8,79.4,825,78.3,824.2,77.3z"/>
	<path class="st1" d="M828.8,72.9c-1,1.1-2.1,1.6-3.4,1.5c-1.2-0.1-2.5-0.1-3.8,0c-1.4,0.1-2.4-0.5-3.5-1.5
		C821.7,72.9,825.2,72.9,828.8,72.9z"/>
	<path class="st1" d="M825.6,75.2c-2.4,2.1-1.8,1.9-4.2,0C822.8,75.2,824.1,75.2,825.6,75.2z"/>
	<path class="st1" d="M824,85.8c-0.3,0-0.6,0.1-1,0.1c0-0.9,0-1.8,0-2.8c0.3,0,0.6,0,1,0.1C824,84,824,84.8,824,85.8z"/>
	<path class="st1" d="M824,82.3c-0.4,0-0.7,0-1,0.1c0-0.9,0-1.7,0-2.6C824.2,79.7,824.2,79.7,824,82.3z"/>
	<path class="st1" d="M822.7,86.7c0.5,0,0.8,0,1.2,0c0,0.3,0.1,0.7,0,0.9c-0.1,0.2-0.6,0.3-0.7,0.3
		C823.1,87.5,822.9,87.1,822.7,86.7z"/>
	<path class="st19" d="M828.6,94.8h-4.4v-1.6c0-0.3-0.2-0.6-0.6-0.7v-2.6c2.8,0.1,5,2.2,5,4.7C828.6,94.6,828.6,94.7,828.6,94.8z"/>
	<path class="st20" d="M822.4,93.2v1.6H818c0.2-2.4,2.3-4.3,5-4.4v2.1C822.7,92.6,822.4,92.9,822.4,93.2z"/>
	<path class="st21" d="M818,96.7h4.4v1.6c0,0.3,0.2,0.6,0.6,0.7v2.6c-2.8-0.1-5-2.2-5-4.7C818,96.8,818,96.7,818,96.7z"/>
	<path class="st22" d="M824.1,98.3v-1.6h4.4c-0.2,2.4-2.3,4.3-5,4.4V99C823.9,98.8,824.1,98.6,824.1,98.3z"/>
</g>
<g>
	<path class="st1" d="M808.5,198c0.2-0.9,0.3-1.8,0.5-2.7c4.8,0,9.6,0,14.5,0c0,0.9-0.1,1.8-0.2,2.7C818.4,198,813.5,198,808.5,198z
		"/>
	<g>
		<path d="M816.3,194.4c2.2,0,4.5,0,6.8,0c0.9,0,1.3,0.3,1.2,1.2c-0.6,4.8-1.2,9.6-1.9,14.4c-0.6,3.8-1.3,7.6-2,11.4
			c-0.6,3.2,0.4,5.9,2.7,8.2c3.8,3.8,8.4,6.1,13.3,7.9c0.9,0.3,1.8,0.8,2.5,1.5c1.2,1.2,0.8,2.8-0.9,3.4c-0.4,0.1-0.9,0.3-1.3,0.3
			c-3.5,0.1-7,0.3-10.5,0.1c-1.5-0.1-3.1-0.6-4.4-1.3c-2.8-1.6-5.8-2.6-9-3.2c-1.1-0.2-2.2-0.6-3.2-1.1c-2.1-1.1-2.7-2.8-2-5.1
			c2-6,2.2-12.1,1-18.2C807.5,208,807,202,808,196c0.3-1.6,0.3-1.6,2-1.6C812.1,194.4,814.2,194.4,816.3,194.4z M822.3,205.4
			c-4.8,0-9.4,0-14.1,0c0.3,2.3,0.4,4.6,0.8,6.8c1.4,7,1.5,13.9-1,20.7c-0.5,1.3,0,2.8,1.3,3.4c1.2,0.6,2.5,1.1,3.8,1.4
			c3.1,0.6,6,1.7,8.8,3.1c1.4,0.7,3,1.2,4.6,1.3c3,0.2,6.1,0,9.2-0.1c0.7,0,1.3-0.1,2-0.3c1.1-0.4,1.4-1.3,0.6-2.1
			c-0.5-0.5-1.2-0.9-1.9-1.2c-1.9-0.8-3.8-1.5-5.7-2.4c-3.5-1.8-6.8-3.9-9.3-7c-1.5-1.9-2.3-3.9-2-6.4c0.4-2.8,0.8-5.7,1.3-8.5
			C821.3,211.2,821.8,208.3,822.3,205.4z M808.5,198c5,0,9.9,0,14.8,0c0.1-1,0.1-1.8,0.2-2.7c-4.9,0-9.7,0-14.5,0
			C808.8,196.1,808.6,197,808.5,198z M808.2,201.2c5,0,9.8,0,14.7,0c0.1-0.8,0.2-1.6,0.3-2.4c-5,0-9.8,0-14.8,0
			C808.3,199.6,808.3,200.4,808.2,201.2z M808.3,202.1c0,0.9,0,1.6,0,2.5c4.7,0,9.4,0,14.1,0c0.1-0.8,0.2-1.6,0.3-2.5
			C817.9,202.1,813.1,202.1,808.3,202.1z"/>
		<path class="st1" d="M822.3,205.4c-0.5,2.9-1.1,5.8-1.5,8.6c-0.5,2.8-0.9,5.7-1.3,8.5c-0.3,2.4,0.5,4.5,2,6.4
			c2.5,3.1,5.8,5.3,9.3,7c1.8,0.9,3.8,1.6,5.7,2.4c0.7,0.3,1.4,0.7,1.9,1.2c0.8,0.8,0.5,1.8-0.6,2.1c-0.6,0.2-1.3,0.3-2,0.3
			c-3.1,0.1-6.1,0.2-9.2,0.1c-1.6-0.1-3.2-0.6-4.6-1.3c-2.8-1.5-5.7-2.5-8.8-3.1c-1.3-0.3-2.6-0.8-3.8-1.4c-1.3-0.6-1.8-2.1-1.3-3.4
			c2.4-6.8,2.4-13.7,1-20.7c-0.5-2.2-0.6-4.4-0.8-6.8C813,205.4,817.6,205.4,822.3,205.4z"/>
		<path class="st1" d="M808.2,201.2c0.1-0.8,0.1-1.6,0.2-2.4c4.9,0,9.8,0,14.8,0c-0.1,0.8-0.2,1.5-0.3,2.4
			C818,201.2,813.2,201.2,808.2,201.2z"/>
		<path class="st1" d="M808.3,202.1c4.8,0,9.6,0,14.4,0c-0.1,0.9-0.2,1.7-0.3,2.5c-4.7,0-9.4,0-14.1,0
			C808.3,203.7,808.3,202.9,808.3,202.1z"/>
		<path class="st19" d="M820.5,215.4h-4.2v-1.5c0-0.3-0.2-0.6-0.5-0.7v-2.5c2.6,0.1,4.7,2.1,4.7,4.4
			C820.5,215.2,820.5,215.3,820.5,215.4z"/>
		<path class="st20" d="M814.7,213.9v1.5h-4.2c0.1-2.2,2.2-4,4.7-4.2v2C814.9,213.3,814.7,213.6,814.7,213.9z"/>
		<path class="st21" d="M810.5,217.1h4.2v1.5c0,0.3,0.2,0.6,0.5,0.7v2.5c-2.6-0.1-4.7-2.1-4.7-4.4
			C810.5,217.3,810.5,217.2,810.5,217.1z"/>
		<path class="st22" d="M816.3,218.7v-1.5h4.2c-0.1,2.2-2.2,4-4.7,4.2v-2C816.1,219.2,816.3,219,816.3,218.7z"/>
	</g>
</g>
<g>
	<path d="M839.6,333c0,2.8,0,5.6,0,8.3c0,0.9-0.3,1.3-1,1.7c-3.6,1.8-7.4,2.8-11.4,3.2c-5.9,0.5-11.7,0-17.2-2.4
		c-0.3-0.1-0.5-0.2-0.8-0.3c-1.5-0.5-2.2-1.4-2.1-3.1c0.2-5.3,0.1-10.5,0-15.8c0-0.9,0.3-1.3,1-1.7c10.2-5.4,20.3-5.4,30.5,0
		c0.7,0.4,1,0.8,1,1.6C839.6,327.3,839.6,330.1,839.6,333z M838.9,332.9c0-2.7,0-5.3,0-8c0-0.9-0.3-1.3-1-1.7c-9.7-5-19.3-5-29,0
		c-0.7,0.4-1,0.8-1,1.6c0,5.1,0.1,10.2,0,15.3c0,1.5,0.5,2.1,1.8,2.7c5.8,2.5,11.8,3.1,18,2.5c3.6-0.4,7-1.3,10.3-2.9
		c0.7-0.3,0.9-0.7,0.9-1.5C838.9,338.3,838.9,335.6,838.9,332.9z"/>
	<path d="M841.1,341.3c0.3-0.1,0.6-0.4,0.9-0.5c0.8-0.2,1.7-0.4,2.5-0.6c4.2-1.2,6.2-3.7,5.6-8.8c-0.4-3.6-2.2-5.3-5.9-6.2
		c-0.8-0.2-1.6-0.3-2.4-0.5c-0.2-0.1-0.5-0.3-0.9-0.5c5.1-0.7,9.7,2.9,10,7.8c0.3,5.6-1.8,8.8-9.6,9.7
		C841.2,341.5,841.1,341.4,841.1,341.3z"/>
	<path d="M805.6,341.5c-5.6,0.4-9.4-2.9-9.6-7.8c-0.2-5.5,2.1-8.5,9.8-9.5c-0.4,0.4-0.6,0.7-0.8,0.7c-0.9,0.3-1.8,0.4-2.6,0.7
		c-4.4,1.3-6.2,4.1-5.6,8.7c0.4,3.2,2.1,5.2,5.2,6.1c0.9,0.3,1.9,0.5,2.8,0.7C805,341.2,805.3,341.4,805.6,341.5z"/>
	<path class="st1" d="M838.9,332.9c0,2.7,0,5.4,0,8.1c0,0.8-0.3,1.2-0.9,1.5c-3.3,1.6-6.7,2.5-10.3,2.9c-6.2,0.6-12.2,0-18-2.5
		c-1.3-0.6-1.8-1.2-1.8-2.7c0.1-5.1,0.1-10.2,0-15.3c0-0.8,0.3-1.2,1-1.6c9.7-5,19.3-5,29,0c0.8,0.4,1,0.8,1,1.7
		C838.8,327.6,838.9,330.3,838.9,332.9z"/>
	<path class="st19" d="M828.5,330.6h-4.2v-1.5c0-0.3-0.2-0.6-0.5-0.7V326c2.6,0.1,4.7,2,4.7,4.4
		C828.5,330.5,828.5,330.5,828.5,330.6z"/>
	<path class="st20" d="M822.7,329.1v1.5h-4.2c0.1-2.2,2.2-4,4.7-4.2v2C822.9,328.5,822.7,328.8,822.7,329.1z"/>
	<path class="st21" d="M818.5,332.4h4.2v1.5c0,0.3,0.2,0.6,0.5,0.7v2.5c-2.6-0.1-4.7-2-4.7-4.4C818.5,332.5,818.5,332.4,818.5,332.4
		z"/>
	<path class="st22" d="M824.3,333.9v-1.5h4.2c-0.1,2.2-2.2,4-4.7,4.2v-2C824,334.4,824.3,334.2,824.3,333.9z"/>
</g>
<g>
	<g>
		<path class="st6" d="M711.9,338.6c-1.6,5.5-3.2,10.9-4.8,16.4c-0.4,1.3-0.8,1.6-2.1,1.1c-2-0.7-4-1.2-6.1-1.8
			c-0.6-0.2-1-0.3-0.8-1.2c2.8-10.1,5.7-20.2,8.4-30.4c1-4,3.1-6.6,7.3-7.5c1.6-0.3,3.1-1.1,4.7-1.7c-1-3-1.7-5.8-1.1-8.8
			c0.9-4.7,4.9-7.3,9.4-6.1c3,0.9,4.8,3.5,4.9,7.5c0,1.2-0.1,2.4-0.2,3.6c-0.2,1.1-0.5,2.3-0.8,3.6c1.9,0.7,3.7,1.5,5.6,2.1
			c3.4,0.9,5.4,2.9,6.3,6.3c1.7,6.7,3.6,13.5,5.3,20.2c1,3.6,1.8,7.3,2.8,11c0.2,0.9,0,1.2-0.8,1.5c-2.2,0.6-4.3,1.2-6.5,1.9
			c-1,0.3-1.3,0-1.6-0.9c-1.3-5.3-2.7-10.6-4.1-15.9c0-0.2-0.1-0.4-0.2-0.6c-0.1,0-0.2,0-0.3,0c0.3,6.1,0.7,12.3,1,18.5
			c-0.6,0-1.1,0.1-1.5,0.1c-8,0-16.1,0-24.2,0c-1.2,0-1.5-0.3-1.4-1.5c0.4-5.8,0.7-11.6,1-17.4C712,338.6,712,338.6,711.9,338.6z
			 M729.6,313.8c1.2-2.7,1.5-5.3,1.3-8c-0.2-2.2-0.7-4.2-2.7-5.5c-3.8-2.6-8.9-0.5-10,4.2c-0.7,2.9-0.2,5.6,0.8,8.3
			c0.3,0.9,0.1,1.2-0.6,1.5c-1.2,0.5-2.5,1-3.8,1.5c-1.6,0.6-3.2,1.2-4.5,1.7c0.7,2.6,1.7,5,2,7.5c0.5,3.1,0.7,6.2,0.6,9.3
			c-0.2,7-0.6,14-0.9,21c0,0.5,0,0.9,0,1.4c8.5,0,17,0,25.5,0c0-0.5,0-1,0-1.4c-0.3-7.9-0.7-15.7-0.8-23.6c-0.1-4.8,0-9.7,2.9-14.2
			C736.1,316.3,732.9,315,729.6,313.8z M740.3,318c-0.4,0.5-0.6,0.7-0.7,0.9c-0.4,0.7-0.8,1.4-1.1,2.2c-1.4,4.5-1.8,9.3-0.9,13.9
			c1.3,6.8,3.3,13.5,5,20.3c0,0.1,0.2,0.3,0.3,0.4c2.4-0.7,4.8-1.4,7.1-2.2c-0.5-1.8-0.9-3.5-1.3-5.2c-2.2-8.4-4.3-16.8-6.5-25.2
			C741.8,321.4,741,319.9,740.3,318z M706.2,355.8c1.5-5.3,3-10.4,4.4-15.6c0.9-3.1,1.6-6.3,1.3-9.6c-0.3-3.4-0.2-6.8-1.5-9.9
			c-0.3-0.7-0.7-1.5-1.1-2.2c-0.2,0-0.3,0-0.5,0.1c-4.3,11.3-5.8,23.5-10.2,34.9C701.3,354.3,703.6,355,706.2,355.8z"/>
		<path class="st6" d="M729.6,313.8c3.4,1.3,6.6,2.5,9.9,3.8c-2.9,4.4-3,9.3-2.9,14.2c0.1,7.9,0.5,15.7,0.8,23.6c0,0.4,0,0.9,0,1.4
			c-8.5,0-17,0-25.5,0c0-0.5,0-1,0-1.4c0.3-7,0.7-14,0.9-21c0.1-3.1-0.1-6.2-0.6-9.3c-0.4-2.5-1.3-4.8-2-7.5
			c1.3-0.5,2.9-1.1,4.5-1.7c1.3-0.5,2.5-1,3.8-1.5c0.8-0.3,1-0.7,0.6-1.5c-1.1-2.7-1.5-5.5-0.8-8.3c1.1-4.7,6.2-6.8,10-4.2
			c1.9,1.3,2.5,3.3,2.7,5.5C731.1,308.4,730.7,311,729.6,313.8z M724.5,352.3c2.7,0,5.4,0,8.1,0c1,0,1.3-0.3,1.3-1.3
			c-0.1-1.5,0-3,0-4.5c0-0.4-0.2-1-0.5-1.3c-1.6-1.3-2.6-2.9-3.3-4.8c-0.2-0.4-0.9-0.9-1.4-0.9c-2.8-0.1-5.7,0-8.5-0.1
			c-0.9,0-1.1,0.4-1.4,1.1c-0.4,1.1-0.7,2.4-1.5,3c-1.9,1.6-2.3,3.5-2.1,5.7c0.1,0.5,0,1.1,0,1.6c-0.1,1,0.3,1.4,1.3,1.3
			C719.1,352.3,721.8,352.3,724.5,352.3z M729.2,306.7c-0.3-1.1-0.6-2.3-1-3.4c-0.6-1.6-2-2.3-3.6-2.3c-1.7,0-2.9,0.7-3.8,2.1
			c-2.1,3.7-0.8,8.7,2.9,10.8c0.4,0.2,1.1,0.2,1.5,0C727.8,312.2,729,309.8,729.2,306.7z M722,321.4c0.3-0.3,0.5-0.4,0.5-0.5
			c0.1-1.9,0.2-3.8,0.2-5.8c0-0.2-0.4-0.4-0.7-0.7c-0.2,0.3-0.6,0.6-0.6,0.9c0.1,1.5,0.2,3,0.3,4.5
			C721.9,320.3,721.9,320.8,722,321.4z M726.6,321.2c0.1,0,0.2,0,0.3,0c0-0.5,0.1-0.9,0.1-1.3c0.1-1.5,0.3-3,0.4-4.5
			c0-0.3-0.4-0.6-0.6-0.9c-0.2,0.2-0.6,0.5-0.6,0.7c0,1.8,0,3.6,0.1,5.4C726.3,320.8,726.5,321,726.6,321.2z"/>
		<path class="st6" d="M740.3,318c0.7,1.8,1.5,3.4,2,5.1c2.2,8.4,4.3,16.8,6.5,25.2c0.4,1.7,0.8,3.4,1.3,5.2
			c-2.4,0.7-4.7,1.4-7.1,2.2c-0.1-0.1-0.3-0.3-0.3-0.4c-1.7-6.8-3.7-13.5-5-20.3c-0.9-4.6-0.4-9.3,0.9-13.9c0.2-0.8,0.7-1.5,1.1-2.2
			C739.7,318.7,739.9,318.5,740.3,318z"/>
		<path class="st6" d="M706.2,355.8c-2.6-0.8-5-1.5-7.6-2.3c4.5-11.4,5.9-23.6,10.2-34.9c0.2,0,0.3,0,0.5-0.1
			c0.4,0.7,0.8,1.4,1.1,2.2c1.3,3.2,1.3,6.6,1.5,9.9c0.3,3.3-0.5,6.4-1.3,9.6C709.2,345.3,707.7,350.5,706.2,355.8z"/>
		<path class="st6" d="M724.5,352.3c-2.7,0-5.4,0-8.1,0c-1,0-1.4-0.3-1.3-1.3c0-0.5,0.1-1.1,0-1.6c-0.3-2.3,0.2-4.1,2.1-5.7
			c0.8-0.7,1.2-2,1.5-3c0.3-0.8,0.5-1.1,1.4-1.1c2.8,0,5.7,0,8.5,0.1c0.5,0,1.2,0.5,1.4,0.9c0.7,1.9,1.8,3.5,3.3,4.8
			c0.3,0.3,0.5,0.8,0.5,1.3c0.1,1.5,0,3,0,4.5c0,1-0.3,1.3-1.3,1.3C729.9,352.3,727.2,352.3,724.5,352.3z M733.1,351.5
			c0-1.7,0-3.4,0-5c0-0.3-0.2-0.7-0.5-0.9c-1.4-1.2-2.5-2.7-3.1-4.5c-0.1-0.4-0.7-0.8-1.1-0.8c-2.7-0.1-5.3-0.1-8,0
			c-0.3,0-0.8,0.4-0.9,0.7c-0.4,1.9-1.6,3.2-2.9,4.5c-0.3,0.3-0.7,0.8-0.8,1.2c-0.1,1.6,0,3.2,0,4.9
			C721.6,351.5,727.2,351.5,733.1,351.5z"/>
		<path class="st6" d="M729.2,306.7c-0.2,3.1-1.4,5.5-4,7.2c-0.4,0.2-1.1,0.3-1.5,0c-3.7-2.1-5-7.1-2.9-10.8
			c0.8-1.5,2.1-2.2,3.8-2.1c1.7,0,3,0.7,3.6,2.3C728.6,304.3,728.9,305.5,729.2,306.7z M728.4,306.8c-0.3-1.1-0.5-2.2-0.9-3.2
			c-0.5-1.2-1.5-1.8-2.8-1.9c-1.4-0.1-2.5,0.5-3.3,1.7c-1.8,3.1-0.8,7.6,2.1,9.6c0.6,0.4,1.1,0.4,1.7,0
			C727.3,311.4,728.2,309.4,728.4,306.8z"/>
		<path class="st6" d="M722,321.4c-0.1-0.7-0.1-1.1-0.2-1.5c-0.1-1.5-0.3-3-0.3-4.5c0-0.3,0.4-0.6,0.6-0.9c0.2,0.2,0.7,0.4,0.7,0.7
			c0,1.9-0.1,3.8-0.2,5.8C722.5,321,722.3,321.1,722,321.4z"/>
		<path class="st6" d="M726.6,321.2c-0.1-0.2-0.3-0.4-0.3-0.6c0-1.8-0.1-3.6-0.1-5.4c0-0.2,0.4-0.5,0.6-0.7c0.2,0.3,0.6,0.6,0.6,0.9
			c-0.1,1.5-0.2,3-0.4,4.5c0,0.5-0.1,0.9-0.1,1.3C726.8,321.2,726.7,321.2,726.6,321.2z"/>
		<path class="st6" d="M733.1,351.5c-5.9,0-11.5,0-17.3,0c0-1.7,0-3.3,0-4.9c0-0.4,0.4-0.9,0.8-1.2c1.3-1.3,2.5-2.6,2.9-4.5
			c0.1-0.3,0.6-0.6,0.9-0.7c2.7,0,5.3-0.1,8,0c0.4,0,1,0.4,1.1,0.8c0.7,1.8,1.7,3.2,3.1,4.5c0.2,0.2,0.5,0.6,0.5,0.9
			C733.1,348.1,733.1,349.8,733.1,351.5z"/>
		<path class="st6" d="M728.4,306.8c-0.2,2.6-1.2,4.6-3.2,6.2c-0.6,0.5-1,0.5-1.7,0c-2.9-2-3.9-6.6-2.1-9.6c0.7-1.2,1.8-1.8,3.3-1.7
			c1.3,0.1,2.4,0.6,2.8,1.9C728,304.6,728.1,305.7,728.4,306.8z"/>
		<path class="st6" d="M729.9,328.5h-5.1v-1.8c0-0.4-0.3-0.7-0.7-0.8v-3c3.2,0.1,5.7,2.5,5.7,5.3
			C729.9,328.4,729.9,328.5,729.9,328.5z"/>
		<path class="st6" d="M722.8,326.7v1.8h-5.1c0.2-2.7,2.6-4.9,5.7-5v2.4C723.1,326,722.8,326.4,722.8,326.7z"/>
		<g>
			<path class="st6" d="M717.8,330.6h5.1v1.8c0,0.4,0.3,0.7,0.7,0.8v3c-3.2-0.1-5.7-2.5-5.7-5.3
				C717.8,330.8,717.8,330.7,717.8,330.6z"/>
			<path class="st6" d="M717.8,330.6h5.1v1.8c0,0.4,0.3,0.7,0.7,0.8v3c-3.2-0.1-5.7-2.5-5.7-5.3
				C717.8,330.8,717.8,330.7,717.8,330.6z"/>
		</g>
		<path class="st6" d="M724.8,332.5v-1.8h5.1c-0.2,2.7-2.6,4.9-5.7,5v-2.4C724.5,333.2,724.8,332.9,724.8,332.5z"/>
		<rect x="712.7" y="318.1" class="st6" width="21.9" height="29"/>
	</g>
	<g>
		<path d="M711.9,338.6c-1.6,5.5-3.2,10.9-4.8,16.4c-0.4,1.3-0.8,1.6-2.1,1.1c-2-0.7-4-1.2-6.1-1.8c-0.6-0.2-1-0.3-0.8-1.2
			c2.8-10.1,5.7-20.2,8.4-30.4c1-4,3.1-6.6,7.3-7.5c1.6-0.3,3.1-1.1,4.7-1.7c-1-3-1.7-5.8-1.1-8.8c0.9-4.7,4.9-7.3,9.4-6.1
			c3,0.9,4.8,3.5,4.9,7.5c0,1.2-0.1,2.4-0.2,3.6c-0.2,1.1-0.5,2.3-0.8,3.6c1.9,0.7,3.7,1.5,5.6,2.1c3.4,0.9,5.4,2.9,6.3,6.3
			c1.7,6.7,3.6,13.5,5.3,20.2c1,3.6,1.8,7.3,2.8,11c0.2,0.9,0,1.2-0.8,1.5c-2.2,0.6-4.3,1.2-6.5,1.9c-1,0.3-1.3,0-1.6-0.9
			c-1.3-5.3-2.7-10.6-4.1-15.9c0-0.2-0.1-0.4-0.2-0.6c-0.1,0-0.2,0-0.3,0c0.3,6.1,0.7,12.3,1,18.5c-0.6,0-1.1,0.1-1.5,0.1
			c-8,0-16.1,0-24.2,0c-1.2,0-1.5-0.3-1.4-1.5c0.4-5.8,0.7-11.6,1-17.4C712,338.6,712,338.6,711.9,338.6z M729.6,313.8
			c1.2-2.7,1.5-5.3,1.3-8c-0.2-2.2-0.7-4.2-2.7-5.5c-3.8-2.6-8.9-0.5-10,4.2c-0.7,2.9-0.2,5.6,0.8,8.3c0.3,0.9,0.1,1.2-0.6,1.5
			c-1.2,0.5-2.5,1-3.8,1.5c-1.6,0.6-3.2,1.2-4.5,1.7c0.7,2.6,1.7,5,2,7.5c0.5,3.1,0.7,6.2,0.6,9.3c-0.2,7-0.6,14-0.9,21
			c0,0.5,0,0.9,0,1.4c8.5,0,17,0,25.5,0c0-0.5,0-1,0-1.4c-0.3-7.9-0.7-15.7-0.8-23.6c-0.1-4.8,0-9.7,2.9-14.2
			C736.1,316.3,732.9,315,729.6,313.8z M740.3,318c-0.4,0.5-0.6,0.7-0.7,0.9c-0.4,0.7-0.8,1.4-1.1,2.2c-1.4,4.5-1.8,9.3-0.9,13.9
			c1.3,6.8,3.3,13.5,5,20.3c0,0.1,0.2,0.3,0.3,0.4c2.4-0.7,4.8-1.4,7.1-2.2c-0.5-1.8-0.9-3.5-1.3-5.2c-2.2-8.4-4.3-16.8-6.5-25.2
			C741.8,321.4,741,319.9,740.3,318z M706.2,355.8c1.5-5.3,3-10.4,4.4-15.6c0.9-3.1,1.6-6.3,1.3-9.6c-0.3-3.4-0.2-6.8-1.5-9.9
			c-0.3-0.7-0.7-1.5-1.1-2.2c-0.2,0-0.3,0-0.5,0.1c-4.3,11.3-5.8,23.5-10.2,34.9C701.3,354.3,703.6,355,706.2,355.8z"/>
		<path class="st1" d="M729.6,313.8c3.4,1.3,6.6,2.5,9.9,3.8c-2.9,4.4-3,9.3-2.9,14.2c0.1,7.9,0.5,15.7,0.8,23.6c0,0.4,0,0.9,0,1.4
			c-8.5,0-17,0-25.5,0c0-0.5,0-1,0-1.4c0.3-7,0.7-14,0.9-21c0.1-3.1-0.1-6.2-0.6-9.3c-0.4-2.5-1.3-4.8-2-7.5
			c1.3-0.5,2.9-1.1,4.5-1.7c1.3-0.5,2.5-1,3.8-1.5c0.8-0.3,1-0.7,0.6-1.5c-1.1-2.7-1.5-5.5-0.8-8.3c1.1-4.7,6.2-6.8,10-4.2
			c1.9,1.3,2.5,3.3,2.7,5.5C731.1,308.4,730.7,311,729.6,313.8z M724.5,352.3c2.7,0,5.4,0,8.1,0c1,0,1.3-0.3,1.3-1.3
			c-0.1-1.5,0-3,0-4.5c0-0.4-0.2-1-0.5-1.3c-1.6-1.3-2.6-2.9-3.3-4.8c-0.2-0.4-0.9-0.9-1.4-0.9c-2.8-0.1-5.7,0-8.5-0.1
			c-0.9,0-1.1,0.4-1.4,1.1c-0.4,1.1-0.7,2.4-1.5,3c-1.9,1.6-2.3,3.5-2.1,5.7c0.1,0.5,0,1.1,0,1.6c-0.1,1,0.3,1.4,1.3,1.3
			C719.1,352.3,721.8,352.3,724.5,352.3z M729.2,306.7c-0.3-1.1-0.6-2.3-1-3.4c-0.6-1.6-2-2.3-3.6-2.3c-1.7,0-2.9,0.7-3.8,2.1
			c-2.1,3.7-0.8,8.7,2.9,10.8c0.4,0.2,1.1,0.2,1.5,0C727.8,312.2,729,309.8,729.2,306.7z M722,321.4c0.3-0.3,0.5-0.4,0.5-0.5
			c0.1-1.9,0.2-3.8,0.2-5.8c0-0.2-0.4-0.4-0.7-0.7c-0.2,0.3-0.6,0.6-0.6,0.9c0.1,1.5,0.2,3,0.3,4.5
			C721.9,320.3,721.9,320.8,722,321.4z M726.6,321.2c0.1,0,0.2,0,0.3,0c0-0.5,0.1-0.9,0.1-1.3c0.1-1.5,0.3-3,0.4-4.5
			c0-0.3-0.4-0.6-0.6-0.9c-0.2,0.2-0.6,0.5-0.6,0.7c0,1.8,0,3.6,0.1,5.4C726.3,320.8,726.5,321,726.6,321.2z"/>
		<path class="st1" d="M740.3,318c0.7,1.8,1.5,3.4,2,5.1c2.2,8.4,4.3,16.8,6.5,25.2c0.4,1.7,0.8,3.4,1.3,5.2
			c-2.4,0.7-4.7,1.4-7.1,2.2c-0.1-0.1-0.3-0.3-0.3-0.4c-1.7-6.8-3.7-13.5-5-20.3c-0.9-4.6-0.4-9.3,0.9-13.9c0.2-0.8,0.7-1.5,1.1-2.2
			C739.7,318.7,739.9,318.5,740.3,318z"/>
		<path class="st1" d="M706.2,355.8c-2.6-0.8-5-1.5-7.6-2.3c4.5-11.4,5.9-23.6,10.2-34.9c0.2,0,0.3,0,0.5-0.1
			c0.4,0.7,0.8,1.4,1.1,2.2c1.3,3.2,1.3,6.6,1.5,9.9c0.3,3.3-0.5,6.4-1.3,9.6C709.2,345.3,707.7,350.5,706.2,355.8z"/>
		<path d="M724.5,352.3c-2.7,0-5.4,0-8.1,0c-1,0-1.4-0.3-1.3-1.3c0-0.5,0.1-1.1,0-1.6c-0.3-2.3,0.2-4.1,2.1-5.7c0.8-0.7,1.2-2,1.5-3
			c0.3-0.8,0.5-1.1,1.4-1.1c2.8,0,5.7,0,8.5,0.1c0.5,0,1.2,0.5,1.4,0.9c0.7,1.9,1.8,3.5,3.3,4.8c0.3,0.3,0.5,0.8,0.5,1.3
			c0.1,1.5,0,3,0,4.5c0,1-0.3,1.3-1.3,1.3C729.9,352.3,727.2,352.3,724.5,352.3z M733.1,351.5c0-1.7,0-3.4,0-5
			c0-0.3-0.2-0.7-0.5-0.9c-1.4-1.2-2.5-2.7-3.1-4.5c-0.1-0.4-0.7-0.8-1.1-0.8c-2.7-0.1-5.3-0.1-8,0c-0.3,0-0.8,0.4-0.9,0.7
			c-0.4,1.9-1.6,3.2-2.9,4.5c-0.3,0.3-0.7,0.8-0.8,1.2c-0.1,1.6,0,3.2,0,4.9C721.6,351.5,727.2,351.5,733.1,351.5z"/>
		<path d="M729.2,306.7c-0.2,3.1-1.4,5.5-4,7.2c-0.4,0.2-1.1,0.3-1.5,0c-3.7-2.1-5-7.1-2.9-10.8c0.8-1.5,2.1-2.2,3.8-2.1
			c1.7,0,3,0.7,3.6,2.3C728.6,304.3,728.9,305.5,729.2,306.7z M728.4,306.8c-0.3-1.1-0.5-2.2-0.9-3.2c-0.5-1.2-1.5-1.8-2.8-1.9
			c-1.4-0.1-2.5,0.5-3.3,1.7c-1.8,3.1-0.8,7.6,2.1,9.6c0.6,0.4,1.1,0.4,1.7,0C727.3,311.4,728.2,309.4,728.4,306.8z"/>
		<path d="M722,321.4c-0.1-0.7-0.1-1.1-0.2-1.5c-0.1-1.5-0.3-3-0.3-4.5c0-0.3,0.4-0.6,0.6-0.9c0.2,0.2,0.7,0.4,0.7,0.7
			c0,1.9-0.1,3.8-0.2,5.8C722.5,321,722.3,321.1,722,321.4z"/>
		<path d="M726.6,321.2c-0.1-0.2-0.3-0.4-0.3-0.6c0-1.8-0.1-3.6-0.1-5.4c0-0.2,0.4-0.5,0.6-0.7c0.2,0.3,0.6,0.6,0.6,0.9
			c-0.1,1.5-0.2,3-0.4,4.5c0,0.5-0.1,0.9-0.1,1.3C726.8,321.2,726.7,321.2,726.6,321.2z"/>
		<path class="st1" d="M733.1,351.5c-5.9,0-11.5,0-17.3,0c0-1.7,0-3.3,0-4.9c0-0.4,0.4-0.9,0.8-1.2c1.3-1.3,2.5-2.6,2.9-4.5
			c0.1-0.3,0.6-0.6,0.9-0.7c2.7,0,5.3-0.1,8,0c0.4,0,1,0.4,1.1,0.8c0.7,1.8,1.7,3.2,3.1,4.5c0.2,0.2,0.5,0.6,0.5,0.9
			C733.1,348.1,733.1,349.8,733.1,351.5z"/>
		<path class="st1" d="M728.4,306.8c-0.2,2.6-1.2,4.6-3.2,6.2c-0.6,0.5-1,0.5-1.7,0c-2.9-2-3.9-6.6-2.1-9.6c0.7-1.2,1.8-1.8,3.3-1.7
			c1.3,0.1,2.4,0.6,2.8,1.9C728,304.6,728.1,305.7,728.4,306.8z"/>
		<path class="st19" d="M729.9,328.5h-5.1v-1.8c0-0.4-0.3-0.7-0.7-0.8v-3c3.2,0.1,5.7,2.5,5.7,5.3
			C729.9,328.4,729.9,328.5,729.9,328.5z"/>
		<path class="st20" d="M722.8,326.7v1.8h-5.1c0.2-2.7,2.6-4.9,5.7-5v2.4C723.1,326,722.8,326.4,722.8,326.7z"/>
		<g>
			<path class="st7" d="M717.8,330.6h5.1v1.8c0,0.4,0.3,0.7,0.7,0.8v3c-3.2-0.1-5.7-2.5-5.7-5.3
				C717.8,330.8,717.8,330.7,717.8,330.6z"/>
			<path class="st23" d="M717.8,330.6h5.1v1.8c0,0.4,0.3,0.7,0.7,0.8v3c-3.2-0.1-5.7-2.5-5.7-5.3
				C717.8,330.8,717.8,330.7,717.8,330.6z"/>
		</g>
		<path class="st22" d="M724.8,332.5v-1.8h5.1c-0.2,2.7-2.6,4.9-5.7,5v-2.4C724.5,333.2,724.8,332.9,724.8,332.5z"/>
		<rect x="712.7" y="318.1" class="st24" width="21.9" height="29"/>
	</g>
</g>
<g>
	<g>
		<path class="st6" d="M655.5,95.8c-1.9,0-3.8,0-6,0c-0.1,0.8-0.2,1.5-0.2,2.3c0,7.1,0.1,14.2,0.1,21.3c0,2,0.2,3.7,2.6,4.2
			c0.5,0.1,0.8,0.9,1.4,1.8c-4.3,0-8.1,0-12.7,0c0.9-0.9,1.5-1.5,1.9-2c0.8-0.9,2.1-1.8,2.2-2.7c0.2-8.2,0.1-16.4,0.1-24.8
			c-1.6,0-3.1,0-4.9,0c0,8.2,0,16.4,0,24.7c-5.2,0-10.1,0.3-15-0.1c-3.4-0.2-5.9-3.5-6.3-6.9c-0.1-0.7-0.1-1.4-0.2-2.2
			c-0.7-0.1-1.3-0.2-1.9-0.2c-4.3-0.4-7.3-3.6-7.5-7.8c-0.1-2.4,0-4.9,0-7.5c-1.7,0-3.2,0-4.9,0c-0.1,0.8-0.2,1.5-0.2,2.2
			c0,7.2,0,14.5,0,21.7c0,1.8,0.3,3.3,2.4,3.8c0.5,0.1,0.9,1,1.6,1.9c-4.4,0-8.2,0-12,0c-0.1-0.2-0.3-0.3-0.4-0.5
			c0.6-0.5,1.2-1,1.7-1.6c0.8-0.8,2-1.7,2.1-2.5c0.2-7.5,0.2-15,0.2-22.4c0-0.8-0.1-1.6-0.1-2.7c-2,0-3.8,0-5.9,0
			c0-5.1-0.2-10,0.1-14.8c0.1-2.6,2.2-4.1,5.2-4.1c7.1,0,14.2,0,21.3,0c9.5,0,19,0.1,28.4-0.1c3-0.1,5.4,0.6,7,3.3
			C655.5,85.3,655.5,90.5,655.5,95.8z M653.2,93.8c0-3.9,0-7.3,0-10.7c0-3.9-0.5-4.4-4.4-4.4c-16.2,0-32.5,0-48.8,0
			c-0.7,0-1.6-0.2-2.1,0.1c-0.9,0.6-2.2,1.5-2.2,2.3c-0.2,4.1-0.1,8.2-0.1,12.5c4.5,0,8.9,0,13.3,0c0.1-0.8,0.2-1.4,0.2-2
			c0.1-3.1,0-3.1-3-3.1c-2.1,0-4.2,0-6.4,0c0-1.7,0-3,0-4.4c16.6,0,33,0,49.6,0c0,1.5,0,2.8,0,4.4c-3.1,0-6.1,0-9.4,0
			c0,1.5-0.1,2.8,0.1,4.1c0.1,0.5,0.8,1.2,1.3,1.2C645.2,93.8,649.1,93.8,653.2,93.8z"/>
		<path class="st6" d="M631.7,95.9h-4.2v-1.5c0-0.3-0.2-0.6-0.5-0.7v-2.5c2.6,0.1,4.7,2.1,4.7,4.4C631.7,95.8,631.7,95.9,631.7,95.9
			z"/>
		<path class="st6" d="M625.9,94.4v1.5h-4.2c0.1-2.2,2.2-4,4.7-4.2v2C626.1,93.9,625.9,94.1,625.9,94.4z"/>
		<g>
			<path class="st6" d="M621.7,97.7h4.2v1.5c0,0.3,0.2,0.6,0.5,0.7v2.5c-2.6-0.1-4.7-2.1-4.7-4.4C621.7,97.8,621.7,97.8,621.7,97.7z
				"/>
			<path class="st6" d="M621.7,97.7h4.2v1.5c0,0.3,0.2,0.6,0.5,0.7v2.5c-2.6-0.1-4.7-2.1-4.7-4.4C621.7,97.8,621.7,97.8,621.7,97.7z
				"/>
		</g>
		<path class="st6" d="M627.5,99.2v-1.5h4.2c-0.1,2.2-2.2,4-4.7,4.2v-2C627.2,99.8,627.5,99.5,627.5,99.2z"/>
	</g>
	<g>
		<path class="st1" d="M655.5,95.8c-1.9,0-3.8,0-6,0c-0.1,0.8-0.2,1.5-0.2,2.3c0,7.1,0.1,14.2,0.1,21.3c0,2,0.2,3.7,2.6,4.2
			c0.5,0.1,0.8,0.9,1.4,1.8c-4.3,0-8.1,0-12.7,0c0.9-0.9,1.5-1.5,1.9-2c0.8-0.9,2.1-1.8,2.2-2.7c0.2-8.2,0.1-16.4,0.1-24.8
			c-1.6,0-3.1,0-4.9,0c0,8.2,0,16.4,0,24.7c-5.2,0-10.1,0.3-15-0.1c-3.4-0.2-5.9-3.5-6.3-6.9c-0.1-0.7-0.1-1.4-0.2-2.2
			c-0.7-0.1-1.3-0.2-1.9-0.2c-4.3-0.4-7.3-3.6-7.5-7.8c-0.1-2.4,0-4.9,0-7.5c-1.7,0-3.2,0-4.9,0c-0.1,0.8-0.2,1.5-0.2,2.2
			c0,7.2,0,14.5,0,21.7c0,1.8,0.3,3.3,2.4,3.8c0.5,0.1,0.9,1,1.6,1.9c-4.4,0-8.2,0-12,0c-0.1-0.2-0.3-0.3-0.4-0.5
			c0.6-0.5,1.2-1,1.7-1.6c0.8-0.8,2-1.7,2.1-2.5c0.2-7.5,0.2-15,0.2-22.4c0-0.8-0.1-1.6-0.1-2.7c-2,0-3.8,0-5.9,0
			c0-5.1-0.2-10,0.1-14.8c0.1-2.6,2.2-4.1,5.2-4.1c7.1,0,14.2,0,21.3,0c9.5,0,19,0.1,28.4-0.1c3-0.1,5.4,0.6,7,3.3
			C655.5,85.3,655.5,90.5,655.5,95.8z M653.2,93.8c0-3.9,0-7.3,0-10.7c0-3.9-0.5-4.4-4.4-4.4c-16.2,0-32.5,0-48.8,0
			c-0.7,0-1.6-0.2-2.1,0.1c-0.9,0.6-2.2,1.5-2.2,2.3c-0.2,4.1-0.1,8.2-0.1,12.5c4.5,0,8.9,0,13.3,0c0.1-0.8,0.2-1.4,0.2-2
			c0.1-3.1,0-3.1-3-3.1c-2.1,0-4.2,0-6.4,0c0-1.7,0-3,0-4.4c16.6,0,33,0,49.6,0c0,1.5,0,2.8,0,4.4c-3.1,0-6.1,0-9.4,0
			c0,1.5-0.1,2.8,0.1,4.1c0.1,0.5,0.8,1.2,1.3,1.2C645.2,93.8,649.1,93.8,653.2,93.8z"/>
		<path class="st19" d="M631.7,95.9h-4.2v-1.5c0-0.3-0.2-0.6-0.5-0.7v-2.5c2.6,0.1,4.7,2.1,4.7,4.4
			C631.7,95.8,631.7,95.9,631.7,95.9z"/>
		<path class="st20" d="M625.9,94.4v1.5h-4.2c0.1-2.2,2.2-4,4.7-4.2v2C626.1,93.9,625.9,94.1,625.9,94.4z"/>
		<g>
			<path class="st7" d="M621.7,97.7h4.2v1.5c0,0.3,0.2,0.6,0.5,0.7v2.5c-2.6-0.1-4.7-2.1-4.7-4.4C621.7,97.8,621.7,97.8,621.7,97.7z
				"/>
			<path class="st23" d="M621.7,97.7h4.2v1.5c0,0.3,0.2,0.6,0.5,0.7v2.5c-2.6-0.1-4.7-2.1-4.7-4.4C621.7,97.8,621.7,97.8,621.7,97.7
				z"/>
		</g>
		<path class="st22" d="M627.5,99.2v-1.5h4.2c-0.1,2.2-2.2,4-4.7,4.2v-2C627.2,99.8,627.5,99.5,627.5,99.2z"/>
	</g>
	<g>
		<path class="st25" d="M655.5,95.8c-1.9,0-3.8,0-6,0c-0.1,0.8-0.2,1.5-0.2,2.3c0,7.1,0.1,14.2,0.1,21.3c0,2,0.2,3.7,2.6,4.2
			c0.5,0.1,0.8,0.9,1.4,1.8c-4.3,0-8.1,0-12.7,0c0.9-0.9,1.5-1.5,1.9-2c0.8-0.9,2.1-1.8,2.2-2.7c0.2-8.2,0.1-16.4,0.1-24.8
			c-1.6,0-3.1,0-4.9,0c0,8.2,0,16.4,0,24.7c-5.2,0-10.1,0.3-15-0.1c-3.4-0.2-5.9-3.5-6.3-6.9c-0.1-0.7-0.1-1.4-0.2-2.2
			c-0.7-0.1-1.3-0.2-1.9-0.2c-4.3-0.4-7.3-3.6-7.5-7.8c-0.1-2.4,0-4.9,0-7.5c-1.7,0-3.2,0-4.9,0c-0.1,0.8-0.2,1.5-0.2,2.2
			c0,7.2,0,14.5,0,21.7c0,1.8,0.3,3.3,2.4,3.8c0.5,0.1,0.9,1,1.6,1.9c-4.4,0-8.2,0-12,0c-0.1-0.2-0.3-0.3-0.4-0.5
			c0.6-0.5,1.2-1,1.7-1.6c0.8-0.8,2-1.7,2.1-2.5c0.2-7.5,0.2-15,0.2-22.4c0-0.8-0.1-1.6-0.1-2.7c-2,0-3.8,0-5.9,0
			c0-5.1-0.2-10,0.1-14.8c0.1-2.6,2.2-4.1,5.2-4.1c7.1,0,14.2,0,21.3,0c9.5,0,19,0.1,28.4-0.1c3-0.1,5.4,0.6,7,3.3
			C655.5,85.3,655.5,90.5,655.5,95.8z M653.2,93.8c0-3.9,0-7.3,0-10.7c0-3.9-0.5-4.4-4.4-4.4c-16.2,0-32.5,0-48.8,0
			c-0.7,0-1.6-0.2-2.1,0.1c-0.9,0.6-2.2,1.5-2.2,2.3c-0.2,4.1-0.1,8.2-0.1,12.5c4.5,0,8.9,0,13.3,0c0.1-0.8,0.2-1.4,0.2-2
			c0.1-3.1,0-3.1-3-3.1c-2.1,0-4.2,0-6.4,0c0-1.7,0-3,0-4.4c16.6,0,33,0,49.6,0c0,1.5,0,2.8,0,4.4c-3.1,0-6.1,0-9.4,0
			c0,1.5-0.1,2.8,0.1,4.1c0.1,0.5,0.8,1.2,1.3,1.2C645.2,93.8,649.1,93.8,653.2,93.8z"/>
		<path class="st25" d="M631.7,95.9h-4.2v-1.5c0-0.3-0.2-0.6-0.5-0.7v-2.5c2.6,0.1,4.7,2.1,4.7,4.4
			C631.7,95.8,631.7,95.9,631.7,95.9z"/>
		<path class="st25" d="M625.9,94.4v1.5h-4.2c0.1-2.2,2.2-4,4.7-4.2v2C626.1,93.9,625.9,94.1,625.9,94.4z"/>
		<g>
			<path class="st25" d="M621.7,97.7h4.2v1.5c0,0.3,0.2,0.6,0.5,0.7v2.5c-2.6-0.1-4.7-2.1-4.7-4.4C621.7,97.8,621.7,97.8,621.7,97.7
				z"/>
			<path class="st25" d="M621.7,97.7h4.2v1.5c0,0.3,0.2,0.6,0.5,0.7v2.5c-2.6-0.1-4.7-2.1-4.7-4.4C621.7,97.8,621.7,97.8,621.7,97.7
				z"/>
		</g>
		<path class="st25" d="M627.5,99.2v-1.5h4.2c-0.1,2.2-2.2,4-4.7,4.2v-2C627.2,99.8,627.5,99.5,627.5,99.2z"/>
	</g>
</g>
<g>
	<g>
		<path class="st6" d="M651.2,194.7c-4.8-1-9.6-2-14.3-3c-1.5-0.3-2.5,0-3.4,1.5c-4.3,6.5-13.5,6.6-17.8,0.1c-1-1.5-2-2-3.6-1.6
			c-0.6,0.1-1.2,0.1-1.8,0.3c-5.5,1.2-10.9,2.4-16.6,3.6c1.2,4.6,2.2,8.7,3.3,12.9c3.2-0.7,6.3-1.4,9.7-2.1c0,10.6,0,20.9,0,31.2
			c11.9,0,23.6,0,35.5,0c0-10.4,0-20.7,0-31.1c3.4,0.7,6.5,1.4,9.6,2.1c1.1-4.3,2.2-8.3,3.3-12.5C653.7,195.5,652.5,195,651.2,194.7
			z"/>
		<path class="st6" d="M629.9,210.8h-4.2v-1.5c0-0.3-0.2-0.6-0.5-0.7v-2.5c2.6,0.1,4.7,2.1,4.7,4.4
			C629.9,210.7,629.9,210.8,629.9,210.8z"/>
		<path class="st6" d="M624.1,209.3v1.5h-4.2c0.1-2.2,2.2-4,4.7-4.2v2C624.3,208.8,624.1,209,624.1,209.3z"/>
		<g>
			<path class="st6" d="M619.9,212.6h4.2v1.5c0,0.3,0.2,0.6,0.5,0.7v2.5c-2.6-0.1-4.7-2.1-4.7-4.4
				C619.9,212.7,619.9,212.7,619.9,212.6z"/>
			<path class="st6" d="M619.9,212.6h4.2v1.5c0,0.3,0.2,0.6,0.5,0.7v2.5c-2.6-0.1-4.7-2.1-4.7-4.4
				C619.9,212.7,619.9,212.7,619.9,212.6z"/>
		</g>
		<path class="st6" d="M625.7,214.1v-1.5h4.2c-0.1,2.2-2.2,4-4.7,4.2v-2C625.5,214.7,625.7,214.4,625.7,214.1z"/>
	</g>
	<g>
		<path class="st26" d="M651.2,194.7c-4.8-1-9.6-2-14.3-3c-1.5-0.3-2.5,0-3.4,1.5c-4.3,6.5-13.5,6.6-17.8,0.1c-1-1.5-2-2-3.6-1.6
			c-0.6,0.1-1.2,0.1-1.8,0.3c-5.5,1.2-10.9,2.4-16.6,3.6c1.2,4.6,2.2,8.7,3.3,12.9c3.2-0.7,6.3-1.4,9.7-2.1c0,10.6,0,20.9,0,31.2
			c11.9,0,23.6,0,35.5,0c0-10.4,0-20.7,0-31.1c3.4,0.7,6.5,1.4,9.6,2.1c1.1-4.3,2.2-8.3,3.3-12.5C653.7,195.5,652.5,195,651.2,194.7
			z"/>
		<path class="st19" d="M629.9,210.8h-4.2v-1.5c0-0.3-0.2-0.6-0.5-0.7v-2.5c2.6,0.1,4.7,2.1,4.7,4.4
			C629.9,210.7,629.9,210.8,629.9,210.8z"/>
		<path class="st20" d="M624.1,209.3v1.5h-4.2c0.1-2.2,2.2-4,4.7-4.2v2C624.3,208.8,624.1,209,624.1,209.3z"/>
		<g>
			<path class="st7" d="M619.9,212.6h4.2v1.5c0,0.3,0.2,0.6,0.5,0.7v2.5c-2.6-0.1-4.7-2.1-4.7-4.4
				C619.9,212.7,619.9,212.7,619.9,212.6z"/>
			<path class="st23" d="M619.9,212.6h4.2v1.5c0,0.3,0.2,0.6,0.5,0.7v2.5c-2.6-0.1-4.7-2.1-4.7-4.4
				C619.9,212.7,619.9,212.7,619.9,212.6z"/>
		</g>
		<path class="st22" d="M625.7,214.1v-1.5h4.2c-0.1,2.2-2.2,4-4.7,4.2v-2C625.5,214.7,625.7,214.4,625.7,214.1z"/>
	</g>
</g>
<g>
	<g>
		<rect x="706" y="75.2" class="st6" width="36.7" height="49.1"/>
		<path class="st6" d="M729,95.5h-4.2V94c0-0.3-0.2-0.6-0.5-0.7v-2.5c2.6,0.1,4.7,2.1,4.7,4.4C729,95.4,729,95.4,729,95.5z"/>
		<path class="st6" d="M723.2,94v1.5H719c0.1-2.2,2.2-4,4.7-4.2v2C723.5,93.4,723.2,93.7,723.2,94z"/>
		<g>
			<path class="st6" d="M719,97.3h4.2v1.5c0,0.3,0.2,0.6,0.5,0.7v2.5c-2.6-0.1-4.7-2.1-4.7-4.4C719,97.4,719,97.3,719,97.3z"/>
			<path class="st6" d="M719,97.3h4.2v1.5c0,0.3,0.2,0.6,0.5,0.7v2.5c-2.6-0.1-4.7-2.1-4.7-4.4C719,97.4,719,97.3,719,97.3z"/>
		</g>
		<path class="st6" d="M724.8,98.8v-1.5h4.2c-0.1,2.2-2.2,4-4.7,4.2v-2C724.6,99.3,724.8,99.1,724.8,98.8z"/>
	</g>
	<g>
		<rect x="706" y="75.2" class="st27" width="36.7" height="49.1"/>
		<path class="st19" d="M729,95.5h-4.2V94c0-0.3-0.2-0.6-0.5-0.7v-2.5c2.6,0.1,4.7,2.1,4.7,4.4C729,95.4,729,95.4,729,95.5z"/>
		<path class="st20" d="M723.2,94v1.5H719c0.1-2.2,2.2-4,4.7-4.2v2C723.5,93.4,723.2,93.7,723.2,94z"/>
		<g>
			<path class="st7" d="M719,97.3h4.2v1.5c0,0.3,0.2,0.6,0.5,0.7v2.5c-2.6-0.1-4.7-2.1-4.7-4.4C719,97.4,719,97.3,719,97.3z"/>
			<path class="st23" d="M719,97.3h4.2v1.5c0,0.3,0.2,0.6,0.5,0.7v2.5c-2.6-0.1-4.7-2.1-4.7-4.4C719,97.4,719,97.3,719,97.3z"/>
		</g>
		<path class="st22" d="M724.8,98.8v-1.5h4.2c-0.1,2.2-2.2,4-4.7,4.2v-2C724.6,99.3,724.8,99.1,724.8,98.8z"/>
	</g>
</g>
<g>
	<g>
		<path class="st6" d="M624.6,353.2c-0.5,0.6-0.8,1.2-1.2,1.6c-1.2,1.4-2.8,2-4.7,2c-5.1,0-10.2,0-15.3,0c-0.9,0-1.1-0.3-1.1-1.2
			c0-7.7,0-15.5,0-23.2c0-0.4,0.1-0.9,0.4-1.1c2.7-1.5,3.1-4.1,3.1-6.8c0.1-4.9,0.1-9.7,0-14.6c0-1.3,0.3-1.9,1.5-1.9
			c0.2,0,0.3-0.1,0.4-0.1c1.8-0.5,3.6-1.3,5.5-1.4c1.8,0,3.5,0.7,5.3,1.2c5.4,1.4,10.6,0.4,15.7-1.1c0.6-0.2,1.2-0.2,1.8,0
			c2.1,0.5,4.1,1.1,6.2,1.6c0.7,0.2,0.9,0.5,0.9,1.3c0,4.9-0.1,9.9,0,14.8c0,1.3,0.2,2.7,0.6,3.9c0.4,1,1.1,2.1,1.9,2.7
			c0.8,0.6,1,1.1,1,2c0,7.5,0,15,0,22.5c0,1-0.2,1.4-1.3,1.4c-4.6-0.1-9.2-0.1-13.8,0C628.7,357,626.1,356.3,624.6,353.2z
			 M603,347.7c0,2.5,0,4.8,0,7.1c0,0.9,0.2,1.2,1.2,1.2c4.8,0,9.5,0,14.3,0c0.4,0,0.9,0,1.3-0.1c2.4-0.3,4.4-2.9,4.3-5
			c-0.1-7.1,0-14.2-0.1-21.2c0-0.5-0.1-1.2-0.3-1.6c-3.2-6.7-6.5-13.3-9.7-20c-0.3-0.7-0.7-0.7-1.3-0.6c-1.7,0.5-3.3,1-5,1.3
			c-1,0.2-1.2,0.6-1.2,1.6c0,4.7,0.1,9.5,0,14.2c0,2.9-0.5,5.6-3.2,7.3c-0.2,0.1-0.3,0.4-0.3,0.5c0,1.2,0,2.5,0,3.8c0.6,0,1,0,1.4,0
			c5.5,0,11,0,16.4,0c0.3,0,0.6,0,0.9,0c0.2,0,0.3,0.2,0.5,0.3c-0.2,0.1-0.3,0.4-0.5,0.4c-0.2,0.1-0.5,0-0.8,0c-5.5,0-11.1,0-16.7,0
			c-0.4,0-0.8,0-1.2,0.1c0,1.5,0,2.9,0,4.4c1.7,0,3.2,0,4.8,0s3.3,0,4.9,0c1.6,0,3.2,0,4.8,0s3.2-0.2,4.8,0.2
			c-0.1,0.3-0.1,0.4-0.2,0.4c-6.3,0-12.7,0-19,0c0,1.7,0,3.2,0,4.7c0.5,0,1,0,1.4,0c5.5,0,11,0,16.4,0c0.4,0,0.8,0.2,1.2,0.4
			c-0.4,0.1-0.9,0.4-1.3,0.4c-4.9,0-9.8,0-14.8,0C605.2,347.7,604.2,347.7,603,347.7z M646,336.4c0-0.8,0-1.4,0-2
			c0.1-1.3,0.1-2.6-1.4-3.2c-0.4-0.2-0.7-0.7-0.9-1.1c-1-1.7-1.3-3.5-1.3-5.5c0-4.8,0-9.5,0-14.2c0-0.9-0.3-1.3-1.1-1.5
			c-1.7-0.4-3.4-0.8-5-1.3c-0.7-0.2-1.1,0-1.4,0.7c-3.2,6.6-6.4,13.1-9.6,19.7c-0.2,0.5-0.4,1.2-0.4,1.7c0,7,0.1,14.1-0.1,21.1
			c0,2.4,2.1,5.1,4.6,5.2c1.4,0,2.7,0.1,4.1,0.1c3.8,0,7.5,0,11.3,0c0.3,0,1-0.3,1-0.5c0.1-2.6,0-5.2,0-7.9c-0.5,0-1,0-1.3,0
			c-5.5,0-11,0-16.5,0c-0.3,0-0.5,0-0.8,0c-0.2-0.1-0.3-0.3-0.5-0.4c0.2-0.1,0.3-0.3,0.5-0.4c0.3-0.1,0.6,0,0.9,0c5.5,0,11,0,16.4,0
			c0.4,0,0.9,0,1.3,0c0-1.6,0-3,0-4.5c-3.3,0-6.5,0-9.7,0s-6.3,0.1-9.5-0.1c0.1-0.4,0.2-0.5,0.2-0.5c6.3,0,12.7,0,19.1,0
			c0-1.7,0-3.1,0-4.6c-2.3,0-4.6,0-6.8,0c-3.8,0-7.5,0-11.3,0c-0.3,0-0.7-0.2-1-0.2c0-0.2,0.1-0.3,0.1-0.5
			C633.2,336.4,639.5,336.4,646,336.4z M624.5,327.8c3.3-6.9,6.6-13.5,9.9-20.3c-6.7,2.1-13.1,2.7-19.9,0
			C618,314.4,621.2,321,624.5,327.8z"/>
		<path class="st6" d="M603,347.7c1.2,0,2.1,0,3.1,0c4.9,0,9.8,0,14.8,0c0.4,0,0.9-0.3,1.3-0.4c-0.4-0.1-0.8-0.4-1.2-0.4
			c-5.5,0-11,0-16.4,0c-0.4,0-0.9,0-1.4,0c0-1.5,0-2.9,0-4.7c6.4,0,12.7,0,19,0c0,0,0-0.1,0.2-0.4c-1.6-0.4-3.2-0.1-4.8-0.2
			c-1.6,0-3.2,0-4.8,0s-3.3,0-4.9,0c-1.6,0-3.2,0-4.8,0c0-1.5,0-2.9,0-4.4c0.4,0,0.8-0.1,1.2-0.1c5.5,0,11.1,0,16.7,0
			c0.3,0,0.5,0,0.8,0c0.2-0.1,0.4-0.3,0.5-0.4c-0.2-0.1-0.3-0.3-0.5-0.3c-0.3-0.1-0.6,0-0.9,0c-5.5,0-11,0-16.4,0
			c-0.4,0-0.8,0-1.4,0c0-1.4,0-2.6,0-3.8c0-0.2,0.2-0.5,0.3-0.5c2.7-1.7,3.2-4.4,3.2-7.3c0-4.7,0-9.5,0-14.2c0-1,0.2-1.4,1.2-1.6
			c1.7-0.4,3.4-0.9,5-1.3c0.6-0.2,1-0.1,1.3,0.6c3.2,6.7,6.5,13.3,9.7,20c0.2,0.5,0.3,1.1,0.3,1.6c0,7.1-0.1,14.2,0.1,21.2
			c0,2.2-1.9,4.8-4.3,5c-0.4,0-0.9,0.1-1.3,0.1c-4.8,0-9.5,0-14.3,0c-0.9,0-1.2-0.3-1.2-1.2C603,352.5,603,350.2,603,347.7z"/>
		<path class="st6" d="M646,336.4c-6.5,0-12.8,0-19.2,0c0,0.2-0.1,0.3-0.1,0.5c0.3,0.1,0.7,0.2,1,0.2c3.8,0,7.5,0,11.3,0
			c2.2,0,4.5,0,6.8,0c0,1.5,0,2.9,0,4.6c-6.4,0-12.7,0-19.1,0c0,0,0,0.1-0.2,0.5c3.2,0.3,6.4,0.1,9.5,0.1c3.2,0,6.4,0,9.7,0
			c0,1.5,0,2.9,0,4.5c-0.5,0-0.9,0-1.3,0c-5.5,0-11,0-16.4,0c-0.3,0-0.6,0-0.9,0c-0.2,0-0.3,0.2-0.5,0.4c0.2,0.1,0.3,0.4,0.5,0.4
			c0.2,0.1,0.5,0,0.8,0c5.5,0,11,0,16.5,0c0.4,0,0.8,0,1.3,0c0,2.7,0,5.3,0,7.9c0,0.2-0.6,0.5-1,0.5c-3.8,0-7.5,0-11.3,0
			c-1.4,0-2.7,0-4.1-0.1c-2.5-0.1-4.7-2.9-4.6-5.2c0.1-7,0-14.1,0.1-21.1c0-0.6,0.1-1.2,0.4-1.7c3.2-6.6,6.4-13.1,9.6-19.7
			c0.4-0.7,0.7-0.9,1.4-0.7c1.7,0.5,3.3,1,5,1.3c0.8,0.2,1.1,0.5,1.1,1.5c0,4.8,0,9.5,0,14.2c0,1.9,0.3,3.8,1.3,5.5
			c0.2,0.4,0.5,1,0.9,1.1c1.5,0.7,1.5,1.9,1.4,3.2C646,335,646,335.6,646,336.4z"/>
		<path class="st6" d="M624.5,327.8c-3.3-6.8-6.5-13.4-9.9-20.3c6.7,2.7,13.2,2.1,19.9,0C631.1,314.4,627.8,321,624.5,327.8z"/>
		<path class="st6" d="M639.6,328.6h-4.2V327c0-0.3-0.2-0.6-0.5-0.7v-2.5c2.6,0.1,4.7,2,4.7,4.4
			C639.6,328.4,639.6,328.5,639.6,328.6z"/>
		<path class="st6" d="M633.8,327v1.5h-4.2c0.1-2.2,2.2-4,4.7-4.2v2C634,326.5,633.8,326.7,633.8,327z"/>
		<g>
			<path class="st6" d="M629.6,330.3h4.2v1.5c0,0.3,0.2,0.6,0.5,0.7v2.5c-2.6-0.1-4.7-2-4.7-4.4
				C629.6,330.5,629.6,330.4,629.6,330.3z"/>
			<path class="st6" d="M629.6,330.3h4.2v1.5c0,0.3,0.2,0.6,0.5,0.7v2.5c-2.6-0.1-4.7-2-4.7-4.4
				C629.6,330.5,629.6,330.4,629.6,330.3z"/>
		</g>
		<path class="st6" d="M635.4,331.8v-1.5h4.2c-0.1,2.2-2.2,4-4.7,4.2v-2C635.2,332.4,635.4,332.1,635.4,331.8z"/>
	</g>
	<g>
		<path d="M624.6,353.2c-0.5,0.6-0.8,1.2-1.2,1.6c-1.2,1.4-2.8,2-4.7,2c-5.1,0-10.2,0-15.3,0c-0.9,0-1.1-0.3-1.1-1.2
			c0-7.7,0-15.5,0-23.2c0-0.4,0.1-0.9,0.4-1.1c2.7-1.5,3.1-4.1,3.1-6.8c0.1-4.9,0.1-9.7,0-14.6c0-1.3,0.3-1.9,1.5-1.9
			c0.2,0,0.3-0.1,0.4-0.1c1.8-0.5,3.6-1.3,5.5-1.4c1.8,0,3.5,0.7,5.3,1.2c5.4,1.4,10.6,0.4,15.7-1.1c0.6-0.2,1.2-0.2,1.8,0
			c2.1,0.5,4.1,1.1,6.2,1.6c0.7,0.2,0.9,0.5,0.9,1.3c0,4.9-0.1,9.9,0,14.8c0,1.3,0.2,2.7,0.6,3.9c0.4,1,1.1,2.1,1.9,2.7
			c0.8,0.6,1,1.1,1,2c0,7.5,0,15,0,22.5c0,1-0.2,1.4-1.3,1.4c-4.6-0.1-9.2-0.1-13.8,0C628.7,357,626.1,356.3,624.6,353.2z
			 M603,347.7c0,2.5,0,4.8,0,7.1c0,0.9,0.2,1.2,1.2,1.2c4.8,0,9.5,0,14.3,0c0.4,0,0.9,0,1.3-0.1c2.4-0.3,4.4-2.9,4.3-5
			c-0.1-7.1,0-14.2-0.1-21.2c0-0.5-0.1-1.2-0.3-1.6c-3.2-6.7-6.5-13.3-9.7-20c-0.3-0.7-0.7-0.7-1.3-0.6c-1.7,0.5-3.3,1-5,1.3
			c-1,0.2-1.2,0.6-1.2,1.6c0,4.7,0.1,9.5,0,14.2c0,2.9-0.5,5.6-3.2,7.3c-0.2,0.1-0.3,0.4-0.3,0.5c0,1.2,0,2.5,0,3.8c0.6,0,1,0,1.4,0
			c5.5,0,11,0,16.4,0c0.3,0,0.6,0,0.9,0c0.2,0,0.3,0.2,0.5,0.3c-0.2,0.1-0.3,0.4-0.5,0.4c-0.2,0.1-0.5,0-0.8,0c-5.5,0-11.1,0-16.7,0
			c-0.4,0-0.8,0-1.2,0.1c0,1.5,0,2.9,0,4.4c1.7,0,3.2,0,4.8,0s3.3,0,4.9,0c1.6,0,3.2,0,4.8,0s3.2-0.2,4.8,0.2
			c-0.1,0.3-0.1,0.4-0.2,0.4c-6.3,0-12.7,0-19,0c0,1.7,0,3.2,0,4.7c0.5,0,1,0,1.4,0c5.5,0,11,0,16.4,0c0.4,0,0.8,0.2,1.2,0.4
			c-0.4,0.1-0.9,0.4-1.3,0.4c-4.9,0-9.8,0-14.8,0C605.2,347.7,604.2,347.7,603,347.7z M646,336.4c0-0.8,0-1.4,0-2
			c0.1-1.3,0.1-2.6-1.4-3.2c-0.4-0.2-0.7-0.7-0.9-1.1c-1-1.7-1.3-3.5-1.3-5.5c0-4.8,0-9.5,0-14.2c0-0.9-0.3-1.3-1.1-1.5
			c-1.7-0.4-3.4-0.8-5-1.3c-0.7-0.2-1.1,0-1.4,0.7c-3.2,6.6-6.4,13.1-9.6,19.7c-0.2,0.5-0.4,1.2-0.4,1.7c0,7,0.1,14.1-0.1,21.1
			c0,2.4,2.1,5.1,4.6,5.2c1.4,0,2.7,0.1,4.1,0.1c3.8,0,7.5,0,11.3,0c0.3,0,1-0.3,1-0.5c0.1-2.6,0-5.2,0-7.9c-0.5,0-1,0-1.3,0
			c-5.5,0-11,0-16.5,0c-0.3,0-0.5,0-0.8,0c-0.2-0.1-0.3-0.3-0.5-0.4c0.2-0.1,0.3-0.3,0.5-0.4c0.3-0.1,0.6,0,0.9,0c5.5,0,11,0,16.4,0
			c0.4,0,0.9,0,1.3,0c0-1.6,0-3,0-4.5c-3.3,0-6.5,0-9.7,0s-6.3,0.1-9.5-0.1c0.1-0.4,0.2-0.5,0.2-0.5c6.3,0,12.7,0,19.1,0
			c0-1.7,0-3.1,0-4.6c-2.3,0-4.6,0-6.8,0c-3.8,0-7.5,0-11.3,0c-0.3,0-0.7-0.2-1-0.2c0-0.2,0.1-0.3,0.1-0.5
			C633.2,336.4,639.5,336.4,646,336.4z M624.5,327.8c3.3-6.9,6.6-13.5,9.9-20.3c-6.7,2.1-13.1,2.7-19.9,0
			C618,314.4,621.2,321,624.5,327.8z"/>
		<path class="st1" d="M603,347.7c1.2,0,2.1,0,3.1,0c4.9,0,9.8,0,14.8,0c0.4,0,0.9-0.3,1.3-0.4c-0.4-0.1-0.8-0.4-1.2-0.4
			c-5.5,0-11,0-16.4,0c-0.4,0-0.9,0-1.4,0c0-1.5,0-2.9,0-4.7c6.4,0,12.7,0,19,0c0,0,0-0.1,0.2-0.4c-1.6-0.4-3.2-0.1-4.8-0.2
			c-1.6,0-3.2,0-4.8,0s-3.3,0-4.9,0c-1.6,0-3.2,0-4.8,0c0-1.5,0-2.9,0-4.4c0.4,0,0.8-0.1,1.2-0.1c5.5,0,11.1,0,16.7,0
			c0.3,0,0.5,0,0.8,0c0.2-0.1,0.4-0.3,0.5-0.4c-0.2-0.1-0.3-0.3-0.5-0.3c-0.3-0.1-0.6,0-0.9,0c-5.5,0-11,0-16.4,0
			c-0.4,0-0.8,0-1.4,0c0-1.4,0-2.6,0-3.8c0-0.2,0.2-0.5,0.3-0.5c2.7-1.7,3.2-4.4,3.2-7.3c0-4.7,0-9.5,0-14.2c0-1,0.2-1.4,1.2-1.6
			c1.7-0.4,3.4-0.9,5-1.3c0.6-0.2,1-0.1,1.3,0.6c3.2,6.7,6.5,13.3,9.7,20c0.2,0.5,0.3,1.1,0.3,1.6c0,7.1-0.1,14.2,0.1,21.2
			c0,2.2-1.9,4.8-4.3,5c-0.4,0-0.9,0.1-1.3,0.1c-4.8,0-9.5,0-14.3,0c-0.9,0-1.2-0.3-1.2-1.2C603,352.5,603,350.2,603,347.7z"/>
		<path class="st1" d="M646,336.4c-6.5,0-12.8,0-19.2,0c0,0.2-0.1,0.3-0.1,0.5c0.3,0.1,0.7,0.2,1,0.2c3.8,0,7.5,0,11.3,0
			c2.2,0,4.5,0,6.8,0c0,1.5,0,2.9,0,4.6c-6.4,0-12.7,0-19.1,0c0,0,0,0.1-0.2,0.5c3.2,0.3,6.4,0.1,9.5,0.1c3.2,0,6.4,0,9.7,0
			c0,1.5,0,2.9,0,4.5c-0.5,0-0.9,0-1.3,0c-5.5,0-11,0-16.4,0c-0.3,0-0.6,0-0.9,0c-0.2,0-0.3,0.2-0.5,0.4c0.2,0.1,0.3,0.4,0.5,0.4
			c0.2,0.1,0.5,0,0.8,0c5.5,0,11,0,16.5,0c0.4,0,0.8,0,1.3,0c0,2.7,0,5.3,0,7.9c0,0.2-0.6,0.5-1,0.5c-3.8,0-7.5,0-11.3,0
			c-1.4,0-2.7,0-4.1-0.1c-2.5-0.1-4.7-2.9-4.6-5.2c0.1-7,0-14.1,0.1-21.1c0-0.6,0.1-1.2,0.4-1.7c3.2-6.6,6.4-13.1,9.6-19.7
			c0.4-0.7,0.7-0.9,1.4-0.7c1.7,0.5,3.3,1,5,1.3c0.8,0.2,1.1,0.5,1.1,1.5c0,4.8,0,9.5,0,14.2c0,1.9,0.3,3.8,1.3,5.5
			c0.2,0.4,0.5,1,0.9,1.1c1.5,0.7,1.5,1.9,1.4,3.2C646,335,646,335.6,646,336.4z"/>
		<path class="st1" d="M624.5,327.8c-3.3-6.8-6.5-13.4-9.9-20.3c6.7,2.7,13.2,2.1,19.9,0C631.1,314.4,627.8,321,624.5,327.8z"/>
		<path class="st19" d="M639.6,328.6h-4.2V327c0-0.3-0.2-0.6-0.5-0.7v-2.5c2.6,0.1,4.7,2,4.7,4.4
			C639.6,328.4,639.6,328.5,639.6,328.6z"/>
		<path class="st20" d="M633.8,327v1.5h-4.2c0.1-2.2,2.2-4,4.7-4.2v2C634,326.5,633.8,326.7,633.8,327z"/>
		<g>
			<path class="st7" d="M629.6,330.3h4.2v1.5c0,0.3,0.2,0.6,0.5,0.7v2.5c-2.6-0.1-4.7-2-4.7-4.4
				C629.6,330.5,629.6,330.4,629.6,330.3z"/>
			<path class="st23" d="M629.6,330.3h4.2v1.5c0,0.3,0.2,0.6,0.5,0.7v2.5c-2.6-0.1-4.7-2-4.7-4.4
				C629.6,330.5,629.6,330.4,629.6,330.3z"/>
		</g>
		<path class="st22" d="M635.4,331.8v-1.5h4.2c-0.1,2.2-2.2,4-4.7,4.2v-2C635.2,332.4,635.4,332.1,635.4,331.8z"/>
	</g>
</g>
<text transform="matrix(1 0 0 1 588.1871 156.3749)" style="fill:#231F20; font-family:'ArialMT'; font-size:9.0018px;">Lorem ipsum</text>
<text transform="matrix(1 0 0 1 694.6412 156.3749)" style="fill:#231F20; font-family:'ArialMT'; font-size:9.0018px;">Lorem ipsum</text>
<text transform="matrix(1 0 0 1 588.1871 271.123)" style="fill:#231F20; font-family:'ArialMT'; font-size:9.0018px;">Lorem ipsum</text>
<text transform="matrix(1 0 0 1 700.6422 271.123)" style="fill:#231F20; font-family:'ArialMT'; font-size:9.0018px;">Lorem ipsum</text>
<text transform="matrix(1 0 0 1 794.8904 271.123)" style="fill:#231F20; font-family:'ArialMT'; font-size:9.0018px;">Lorem ipsum</text>
<text transform="matrix(1 0 0 1 694.6412 386.871)" style="fill:#231F20; font-family:'ArialMT'; font-size:9.0018px;">Lorem ipsum</text>
<text transform="matrix(1 0 0 1 794.8904 386.871)" style="fill:#231F20; font-family:'ArialMT'; font-size:9.0018px;">Lorem ipsum</text>
<text transform="matrix(1 0 0 1 798.6666 156.3749)" style="fill:#231F20; font-family:'ArialMT'; font-size:9.0018px;">Lorem ipsum</text>
<text transform="matrix(1 0 0 1 599.4391 387.8681)" style="fill:#231F20; font-family:'ArialMT'; font-size:9.0018px;">Lorem ipsum</text>
<text transform="matrix(1 0 0 1 794.8904 271.123)" style="fill:#231F20; font-family:'ArialMT'; font-size:9.0018px;">Lorem ipsum</text>
<text transform="matrix(1 0 0 1 694.6412 386.871)" style="fill:#231F20; font-family:'ArialMT'; font-size:9.0018px;">Lorem ipsum</text>
<text transform="matrix(1 0 0 1 794.8904 386.871)" style="fill:#231F20; font-family:'ArialMT'; font-size:9.0018px;">Lorem ipsum</text>
<text transform="matrix(1 0 0 1 699.2242 201.3222)" style="fill:#231F20; font-family:'ArialMT'; font-size:17.3204px;">Create</text>
<text transform="matrix(1 0 0 1 711.9842 222.1022)" style="fill:#231F20; font-family:'ArialMT'; font-size:17.3204px;">an </text>
<text transform="matrix(1 0 0 1 692.5342 242.8922)" style="fill:#231F20; font-family:'ArialMT'; font-size:17.3204px;">Account</text>
<rect x="579.8" y="405.8" class="st13" width="60.4" height="3"/>
<rect x="652.7" y="405.8" class="st14" width="60.4" height="3"/>
<rect x="726.9" y="405.8" class="st15" width="60.4" height="3"/>
<rect x="799.9" y="405.8" class="st16" width="60.4" height="3"/>
<path class="st28" d="M-103.4,57.6h-5.5v-2c0-0.4-0.3-0.8-0.7-0.9v-3.2c3.5,0.2,6.2,2.7,6.2,5.8C-103.4,57.4-103.4,57.5-103.4,57.6z
	"/>
<path class="st29" d="M-111.1,55.6v2h-5.5c0.2-3,2.9-5.3,6.2-5.5v2.6C-110.8,54.9-111.1,55.2-111.1,55.6z"/>
<path class="st7" d="M-116.6,59.9h5.5v2c0,0.4,0.3,0.8,0.7,0.9v3.3c-3.5-0.2-6.2-2.7-6.2-5.8C-116.6,60.1-116.6,60-116.6,59.9z"/>
<path class="st30" d="M-108.9,61.9v-2h5.5c-0.2,3-2.9,5.3-6.2,5.5v-2.6C-109.2,62.7-108.9,62.3-108.9,61.9z"/>
<g class="st31">
	<path d="M25.6,52.8l1.5,0.4c-0.3,1.2-0.9,2.1-1.7,2.8s-1.8,1-2.9,1c-1.2,0-2.2-0.2-2.9-0.7S18.2,55,17.8,54c-0.4-0.9-0.6-1.9-0.6-3
		c0-1.2,0.2-2.2,0.7-3s1.1-1.5,1.9-2c0.8-0.4,1.7-0.7,2.7-0.7c1.1,0,2.1,0.3,2.8,0.9c0.8,0.6,1.3,1.4,1.6,2.4L25.4,49
		c-0.3-0.8-0.6-1.4-1.1-1.8c-0.5-0.4-1.1-0.6-1.9-0.6c-0.9,0-1.6,0.2-2.1,0.6c-0.6,0.4-1,1-1.2,1.7c-0.2,0.7-0.3,1.4-0.3,2.1
		c0,0.9,0.1,1.8,0.4,2.5c0.3,0.7,0.7,1.2,1.3,1.6c0.6,0.3,1.2,0.5,1.9,0.5c0.8,0,1.5-0.2,2.1-0.7C25,54.5,25.4,53.7,25.6,52.8z"/>
	<path d="M36.2,45.6h1.5V52c0,1.1-0.1,2-0.4,2.7c-0.3,0.7-0.7,1.2-1.4,1.6c-0.7,0.4-1.5,0.6-2.6,0.6c-1,0-1.9-0.2-2.6-0.5
		s-1.1-0.9-1.4-1.6c-0.3-0.7-0.4-1.6-0.4-2.8v-6.4h1.5V52c0,1,0.1,1.7,0.3,2.1c0.2,0.5,0.5,0.8,0.9,1.1s1,0.4,1.6,0.4
		c1.1,0,1.9-0.2,2.3-0.7c0.5-0.5,0.7-1.4,0.7-2.8V45.6z"/>
	<path d="M39.6,53.1L41,53c0.1,0.6,0.2,1,0.5,1.4c0.2,0.4,0.6,0.6,1.1,0.9c0.5,0.2,1.1,0.3,1.7,0.3c0.6,0,1.1-0.1,1.5-0.3
		c0.4-0.2,0.8-0.4,1-0.7c0.2-0.3,0.3-0.6,0.3-1c0-0.4-0.1-0.7-0.3-0.9c-0.2-0.3-0.5-0.5-1-0.7c-0.3-0.1-1-0.3-2-0.5
		c-1-0.2-1.7-0.5-2.2-0.7c-0.5-0.3-0.9-0.6-1.2-1s-0.4-0.9-0.4-1.4c0-0.6,0.2-1.1,0.5-1.6c0.3-0.5,0.8-0.9,1.4-1.1
		c0.6-0.3,1.3-0.4,2-0.4c0.8,0,1.6,0.1,2.2,0.4c0.6,0.3,1.1,0.7,1.5,1.2s0.5,1.1,0.5,1.8l-1.4,0.1c-0.1-0.7-0.3-1.2-0.8-1.6
		s-1.1-0.5-1.9-0.5c-0.9,0-1.5,0.2-2,0.5c-0.4,0.3-0.6,0.7-0.6,1.2c0,0.4,0.1,0.7,0.4,1c0.3,0.3,1,0.5,2.2,0.8
		c1.2,0.3,2,0.5,2.5,0.7c0.6,0.3,1.1,0.7,1.4,1.1c0.3,0.5,0.5,1,0.5,1.6c0,0.6-0.2,1.2-0.5,1.7c-0.3,0.5-0.8,0.9-1.5,1.2
		c-0.6,0.3-1.4,0.4-2.1,0.4c-1,0-1.9-0.1-2.5-0.4s-1.2-0.7-1.6-1.3C39.9,54.5,39.6,53.9,39.6,53.1z"/>
	<path d="M53.4,56.7v-9.8h-3.7v-1.3h8.8v1.3h-3.7v9.8H53.4z"/>
	<path d="M59.3,51.3c0-1.9,0.5-3.3,1.5-4.3s2.3-1.6,3.8-1.6c1,0,2,0.2,2.8,0.7s1.5,1.2,1.9,2.1s0.7,1.9,0.7,3c0,1.1-0.2,2.1-0.7,3
		c-0.5,0.9-1.1,1.6-1.9,2c-0.8,0.5-1.7,0.7-2.7,0.7c-1,0-2-0.3-2.8-0.8s-1.5-1.2-1.9-2.1C59.5,53.2,59.3,52.3,59.3,51.3z M60.8,51.3
		c0,1.3,0.4,2.4,1.1,3.2c0.7,0.8,1.6,1.2,2.7,1.2c1.1,0,2-0.4,2.7-1.2c0.7-0.8,1.1-1.9,1.1-3.3c0-0.9-0.2-1.7-0.5-2.4
		s-0.8-1.2-1.3-1.6s-1.3-0.6-2-0.6c-1,0-1.9,0.4-2.7,1.1C61.2,48.4,60.8,49.6,60.8,51.3z"/>
	<path d="M71.8,56.7V45.6H74l2.6,7.9c0.2,0.7,0.4,1.3,0.5,1.6c0.1-0.4,0.3-1,0.6-1.8l2.7-7.8h2v11.1H81v-9.3l-3.2,9.3h-1.3l-3.2-9.5
		v9.5H71.8z"/>
</g>
<g class="st31">
	<path d="M9,75.4V64.2h4.2c0.7,0,1.3,0,1.7,0.1c0.5,0.1,1,0.3,1.4,0.5c0.4,0.3,0.7,0.6,0.9,1.1c0.2,0.5,0.3,1,0.3,1.5
		c0,0.9-0.3,1.8-0.9,2.4c-0.6,0.7-1.7,1-3.3,1h-2.9v4.5H9z M10.5,69.5h2.9c1,0,1.6-0.2,2-0.5c0.4-0.4,0.6-0.9,0.6-1.5
		c0-0.5-0.1-0.9-0.4-1.2c-0.2-0.3-0.5-0.6-0.9-0.7c-0.2-0.1-0.7-0.1-1.4-0.1h-2.9V69.5z"/>
	<path d="M17,75.4l4.3-11.1h1.6l4.6,11.1h-1.7L24.4,72h-4.7l-1.2,3.4H17z M20.2,70.8H24l-1.2-3.1c-0.4-0.9-0.6-1.7-0.8-2.3
		c-0.1,0.7-0.3,1.4-0.6,2.1L20.2,70.8z"/>
	<path d="M36.6,71.5l1.5,0.4c-0.3,1.2-0.9,2.1-1.7,2.8c-0.8,0.6-1.8,1-2.9,1c-1.2,0-2.2-0.2-2.9-0.7s-1.3-1.2-1.7-2.1
		s-0.6-1.9-0.6-3c0-1.2,0.2-2.2,0.7-3s1.1-1.5,1.9-2c0.8-0.4,1.7-0.7,2.7-0.7c1.1,0,2.1,0.3,2.8,0.9c0.8,0.6,1.3,1.4,1.6,2.4
		l-1.5,0.3c-0.3-0.8-0.6-1.4-1.1-1.8c-0.5-0.4-1.1-0.6-1.9-0.6c-0.9,0-1.6,0.2-2.1,0.6c-0.6,0.4-1,1-1.2,1.7
		c-0.2,0.7-0.3,1.4-0.3,2.1c0,0.9,0.1,1.8,0.4,2.5c0.3,0.7,0.7,1.2,1.3,1.6s1.2,0.5,1.9,0.5c0.8,0,1.5-0.2,2.1-0.7
		C36,73.1,36.4,72.4,36.6,71.5z"/>
	<path d="M39.8,75.4V64.2h1.5v5.5l5.5-5.5h2l-4.7,4.5l4.9,6.6h-1.9l-4-5.6l-1.8,1.8v3.9H39.8z"/>
	<path d="M49,75.4l4.3-11.1h1.6l4.6,11.1h-1.7L56.5,72h-4.7l-1.2,3.4H49z M52.2,70.8H56l-1.2-3.1c-0.4-0.9-0.6-1.7-0.8-2.3
		c-0.1,0.7-0.3,1.4-0.6,2.1L52.2,70.8z"/>
	<path d="M65.8,71v-1.3l4.7,0v4.1c-0.7,0.6-1.5,1-2.2,1.3c-0.8,0.3-1.6,0.4-2.4,0.4c-1.1,0-2.1-0.2-3-0.7c-0.9-0.5-1.6-1.1-2-2
		c-0.5-0.9-0.7-1.9-0.7-3c0-1.1,0.2-2.1,0.7-3c0.5-0.9,1.1-1.6,2-2.1s1.8-0.7,2.9-0.7c0.8,0,1.5,0.1,2.2,0.4
		c0.7,0.3,1.2,0.6,1.5,1.1c0.4,0.5,0.7,1.1,0.8,1.8l-1.3,0.4c-0.2-0.6-0.4-1-0.6-1.3s-0.6-0.6-1.1-0.8c-0.5-0.2-1-0.3-1.5-0.3
		c-0.7,0-1.3,0.1-1.7,0.3c-0.5,0.2-0.9,0.5-1.2,0.8c-0.3,0.3-0.5,0.7-0.7,1.1c-0.3,0.7-0.4,1.4-0.4,2.2c0,1,0.2,1.8,0.5,2.5
		c0.3,0.7,0.8,1.2,1.5,1.5c0.7,0.3,1.3,0.5,2.1,0.5c0.6,0,1.3-0.1,1.9-0.4c0.6-0.2,1.1-0.5,1.4-0.8V71H65.8z"/>
	<path d="M73,75.4V64.2h1.5v11.1H73z"/>
	<path d="M77,75.4V64.2h1.5l5.9,8.8v-8.8h1.4v11.1h-1.5l-5.9-8.8v8.8H77z"/>
	<path d="M93.5,71v-1.3l4.7,0v4.1c-0.7,0.6-1.5,1-2.2,1.3c-0.8,0.3-1.6,0.4-2.4,0.4c-1.1,0-2.1-0.2-3-0.7c-0.9-0.5-1.6-1.1-2-2
		c-0.5-0.9-0.7-1.9-0.7-3c0-1.1,0.2-2.1,0.7-3c0.5-0.9,1.1-1.6,2-2.1s1.8-0.7,2.9-0.7c0.8,0,1.5,0.1,2.2,0.4
		c0.7,0.3,1.2,0.6,1.5,1.1c0.4,0.5,0.7,1.1,0.8,1.8l-1.3,0.4c-0.2-0.6-0.4-1-0.6-1.3s-0.6-0.6-1.1-0.8c-0.5-0.2-1-0.3-1.5-0.3
		c-0.7,0-1.3,0.1-1.7,0.3c-0.5,0.2-0.9,0.5-1.2,0.8c-0.3,0.3-0.5,0.7-0.7,1.1c-0.3,0.7-0.4,1.4-0.4,2.2c0,1,0.2,1.8,0.5,2.5
		c0.3,0.7,0.8,1.2,1.5,1.5c0.7,0.3,1.3,0.5,2.1,0.5c0.6,0,1.3-0.1,1.9-0.4c0.6-0.2,1.1-0.5,1.4-0.8V71H93.5z"/>
</g>
<text transform="matrix(1 0 0 1 7.78 197.2272)" style="font-family:'ArialMT'; font-size:15.5733px;">  CUSTOM</text>
<text transform="matrix(1 0 0 1 7.78 215.901)" style="font-family:'ArialMT'; font-size:15.5733px;">PACKAGING</text>
</svg>
