<?xml version="1.0" encoding="utf-8"?>
<!-- Generator: Adobe Illustrator 24.0.3, SVG Export Plug-In . SVG Version: 6.00 Build 0)  -->
<svg version="1.1" id="Layer_1" xmlns="http://www.w3.org/2000/svg" xmlns:xlink="http://www.w3.org/1999/xlink" x="0px" y="0px"
	 viewBox="0 0 106.97 123.83" style="enable-background:new 0 0 106.97 123.83;" xml:space="preserve">
<style type="text/css">
	.st0{fill:#FCFDFD;stroke:#090405;stroke-width:0.2482;stroke-miterlimit:10;}
	.st1{fill:#FFFFFF;}
	.st2{fill:#FFEE00;stroke:#FFFFFF;stroke-width:0.0117;stroke-miterlimit:10;}
	.st3{fill:#FF0056;stroke:#FFFFFF;stroke-width:0.0117;stroke-miterlimit:10;}
	.st4{fill:#251F1F;stroke:#FFFFFF;stroke-width:0.0117;stroke-miterlimit:10;}
	.st5{fill:#00A7E6;stroke:#FFFFFF;stroke-width:0.0117;stroke-miterlimit:10;}
	.st6{fill:#ADAEA4;}
	.st7{fill:#251F1F;}
	.st8{fill:none;stroke:#FFFFFF;stroke-width:0.0117;stroke-miterlimit:10;}
	.st9{fill:none;stroke:#251F20;stroke-width:0.5998;stroke-linejoin:round;stroke-miterlimit:10;stroke-dasharray:1.1997,1.1997;}
	.st10{fill:none;stroke:#090405;stroke-width:0.3662;stroke-miterlimit:10;}
	.st11{fill:#FCFDFD;stroke:#090405;stroke-width:0.9766;stroke-miterlimit:10;}
	.st12{fill:#FFFFFF;stroke:#241F20;stroke-width:0.4883;stroke-miterlimit:10;}
	.st13{fill:#009CDA;}
	.st14{fill:#FBE800;}
	.st15{fill:#FF0057;}
	.st16{fill:#010101;}
	.st17{fill:none;stroke:#13080A;stroke-width:0.7501;stroke-miterlimit:10;}
	.st18{fill:#FCFDFD;stroke:#090405;stroke-width:0.1875;stroke-miterlimit:10;}
	.st19{fill:#FFEE00;stroke:#FFFFFF;stroke-width:8.872499e-03;stroke-miterlimit:10;}
	.st20{fill:#FF0056;stroke:#FFFFFF;stroke-width:8.872499e-03;stroke-miterlimit:10;}
	.st21{fill:#251F1F;stroke:#FFFFFF;stroke-width:8.872499e-03;stroke-miterlimit:10;}
	.st22{fill:#00A7E6;stroke:#FFFFFF;stroke-width:8.872499e-03;stroke-miterlimit:10;}
	.st23{fill:none;stroke:#FFFFFF;stroke-width:8.872499e-03;stroke-miterlimit:10;}
	.st24{fill:none;stroke:#251F20;stroke-width:0.4532;stroke-linejoin:round;stroke-miterlimit:10;stroke-dasharray:0.9065,0.9065;}
	.st25{fill:none;stroke:#090405;stroke-width:0.2767;stroke-miterlimit:10;}
	.st26{fill:#FCFDFD;stroke:#090405;stroke-width:0.7379;stroke-miterlimit:10;}
	.st27{fill:#FFFFFF;stroke:#241F20;stroke-width:0.369;stroke-miterlimit:10;}
	.st28{fill:#FFEE00;}
	.st29{fill:#FF0056;}
	.st30{fill:#00A7E6;}
</style>
<g>
	<g>
		<path class="st6" d="M36.29,73.3C34.17,80.53,32,87.74,29.97,95c-0.48,1.73-1.1,2.15-2.83,1.52c-2.62-0.96-5.34-1.62-8.02-2.42
			c-0.78-0.23-1.38-0.43-1.06-1.58c3.75-13.39,7.52-26.77,11.1-40.21c1.39-5.23,4.13-8.74,9.62-9.92c2.11-0.46,4.11-1.47,6.21-2.25
			c-1.37-3.91-2.24-7.64-1.47-11.58c1.21-6.24,6.54-9.72,12.39-8.03c3.93,1.14,6.3,4.67,6.46,9.86c0.05,1.6-0.08,3.22-0.29,4.8
			c-0.21,1.51-0.64,3-1.04,4.76c2.48,0.92,4.91,2.06,7.47,2.73c4.45,1.18,7.2,3.78,8.34,8.28c2.27,8.93,4.71,17.81,7.02,26.72
			c1.26,4.83,2.37,9.7,3.64,14.53c0.3,1.14,0.02,1.61-1.06,1.92c-2.86,0.8-5.72,1.62-8.54,2.55c-1.32,0.44-1.74,0.04-2.06-1.22
			c-1.77-7.03-3.62-14.04-5.44-21.06c-0.07-0.27-0.13-0.54-0.19-0.81c-0.15,0.01-0.31,0.03-0.46,0.04
			c0.44,8.13,0.87,16.26,1.32,24.55c-0.78,0.05-1.42,0.12-2.05,0.12c-10.66,0.01-21.32-0.03-31.98,0.04
			c-1.62,0.01-1.98-0.45-1.87-2.04c0.52-7.66,0.9-15.32,1.33-22.98C36.44,73.3,36.36,73.3,36.29,73.3z M59.64,40.37
			c1.53-3.59,1.98-7.04,1.73-10.58c-0.21-2.87-0.98-5.55-3.51-7.3c-5.05-3.49-11.74-0.66-13.24,5.57c-0.91,3.79-0.32,7.47,1.1,11.01
			c0.45,1.13,0.18,1.66-0.82,2.05c-1.66,0.65-3.32,1.3-4.98,1.94c-2.14,0.83-4.29,1.64-6,2.3c0.98,3.51,2.2,6.63,2.68,9.87
			c0.6,4.05,0.88,8.19,0.78,12.28c-0.22,9.28-0.76,18.56-1.16,27.84c-0.03,0.62,0,1.25,0,1.89c11.31,0,22.48,0,33.77,0
			c0-0.68,0.02-1.26,0-1.84c-0.36-10.41-0.87-20.82-1.03-31.23c-0.09-6.39-0.03-12.87,3.8-18.73C68.34,43.73,64.1,42.09,59.64,40.37
			z M73.82,46.03c-0.5,0.64-0.76,0.88-0.91,1.18c-0.5,0.95-1.11,1.87-1.41,2.88c-1.8,6.02-2.37,12.3-1.22,18.37
			c1.72,9.03,4.32,17.9,6.56,26.83c0.05,0.2,0.26,0.36,0.42,0.55c3.17-0.96,6.29-1.9,9.44-2.85c-0.6-2.44-1.15-4.69-1.72-6.93
			c-2.85-11.11-5.66-22.23-8.59-33.32C75.82,50.54,74.77,48.47,73.82,46.03z M28.77,95.95c1.98-7.01,3.93-13.79,5.8-20.6
			c1.14-4.13,2.08-8.3,1.74-12.65c-0.35-4.44-0.32-8.93-2.01-13.16c-0.4-0.99-0.93-1.91-1.4-2.87c-0.21,0.02-0.41,0.05-0.62,0.07
			c-5.75,14.98-7.61,31.09-13.54,46.18C22.2,93.98,25.31,94.91,28.77,95.95z"/>
		<path class="st6" d="M59.64,40.37c4.45,1.72,8.7,3.36,13.12,5.06c-3.83,5.86-3.9,12.34-3.8,18.73
			c0.15,10.41,0.67,20.82,1.03,31.23c0.02,0.58,0,1.16,0,1.84c-11.29,0-22.46,0-33.77,0c0-0.64-0.02-1.27,0-1.89
			c0.4-9.28,0.94-18.55,1.16-27.84c0.1-4.09-0.18-8.23-0.78-12.28c-0.48-3.24-1.7-6.36-2.68-9.87c1.71-0.65,3.86-1.47,6-2.3
			c1.66-0.64,3.32-1.29,4.98-1.94c1-0.39,1.28-0.92,0.82-2.05c-1.42-3.54-2.01-7.22-1.1-11.01c1.5-6.22,8.19-9.05,13.24-5.57
			c2.53,1.75,3.3,4.43,3.51,7.3C61.63,33.33,61.17,36.79,59.64,40.37z M52.92,91.38c3.57,0,7.15-0.05,10.72,0.03
			c1.35,0.03,1.77-0.43,1.71-1.75c-0.1-1.96,0.03-3.93-0.06-5.89c-0.02-0.58-0.28-1.33-0.7-1.68c-2.08-1.73-3.46-3.86-4.42-6.37
			c-0.21-0.56-1.17-1.15-1.81-1.17c-3.75-0.11-7.5-0.01-11.25-0.08c-1.13-0.02-1.47,0.47-1.81,1.46c-0.49,1.43-0.97,3.16-2.05,4.03
			c-2.54,2.07-3.1,4.57-2.75,7.56c0.08,0.7,0.07,1.43,0,2.14c-0.13,1.3,0.34,1.78,1.7,1.75C45.77,91.33,49.34,91.38,52.92,91.38z
			 M59.17,30.98c-0.44-1.52-0.76-3.08-1.34-4.54c-0.84-2.1-2.61-3.01-4.8-3.04c-2.19-0.03-3.89,0.89-4.99,2.83
			c-2.75,4.88-1.03,11.48,3.8,14.31c0.5,0.29,1.51,0.27,2.01-0.05C57.28,38.33,58.87,35.1,59.17,30.98z M49.64,50.52
			c0.45-0.43,0.66-0.53,0.67-0.65c0.12-2.54,0.24-5.09,0.27-7.63c0-0.29-0.57-0.58-0.87-0.88c-0.26,0.4-0.77,0.8-0.75,1.19
			c0.08,1.98,0.29,3.96,0.47,5.94C49.47,49.07,49.54,49.64,49.64,50.52z M55.79,50.24c0.13-0.01,0.26-0.02,0.39-0.03
			c0.06-0.59,0.13-1.18,0.18-1.78c0.18-1.96,0.4-3.92,0.49-5.89c0.02-0.38-0.5-0.78-0.77-1.17c-0.28,0.31-0.78,0.62-0.79,0.94
			c-0.04,2.37,0.01,4.73,0.08,7.1C55.37,49.69,55.64,49.96,55.79,50.24z"/>
		<path class="st6" d="M73.82,46.03c0.95,2.44,2,4.51,2.58,6.71c2.93,11.09,5.74,22.21,8.59,33.32c0.57,2.24,1.12,4.5,1.72,6.93
			c-3.16,0.95-6.27,1.89-9.44,2.85c-0.15-0.2-0.37-0.35-0.42-0.55c-2.24-8.93-4.84-17.8-6.56-26.83
			c-1.15-6.07-0.58-12.34,1.22-18.37c0.3-1.01,0.91-1.93,1.41-2.88C73.07,46.91,73.32,46.67,73.82,46.03z"/>
		<path class="st6" d="M28.77,95.95c-3.46-1.04-6.56-1.97-10.04-3.01c5.93-15.09,7.79-31.2,13.54-46.18
			c0.21-0.02,0.41-0.05,0.62-0.07c0.47,0.95,1.01,1.88,1.4,2.87c1.69,4.22,1.67,8.72,2.01,13.16c0.34,4.35-0.6,8.52-1.74,12.65
			C32.69,82.15,30.74,88.93,28.77,95.95z"/>
		<path class="st6" d="M52.92,91.38c-3.57,0-7.15-0.06-10.72,0.03c-1.36,0.03-1.83-0.45-1.7-1.75c0.07-0.71,0.08-1.44,0-2.14
			c-0.35-2.99,0.21-5.5,2.75-7.56c1.07-0.87,1.56-2.6,2.05-4.03c0.34-0.99,0.67-1.48,1.81-1.46c3.75,0.06,7.5-0.03,11.25,0.08
			c0.63,0.02,1.59,0.62,1.81,1.17c0.96,2.51,2.34,4.65,4.42,6.37c0.42,0.35,0.68,1.1,0.7,1.68c0.08,1.96-0.04,3.93,0.06,5.89
			c0.07,1.32-0.35,1.78-1.71,1.75C60.06,91.33,56.49,91.38,52.92,91.38z M64.3,90.36c0-2.3,0.03-4.49-0.03-6.67
			c-0.01-0.4-0.31-0.91-0.64-1.18c-1.91-1.61-3.26-3.57-4.14-5.91c-0.18-0.49-0.97-1.04-1.5-1.06c-3.5-0.09-7.01-0.08-10.52-0.01
			c-0.42,0.01-1.11,0.5-1.19,0.87c-0.55,2.45-2.07,4.22-3.81,5.89c-0.44,0.43-0.97,1.03-1,1.57c-0.12,2.12-0.05,4.24-0.05,6.49
			C49.08,90.36,56.54,90.36,64.3,90.36z"/>
		<path class="st6" d="M59.17,30.98c-0.3,4.12-1.9,7.34-5.33,9.52c-0.5,0.31-1.5,0.34-2.01,0.05c-4.83-2.83-6.55-9.43-3.8-14.31
			c1.09-1.94,2.8-2.86,4.99-2.83c2.2,0.03,3.96,0.94,4.8,3.04C58.42,27.9,58.73,29.47,59.17,30.98z M58.14,31.13
			c-0.37-1.41-0.61-2.88-1.14-4.23c-0.63-1.65-2.01-2.41-3.77-2.5c-1.89-0.1-3.36,0.61-4.33,2.25c-2.4,4.04-1.03,10.08,2.8,12.74
			c0.82,0.57,1.42,0.58,2.21-0.03C56.61,37.29,57.91,34.57,58.14,31.13z"/>
		<path class="st6" d="M49.64,50.52c-0.1-0.87-0.17-1.45-0.22-2.03c-0.17-1.98-0.38-3.96-0.47-5.94c-0.02-0.38,0.49-0.79,0.75-1.19
			c0.31,0.29,0.88,0.59,0.87,0.88c-0.03,2.54-0.15,5.09-0.27,7.63C50.3,49.98,50.09,50.09,49.64,50.52z"/>
		<path class="st6" d="M55.79,50.24c-0.15-0.28-0.42-0.55-0.42-0.83c-0.06-2.37-0.11-4.73-0.08-7.1c0-0.32,0.51-0.63,0.79-0.94
			c0.27,0.39,0.79,0.79,0.77,1.17c-0.09,1.97-0.31,3.93-0.49,5.89c-0.05,0.59-0.12,1.19-0.18,1.78
			C56.05,50.22,55.92,50.23,55.79,50.24z"/>
		<path class="st6" d="M64.3,90.36c-7.77,0-15.22,0-22.87,0c0-2.24-0.07-4.37,0.05-6.49c0.03-0.55,0.56-1.15,1-1.57
			c1.74-1.67,3.26-3.44,3.81-5.89c0.08-0.37,0.77-0.86,1.19-0.87c3.5-0.07,7.01-0.09,10.52,0.01c0.52,0.01,1.32,0.57,1.5,1.06
			c0.88,2.34,2.23,4.3,4.14,5.91c0.32,0.27,0.62,0.77,0.64,1.18C64.34,85.87,64.3,88.06,64.3,90.36z"/>
		<path class="st6" d="M58.14,31.13c-0.24,3.44-1.53,6.15-4.23,8.22c-0.79,0.61-1.39,0.6-2.21,0.03c-3.84-2.66-5.2-8.7-2.8-12.74
			c0.97-1.64,2.44-2.35,4.33-2.25c1.76,0.09,3.14,0.85,3.77,2.5C57.53,28.25,57.77,29.72,58.14,31.13z"/>
		<path class="st6" d="M60.04,59.95h-6.69v-2.42c0-0.5-0.36-0.92-0.86-1.08v-3.94c4.22,0.2,7.57,3.29,7.57,7.07
			C60.05,59.7,60.05,59.82,60.04,59.95z"/>
		<path class="st6" d="M50.76,57.52v2.44h-6.7c0.22-3.59,3.47-6.47,7.53-6.67v3.17C51.1,56.62,50.76,57.04,50.76,57.52z"/>
		<g>
			<path class="st6" d="M44.04,62.73h6.69v2.42c0,0.5,0.36,0.92,0.86,1.08v3.94c-4.22-0.2-7.57-3.29-7.57-7.07
				C44.03,62.98,44.03,62.85,44.04,62.73z"/>
			<path class="st6" d="M44.04,62.73h6.69v2.42c0,0.5,0.36,0.92,0.86,1.08v3.94c-4.22-0.2-7.57-3.29-7.57-7.07
				C44.03,62.98,44.03,62.85,44.04,62.73z"/>
		</g>
		<path class="st6" d="M53.32,65.16v-2.44h6.7c-0.22,3.59-3.47,6.47-7.53,6.67v-3.17C52.97,66.06,53.32,65.64,53.32,65.16z"/>
		<rect x="37.39" y="46.19" class="st6" width="28.93" height="38.4"/>
	</g>
	<g>
		<path d="M36.29,73.3C34.17,80.53,32,87.74,29.97,95c-0.48,1.73-1.1,2.15-2.83,1.52c-2.62-0.96-5.34-1.62-8.02-2.42
			c-0.78-0.23-1.38-0.43-1.06-1.58c3.75-13.39,7.52-26.77,11.1-40.21c1.39-5.23,4.13-8.74,9.62-9.92c2.11-0.46,4.11-1.47,6.21-2.25
			c-1.37-3.91-2.24-7.64-1.47-11.58c1.21-6.24,6.54-9.72,12.39-8.03c3.93,1.14,6.3,4.67,6.46,9.86c0.05,1.6-0.08,3.22-0.29,4.8
			c-0.21,1.51-0.64,3-1.04,4.76c2.48,0.92,4.91,2.06,7.47,2.73c4.45,1.18,7.2,3.78,8.34,8.28c2.27,8.93,4.71,17.81,7.02,26.72
			c1.26,4.83,2.37,9.7,3.64,14.53c0.3,1.14,0.02,1.61-1.06,1.92c-2.86,0.8-5.72,1.62-8.54,2.55c-1.32,0.44-1.74,0.04-2.06-1.22
			c-1.77-7.03-3.62-14.04-5.44-21.06c-0.07-0.27-0.13-0.54-0.19-0.81c-0.15,0.01-0.31,0.03-0.46,0.04
			c0.44,8.13,0.87,16.26,1.32,24.55c-0.78,0.05-1.42,0.12-2.05,0.12c-10.66,0.01-21.32-0.03-31.98,0.04
			c-1.62,0.01-1.98-0.45-1.87-2.04c0.52-7.66,0.9-15.32,1.33-22.98C36.44,73.3,36.36,73.3,36.29,73.3z M59.64,40.37
			c1.53-3.59,1.98-7.04,1.73-10.58c-0.21-2.87-0.98-5.55-3.51-7.3c-5.05-3.49-11.74-0.66-13.24,5.57c-0.91,3.79-0.32,7.47,1.1,11.01
			c0.45,1.13,0.18,1.66-0.82,2.05c-1.66,0.65-3.32,1.3-4.98,1.94c-2.14,0.83-4.29,1.64-6,2.3c0.98,3.51,2.2,6.63,2.68,9.87
			c0.6,4.05,0.88,8.19,0.78,12.28c-0.22,9.28-0.76,18.56-1.16,27.84c-0.03,0.62,0,1.25,0,1.89c11.31,0,22.48,0,33.77,0
			c0-0.68,0.02-1.26,0-1.84c-0.36-10.41-0.87-20.82-1.03-31.23c-0.09-6.39-0.03-12.87,3.8-18.73C68.34,43.73,64.1,42.09,59.64,40.37
			z M73.82,46.03c-0.5,0.64-0.76,0.88-0.91,1.18c-0.5,0.95-1.11,1.87-1.41,2.88c-1.8,6.02-2.37,12.3-1.22,18.37
			c1.72,9.03,4.32,17.9,6.56,26.83c0.05,0.2,0.26,0.36,0.42,0.55c3.17-0.96,6.29-1.9,9.44-2.85c-0.6-2.44-1.15-4.69-1.72-6.93
			c-2.85-11.11-5.66-22.23-8.59-33.32C75.82,50.54,74.77,48.47,73.82,46.03z M28.77,95.95c1.98-7.01,3.93-13.79,5.8-20.6
			c1.14-4.13,2.08-8.3,1.74-12.65c-0.35-4.44-0.32-8.93-2.01-13.16c-0.4-0.99-0.93-1.91-1.4-2.87c-0.21,0.02-0.41,0.05-0.62,0.07
			c-5.75,14.98-7.61,31.09-13.54,46.18C22.2,93.98,25.31,94.91,28.77,95.95z"/>
		<path class="st1" d="M59.64,40.37c4.45,1.72,8.7,3.36,13.12,5.06c-3.83,5.86-3.9,12.34-3.8,18.73
			c0.15,10.41,0.67,20.82,1.03,31.23c0.02,0.58,0,1.16,0,1.84c-11.29,0-22.46,0-33.77,0c0-0.64-0.02-1.27,0-1.89
			c0.4-9.28,0.94-18.55,1.16-27.84c0.1-4.09-0.18-8.23-0.78-12.28c-0.48-3.24-1.7-6.36-2.68-9.87c1.71-0.65,3.86-1.47,6-2.3
			c1.66-0.64,3.32-1.29,4.98-1.94c1-0.39,1.28-0.92,0.82-2.05c-1.42-3.54-2.01-7.22-1.1-11.01c1.5-6.22,8.19-9.05,13.24-5.57
			c2.53,1.75,3.3,4.43,3.51,7.3C61.63,33.33,61.17,36.79,59.64,40.37z M52.92,91.38c3.57,0,7.15-0.05,10.72,0.03
			c1.35,0.03,1.77-0.43,1.71-1.75c-0.1-1.96,0.03-3.93-0.06-5.89c-0.02-0.58-0.28-1.33-0.7-1.68c-2.08-1.73-3.46-3.86-4.42-6.37
			c-0.21-0.56-1.17-1.15-1.81-1.17c-3.75-0.11-7.5-0.01-11.25-0.08c-1.13-0.02-1.47,0.47-1.81,1.46c-0.49,1.43-0.97,3.16-2.05,4.03
			c-2.54,2.07-3.1,4.57-2.75,7.56c0.08,0.7,0.07,1.43,0,2.14c-0.13,1.3,0.34,1.78,1.7,1.75C45.77,91.33,49.34,91.38,52.92,91.38z
			 M59.17,30.98c-0.44-1.52-0.76-3.08-1.34-4.54c-0.84-2.1-2.61-3.01-4.8-3.04c-2.19-0.03-3.89,0.89-4.99,2.83
			c-2.75,4.88-1.03,11.48,3.8,14.31c0.5,0.29,1.51,0.27,2.01-0.05C57.28,38.33,58.87,35.1,59.17,30.98z M49.64,50.52
			c0.45-0.43,0.66-0.53,0.67-0.65c0.12-2.54,0.24-5.09,0.27-7.63c0-0.29-0.57-0.58-0.87-0.88c-0.26,0.4-0.77,0.8-0.75,1.19
			c0.08,1.98,0.29,3.96,0.47,5.94C49.47,49.07,49.54,49.64,49.64,50.52z M55.79,50.24c0.13-0.01,0.26-0.02,0.39-0.03
			c0.06-0.59,0.13-1.18,0.18-1.78c0.18-1.96,0.4-3.92,0.49-5.89c0.02-0.38-0.5-0.78-0.77-1.17c-0.28,0.31-0.78,0.62-0.79,0.94
			c-0.04,2.37,0.01,4.73,0.08,7.1C55.37,49.69,55.64,49.96,55.79,50.24z"/>
		<path class="st1" d="M73.82,46.03c0.95,2.44,2,4.51,2.58,6.71c2.93,11.09,5.74,22.21,8.59,33.32c0.57,2.24,1.12,4.5,1.72,6.93
			c-3.16,0.95-6.27,1.89-9.44,2.85c-0.15-0.2-0.37-0.35-0.42-0.55c-2.24-8.93-4.84-17.8-6.56-26.83
			c-1.15-6.07-0.58-12.34,1.22-18.37c0.3-1.01,0.91-1.93,1.41-2.88C73.07,46.91,73.32,46.67,73.82,46.03z"/>
		<path class="st1" d="M28.77,95.95c-3.46-1.04-6.56-1.97-10.04-3.01c5.93-15.09,7.79-31.2,13.54-46.18
			c0.21-0.02,0.41-0.05,0.62-0.07c0.47,0.95,1.01,1.88,1.4,2.87c1.69,4.22,1.67,8.72,2.01,13.16c0.34,4.35-0.6,8.52-1.74,12.65
			C32.69,82.15,30.74,88.93,28.77,95.95z"/>
		<path d="M52.92,91.38c-3.57,0-7.15-0.06-10.72,0.03c-1.36,0.03-1.83-0.45-1.7-1.75c0.07-0.71,0.08-1.44,0-2.14
			c-0.35-2.99,0.21-5.5,2.75-7.56c1.07-0.87,1.56-2.6,2.05-4.03c0.34-0.99,0.67-1.48,1.81-1.46c3.75,0.06,7.5-0.03,11.25,0.08
			c0.63,0.02,1.59,0.62,1.81,1.17c0.96,2.51,2.34,4.65,4.42,6.37c0.42,0.35,0.68,1.1,0.7,1.68c0.08,1.96-0.04,3.93,0.06,5.89
			c0.07,1.32-0.35,1.78-1.71,1.75C60.06,91.33,56.49,91.38,52.92,91.38z M64.3,90.36c0-2.3,0.03-4.49-0.03-6.67
			c-0.01-0.4-0.31-0.91-0.64-1.18c-1.91-1.61-3.26-3.57-4.14-5.91c-0.18-0.49-0.97-1.04-1.5-1.06c-3.5-0.09-7.01-0.08-10.52-0.01
			c-0.42,0.01-1.11,0.5-1.19,0.87c-0.55,2.45-2.07,4.22-3.81,5.89c-0.44,0.43-0.97,1.03-1,1.57c-0.12,2.12-0.05,4.24-0.05,6.49
			C49.08,90.36,56.54,90.36,64.3,90.36z"/>
		<path d="M59.17,30.98c-0.3,4.12-1.9,7.34-5.33,9.52c-0.5,0.31-1.5,0.34-2.01,0.05c-4.83-2.83-6.55-9.43-3.8-14.31
			c1.09-1.94,2.8-2.86,4.99-2.83c2.2,0.03,3.96,0.94,4.8,3.04C58.42,27.9,58.73,29.47,59.17,30.98z M58.14,31.13
			c-0.37-1.41-0.61-2.88-1.14-4.23c-0.63-1.65-2.01-2.41-3.77-2.5c-1.89-0.1-3.36,0.61-4.33,2.25c-2.4,4.04-1.03,10.08,2.8,12.74
			c0.82,0.57,1.42,0.58,2.21-0.03C56.61,37.29,57.91,34.57,58.14,31.13z"/>
		<path d="M49.64,50.52c-0.1-0.87-0.17-1.45-0.22-2.03c-0.17-1.98-0.38-3.96-0.47-5.94c-0.02-0.38,0.49-0.79,0.75-1.19
			c0.31,0.29,0.88,0.59,0.87,0.88c-0.03,2.54-0.15,5.09-0.27,7.63C50.3,49.98,50.09,50.09,49.64,50.52z"/>
		<path d="M55.79,50.24c-0.15-0.28-0.42-0.55-0.42-0.83c-0.06-2.37-0.11-4.73-0.08-7.1c0-0.32,0.51-0.63,0.79-0.94
			c0.27,0.39,0.79,0.79,0.77,1.17c-0.09,1.97-0.31,3.93-0.49,5.89c-0.05,0.59-0.12,1.19-0.18,1.78
			C56.05,50.22,55.92,50.23,55.79,50.24z"/>
		<path class="st1" d="M64.3,90.36c-7.77,0-15.22,0-22.87,0c0-2.24-0.07-4.37,0.05-6.49c0.03-0.55,0.56-1.15,1-1.57
			c1.74-1.67,3.26-3.44,3.81-5.89c0.08-0.37,0.77-0.86,1.19-0.87c3.5-0.07,7.01-0.09,10.52,0.01c0.52,0.01,1.32,0.57,1.5,1.06
			c0.88,2.34,2.23,4.3,4.14,5.91c0.32,0.27,0.62,0.77,0.64,1.18C64.34,85.87,64.3,88.06,64.3,90.36z"/>
		<path class="st1" d="M58.14,31.13c-0.24,3.44-1.53,6.15-4.23,8.22c-0.79,0.61-1.39,0.6-2.21,0.03c-3.84-2.66-5.2-8.7-2.8-12.74
			c0.97-1.64,2.44-2.35,4.33-2.25c1.76,0.09,3.14,0.85,3.77,2.5C57.53,28.25,57.77,29.72,58.14,31.13z"/>
		<path class="st2" d="M60.04,59.95h-6.69v-2.42c0-0.5-0.36-0.92-0.86-1.08v-3.94c4.22,0.2,7.57,3.29,7.57,7.07
			C60.05,59.7,60.05,59.82,60.04,59.95z"/>
		<path class="st3" d="M50.76,57.52v2.44h-6.7c0.22-3.59,3.47-6.47,7.53-6.67v3.17C51.1,56.62,50.76,57.04,50.76,57.52z"/>
		<g>
			<path class="st7" d="M44.04,62.73h6.69v2.42c0,0.5,0.36,0.92,0.86,1.08v3.94c-4.22-0.2-7.57-3.29-7.57-7.07
				C44.03,62.98,44.03,62.85,44.04,62.73z"/>
			<path class="st8" d="M44.04,62.73h6.69v2.42c0,0.5,0.36,0.92,0.86,1.08v3.94c-4.22-0.2-7.57-3.29-7.57-7.07
				C44.03,62.98,44.03,62.85,44.04,62.73z"/>
		</g>
		<path class="st5" d="M53.32,65.16v-2.44h6.7c-0.22,3.59-3.47,6.47-7.53,6.67v-3.17C52.97,66.06,53.32,65.64,53.32,65.16z"/>
		<rect x="37.39" y="46.19" class="st9" width="28.93" height="38.4"/>
	</g>
</g>
</svg>
