<?xml version="1.0" encoding="utf-8"?>
<!-- Generator: Adobe Illustrator 24.0.3, SVG Export Plug-In . SVG Version: 6.00 Build 0)  -->
<svg version="1.1" id="Layer_1" xmlns="http://www.w3.org/2000/svg" xmlns:xlink="http://www.w3.org/1999/xlink" x="0px" y="0px"
	 viewBox="0 0 106.97 123.83" style="enable-background:new 0 0 106.97 123.83;" xml:space="preserve">
<style type="text/css">
	.st0{fill:#FCFDFD;stroke:#090405;stroke-width:0.2482;stroke-miterlimit:10;}
	.st1{fill:#FFFFFF;}
	.st2{fill:#FFEE00;stroke:#FFFFFF;stroke-width:0.0117;stroke-miterlimit:10;}
	.st3{fill:#FF0056;stroke:#FFFFFF;stroke-width:0.0117;stroke-miterlimit:10;}
	.st4{fill:#251F1F;stroke:#FFFFFF;stroke-width:0.0117;stroke-miterlimit:10;}
	.st5{fill:#00A7E6;stroke:#FFFFFF;stroke-width:0.0117;stroke-miterlimit:10;}
	.st6{fill:#ADAEA4;}
	.st7{fill:#251F1F;}
	.st8{fill:none;stroke:#FFFFFF;stroke-width:0.0117;stroke-miterlimit:10;}
	.st9{fill:none;stroke:#251F20;stroke-width:0.5998;stroke-linejoin:round;stroke-miterlimit:10;stroke-dasharray:1.1997,1.1997;}
	.st10{fill:none;stroke:#090405;stroke-width:0.3662;stroke-miterlimit:10;}
	.st11{fill:#FCFDFD;stroke:#090405;stroke-width:0.9766;stroke-miterlimit:10;}
	.st12{fill:#FFFFFF;stroke:#241F20;stroke-width:0.4883;stroke-miterlimit:10;}
	.st13{fill:#009CDA;}
	.st14{fill:#FBE800;}
	.st15{fill:#FF0057;}
	.st16{fill:#010101;}
	.st17{fill:none;stroke:#13080A;stroke-width:0.7501;stroke-miterlimit:10;}
	.st18{fill:#FCFDFD;stroke:#090405;stroke-width:0.1875;stroke-miterlimit:10;}
	.st19{fill:#FFEE00;stroke:#FFFFFF;stroke-width:8.872499e-03;stroke-miterlimit:10;}
	.st20{fill:#FF0056;stroke:#FFFFFF;stroke-width:8.872499e-03;stroke-miterlimit:10;}
	.st21{fill:#251F1F;stroke:#FFFFFF;stroke-width:8.872499e-03;stroke-miterlimit:10;}
	.st22{fill:#00A7E6;stroke:#FFFFFF;stroke-width:8.872499e-03;stroke-miterlimit:10;}
	.st23{fill:none;stroke:#FFFFFF;stroke-width:8.872499e-03;stroke-miterlimit:10;}
	.st24{fill:none;stroke:#251F20;stroke-width:0.4532;stroke-linejoin:round;stroke-miterlimit:10;stroke-dasharray:0.9065,0.9065;}
	.st25{fill:none;stroke:#090405;stroke-width:0.2767;stroke-miterlimit:10;}
	.st26{fill:#FCFDFD;stroke:#090405;stroke-width:0.7379;stroke-miterlimit:10;}
	.st27{fill:#FFFFFF;stroke:#241F20;stroke-width:0.369;stroke-miterlimit:10;}
	.st28{fill:#FFEE00;}
	.st29{fill:#FF0056;}
	.st30{fill:#00A7E6;}
</style>
<g>
	<g>
		<rect x="29.4" y="30.16" class="st6" width="48.6" height="64.98"/>
		<path class="st6" d="M59.85,57.06l-5.53,0v-2c0-0.41-0.3-0.76-0.71-0.89v-3.25C57.21,51.08,60.04,53.8,59.85,57.06
			C59.85,57.06,59.85,57.06,59.85,57.06z"/>
		<path class="st6" d="M52.18,55.06v2.02h-5.54c0.18-2.97,2.87-5.35,6.22-5.51v2.62C52.47,54.31,52.18,54.66,52.18,55.06z"/>
		<g>
			<path class="st6" d="M46.63,59.36l5.53,0v2c0,0.41,0.3,0.76,0.71,0.89v3.25C49.27,65.34,46.44,62.62,46.63,59.36
				C46.63,59.36,46.63,59.36,46.63,59.36z"/>
			<path class="st6" d="M46.63,59.36l5.53,0v2c0,0.41,0.3,0.76,0.71,0.89v3.25C49.27,65.34,46.44,62.62,46.63,59.36
				C46.63,59.36,46.63,59.36,46.63,59.36z"/>
		</g>
		<path class="st6" d="M54.3,61.36v-2.02h5.54c-0.18,2.97-2.87,5.35-6.22,5.51v-2.62C54.01,62.11,54.3,61.77,54.3,61.36z"/>
	</g>
	<g>
		<rect x="29.4" y="30.16" class="st12" width="48.6" height="64.98"/>
		<path class="st2" d="M59.85,57.06l-5.53,0v-2c0-0.41-0.3-0.76-0.71-0.89v-3.25C57.21,51.08,60.04,53.8,59.85,57.06
			C59.85,57.06,59.85,57.06,59.85,57.06z"/>
		<path class="st3" d="M52.18,55.06v2.02h-5.54c0.18-2.97,2.87-5.35,6.22-5.51v2.62C52.47,54.31,52.18,54.66,52.18,55.06z"/>
		<g>
			<path class="st7" d="M46.63,59.36l5.53,0v2c0,0.41,0.3,0.76,0.71,0.89v3.25C49.27,65.34,46.44,62.62,46.63,59.36
				C46.63,59.36,46.63,59.36,46.63,59.36z"/>
			<path class="st8" d="M46.63,59.36l5.53,0v2c0,0.41,0.3,0.76,0.71,0.89v3.25C49.27,65.34,46.44,62.62,46.63,59.36
				C46.63,59.36,46.63,59.36,46.63,59.36z"/>
		</g>
		<path class="st5" d="M54.3,61.36v-2.02h5.54c-0.18,2.97-2.87,5.35-6.22,5.51v-2.62C54.01,62.11,54.3,61.77,54.3,61.36z"/>
	</g>
</g>
</svg>
