<?xml version="1.0" encoding="utf-8"?>
<!-- Generator: Adobe Illustrator 24.0.3, SVG Export Plug-In . SVG Version: 6.00 Build 0)  -->
<svg version="1.1" id="Layer_1" xmlns="http://www.w3.org/2000/svg" xmlns:xlink="http://www.w3.org/1999/xlink" x="0px" y="0px"
	 viewBox="0 0 106.97 123.83" style="enable-background:new 0 0 106.97 123.83;" xml:space="preserve">
<style type="text/css">
	.st0{fill:#FCFDFD;stroke:#090405;stroke-width:0.2482;stroke-miterlimit:10;}
	.st1{fill:#FFFFFF;}
	.st2{fill:#FFEE00;stroke:#FFFFFF;stroke-width:0.0117;stroke-miterlimit:10;}
	.st3{fill:#FF0056;stroke:#FFFFFF;stroke-width:0.0117;stroke-miterlimit:10;}
	.st4{fill:#251F1F;stroke:#FFFFFF;stroke-width:0.0117;stroke-miterlimit:10;}
	.st5{fill:#00A7E6;stroke:#FFFFFF;stroke-width:0.0117;stroke-miterlimit:10;}
	.st6{fill:#ADAEA4;}
	.st7{fill:#251F1F;}
	.st8{fill:none;stroke:#FFFFFF;stroke-width:0.0117;stroke-miterlimit:10;}
	.st9{fill:none;stroke:#251F20;stroke-width:0.5998;stroke-linejoin:round;stroke-miterlimit:10;stroke-dasharray:1.1997,1.1997;}
	.st10{fill:none;stroke:#090405;stroke-width:0.3662;stroke-miterlimit:10;}
	.st11{fill:#FCFDFD;stroke:#090405;stroke-width:0.9766;stroke-miterlimit:10;}
	.st12{fill:#FFFFFF;stroke:#241F20;stroke-width:0.4883;stroke-miterlimit:10;}
	.st13{fill:#009CDA;}
	.st14{fill:#FBE800;}
	.st15{fill:#FF0057;}
	.st16{fill:#010101;}
	.st17{fill:none;stroke:#13080A;stroke-width:0.7501;stroke-miterlimit:10;}
	.st18{fill:#FCFDFD;stroke:#090405;stroke-width:0.1875;stroke-miterlimit:10;}
	.st19{fill:#FFEE00;stroke:#FFFFFF;stroke-width:8.872499e-03;stroke-miterlimit:10;}
	.st20{fill:#FF0056;stroke:#FFFFFF;stroke-width:8.872499e-03;stroke-miterlimit:10;}
	.st21{fill:#251F1F;stroke:#FFFFFF;stroke-width:8.872499e-03;stroke-miterlimit:10;}
	.st22{fill:#00A7E6;stroke:#FFFFFF;stroke-width:8.872499e-03;stroke-miterlimit:10;}
	.st23{fill:none;stroke:#FFFFFF;stroke-width:8.872499e-03;stroke-miterlimit:10;}
	.st24{fill:none;stroke:#251F20;stroke-width:0.4532;stroke-linejoin:round;stroke-miterlimit:10;stroke-dasharray:0.9065,0.9065;}
	.st25{fill:none;stroke:#090405;stroke-width:0.2767;stroke-miterlimit:10;}
	.st26{fill:#FCFDFD;stroke:#090405;stroke-width:0.7379;stroke-miterlimit:10;}
	.st27{fill:#FFFFFF;stroke:#241F20;stroke-width:0.369;stroke-miterlimit:10;}
	.st28{fill:#FFEE00;}
	.st29{fill:#FF0056;}
	.st30{fill:#00A7E6;}
</style>
<g>
	<path d="M74.95,55.63c0,12.08,0,23.98,0,35.88c0,2.44,0,2.44-2.45,2.44c-12.77,0-25.54-0.03-38.31,0.04
		c-1.67,0.01-2.06-0.49-2.05-2.11c0.07-12.01,0.04-24.02,0.04-36.23c-2.56-0.27-5.1-0.62-7.65-0.77c-1.56-0.09-2.35-0.6-2.74-2.22
		c-1-4.18-2.19-8.32-3.39-12.45c-0.35-1.2-0.2-1.79,1.08-2.29c7.31-2.86,14.5-6.05,22.25-7.63c0.4-0.08,0.74-0.58,1.07-0.92
		c0.14-0.14,0.21-0.37,0.27-0.58c0.68-2.27,2.06-3.07,4.53-2.94c4.4,0.25,8.83,0.11,13.25,0.05c1.24-0.02,2.14,0.28,2.48,1.52
		c0.62,2.31,2.23,3.11,4.46,3.52c7.14,1.32,13.58,4.71,20.3,7.25c0.35,0.13,0.74,0.95,0.65,1.33c-1.18,4.75-2.42,9.49-3.76,14.19
		c-0.14,0.48-1.07,0.96-1.69,1.04C80.57,55.11,77.84,55.34,74.95,55.63z M33.19,92.81c13.66,0,27.14,0,40.65,0
		c0.04-0.43,0.09-0.75,0.09-1.07c0-11.47,0.01-22.95-0.01-34.42c0-0.57-0.18-1.15-0.36-1.7c-1.53-4.54-2.57-9.17-1.57-13.95
		c0.56-2.64,1.54-5.2,2.4-8.02c-3.19-0.8-6.55-1.69-9.95-2.44c-0.57-0.13-1.54,0.16-1.86,0.6c-1.31,1.76-2.44,3.65-3.62,5.5
		c-0.3,0.47-0.54,0.96-0.92,1.64c-0.91-1.09-1.64-1.95-2.67-3.18c0,3.86-0.07,7.24,0.03,10.61c0.05,1.52-0.7,1.64-1.88,1.64
		c-1.15,0.01-1.81-0.17-1.76-1.58c0.09-3.07,0.03-6.14,0.02-9.21c0-0.38-0.08-0.75-0.15-1.35c-0.97,1.11-1.76,2.01-2.73,3.11
		c-0.37-0.84-0.55-1.4-0.85-1.88c-1.17-1.85-2.35-3.7-3.6-5.5c-0.22-0.32-0.85-0.65-1.19-0.57c-3.59,0.85-7.16,1.79-10.88,2.74
		c3.78,7,3.55,13.99,1.5,21.11c-0.38,1.31-0.66,2.71-0.66,4.07c-0.05,10.61-0.03,21.22-0.03,31.84
		C33.19,91.43,33.19,92.07,33.19,92.81z M87.83,39.16c-3.6-1.45-7.15-2.81-10.64-4.31c-1.24-0.53-1.77-0.24-2.33,0.91
		c-2.86,5.92-2.74,11.95-0.76,18.05c0.11,0.34,0.78,0.73,1.15,0.71c2.63-0.19,5.25-0.45,7.87-0.79c0.4-0.05,0.97-0.53,1.08-0.92
		C85.44,48.32,86.61,43.8,87.83,39.16z M19.2,39.15c1.26,4.62,2.42,9.03,3.7,13.41c0.15,0.5,0.85,1.12,1.37,1.2
		c2.44,0.36,4.92,0.5,7.37,0.81c1.04,0.13,1.45-0.26,1.66-1.21c0.87-3.91,1.39-7.85,0.74-11.84c-0.41-2.53-1.23-4.96-2.66-7.23
		C27.27,35.93,23.29,37.51,19.2,39.15z M52.62,32.88C49.99,31,47.53,29.24,45,27.43c-0.45,0.84-0.77,1.45-0.95,1.78
		c1.86,2.61,3.61,5.07,5.42,7.6C50.39,35.67,51.45,34.35,52.62,32.88z M54.56,32.89c1.1,1.43,2.15,2.79,3.08,4
		c1.83-2.56,3.59-5.04,5.43-7.62c-0.24-0.46-0.57-1.1-0.94-1.82C59.56,29.3,57.17,31.02,54.56,32.89z M60.62,27.09
		c-4.78,0-9.35,0-14.15,0c1.44,1.34,2.76,2.13,4.6,1.95c1.65-0.16,3.34-0.14,5,0C57.89,29.18,59.29,28.56,60.62,27.09z M56.35,30.14
		c-1.9,0-3.66,0-5.58,0C53.99,32.69,53.12,32.85,56.35,30.14z M54.22,44.18c0-1.26,0-2.35,0-3.51c-0.5-0.03-0.89-0.06-1.33-0.09
		c0,1.3,0,2.49,0,3.71C53.38,44.26,53.79,44.22,54.22,44.18z M54.21,39.61c0.32-3.45,0.3-3.5-1.35-3.32c0,1.1,0,2.2,0,3.4
		C53.32,39.66,53.73,39.64,54.21,39.61z M52.61,45.36c0.26,0.58,0.46,1.1,0.75,1.56c0.03,0.05,0.75-0.14,0.86-0.36
		c0.16-0.32,0.04-0.77,0.04-1.19C53.72,45.36,53.32,45.36,52.61,45.36z"/>
	<path class="st1" d="M33.19,92.81c0-0.74,0-1.38,0-2.01c0-10.61-0.02-21.23,0.03-31.84c0.01-1.36,0.29-2.75,0.66-4.07
		c2.05-7.12,2.28-14.11-1.5-21.11c3.72-0.95,7.29-1.89,10.88-2.74c0.34-0.08,0.96,0.25,1.19,0.57c1.25,1.8,2.43,3.64,3.6,5.5
		c0.3,0.48,0.48,1.04,0.85,1.88c0.97-1.11,1.76-2,2.73-3.11c0.07,0.6,0.15,0.98,0.15,1.35c0.01,3.07,0.07,6.14-0.02,9.21
		c-0.04,1.41,0.61,1.59,1.76,1.58c1.18-0.01,1.93-0.12,1.88-1.64c-0.1-3.37-0.03-6.75-0.03-10.61c1.03,1.22,1.76,2.09,2.67,3.18
		c0.38-0.68,0.62-1.17,0.92-1.64c1.18-1.85,2.31-3.74,3.62-5.5c0.32-0.44,1.3-0.72,1.86-0.6c3.4,0.75,6.77,1.64,9.95,2.44
		c-0.86,2.82-1.84,5.37-2.4,8.02c-1,4.78,0.04,9.41,1.57,13.95c0.19,0.55,0.36,1.13,0.36,1.7c0.02,11.47,0.02,22.95,0.01,34.42
		c0,0.32-0.05,0.64-0.09,1.07C60.33,92.81,46.85,92.81,33.19,92.81z"/>
	<path class="st1" d="M87.83,39.16c-1.22,4.64-2.39,9.16-3.64,13.66c-0.11,0.39-0.68,0.87-1.08,0.92c-2.61,0.33-5.24,0.6-7.87,0.79
		c-0.38,0.03-1.05-0.37-1.15-0.71c-1.97-6.1-2.1-12.13,0.76-18.05c0.56-1.16,1.09-1.45,2.33-0.91
		C80.68,36.35,84.23,37.72,87.83,39.16z"/>
	<path class="st1" d="M19.2,39.15c4.09-1.63,8.07-3.22,12.19-4.86c1.43,2.27,2.24,4.7,2.66,7.23c0.65,3.99,0.13,7.93-0.74,11.84
		c-0.21,0.96-0.62,1.34-1.66,1.21c-2.45-0.31-4.93-0.46-7.37-0.81c-0.52-0.08-1.22-0.69-1.37-1.2
		C21.62,48.17,20.46,43.76,19.2,39.15z"/>
	<path class="st1" d="M52.62,32.88c-1.18,1.46-2.24,2.79-3.16,3.93c-1.81-2.53-3.56-4.99-5.42-7.6c0.18-0.34,0.5-0.94,0.95-1.78
		C47.53,29.24,49.99,31,52.62,32.88z"/>
	<path class="st1" d="M54.56,32.89c2.61-1.88,5-3.6,7.57-5.44c0.37,0.72,0.7,1.36,0.94,1.82c-1.84,2.58-3.61,5.06-5.43,7.62
		C56.71,35.68,55.65,34.32,54.56,32.89z"/>
	<path class="st1" d="M60.62,27.09c-1.33,1.47-2.73,2.1-4.55,1.95c-1.66-0.14-3.35-0.15-5,0c-1.84,0.18-3.16-0.6-4.6-1.95
		C51.27,27.09,55.84,27.09,60.62,27.09z"/>
	<path class="st1" d="M56.35,30.14c-3.23,2.71-2.36,2.55-5.58,0C52.69,30.14,54.45,30.14,56.35,30.14z"/>
	<path class="st1" d="M54.22,44.18c-0.44,0.04-0.84,0.07-1.33,0.11c0-1.22,0-2.41,0-3.71c0.44,0.03,0.84,0.05,1.33,0.09
		C54.22,41.83,54.22,42.92,54.22,44.18z"/>
	<path class="st1" d="M54.21,39.61c-0.48,0.03-0.89,0.05-1.35,0.08c0-1.2,0-2.3,0-3.4C54.51,36.11,54.53,36.16,54.21,39.61z"/>
	<path class="st1" d="M52.61,45.36c0.7,0,1.11,0,1.65,0c0,0.43,0.12,0.88-0.04,1.19c-0.11,0.22-0.83,0.42-0.86,0.36
		C53.07,46.46,52.87,45.94,52.61,45.36z"/>
	<path class="st2" d="M60.35,56.1h-5.87v-2.13c0-0.43-0.32-0.81-0.76-0.94v-3.45c3.7,0.18,6.63,2.88,6.63,6.2
		C60.36,55.89,60.36,56,60.35,56.1z"/>
	<path class="st3" d="M52.21,53.98v2.14h-5.88c0.2-3.15,3.04-5.67,6.6-5.85v2.78C52.52,53.19,52.21,53.55,52.21,53.98z"/>
	<path class="st4" d="M46.32,58.55h5.87v2.13c0,0.43,0.32,0.81,0.76,0.94v3.45c-3.7-0.18-6.63-2.88-6.63-6.2
		C46.31,58.76,46.31,58.65,46.32,58.55z"/>
	<path class="st5" d="M54.46,60.67v-2.14h5.88c-0.2,3.15-3.04,5.67-6.6,5.85v-2.78C54.16,61.46,54.46,61.1,54.46,60.67z"/>
</g>
</svg>
