<?xml version="1.0" encoding="utf-8"?>
<!-- Generator: Adobe Illustrator 24.0.3, SVG Export Plug-In . SVG Version: 6.00 Build 0)  -->
<svg version="1.1" id="Layer_1" xmlns="http://www.w3.org/2000/svg" xmlns:xlink="http://www.w3.org/1999/xlink" x="0px" y="0px"
	 viewBox="0 0 106.97 123.83" style="enable-background:new 0 0 106.97 123.83;" xml:space="preserve">
<style type="text/css">
	.st0{fill:#FCFDFD;stroke:#090405;stroke-width:0.2482;stroke-miterlimit:10;}
	.st1{fill:#FFFFFF;}
	.st2{fill:#FFEE00;stroke:#FFFFFF;stroke-width:0.0117;stroke-miterlimit:10;}
	.st3{fill:#FF0056;stroke:#FFFFFF;stroke-width:0.0117;stroke-miterlimit:10;}
	.st4{fill:#251F1F;stroke:#FFFFFF;stroke-width:0.0117;stroke-miterlimit:10;}
	.st5{fill:#00A7E6;stroke:#FFFFFF;stroke-width:0.0117;stroke-miterlimit:10;}
	.st6{fill:#ADAEA4;}
	.st7{fill:#251F1F;}
	.st8{fill:none;stroke:#FFFFFF;stroke-width:0.0117;stroke-miterlimit:10;}
	.st9{fill:none;stroke:#251F20;stroke-width:0.5998;stroke-linejoin:round;stroke-miterlimit:10;stroke-dasharray:1.1997,1.1997;}
	.st10{fill:none;stroke:#090405;stroke-width:0.3662;stroke-miterlimit:10;}
	.st11{fill:#FCFDFD;stroke:#090405;stroke-width:0.9766;stroke-miterlimit:10;}
	.st12{fill:#FFFFFF;stroke:#241F20;stroke-width:0.4883;stroke-miterlimit:10;}
	.st13{fill:#009CDA;}
	.st14{fill:#FBE800;}
	.st15{fill:#FF0057;}
	.st16{fill:#010101;}
	.st17{fill:none;stroke:#13080A;stroke-width:0.7501;stroke-miterlimit:10;}
	.st18{fill:#FCFDFD;stroke:#090405;stroke-width:0.1875;stroke-miterlimit:10;}
	.st19{fill:#FFEE00;stroke:#FFFFFF;stroke-width:8.872499e-03;stroke-miterlimit:10;}
	.st20{fill:#FF0056;stroke:#FFFFFF;stroke-width:8.872499e-03;stroke-miterlimit:10;}
	.st21{fill:#251F1F;stroke:#FFFFFF;stroke-width:8.872499e-03;stroke-miterlimit:10;}
	.st22{fill:#00A7E6;stroke:#FFFFFF;stroke-width:8.872499e-03;stroke-miterlimit:10;}
	.st23{fill:none;stroke:#FFFFFF;stroke-width:8.872499e-03;stroke-miterlimit:10;}
	.st24{fill:none;stroke:#251F20;stroke-width:0.4532;stroke-linejoin:round;stroke-miterlimit:10;stroke-dasharray:0.9065,0.9065;}
	.st25{fill:none;stroke:#090405;stroke-width:0.2767;stroke-miterlimit:10;}
	.st26{fill:#FCFDFD;stroke:#090405;stroke-width:0.7379;stroke-miterlimit:10;}
	.st27{fill:#FFFFFF;stroke:#241F20;stroke-width:0.369;stroke-miterlimit:10;}
	.st28{fill:#FFEE00;}
	.st29{fill:#FF0056;}
	.st30{fill:#00A7E6;}
</style>
<g>
	<g>
		<path class="st6" d="M94.24,57.42c-2.51,0-5.02,0-7.89,0c-0.08,1.02-0.22,2.02-0.22,3.02c0.03,9.38,0.11,18.76,0.11,28.14
			c0,2.61,0.27,4.84,3.43,5.51c0.6,0.13,0.99,1.26,1.82,2.4c-5.71,0-10.71,0-16.84,0c1.21-1.25,1.92-1.93,2.56-2.66
			c1.02-1.16,2.83-2.34,2.85-3.54c0.22-10.83,0.13-21.68,0.13-32.81c-2.14,0-4.16,0-6.51,0c0,10.86,0,21.67,0,32.66
			c-6.82,0-13.34,0.36-19.79-0.12c-4.47-0.34-7.83-4.61-8.36-9.12c-0.11-0.92-0.16-1.86-0.26-2.96c-0.9-0.1-1.71-0.21-2.52-0.28
			c-5.66-0.52-9.73-4.7-9.93-10.38c-0.11-3.23-0.02-6.47-0.02-9.9c-2.31,0-4.26,0-6.44,0c-0.08,1.03-0.22,1.95-0.22,2.87
			c-0.01,9.59,0.03,19.18-0.01,28.77c-0.01,2.44,0.45,4.32,3.22,5.03c0.69,0.18,1.13,1.31,2.09,2.5c-5.85,0-10.88,0-15.91,0
			c-0.18-0.23-0.36-0.46-0.54-0.69c0.75-0.68,1.54-1.31,2.23-2.04c0.99-1.07,2.7-2.2,2.72-3.34c0.26-9.9,0.21-19.81,0.24-29.71
			c0-1.03-0.09-2.07-0.15-3.52c-2.61,0-5.07,0-7.85,0c0-6.81-0.19-13.2,0.08-19.58c0.15-3.49,2.93-5.4,6.94-5.42
			c9.38-0.04,18.76-0.02,28.14-0.03c12.54-0.01,25.08,0.1,37.62-0.11c4.03-0.07,7.2,0.81,9.26,4.44
			C94.24,43.5,94.24,50.46,94.24,57.42z M91.23,54.74c0-5.13,0-9.65,0-14.18c0-5.18-0.67-5.85-5.79-5.85
			c-21.51,0-43.01,0-64.52,0.01c-0.95,0-2.12-0.3-2.79,0.14c-1.19,0.78-2.89,1.97-2.95,3.08c-0.3,5.44-0.14,10.91-0.14,16.59
			c6.02,0,11.74,0,17.61,0c0.09-1.05,0.2-1.87,0.22-2.69c0.08-4.16,0.07-4.16-4.04-4.16c-2.8,0-5.61,0-8.41,0c0-2.23,0-3.97,0-5.81
			c21.97,0,43.73,0,65.63,0c0,1.95,0,3.69,0,5.81c-4.15,0-8.11,0-12.42,0c0,2.04-0.16,3.73,0.08,5.35c0.1,0.64,1.08,1.61,1.69,1.63
			C80.54,54.8,85.68,54.74,91.23,54.74z"/>
	</g>
	<g>
		<path class="st1" d="M94.24,57.42c-2.51,0-5.02,0-7.89,0c-0.08,1.02-0.22,2.02-0.22,3.02c0.03,9.38,0.11,18.76,0.11,28.14
			c0,2.61,0.27,4.84,3.43,5.51c0.6,0.13,0.99,1.26,1.82,2.4c-5.71,0-10.71,0-16.84,0c1.21-1.25,1.92-1.93,2.56-2.66
			c1.02-1.16,2.83-2.34,2.85-3.54c0.22-10.83,0.13-21.68,0.13-32.81c-2.14,0-4.16,0-6.51,0c0,10.86,0,21.67,0,32.66
			c-6.82,0-13.34,0.36-19.79-0.12c-4.47-0.34-7.83-4.61-8.36-9.12c-0.11-0.92-0.16-1.86-0.26-2.96c-0.9-0.1-1.71-0.21-2.52-0.28
			c-5.66-0.52-9.73-4.7-9.93-10.38c-0.11-3.23-0.02-6.47-0.02-9.9c-2.31,0-4.26,0-6.44,0c-0.08,1.03-0.22,1.95-0.22,2.87
			c-0.01,9.59,0.03,19.18-0.01,28.77c-0.01,2.44,0.45,4.32,3.22,5.03c0.69,0.18,1.13,1.31,2.09,2.5c-5.85,0-10.88,0-15.91,0
			c-0.18-0.23-0.36-0.46-0.54-0.69c0.75-0.68,1.54-1.31,2.23-2.04c0.99-1.07,2.7-2.2,2.72-3.34c0.26-9.9,0.21-19.81,0.24-29.71
			c0-1.03-0.09-2.07-0.15-3.52c-2.61,0-5.07,0-7.85,0c0-6.81-0.19-13.2,0.08-19.58c0.15-3.49,2.93-5.4,6.94-5.42
			c9.38-0.04,18.76-0.02,28.14-0.03c12.54-0.01,25.08,0.1,37.62-0.11c4.03-0.07,7.2,0.81,9.26,4.44
			C94.24,43.5,94.24,50.46,94.24,57.42z M91.23,54.74c0-5.13,0-9.65,0-14.18c0-5.18-0.67-5.85-5.79-5.85
			c-21.51,0-43.01,0-64.52,0.01c-0.95,0-2.12-0.3-2.79,0.14c-1.19,0.78-2.89,1.97-2.95,3.08c-0.3,5.44-0.14,10.91-0.14,16.59
			c6.02,0,11.74,0,17.61,0c0.09-1.05,0.2-1.87,0.22-2.69c0.08-4.16,0.07-4.16-4.04-4.16c-2.8,0-5.61,0-8.41,0c0-2.23,0-3.97,0-5.81
			c21.97,0,43.73,0,65.63,0c0,1.95,0,3.69,0,5.81c-4.15,0-8.11,0-12.42,0c0,2.04-0.16,3.73,0.08,5.35c0.1,0.64,1.08,1.61,1.69,1.63
			C80.54,54.8,85.68,54.74,91.23,54.74z"/>
	</g>
	<g>
		<path class="st10" d="M94.24,57.42c-2.51,0-5.02,0-7.89,0c-0.08,1.02-0.22,2.02-0.22,3.02c0.03,9.38,0.11,18.76,0.11,28.14
			c0,2.61,0.27,4.84,3.43,5.51c0.6,0.13,0.99,1.26,1.82,2.4c-5.71,0-10.71,0-16.84,0c1.21-1.25,1.92-1.93,2.56-2.66
			c1.02-1.16,2.83-2.34,2.85-3.54c0.22-10.83,0.13-21.68,0.13-32.81c-2.14,0-4.16,0-6.51,0c0,10.86,0,21.67,0,32.66
			c-6.82,0-13.34,0.36-19.79-0.12c-4.47-0.34-7.83-4.61-8.36-9.12c-0.11-0.92-0.16-1.86-0.26-2.96c-0.9-0.1-1.71-0.21-2.52-0.28
			c-5.66-0.52-9.73-4.7-9.93-10.38c-0.11-3.23-0.02-6.47-0.02-9.9c-2.31,0-4.26,0-6.44,0c-0.08,1.03-0.22,1.95-0.22,2.87
			c-0.01,9.59,0.03,19.18-0.01,28.77c-0.01,2.44,0.45,4.32,3.22,5.03c0.69,0.18,1.13,1.31,2.09,2.5c-5.85,0-10.88,0-15.91,0
			c-0.18-0.23-0.36-0.46-0.54-0.69c0.75-0.68,1.54-1.31,2.23-2.04c0.99-1.07,2.7-2.2,2.72-3.34c0.26-9.9,0.21-19.81,0.24-29.71
			c0-1.03-0.09-2.07-0.15-3.52c-2.61,0-5.07,0-7.85,0c0-6.81-0.19-13.2,0.08-19.58c0.15-3.49,2.93-5.4,6.94-5.42
			c9.38-0.04,18.76-0.02,28.14-0.03c12.54-0.01,25.08,0.1,37.62-0.11c4.03-0.07,7.2,0.81,9.26,4.44
			C94.24,43.5,94.24,50.46,94.24,57.42z M91.23,54.74c0-5.13,0-9.65,0-14.18c0-5.18-0.67-5.85-5.79-5.85
			c-21.51,0-43.01,0-64.52,0.01c-0.95,0-2.12-0.3-2.79,0.14c-1.19,0.78-2.89,1.97-2.95,3.08c-0.3,5.44-0.14,10.91-0.14,16.59
			c6.02,0,11.74,0,17.61,0c0.09-1.05,0.2-1.87,0.22-2.69c0.08-4.16,0.07-4.16-4.04-4.16c-2.8,0-5.61,0-8.41,0c0-2.23,0-3.97,0-5.81
			c21.97,0,43.73,0,65.63,0c0,1.95,0,3.69,0,5.81c-4.15,0-8.11,0-12.42,0c0,2.04-0.16,3.73,0.08,5.35c0.1,0.64,1.08,1.61,1.69,1.63
			C80.54,54.8,85.68,54.74,91.23,54.74z"/>
	</g>
</g>
<path class="st28" d="M62.65,57.61h-5.53v-2c0-0.41-0.3-0.76-0.71-0.89v-3.25c3.49,0.17,6.25,2.72,6.25,5.84
	C62.66,57.4,62.66,57.5,62.65,57.61z"/>
<path class="st29" d="M54.98,55.6v2.02h-5.54c0.18-2.97,2.87-5.35,6.22-5.51v2.62C55.27,54.86,54.98,55.2,54.98,55.6z"/>
<path class="st7" d="M49.43,59.91h5.53v2c0,0.41,0.3,0.76,0.71,0.89v3.25c-3.49-0.17-6.25-2.72-6.25-5.84
	C49.42,60.11,49.42,60.01,49.43,59.91z"/>
<path class="st30" d="M57.1,61.91v-2.02h5.54c-0.18,2.97-2.87,5.35-6.22,5.51v-2.62C56.81,62.65,57.1,62.31,57.1,61.91z"/>
</svg>
