<?xml version="1.0" encoding="utf-8"?>
<!-- Generator: Adobe Illustrator 24.0.3, SVG Export Plug-In . SVG Version: 6.00 Build 0)  -->
<svg version="1.1" id="Layer_1" xmlns="http://www.w3.org/2000/svg" xmlns:xlink="http://www.w3.org/1999/xlink" x="0px" y="0px"
	 viewBox="0 0 106.97 123.83" style="enable-background:new 0 0 106.97 123.83;" xml:space="preserve">
<style type="text/css">
	.st0{fill:#FCFDFD;stroke:#090405;stroke-width:0.2482;stroke-miterlimit:10;}
	.st1{fill:#FFFFFF;}
	.st2{fill:#FFEE00;stroke:#FFFFFF;stroke-width:0.0117;stroke-miterlimit:10;}
	.st3{fill:#FF0056;stroke:#FFFFFF;stroke-width:0.0117;stroke-miterlimit:10;}
	.st4{fill:#251F1F;stroke:#FFFFFF;stroke-width:0.0117;stroke-miterlimit:10;}
	.st5{fill:#00A7E6;stroke:#FFFFFF;stroke-width:0.0117;stroke-miterlimit:10;}
	.st6{fill:#ADAEA4;}
	.st7{fill:#251F1F;}
	.st8{fill:none;stroke:#FFFFFF;stroke-width:0.0117;stroke-miterlimit:10;}
	.st9{fill:none;stroke:#251F20;stroke-width:0.5998;stroke-linejoin:round;stroke-miterlimit:10;stroke-dasharray:1.1997,1.1997;}
	.st10{fill:none;stroke:#090405;stroke-width:0.3662;stroke-miterlimit:10;}
	.st11{fill:#FCFDFD;stroke:#090405;stroke-width:0.9766;stroke-miterlimit:10;}
	.st12{fill:#FFFFFF;stroke:#241F20;stroke-width:0.4883;stroke-miterlimit:10;}
	.st13{fill:#009CDA;}
	.st14{fill:#FBE800;}
	.st15{fill:#FF0057;}
	.st16{fill:#010101;}
	.st17{fill:none;stroke:#13080A;stroke-width:0.7501;stroke-miterlimit:10;}
	.st18{fill:#FCFDFD;stroke:#090405;stroke-width:0.1875;stroke-miterlimit:10;}
	.st19{fill:#FFEE00;stroke:#FFFFFF;stroke-width:8.872499e-03;stroke-miterlimit:10;}
	.st20{fill:#FF0056;stroke:#FFFFFF;stroke-width:8.872499e-03;stroke-miterlimit:10;}
	.st21{fill:#251F1F;stroke:#FFFFFF;stroke-width:8.872499e-03;stroke-miterlimit:10;}
	.st22{fill:#00A7E6;stroke:#FFFFFF;stroke-width:8.872499e-03;stroke-miterlimit:10;}
	.st23{fill:none;stroke:#FFFFFF;stroke-width:8.872499e-03;stroke-miterlimit:10;}
	.st24{fill:none;stroke:#251F20;stroke-width:0.4532;stroke-linejoin:round;stroke-miterlimit:10;stroke-dasharray:0.9065,0.9065;}
	.st25{fill:none;stroke:#090405;stroke-width:0.2767;stroke-miterlimit:10;}
	.st26{fill:#FCFDFD;stroke:#090405;stroke-width:0.7379;stroke-miterlimit:10;}
	.st27{fill:#FFFFFF;stroke:#241F20;stroke-width:0.369;stroke-miterlimit:10;}
	.st28{fill:#FFEE00;}
	.st29{fill:#FF0056;}
	.st30{fill:#00A7E6;}
</style>
<g>
	<path class="st1" d="M38.94,36.33c0.22-1.26,0.42-2.4,0.62-3.61c6.38,0,12.7,0,19.18,0c-0.07,1.2-0.14,2.34-0.21,3.61
		C52.03,36.33,45.58,36.33,38.94,36.33z"/>
	<g>
		<path d="M49.29,31.64c2.98,0,5.97,0.05,8.95-0.02c1.22-0.03,1.69,0.35,1.52,1.59c-0.85,6.34-1.58,12.7-2.52,19.02
			c-0.75,5.07-1.71,10.1-2.61,15.15c-0.77,4.31,0.57,7.86,3.63,10.91c5,4.97,11.09,8.06,17.6,10.48c1.2,0.45,2.43,1.11,3.33,2
			c1.62,1.61,0.99,3.73-1.17,4.51c-0.55,0.2-1.14,0.35-1.71,0.36c-4.64,0.11-9.29,0.37-13.92,0.19c-1.97-0.08-4.07-0.77-5.81-1.74
			c-3.77-2.09-7.73-3.45-11.94-4.26c-1.47-0.28-2.94-0.77-4.28-1.43c-2.82-1.39-3.63-3.75-2.65-6.72c2.63-7.92,2.97-15.96,1.4-24.15
			c-1.51-7.86-2.14-15.78-0.77-23.75c0.37-2.16,0.37-2.16,2.59-2.16C43.72,31.64,46.51,31.64,49.29,31.64z M57.3,46.2
			c-6.3,0-12.39,0-18.7,0c0.37,3.06,0.52,6.04,1.11,8.93c1.9,9.27,1.97,18.42-1.25,27.45c-0.63,1.77,0.04,3.69,1.71,4.54
			c1.59,0.8,3.31,1.47,5.05,1.82c4.1,0.83,7.95,2.21,11.66,4.17c1.83,0.97,4.03,1.6,6.1,1.72c4.04,0.22,8.11-0.01,12.16-0.1
			c0.87-0.02,1.76-0.15,2.58-0.43c1.47-0.49,1.83-1.74,0.76-2.83c-0.69-0.7-1.63-1.21-2.55-1.62c-2.49-1.12-5.1-2-7.53-3.22
			c-4.66-2.34-8.98-5.17-12.29-9.3c-1.97-2.47-3.05-5.22-2.58-8.43c0.55-3.76,1.09-7.53,1.71-11.29
			C55.88,53.81,56.61,50.04,57.3,46.2z M38.94,36.33c6.64,0,13.09,0,19.59,0c0.07-1.27,0.14-2.42,0.21-3.61c-6.48,0-12.8,0-19.18,0
			C39.35,33.93,39.15,35.07,38.94,36.33z M38.62,40.62c6.59,0,12.96,0,19.4,0c0.12-1.07,0.23-2.06,0.35-3.11c-6.59,0-13,0-19.52,0
			C38.77,38.57,38.7,39.52,38.62,40.62z M38.72,41.78c0,1.13,0,2.13,0,3.27c6.26,0,12.42,0,18.67,0c0.13-1,0.27-2.09,0.43-3.27
			C51.37,41.78,45.1,41.78,38.72,41.78z"/>
		<path class="st1" d="M57.3,46.2c-0.69,3.84-1.42,7.61-2.05,11.41c-0.62,3.75-1.16,7.52-1.71,11.29c-0.47,3.21,0.61,5.97,2.58,8.43
			c3.31,4.14,7.64,6.97,12.29,9.3c2.44,1.22,5.04,2.1,7.53,3.22c0.91,0.41,1.86,0.92,2.55,1.62c1.07,1.1,0.7,2.34-0.76,2.83
			c-0.82,0.27-1.72,0.41-2.58,0.43c-4.06,0.1-8.12,0.32-12.16,0.1c-2.07-0.11-4.27-0.74-6.1-1.72c-3.71-1.97-7.56-3.34-11.66-4.17
			c-1.74-0.35-3.46-1.02-5.05-1.82c-1.68-0.85-2.34-2.77-1.71-4.54c3.22-9.03,3.15-18.17,1.25-27.45c-0.59-2.89-0.74-5.87-1.11-8.93
			C44.92,46.2,51,46.2,57.3,46.2z"/>
		<path class="st1" d="M38.62,40.62c0.08-1.11,0.15-2.06,0.23-3.11c6.52,0,12.92,0,19.52,0c-0.12,1.05-0.23,2.04-0.35,3.11
			C51.57,40.62,45.21,40.62,38.62,40.62z"/>
		<path class="st1" d="M38.72,41.78c6.38,0,12.65,0,19.1,0c-0.15,1.18-0.3,2.27-0.43,3.27c-6.25,0-12.41,0-18.67,0
			C38.72,43.91,38.72,42.91,38.72,41.78z"/>
		<path class="st2" d="M54.88,59.41h-5.53v-2c0-0.41-0.3-0.76-0.71-0.89v-3.25c3.49,0.17,6.25,2.72,6.25,5.84
			C54.89,59.21,54.88,59.31,54.88,59.41z"/>
		<path class="st3" d="M47.2,57.41v2.02h-5.54c0.18-2.97,2.87-5.35,6.22-5.51v2.62C47.49,56.67,47.2,57.01,47.2,57.41z"/>
		<path class="st4" d="M41.65,61.71h5.53v2c0,0.41,0.3,0.76,0.71,0.89v3.25c-3.49-0.17-6.25-2.72-6.25-5.84
			C41.64,61.92,41.64,61.82,41.65,61.71z"/>
		<path class="st5" d="M49.32,63.72V61.7h5.54c-0.18,2.97-2.87,5.35-6.22,5.51V64.6C49.04,64.46,49.32,64.12,49.32,63.72z"/>
	</g>
</g>
</svg>
