<?xml version="1.0" encoding="utf-8"?>
<!-- Generator: Adobe Illustrator 24.0.3, SVG Export Plug-In . SVG Version: 6.00 Build 0)  -->
<svg version="1.1" id="Layer_1" xmlns="http://www.w3.org/2000/svg" xmlns:xlink="http://www.w3.org/1999/xlink" x="0px" y="0px"
	 viewBox="0 0 106.97 123.83" style="enable-background:new 0 0 106.97 123.83;" xml:space="preserve">
<style type="text/css">
	.st0{fill:#FCFDFD;stroke:#090405;stroke-width:0.2482;stroke-miterlimit:10;}
	.st1{fill:#FFFFFF;}
	.st2{fill:#FFEE00;stroke:#FFFFFF;stroke-width:0.0117;stroke-miterlimit:10;}
	.st3{fill:#FF0056;stroke:#FFFFFF;stroke-width:0.0117;stroke-miterlimit:10;}
	.st4{fill:#251F1F;stroke:#FFFFFF;stroke-width:0.0117;stroke-miterlimit:10;}
	.st5{fill:#00A7E6;stroke:#FFFFFF;stroke-width:0.0117;stroke-miterlimit:10;}
	.st6{fill:#ADAEA4;}
	.st7{fill:#251F1F;}
	.st8{fill:none;stroke:#FFFFFF;stroke-width:0.0117;stroke-miterlimit:10;}
	.st9{fill:none;stroke:#251F20;stroke-width:0.5998;stroke-linejoin:round;stroke-miterlimit:10;stroke-dasharray:1.1997,1.1997;}
	.st10{fill:none;stroke:#090405;stroke-width:0.3662;stroke-miterlimit:10;}
	.st11{fill:#FCFDFD;stroke:#090405;stroke-width:0.9766;stroke-miterlimit:10;}
	.st12{fill:#FFFFFF;stroke:#241F20;stroke-width:0.4883;stroke-miterlimit:10;}
	.st13{fill:#009CDA;}
	.st14{fill:#FBE800;}
	.st15{fill:#FF0057;}
	.st16{fill:#010101;}
	.st17{fill:none;stroke:#13080A;stroke-width:0.7501;stroke-miterlimit:10;}
	.st18{fill:#FCFDFD;stroke:#090405;stroke-width:0.1875;stroke-miterlimit:10;}
	.st19{fill:#FFEE00;stroke:#FFFFFF;stroke-width:8.872499e-03;stroke-miterlimit:10;}
	.st20{fill:#FF0056;stroke:#FFFFFF;stroke-width:8.872499e-03;stroke-miterlimit:10;}
	.st21{fill:#251F1F;stroke:#FFFFFF;stroke-width:8.872499e-03;stroke-miterlimit:10;}
	.st22{fill:#00A7E6;stroke:#FFFFFF;stroke-width:8.872499e-03;stroke-miterlimit:10;}
	.st23{fill:none;stroke:#FFFFFF;stroke-width:8.872499e-03;stroke-miterlimit:10;}
	.st24{fill:none;stroke:#251F20;stroke-width:0.4532;stroke-linejoin:round;stroke-miterlimit:10;stroke-dasharray:0.9065,0.9065;}
	.st25{fill:none;stroke:#090405;stroke-width:0.2767;stroke-miterlimit:10;}
	.st26{fill:#FCFDFD;stroke:#090405;stroke-width:0.7379;stroke-miterlimit:10;}
	.st27{fill:#FFFFFF;stroke:#241F20;stroke-width:0.369;stroke-miterlimit:10;}
	.st28{fill:#FFEE00;}
	.st29{fill:#FF0056;}
	.st30{fill:#00A7E6;}
</style>
<g>
	<g>
		<path class="st6" d="M88.08,35.78c-6.32-1.38-12.67-2.62-18.99-4c-2.06-0.45-3.26,0.02-4.51,1.93c-5.64,8.58-17.9,8.67-23.54,0.15
			c-1.33-2.01-2.58-2.6-4.72-2.05c-0.75,0.2-1.56,0.18-2.33,0.35c-7.24,1.58-14.47,3.17-21.93,4.81c1.59,6.12,2.98,11.49,4.44,17.09
			c4.3-0.94,8.36-1.84,12.84-2.82c0,14.01,0,27.6,0,41.24c15.79,0,31.23,0,47.03,0c0-13.79,0-27.35,0-41.17
			c4.47,0.97,8.53,1.85,12.73,2.76c1.48-5.67,2.86-10.96,4.33-16.57C91.42,36.84,89.78,36.15,88.08,35.78z"/>
		<path class="st6" d="M59.87,57.14h-5.53v-2c0-0.41-0.3-0.76-0.71-0.89V51c3.49,0.17,6.25,2.72,6.25,5.84
			C59.88,56.94,59.88,57.04,59.87,57.14z"/>
		<path class="st6" d="M52.2,55.14v2.02h-5.54c0.18-2.97,2.87-5.35,6.22-5.51v2.62C52.48,54.4,52.2,54.74,52.2,55.14z"/>
		<g>
			<path class="st6" d="M46.65,59.45h5.53v2c0,0.41,0.3,0.76,0.71,0.89v3.25c-3.49-0.17-6.25-2.72-6.25-5.84
				C46.64,59.65,46.64,59.55,46.65,59.45z"/>
			<path class="st6" d="M46.65,59.45h5.53v2c0,0.41,0.3,0.76,0.71,0.89v3.25c-3.49-0.17-6.25-2.72-6.25-5.84
				C46.64,59.65,46.64,59.55,46.65,59.45z"/>
		</g>
		<path class="st6" d="M54.32,61.45v-2.02h5.54c-0.18,2.97-2.87,5.35-6.22,5.51v-2.62C54.03,62.19,54.32,61.85,54.32,61.45z"/>
	</g>
	<g>
		<path class="st11" d="M88.08,35.78c-6.32-1.38-12.67-2.62-18.99-4c-2.06-0.45-3.26,0.02-4.51,1.93
			c-5.64,8.58-17.9,8.67-23.54,0.15c-1.33-2.01-2.58-2.6-4.72-2.05c-0.75,0.2-1.56,0.18-2.33,0.35c-7.24,1.58-14.47,3.17-21.93,4.81
			c1.59,6.12,2.98,11.49,4.44,17.09c4.3-0.94,8.36-1.84,12.84-2.82c0,14.01,0,27.6,0,41.24c15.79,0,31.23,0,47.03,0
			c0-13.79,0-27.35,0-41.17c4.47,0.97,8.53,1.85,12.73,2.76c1.48-5.67,2.86-10.96,4.33-16.57C91.42,36.84,89.78,36.15,88.08,35.78z"
			/>
		<path class="st2" d="M59.87,57.14h-5.53v-2c0-0.41-0.3-0.76-0.71-0.89V51c3.49,0.17,6.25,2.72,6.25,5.84
			C59.88,56.94,59.88,57.04,59.87,57.14z"/>
		<path class="st3" d="M52.2,55.14v2.02h-5.54c0.18-2.97,2.87-5.35,6.22-5.51v2.62C52.48,54.4,52.2,54.74,52.2,55.14z"/>
		<g>
			<path class="st7" d="M46.65,59.45h5.53v2c0,0.41,0.3,0.76,0.71,0.89v3.25c-3.49-0.17-6.25-2.72-6.25-5.84
				C46.64,59.65,46.64,59.55,46.65,59.45z"/>
			<path class="st8" d="M46.65,59.45h5.53v2c0,0.41,0.3,0.76,0.71,0.89v3.25c-3.49-0.17-6.25-2.72-6.25-5.84
				C46.64,59.65,46.64,59.55,46.65,59.45z"/>
		</g>
		<path class="st5" d="M54.32,61.45v-2.02h5.54c-0.18,2.97-2.87,5.35-6.22,5.51v-2.62C54.03,62.19,54.32,61.85,54.32,61.45z"/>
	</g>
</g>
</svg>
