<?xml version="1.0" encoding="utf-8"?>
<!-- Generator: Adobe Illustrator 26.3.1, SVG Export Plug-In . SVG Version: 6.00 Build 0)  -->
<svg version="1.1" id="Layer_1" xmlns="http://www.w3.org/2000/svg" xmlns:xlink="http://www.w3.org/1999/xlink" x="0px" y="0px"
	 viewBox="0 0 65.33 65.23" style="enable-background:new 0 0 65.33 65.23;" xml:space="preserve">
<style type="text/css">
	.st0{fill:#FEE600;}
	.st1{fill:#231F20;}
	.st2{fill:#252020;}
	.st3{fill:#EC1A5C;stroke:#EC1A5C;stroke-width:0.1331;stroke-linecap:round;stroke-miterlimit:10;}
	.st4{fill:#029BD7;}
	.st5{fill:#261D1E;}
	.st6{fill:#23201F;}
	.st7{fill:#029BD7;stroke:#029BD7;stroke-width:0.1476;stroke-miterlimit:10;}
	.st8{fill:#F5FBFD;}
	.st9{fill:#251F1F;}
</style>
<g>
	<circle class="st0" cx="32.67" cy="32.61" r="31.4"/>
	<g>
		<g>
			<path class="st1" d="M6.83,31.74c0.57,0.33,0.88,0.81,0.9,1.47c0.03,0.99-0.66,1.81-1.77,1.84c-1.16,0.03-1.91-0.8-1.94-1.74
				C4,32.73,4.25,32.37,4.4,32.16l-0.22-0.25l1.05-0.05l0.01,0.1c-0.17,0.06-0.33,0.11-0.52,0.26c-0.38,0.27-0.54,0.64-0.53,1
				c0.02,0.61,0.53,1.25,1.56,1.22C6.63,34.41,7.5,33.9,7.47,33c-0.02-0.66-0.48-0.96-0.72-1.12L6.83,31.74z"/>
			<path class="st1" d="M6.36,27.17c1.17,0.16,1.7,1.15,1.58,2.02c-0.13,0.97-1.01,1.7-2.09,1.55c-1.11-0.15-1.68-1.08-1.59-1.97
				C4.37,27.8,5.22,27.01,6.36,27.17z M5.91,30.13c0.84,0.11,1.79-0.16,1.9-0.97c0.11-0.82-0.8-1.27-1.55-1.38
				c-0.65-0.09-1.76,0.1-1.84,1C4.33,29.61,5.21,30.03,5.91,30.13z"/>
			<path class="st1" d="M4.81,25.96c0.05-0.15,0.1-0.3,0.15-0.44c0.04-0.15,0.08-0.3,0.13-0.44c0.24-0.07,0.38-0.11,0.75-0.26
				c0.52-0.21,1.94-0.81,2.48-1.04c-1.34-0.43-1.63-0.51-1.86-0.58c-0.55-0.16-0.57-0.14-0.74,0.38l-0.15-0.05
				c0.06-0.2,0.13-0.39,0.19-0.59c0.06-0.19,0.11-0.36,0.17-0.58l0.15,0.05c-0.07,0.32-0.09,0.4,0.31,0.54
				c0.24,0.08,2.41,0.79,2.82,0.92l-0.02,0.08l-3.63,1.51c0.37,0.11,2.06,0.65,2.33,0.71c0.3,0.07,0.38-0.06,0.53-0.45l0.15,0.05
				c-0.07,0.21-0.14,0.41-0.2,0.62C8.3,26.6,8.24,26.8,8.19,27l-0.15-0.05c0.04-0.15,0.09-0.3,0.01-0.4
				C8,26.48,7.93,26.46,7.51,26.3L5.33,25.6c-0.2,0.13-0.28,0.21-0.38,0.42L4.81,25.96z"/>
			<path class="st1" d="M9.86,19.13c-0.12,0.35-0.12,0.35,0.79,0.81c0.01,0.33,0.04,0.84-0.26,1.44c-0.54,1.07-1.68,1.29-2.51,0.88
				c-0.98-0.49-1.26-1.66-0.83-2.51c0.29-0.57,0.74-0.87,0.94-1l-0.1-0.29l0.97,0.47l-0.04,0.11c-0.2-0.03-0.42-0.06-0.7,0.01
				c-0.3,0.07-0.66,0.28-0.86,0.67c-0.34,0.68-0.03,1.51,0.87,1.97c0.28,0.14,0.73,0.3,1.17,0.25c0.51-0.06,0.83-0.4,0.97-0.68
				c0.17-0.34,0.13-0.68,0.08-0.81c-0.03-0.1-0.05-0.13-0.4-0.3c-0.24-0.12-0.36-0.15-0.45-0.11c-0.07,0.03-0.11,0.1-0.27,0.34
				L9.1,20.31c0.11-0.22,0.24-0.43,0.34-0.65c0.09-0.19,0.17-0.35,0.28-0.59L9.86,19.13z"/>
			<path class="st1" d="M8.56,17.19c0.13-0.17,0.28-0.36,0.41-0.55c0.14-0.19,0.27-0.38,0.4-0.58l0.13,0.1
				c-0.14,0.25-0.19,0.33-0.12,0.45c0.06,0.09,0.25,0.23,0.62,0.51l0.82,0.59c0.28,0.2,0.51,0.36,0.7,0.49
				c0.07,0.04,0.18,0.11,0.28,0.09c0.19-0.04,0.53-0.55,0.62-0.7c0.15-0.24,0.31-0.5-0.21-1.42l0.14-0.11
				c0.3,0.42,0.39,0.53,0.71,0.92l-1.64,2.28l-0.13-0.1c0.13-0.24,0.18-0.34,0.01-0.48c-0.09-0.07-0.17-0.13-0.68-0.52L9.57,17.4
				c-0.1-0.07-0.41-0.29-0.51-0.32c-0.14-0.04-0.2,0.02-0.37,0.21L8.56,17.19z"/>
			<path class="st1" d="M15.05,12.35c0.84,0.84,0.65,1.95,0.03,2.57c-0.7,0.69-1.83,0.74-2.6-0.03c-0.79-0.8-0.68-1.88-0.07-2.53
				C13.08,11.64,14.24,11.53,15.05,12.35z M12.89,14.42c0.6,0.6,1.51,0.96,2.1,0.38c0.59-0.58,0.14-1.5-0.39-2.03
				c-0.46-0.47-1.46-0.98-2.08-0.32C11.96,13.06,12.4,13.92,12.89,14.42z"/>
			<path class="st1" d="M14.92,10.12c0.14-0.09,0.29-0.18,0.42-0.27c0.14-0.09,0.27-0.19,0.4-0.29l2.56,1.7l-0.55-3.05
				c0.13-0.09,0.27-0.18,0.41-0.27c0.14-0.09,0.27-0.19,0.41-0.28l0.09,0.13c-0.32,0.27-0.3,0.31-0.07,0.66l1.21,1.78
				c0.26,0.36,0.3,0.42,0.66,0.23l0.09,0.13c-0.19,0.12-0.39,0.25-0.58,0.38c-0.18,0.12-0.34,0.24-0.56,0.38l-0.09-0.13
				c0.31-0.24,0.33-0.3,0.13-0.61l-1.48-2.2l0.63,3.54l-0.07,0.05l-2.98-1.95L16.84,12c0.33,0.5,0.39,0.6,0.78,0.39l0.09,0.13
				c-0.15,0.09-0.3,0.19-0.45,0.29c-0.15,0.1-0.26,0.18-0.44,0.31l-0.09-0.13c0.32-0.27,0.27-0.36-0.08-0.91l-1.08-1.68
				c-0.2-0.29-0.23-0.3-0.55-0.13L14.92,10.12z"/>
			<path class="st1" d="M20.07,6.93l2.39-1.02c0.31,0.3,0.39,0.38,0.7,0.65l-0.06,0.1c-0.55-0.26-0.55-0.26-0.66-0.3
				c-0.28-0.1-0.44-0.07-0.98,0.15l-0.48,0.2l0.57,1.32L22,7.84c0.43-0.18,0.48-0.29,0.38-0.81l0.12-0.05
				c0.08,0.22,0.17,0.44,0.27,0.66c0.09,0.21,0.19,0.42,0.29,0.62l-0.12,0.05c-0.33-0.48-0.44-0.46-0.95-0.25l-0.35,0.15l0.33,0.78
				c0.28,0.63,0.28,0.65,0.92,0.39l0.25-0.1c0.38-0.17,0.46-0.2,0.69-1.22l0.12,0.01c0.04,0.45,0.05,0.56,0.11,0.99l-2.59,1.11
				l-0.06-0.15c0.34-0.18,0.32-0.28,0.23-0.49c-0.08-0.23-0.18-0.45-0.37-0.91l-0.37-0.87c-0.06-0.14-0.26-0.61-0.33-0.68
				c-0.09-0.1-0.19-0.08-0.42-0.01L20.07,6.93z"/>
			<path class="st1" d="M24.34,5.23c0.21-0.05,0.42-0.1,0.63-0.15c0.09-0.02,0.52-0.13,0.62-0.15c0.25-0.06,0.56-0.13,0.78-0.1
				c0.37,0.04,0.63,0.32,0.7,0.63c0.02,0.11,0.04,0.29,0,0.48c-0.09,0.35-0.32,0.52-0.47,0.63C27,6.9,27.4,7.22,27.81,7.54
				c0.26,0.2,0.33,0.23,0.59,0.19l0.03,0.16c-0.14,0.03-0.27,0.05-0.41,0.09C27.9,8,27.79,8.04,27.66,8.07
				c-0.24-0.21-0.3-0.26-0.58-0.48c-0.33-0.26-0.66-0.53-1-0.79c-0.07,0.01-0.13,0.04-0.2,0.05s-0.13,0.03-0.2,0.04
				c0.15,0.61,0.21,0.85,0.25,1c0.1,0.35,0.17,0.33,0.61,0.28l0.04,0.16c-0.24,0.05-0.48,0.1-0.72,0.15
				c-0.23,0.05-0.43,0.11-0.7,0.19l-0.03-0.16c0.39-0.14,0.39-0.14,0.23-0.85l-0.34-1.4c-0.03-0.14-0.16-0.65-0.23-0.79
				c-0.06-0.12-0.18-0.11-0.41-0.09L24.34,5.23z M25.26,5.17l0.38,1.55c0.07-0.01,0.14-0.02,0.21-0.04c0.44-0.11,0.57-0.26,0.66-0.4
				c0.1-0.17,0.14-0.38,0.08-0.63c-0.05-0.23-0.18-0.42-0.35-0.53c-0.22-0.13-0.38-0.09-0.69-0.02L25.26,5.17z"/>
			<path class="st1" d="M28.97,7.62c0.44-0.07,0.5-0.16,0.61-0.59c0.26-0.91,0.51-1.81,0.76-2.71c-0.03-0.05-0.04-0.07-0.09-0.11
				c0.31-0.09,0.41-0.15,0.56-0.28c0.16,0.4,0.19,0.48,0.3,0.75l0.82,2.03c0.22,0.54,0.28,0.62,0.66,0.64l0.01,0.16
				c-0.24,0.01-0.49,0.02-0.74,0.04s-0.49,0.04-0.73,0.06l-0.01-0.16c0.24-0.03,0.43-0.07,0.42-0.27c-0.01-0.15-0.27-0.8-0.36-1.01
				l-1.21,0.09c-0.05,0.21-0.1,0.41-0.15,0.61c-0.03,0.14-0.08,0.34-0.07,0.41c0.02,0.25,0.33,0.24,0.51,0.24l0.01,0.16
				c-0.21,0.01-0.43,0.02-0.64,0.04c-0.22,0.01-0.43,0.04-0.65,0.06L28.97,7.62z M31.1,5.96c-0.2-0.49-0.44-1.08-0.63-1.46
				l-0.42,1.53L31.1,5.96z"/>
			<path class="st1" d="M32.65,4.94c0.18-0.41,0.22-0.51,0.37-0.93l2.91,0.18c0.1,0.45,0.13,0.56,0.26,0.97L36.07,5.2
				c-0.17-0.27-0.46-0.71-0.6-0.8c-0.13-0.08-0.24-0.09-0.75-0.12l-0.15,2.47c-0.01,0.18-0.02,0.44,0,0.53
				c0.03,0.15,0.14,0.17,0.52,0.23l-0.01,0.16c-0.27-0.02-0.54-0.05-0.8-0.06c-0.28-0.01-0.55-0.02-0.83-0.03l0.01-0.16
				c0.5,0.02,0.53-0.07,0.56-0.18c0.03-0.11,0.05-0.35,0.06-0.51l0.15-2.47L33.8,4.23c-0.18,0-0.3-0.01-0.47,0.13
				C33.25,4.42,33.24,4.44,32.75,5L32.65,4.94z"/>
			<path class="st1" d="M37.37,4.38l2.54,0.56c0.08,0.42,0.1,0.54,0.2,0.93l-0.11,0.05c-0.3-0.53-0.3-0.53-0.37-0.62
				c-0.17-0.24-0.32-0.32-0.89-0.45l-0.51-0.11l-0.31,1.41l0.49,0.11c0.46,0.11,0.56,0.04,0.78-0.43l0.13,0.03
				c-0.06,0.23-0.12,0.46-0.17,0.7C39.12,6.77,39.07,7,39.03,7.22L38.9,7.19c0.01-0.59-0.09-0.63-0.63-0.76l-0.38-0.08l-0.18,0.83
				c-0.14,0.67-0.15,0.69,0.52,0.85l0.26,0.06c0.41,0.08,0.49,0.1,1.27-0.6l0.09,0.08c-0.23,0.38-0.28,0.48-0.48,0.87l-2.75-0.6
				l0.03-0.16c0.38,0.05,0.42-0.03,0.47-0.26c0.06-0.23,0.12-0.47,0.23-0.96l0.2-0.92c0.03-0.15,0.14-0.65,0.12-0.75
				c-0.01-0.14-0.1-0.17-0.33-0.25L37.37,4.38z"/>
			<path class="st1" d="M42.98,5.93c0.19,0.08,0.37,0.17,0.56,0.25c0.05,0.02,0.22,0.09,0.39,0.16c0.17,0.07,0.34,0.14,0.4,0.17
				c0.24,0.1,0.47,0.22,0.64,0.42c0.2,0.23,0.29,0.58,0.12,0.96c-0.12,0.27-0.37,0.55-0.75,0.59c-0.29,0.02-0.57-0.09-1.29-0.41
				C42.85,8.49,42.63,9,42.59,9.14c-0.06,0.21,0.01,0.28,0.27,0.42l-0.06,0.15c-0.21-0.1-0.43-0.2-0.64-0.3
				c-0.19-0.08-0.4-0.17-0.6-0.25l0.06-0.15c0.25,0.08,0.36,0.1,0.45-0.02c0.06-0.09,0.28-0.56,0.34-0.7l0.41-0.94
				c0.07-0.16,0.37-0.85,0.37-0.96c0-0.13-0.08-0.18-0.29-0.3L42.98,5.93z M43.11,7.92c0.43,0.19,0.6,0.26,0.82,0.24
				c0.34-0.03,0.58-0.3,0.67-0.51c0.1-0.23,0.1-0.5-0.05-0.72c-0.14-0.21-0.3-0.28-0.78-0.49L43.11,7.92z"/>
			<path class="st1" d="M46.46,7.53c0.18,0.11,0.37,0.24,0.55,0.35c0.08,0.05,0.46,0.28,0.54,0.33c0.21,0.13,0.48,0.31,0.61,0.49
				c0.23,0.29,0.21,0.67,0.04,0.95c-0.06,0.09-0.18,0.23-0.35,0.33c-0.31,0.18-0.6,0.13-0.78,0.11c0.05,0.51,0.1,1.02,0.16,1.53
				c0.03,0.32,0.07,0.39,0.28,0.56l-0.08,0.14c-0.12-0.08-0.23-0.16-0.35-0.23c-0.11-0.07-0.21-0.12-0.33-0.19
				c-0.01-0.31-0.02-0.39-0.06-0.75c-0.04-0.42-0.09-0.84-0.13-1.26c-0.06-0.04-0.12-0.07-0.18-0.11c-0.06-0.04-0.11-0.07-0.17-0.11
				c-0.33,0.54-0.46,0.74-0.54,0.88c-0.18,0.31-0.12,0.36,0.23,0.63l-0.08,0.14c-0.2-0.14-0.41-0.28-0.61-0.41
				c-0.2-0.12-0.38-0.23-0.62-0.36l0.08-0.14c0.37,0.19,0.38,0.18,0.76-0.43l0.77-1.22c0.07-0.12,0.35-0.57,0.4-0.72
				c0.04-0.13-0.05-0.21-0.23-0.36L46.46,7.53z M47.15,8.15L46.3,9.51c0.06,0.04,0.12,0.08,0.18,0.12c0.38,0.24,0.59,0.23,0.74,0.19
				c0.19-0.04,0.37-0.17,0.51-0.38c0.12-0.2,0.18-0.42,0.13-0.62c-0.06-0.25-0.2-0.34-0.46-0.51L47.15,8.15z"/>
			<path class="st1" d="M50.19,10.02c0.16,0.16,0.33,0.31,0.51,0.46c0.17,0.14,0.35,0.27,0.54,0.39L51.14,11
				c-0.36-0.24-0.39-0.2-0.79,0.29l-1.13,1.39c-0.39,0.47-0.42,0.52-0.12,0.82L49,13.62c-0.17-0.15-0.32-0.29-0.49-0.43
				c-0.18-0.15-0.37-0.29-0.56-0.43l0.1-0.12c0.35,0.23,0.39,0.19,0.67-0.15c0.13-0.15,0.26-0.3,0.38-0.46l0.58-0.71
				c0.38-0.48,0.47-0.6,0.54-0.7c0.12-0.19,0.08-0.26-0.14-0.47L50.19,10.02z"/>
			<path class="st1" d="M52.35,11.79c0.1,0.12,0.21,0.24,0.31,0.35c0.1,0.11,0.21,0.22,0.32,0.33c-0.06,0.25-0.1,0.38-0.15,0.78
				c-0.08,0.56-0.27,2.09-0.34,2.67c1.04-0.95,1.26-1.16,1.43-1.33c0.41-0.4,0.4-0.42,0.04-0.84l0.12-0.11
				c0.14,0.15,0.27,0.31,0.42,0.46c0.14,0.15,0.26,0.27,0.41,0.43l-0.12,0.11c-0.25-0.23-0.3-0.28-0.62,0
				c-0.2,0.17-1.89,1.69-2.21,1.98l-0.05-0.06l0.5-3.9c-0.29,0.26-1.59,1.46-1.78,1.67c-0.21,0.23-0.14,0.36,0.13,0.68l-0.12,0.11
				c-0.15-0.17-0.29-0.33-0.44-0.49c-0.14-0.15-0.29-0.3-0.43-0.45l0.12-0.11c0.11,0.11,0.22,0.23,0.34,0.21
				c0.08-0.01,0.14-0.06,0.48-0.34l1.7-1.53c-0.01-0.24-0.05-0.34-0.18-0.54L52.35,11.79z"/>
			<path class="st1" d="M54.72,15.87c0.44-0.1,0.55-0.13,0.97-0.27l1.61,2.43c-0.3,0.35-0.36,0.44-0.62,0.8l-0.1-0.06
				c0.11-0.3,0.29-0.8,0.28-0.96c-0.01-0.15-0.07-0.24-0.36-0.67l-2.07,1.38c-0.15,0.1-0.36,0.25-0.43,0.32
				c-0.1,0.12-0.05,0.22,0.13,0.55L54,19.47c-0.15-0.23-0.29-0.46-0.43-0.68c-0.15-0.23-0.31-0.45-0.47-0.68l0.13-0.09
				c0.29,0.41,0.38,0.38,0.48,0.34c0.11-0.04,0.31-0.17,0.45-0.26l2.07-1.38l-0.23-0.35c-0.1-0.15-0.18-0.25-0.38-0.3
				c-0.1-0.02-0.12-0.02-0.87-0.08L54.72,15.87z"/>
			<path class="st1" d="M55.78,20.37c-0.15,0.12-0.29,0.23-0.4,0.42c-0.17,0.3-0.18,0.65-0.05,0.91c0.13,0.27,0.5,0.58,0.95,0.36
				c0.15-0.07,0.32-0.23,0.38-0.51c0.03-0.17,0.02-0.27-0.04-0.71c-0.03-0.29-0.11-0.87,0.5-1.17c0.51-0.25,1.09-0.06,1.36,0.5
				c0.14,0.3,0.12,0.53,0.11,0.74l0.23,0.12l-0.88,0.55l-0.07-0.09c0.19-0.17,0.74-0.64,0.46-1.22c-0.19-0.39-0.55-0.46-0.82-0.33
				c-0.15,0.07-0.28,0.19-0.33,0.35c-0.08,0.2-0.05,0.37,0,0.76c0.05,0.36,0.14,0.98-0.53,1.31c-0.59,0.29-1.2-0.02-1.47-0.6
				c-0.19-0.39-0.15-0.66-0.12-0.84l-0.28-0.17c0.46-0.23,0.57-0.29,0.95-0.5L55.78,20.37z"/>
			<path class="st1" d="M55.56,23.72c0.09,0.15,0.25,0.26,0.41,0.2c0.1-0.04,0.11-0.12,0.12-0.18c0.01-0.09,0.04-0.24,0.19-0.3
				c0.14-0.05,0.29,0.02,0.34,0.17c0.06,0.16-0.02,0.39-0.32,0.51c-0.27,0.1-0.66,0.08-0.91-0.33L55.56,23.72z"/>
			<path class="st1" d="M60.08,24.44c0.04,0.22,0.09,0.45,0.15,0.67c0.06,0.21,0.13,0.42,0.21,0.63l-0.15,0.04
				c-0.16-0.4-0.2-0.39-0.81-0.22l-1.73,0.47c-0.59,0.16-0.64,0.18-0.57,0.6l-0.15,0.04c-0.05-0.22-0.1-0.43-0.15-0.63
				c-0.06-0.23-0.13-0.45-0.21-0.67l0.16-0.04c0.15,0.38,0.2,0.38,0.63,0.27c0.19-0.05,0.38-0.1,0.58-0.15l0.89-0.24
				c0.6-0.17,0.73-0.21,0.85-0.26c0.21-0.09,0.22-0.16,0.16-0.47L60.08,24.44z"/>
			<path class="st1" d="M60.76,26.93c0.01,0.15,0.03,0.31,0.05,0.46c0.02,0.15,0.04,0.3,0.07,0.45c-0.19,0.17-0.3,0.26-0.58,0.55
				c-0.38,0.41-1.42,1.54-1.82,1.98c1.4-0.18,1.7-0.22,1.93-0.26c0.57-0.09,0.57-0.11,0.51-0.66l0.16-0.02
				c0.02,0.21,0.04,0.41,0.07,0.61c0.02,0.2,0.05,0.37,0.09,0.6l-0.16,0.02c-0.07-0.32-0.09-0.4-0.51-0.35
				c-0.26,0.02-2.51,0.29-2.95,0.34l-0.01-0.08l2.66-2.89c-0.38,0.05-2.14,0.28-2.42,0.34c-0.3,0.06-0.32,0.22-0.29,0.63l-0.16,0.02
				c-0.02-0.22-0.05-0.43-0.08-0.65c-0.02-0.2-0.06-0.41-0.09-0.61l0.16-0.02c0.02,0.15,0.04,0.3,0.16,0.37
				c0.08,0.04,0.15,0.03,0.59,0l2.27-0.28c0.13-0.21,0.16-0.31,0.17-0.54L60.76,26.93z"/>
			<path class="st1" d="M58.43,35.12c-0.55-0.36-0.83-0.86-0.81-1.52c0.03-0.99,0.77-1.77,1.87-1.74c1.17,0.03,1.86,0.91,1.83,1.85
				c-0.02,0.59-0.29,0.93-0.45,1.13l0.21,0.26l-1.05-0.01l0-0.1c0.18-0.05,0.33-0.09,0.53-0.23c0.4-0.25,0.58-0.61,0.59-0.97
				c0.02-0.61-0.45-1.28-1.48-1.31c-0.88-0.03-1.78,0.44-1.81,1.33c-0.02,0.66,0.42,0.99,0.65,1.17L58.43,35.12z"/>
		</g>
	</g>
	<path class="st2" d="M52.36,37.14c0,0.49-0.38,0.87-0.88,0.87c-0.49,0-0.89-0.38-0.89-0.87c0-0.48,0.39-0.86,0.89-0.86
		C51.98,36.28,52.36,36.67,52.36,37.14z M50.82,37.14c0,0.38,0.29,0.68,0.67,0.68c0.38,0,0.65-0.3,0.65-0.68
		c0-0.38-0.28-0.69-0.66-0.69C51.1,36.46,50.82,36.77,50.82,37.14z M51.35,37.59h-0.2v-0.86c0.08-0.01,0.19-0.02,0.33-0.02
		c0.16,0,0.24,0.02,0.3,0.06c0.05,0.03,0.08,0.1,0.08,0.19c0,0.09-0.07,0.17-0.18,0.2v0.01c0.08,0.03,0.13,0.09,0.16,0.21
		c0.02,0.13,0.04,0.18,0.06,0.22h-0.22c-0.02-0.03-0.04-0.11-0.07-0.21c-0.01-0.09-0.07-0.14-0.18-0.14h-0.09L51.35,37.59
		L51.35,37.59z M51.35,37.11h0.09c0.11,0,0.2-0.03,0.2-0.13c0-0.08-0.06-0.13-0.18-0.13c-0.05,0-0.09,0-0.11,0.01V37.11z"/>
	<g>
		<path class="st3" d="M15.16,42.59c-0.27,0.12-0.54,0.24-0.91,0.01c-0.34-0.2-0.56-0.55-0.73-0.91c-0.1-0.22-0.4-0.85-0.15-1.37
			c0.13-0.29,0.32-0.37,0.94-0.67c0.52-0.25,0.71-0.26,1.13,0.18c-0.08-0.38-0.06-0.61,0.64-0.95c0.34-0.16,1.11-0.53,1.74,0.81
			c0.16,0.34,0.25,0.69,0.22,1.01c-0.06,0.52-0.43,0.69-0.63,0.78c-0.56,0.27-0.81,0.36-1.22-0.07c0.05,0.56-0.06,0.71-0.55,0.94
			L15.16,42.59z M14.78,40.66c-0.2,0.09-0.52,0.25-0.59,0.32c-0.1,0.11-0.08,0.25-0.01,0.39c0.17,0.36,0.35,0.28,0.85,0.04
			c0.41-0.2,0.6-0.28,0.43-0.62C15.29,40.42,15.1,40.5,14.78,40.66z M16.41,39.89c-0.34,0.16-0.52,0.25-0.37,0.58
			c0.06,0.12,0.12,0.21,0.2,0.26c0.13,0.06,0.19,0.04,0.63-0.17c0.21-0.1,0.38-0.21,0.23-0.53C16.92,39.65,16.72,39.75,16.41,39.89z
			"/>
		<path class="st3" d="M17.74,42.39c0.33-0.26,1.06-0.78,1.97,0.37c0.3,0.38,0.55,0.82,0.5,1.29c-0.05,0.41-0.29,0.6-0.63,0.87
			l-1.55,1.22c-0.49,0.38-1.13,0.71-1.99-0.38c-0.58-0.73-0.81-1.39,0-2.03L17.74,42.39z M19.02,43.85
			c0.09-0.07,0.29-0.23,0.05-0.54c-0.24-0.3-0.44-0.15-0.53-0.08l-1.83,1.45c-0.18,0.14-0.31,0.29-0.09,0.57
			c0.24,0.3,0.43,0.16,0.56,0.05L19.02,43.85z"/>
		<path class="st3" d="M20.18,45.37c0.27-0.33,0.86-1,2-0.08c0.38,0.31,0.72,0.67,0.77,1.15c0.05,0.41-0.14,0.65-0.42,0.99
			l-1.24,1.54c-0.39,0.48-0.94,0.94-2.02,0.07c-0.72-0.59-1.1-1.18-0.46-1.97L20.18,45.37z M21.76,46.51
			c0.07-0.08,0.23-0.29-0.07-0.53c-0.3-0.25-0.46-0.05-0.53,0.04l-1.47,1.82c-0.15,0.18-0.24,0.35,0.04,0.58
			c0.3,0.24,0.45,0.06,0.56-0.07L21.76,46.51z"/>
		<path class="st3" d="M24.63,49.23l-0.38,0.69l-1.73-0.96l0.38-0.69L24.63,49.23z"/>
		<path class="st3" d="M27.75,52.17c-0.09,0.28-0.2,0.56-0.62,0.67c-0.38,0.11-0.78,0.02-1.17-0.11c-0.23-0.07-0.89-0.3-1.1-0.84
			c-0.12-0.29-0.05-0.49,0.17-1.14c0.18-0.55,0.3-0.69,0.91-0.69c-0.32-0.21-0.49-0.38-0.24-1.12c0.12-0.36,0.39-1.17,1.79-0.7
			c0.36,0.12,0.67,0.3,0.88,0.55c0.33,0.4,0.2,0.79,0.13,0.99c-0.2,0.59-0.3,0.83-0.9,0.83c0.44,0.35,0.48,0.54,0.3,1.05
			L27.75,52.17z M26.1,51.11c-0.07,0.21-0.18,0.55-0.18,0.64c0.01,0.15,0.12,0.23,0.27,0.28c0.38,0.13,0.45-0.06,0.62-0.59
			c0.14-0.43,0.21-0.62-0.16-0.74C26.27,50.57,26.21,50.77,26.1,51.11z M26.67,49.4c-0.12,0.36-0.18,0.55,0.16,0.66
			c0.13,0.04,0.23,0.05,0.32,0.03c0.14-0.05,0.16-0.1,0.31-0.58c0.07-0.22,0.11-0.42-0.23-0.53C26.85,48.86,26.78,49.07,26.67,49.4z
			"/>
		<path class="st3" d="M29.33,50.08c0.04-0.36,0.09-0.74,0.6-0.97c0.28-0.12,0.62-0.16,1.03-0.11c0.67,0.07,0.98,0.31,1.13,0.48
			c0.29,0.3,0.26,0.54,0.21,1.01c-0.08,0.76-0.17,0.83-0.98,1.36c-0.76,0.51-0.86,0.56-1.02,0.91l1.73,0.18l-0.09,0.87l-3.01-0.31
			c0.11-1.04,0.15-1.26,1.34-2.02c0.72-0.47,0.86-0.55,0.89-0.9l0.03-0.34c0.01-0.1,0.04-0.41-0.34-0.45
			c-0.41-0.04-0.44,0.27-0.45,0.37l-0.07,0.64l-1.06-0.11L29.33,50.08z"/>
		<path class="st3" d="M33.16,50.19c-0.02-0.22-0.06-0.56,0.29-0.86c0.34-0.28,0.86-0.33,1.04-0.36c0.36-0.04,0.73-0.03,1.06,0.1
			c0.47,0.2,0.5,0.53,0.56,1.02c0.05,0.49,0.02,0.68-0.47,1.01c0.63,0.14,0.66,0.41,0.74,1.08c0.07,0.69,0.15,1.34-1.36,1.51
			c-1.41,0.16-1.55-0.34-1.61-0.94l-0.06-0.55l1.11-0.12l0.05,0.48c0.02,0.16,0.05,0.43,0.43,0.39c0.4-0.04,0.37-0.33,0.33-0.64
			c-0.06-0.6-0.08-0.73-0.5-0.68l-0.49,0.06L34.2,50.9c0.83-0.09,0.91-0.12,0.86-0.53c-0.05-0.5-0.1-0.69-0.49-0.64
			c-0.39,0.04-0.36,0.3-0.35,0.4l0.04,0.38l-1.07,0.12L33.16,50.19z"/>
		<path class="st3" d="M38.95,49.98l0.23,0.75l-1.89,0.57l-0.23-0.75L38.95,49.98z"/>
		<path class="st3" d="M43.07,49.59c0.2,0.39,0.31,0.69,0.16,1.04c-0.11,0.29-0.4,0.6-0.87,0.85c-0.67,0.34-1.08,0.29-1.22,0.25
			c-0.42-0.09-0.55-0.36-0.8-0.85l0.97-0.5l0.15,0.29c0.06,0.11,0.18,0.34,0.53,0.16c0.31-0.16,0.3-0.33,0.19-0.55l-0.44-0.85
			c-0.09,0.21-0.18,0.41-0.55,0.6c-0.37,0.19-0.76,0.2-1.04,0.04c-0.25-0.14-0.43-0.42-0.6-0.74c-0.31-0.61-0.37-0.91-0.24-1.24
			c0.05-0.13,0.22-0.5,0.87-0.83c1.31-0.67,1.75,0.19,1.92,0.51L43.07,49.59z M40.44,48.64c0.06,0.12,0.28,0.53,0.33,0.6
			c0.14,0.15,0.33,0.12,0.46,0.05c0.11-0.06,0.2-0.16,0.23-0.27c0.02-0.11,0.02-0.17-0.21-0.6c-0.22-0.42-0.35-0.68-0.72-0.49
			C40.18,48.13,40.32,48.4,40.44,48.64z"/>
		<path class="st3" d="M42.77,46.54c0.3-0.33,0.41-0.59,0.31-1.06l0.72-0.6l2.95,3.51l-0.84,0.7l-2.17-2.58
			c-0.16,0.38-0.21,0.48-0.38,0.74L42.77,46.54z"/>
		<path class="st3" d="M45.64,44.49c-0.17-0.14-0.45-0.34-0.41-0.8c0.04-0.44,0.35-0.85,0.47-1c0.23-0.29,0.48-0.55,0.81-0.69
			c0.47-0.19,0.73,0.01,1.12,0.31c0.38,0.3,0.5,0.45,0.4,1.04c0.54-0.36,0.76-0.19,1.29,0.23c0.55,0.43,1.07,0.83,0.14,2.03
			c-0.87,1.12-1.32,0.87-1.8,0.5l-0.44-0.34l0.68-0.89l0.38,0.3c0.12,0.09,0.34,0.27,0.58-0.04c0.25-0.32,0.01-0.5-0.23-0.69
			c-0.47-0.36-0.58-0.45-0.84-0.11l-0.3,0.38l-0.61-0.48c0.51-0.65,0.55-0.74,0.22-0.99c-0.4-0.31-0.56-0.41-0.8-0.1
			c-0.24,0.31-0.03,0.47,0.05,0.53l0.3,0.24l-0.66,0.85L45.64,44.49z"/>
		<path class="st3" d="M47.89,41.43c-0.2-0.09-0.51-0.24-0.58-0.7c-0.06-0.44,0.16-0.91,0.24-1.07c0.16-0.33,0.35-0.64,0.64-0.85
			c0.42-0.29,0.72-0.15,1.16,0.06c0.44,0.21,0.59,0.33,0.61,0.93c0.45-0.47,0.7-0.35,1.31-0.06c0.63,0.3,1.22,0.58,0.57,1.95
			c-0.6,1.28-1.11,1.14-1.65,0.88l-0.5-0.24l0.48-1.01l0.43,0.21c0.14,0.06,0.39,0.19,0.56-0.17c0.17-0.36-0.09-0.49-0.37-0.62
			c-0.54-0.26-0.66-0.31-0.85,0.07l-0.21,0.44l-0.7-0.33c0.35-0.75,0.37-0.84,0-1.01c-0.46-0.22-0.64-0.28-0.8,0.07
			c-0.17,0.35,0.07,0.46,0.16,0.51l0.34,0.16l-0.46,0.97L47.89,41.43z"/>
	</g>
	<path class="st4" d="M41,25.61h5.53c2.41,0,3.22,0.64,3.22,2.27v2.27c0,2.11-1.07,2.5-3.04,2.5h-2.39v4.02h-3.32L41,25.61L41,25.61
		z M45.43,30.69c1.22,0.01,1.22-0.28,1.22-1.69c0-1.05,0-1.26-0.41-1.42c-0.23-0.08-1.51-0.08-1.92-0.08v3.19H45.43z"/>
	<path class="st5" d="M24.36,29.06h-3.29v-0.68c0-0.6-0.12-0.96-1.16-0.96c-0.94,0-1.04,0.46-1.04,0.97v5.34
		c0,0.68,0.12,1.07,1.12,1.07c1.08,0,1.08-0.53,1.08-1.07V32.4h3.36v0.96c0,2.04-0.6,3.27-4.52,3.27c-3.68,0-4.36-1.08-4.36-2.77
		v-5.29c0-0.76,0.1-1.4,0.68-1.96c1.04-0.99,2.78-1.05,3.76-1.05c1.2,0,2.41,0.14,3.31,0.71c1,0.62,1.06,1.51,1.06,2.18
		C24.36,28.45,24.36,29.06,24.36,29.06z"/>
	<g>
		<path class="st6" d="M13.26,24.6c0.82,0.14,1.28,0.23,1.45,0.28v0c-0.13-0.09-0.47-0.38-1.14-0.96l0.12-0.26
			c0.99,0.16,1.27,0.21,1.43,0.25v0c-0.15-0.11-0.35-0.29-1.11-0.93l0.12-0.27l1.33,1.19l-0.13,0.29c-0.63-0.11-1.22-0.2-1.41-0.25
			v0c0.16,0.11,0.56,0.46,1.1,0.92l-0.14,0.3l-1.76-0.27L13.26,24.6z"/>
		<path class="st6" d="M14.52,22.05c0.79,0.25,1.24,0.4,1.4,0.47v0c-0.12-0.11-0.41-0.44-0.99-1.11l0.16-0.25
			c0.96,0.3,1.23,0.38,1.38,0.44v0c-0.13-0.13-0.31-0.33-0.97-1.07l0.16-0.25l1.16,1.36l-0.17,0.27c-0.61-0.2-1.19-0.37-1.36-0.44v0
			c0.14,0.13,0.5,0.54,0.96,1.06l-0.18,0.28l-1.71-0.5L14.52,22.05z"/>
		<path class="st6" d="M16.11,19.7c0.75,0.36,1.17,0.56,1.32,0.65l0,0c-0.1-0.13-0.34-0.49-0.84-1.23l0.19-0.22
			c0.91,0.42,1.17,0.55,1.31,0.62l0,0c-0.11-0.15-0.26-0.37-0.82-1.2l0.19-0.23l0.96,1.51l-0.21,0.24
			c-0.58-0.28-1.13-0.53-1.29-0.62v0c0.12,0.14,0.42,0.6,0.81,1.19l-0.21,0.25l-1.62-0.73L16.11,19.7z"/>
		<path class="st6" d="M18.93,19.1l-0.35-0.35l0.22-0.22l0.35,0.35L18.93,19.1z"/>
		<path class="st6" d="M20.47,16.83c0.18,0.37,0.15,0.79-0.26,1.13c-0.53,0.45-1.15,0.28-1.57-0.22c-0.41-0.48-0.52-1.15,0.02-1.61
			c0.42-0.36,0.85-0.31,1.16-0.06l-0.24,0.2c-0.23-0.14-0.48-0.18-0.76,0.06c-0.39,0.33-0.25,0.83,0.06,1.19
			c0.3,0.35,0.76,0.59,1.18,0.24c0.28-0.24,0.26-0.49,0.18-0.72L20.47,16.83z"/>
		<path class="st6" d="M22.02,15.53c0.28,0.41,0.27,0.9-0.16,1.19c-0.4,0.28-0.86,0.13-1.15-0.3c-0.29-0.42-0.27-0.91,0.16-1.19
			C21.26,14.97,21.72,15.09,22.02,15.53z M20.96,16.25c0.21,0.31,0.52,0.43,0.77,0.26c0.26-0.18,0.26-0.49,0.04-0.81
			c-0.22-0.31-0.51-0.44-0.77-0.26C20.73,15.62,20.74,15.93,20.96,16.25z"/>
		<path class="st6" d="M22.28,14.88c-0.07-0.13-0.14-0.26-0.21-0.37l0.25-0.14c0.03,0.04,0.12,0.2,0.14,0.24
			c-0.01-0.16,0.03-0.38,0.32-0.54c0.28-0.15,0.6-0.1,0.81,0.3l0.52,0.96l-0.26,0.14l-0.51-0.93c-0.12-0.23-0.3-0.33-0.52-0.21
			c-0.29,0.15-0.28,0.43-0.12,0.73l0.43,0.79l-0.26,0.14L22.28,14.88z"/>
		<path class="st6" d="M25.89,14.4c0.21,0.51,0.12,0.88-0.39,1.09c-0.48,0.2-0.74-0.01-0.85-0.21l0.28-0.11
			c0.12,0.15,0.3,0.19,0.5,0.1c0.36-0.15,0.35-0.41,0.2-0.78l-0.05-0.13c-0.01,0.21-0.11,0.37-0.38,0.48
			c-0.39,0.16-0.78-0.04-0.97-0.51c-0.21-0.52-0.04-0.95,0.34-1.11c0.3-0.12,0.49-0.04,0.57,0.05c-0.02-0.07-0.06-0.18-0.07-0.21
			l0.26-0.11c0.03,0.09,0.12,0.3,0.18,0.46L25.89,14.4z M24.5,14.21c0.14,0.33,0.4,0.49,0.66,0.38c0.34-0.14,0.34-0.41,0.2-0.76
			c-0.15-0.35-0.33-0.53-0.66-0.38C24.4,13.56,24.35,13.87,24.5,14.21z"/>
		<path class="st6" d="M26.5,14.36l-0.77-2.35l0.28-0.09l0.77,2.35L26.5,14.36z"/>
		<path class="st6" d="M28.57,12.9c0.12,0.48-0.06,0.94-0.56,1.06c-0.47,0.12-0.85-0.18-0.97-0.67c-0.12-0.49,0.06-0.94,0.57-1.06
			C28.05,12.11,28.44,12.37,28.57,12.9z M27.32,13.21c0.09,0.36,0.33,0.58,0.63,0.51s0.41-0.37,0.32-0.74
			c-0.09-0.37-0.32-0.59-0.63-0.51C27.33,12.54,27.23,12.83,27.32,13.21z"/>
		<path class="st6" d="M29.07,12.37c-0.02-0.15-0.03-0.3-0.05-0.44l0.28-0.03c0.01,0.05,0.03,0.17,0.04,0.26
			c0.06-0.16,0.19-0.32,0.46-0.36c0.24-0.03,0.42,0.07,0.51,0.25c0.07-0.17,0.22-0.33,0.5-0.37c0.28-0.03,0.55,0.1,0.6,0.56
			l0.13,1.11l-0.29,0.03l-0.13-1.08c-0.02-0.2-0.12-0.39-0.38-0.36c-0.28,0.03-0.37,0.26-0.33,0.56l0.12,0.97l-0.29,0.03l-0.13-1.07
			c-0.02-0.22-0.11-0.4-0.37-0.37c-0.27,0.03-0.37,0.27-0.34,0.59l0.11,0.93l-0.29,0.03L29.07,12.37z"/>
		<path class="st6" d="M32.29,12.54c0,0.35,0.18,0.6,0.46,0.6c0.27,0,0.36-0.14,0.41-0.26h0.3c-0.07,0.22-0.25,0.51-0.72,0.51
			c-0.54,0-0.75-0.44-0.75-0.88c0-0.51,0.26-0.91,0.78-0.91c0.55,0,0.73,0.44,0.73,0.81c0,0.05,0,0.09,0,0.14L32.29,12.54z
			 M33.2,12.34c0-0.28-0.14-0.51-0.43-0.51c-0.3,0-0.43,0.21-0.46,0.51H33.2z"/>
		<path class="st6" d="M34.05,12.14c0.02-0.24,0.03-0.37,0.03-0.46l0.29,0.02c0,0.05,0,0.18-0.02,0.35c0.11-0.22,0.32-0.35,0.6-0.34
			l-0.02,0.29c-0.35-0.02-0.59,0.14-0.62,0.58l-0.07,0.83l-0.3-0.02L34.05,12.14z"/>
		<path class="st6" d="M36.48,13.33c-0.02,0.15-0.04,0.32-0.04,0.37l-0.28-0.04c0-0.04,0-0.12,0.01-0.23
			c-0.08,0.1-0.24,0.23-0.56,0.18c-0.4-0.06-0.53-0.35-0.48-0.61c0.06-0.37,0.38-0.5,0.89-0.42c0.12,0.02,0.23,0.03,0.29,0.05
			l0.02-0.14c0.02-0.15,0-0.34-0.31-0.39c-0.28-0.04-0.35,0.08-0.4,0.21l-0.28-0.04c0.06-0.23,0.25-0.47,0.73-0.39
			c0.41,0.07,0.61,0.28,0.55,0.65L36.48,13.33z M36.27,12.83c-0.05-0.01-0.18-0.03-0.27-0.04c-0.33-0.05-0.53,0.01-0.57,0.25
			c-0.03,0.18,0.07,0.32,0.28,0.35c0.41,0.06,0.51-0.2,0.56-0.5L36.27,12.83z"/>
		<path class="st6" d="M37.17,12.12l0.29,0.07l0.12-0.49l0.29,0.07l-0.12,0.49l0.36,0.09l-0.06,0.23l-0.36-0.09l-0.24,0.97
			c-0.04,0.16-0.02,0.25,0.13,0.29c0.04,0.01,0.1,0.02,0.15,0.02l-0.05,0.22c-0.08,0.01-0.18-0.01-0.26-0.03
			c-0.26-0.06-0.34-0.23-0.27-0.5l0.25-1.04l-0.29-0.07L37.17,12.12z"/>
		<path class="st6" d="M38.49,13.4c-0.1,0.33-0.01,0.62,0.26,0.71c0.26,0.08,0.38-0.02,0.47-0.12l0.28,0.09
			c-0.13,0.19-0.39,0.41-0.84,0.26c-0.51-0.17-0.59-0.65-0.45-1.06c0.16-0.48,0.53-0.79,1.02-0.63c0.52,0.17,0.56,0.64,0.45,0.99
			c-0.01,0.05-0.03,0.09-0.05,0.13L38.49,13.4z M39.42,13.48c0.08-0.27,0.02-0.53-0.26-0.61c-0.29-0.09-0.48,0.06-0.6,0.34
			L39.42,13.48z"/>
		<path class="st6" d="M40.83,12.58l0.81,0.36c0.42,0.19,0.6,0.55,0.42,0.93c-0.19,0.42-0.59,0.5-1,0.31l-0.51-0.23l-0.39,0.88
			l-0.29-0.13L40.83,12.58z M40.66,13.73l0.5,0.22c0.3,0.13,0.5,0.05,0.61-0.2c0.12-0.26,0-0.47-0.26-0.58l-0.51-0.23L40.66,13.73z"
			/>
		<path class="st6" d="M42.35,14.51c0.12-0.21,0.18-0.33,0.22-0.41l0.25,0.14c-0.02,0.04-0.08,0.16-0.16,0.31
			c0.19-0.16,0.44-0.19,0.69-0.06l-0.14,0.26c-0.31-0.16-0.6-0.11-0.81,0.27L42,15.74l-0.26-0.14L42.35,14.51z"/>
		<path class="st6" d="M43.75,14.79L44,14.95l-0.91,1.44l-0.25-0.16L43.75,14.79z M44.16,14.15l0.25,0.16l-0.2,0.31l-0.25-0.16
			L44.16,14.15z"/>
		<path class="st6" d="M44.36,15.69c0.09-0.12,0.18-0.24,0.25-0.35l0.23,0.17c-0.02,0.04-0.13,0.19-0.16,0.23
			c0.14-0.08,0.36-0.13,0.62,0.06c0.26,0.19,0.34,0.5,0.07,0.86l-0.65,0.88l-0.24-0.18l0.63-0.85c0.15-0.21,0.18-0.41-0.03-0.56
			c-0.26-0.19-0.51-0.07-0.71,0.21l-0.54,0.73l-0.24-0.18L44.36,15.69z"/>
		<path class="st6" d="M46.11,16.48l0.22,0.2l0.33-0.38l0.22,0.19l-0.33,0.38l0.29,0.25l-0.16,0.18l-0.29-0.25l-0.66,0.75
			c-0.11,0.12-0.13,0.22-0.02,0.31c0.03,0.03,0.08,0.06,0.12,0.09l-0.15,0.17c-0.07-0.03-0.15-0.09-0.21-0.14
			c-0.2-0.18-0.2-0.35-0.01-0.57l0.7-0.8l-0.22-0.2L46.11,16.48z"/>
		<path class="st6" d="M46.49,18.47c-0.1,0.17-0.08,0.34,0.08,0.51c0.18,0.18,0.32,0.17,0.43,0.06c0.11-0.11,0.11-0.22-0.06-0.51
			c-0.26-0.43-0.22-0.6-0.06-0.77c0.17-0.17,0.47-0.21,0.77,0.1c0.31,0.31,0.26,0.62,0.1,0.8l-0.2-0.2
			c0.06-0.09,0.11-0.26-0.07-0.45c-0.17-0.17-0.3-0.14-0.38-0.06c-0.09,0.09-0.08,0.18,0.08,0.46c0.28,0.45,0.23,0.65,0.04,0.83
			c-0.21,0.21-0.54,0.19-0.83-0.11c-0.31-0.31-0.3-0.62-0.11-0.87L46.49,18.47z"/>
		<path class="st6" d="M47.19,19.92l0.38-0.32l0.2,0.24l-0.38,0.32L47.19,19.92z"/>
		<path class="st6" d="M48.96,21.32c-0.28,0.12-0.61,0.12-0.87-0.23c-0.28-0.37-0.19-0.81,0.25-1.14c0.38-0.29,0.89-0.32,1.19,0.08
			c0.3,0.39,0.12,0.74-0.04,0.89l-0.17-0.24c0.11-0.14,0.17-0.31,0.02-0.51c-0.18-0.24-0.49-0.22-0.8,0.01
			c-0.31,0.23-0.42,0.52-0.24,0.76c0.13,0.17,0.3,0.2,0.5,0.13L48.96,21.32z"/>
		<path class="st6" d="M50.29,22.81c-0.42,0.26-0.91,0.23-1.18-0.22c-0.26-0.42-0.09-0.87,0.35-1.13c0.43-0.26,0.91-0.22,1.18,0.22
			C50.89,22.08,50.74,22.54,50.29,22.81z M49.62,21.72c-0.32,0.2-0.45,0.5-0.3,0.76c0.16,0.27,0.48,0.28,0.81,0.08
			c0.32-0.2,0.46-0.49,0.3-0.76C50.26,21.53,49.95,21.52,49.62,21.72z"/>
		<path class="st6" d="M50.94,23.12c0.13-0.06,0.28-0.12,0.4-0.18l0.12,0.26c-0.04,0.02-0.16,0.08-0.24,0.12
			c0.17,0.01,0.37,0.08,0.48,0.33c0.1,0.22,0.05,0.42-0.08,0.56c0.19,0.02,0.38,0.1,0.5,0.37c0.11,0.25,0.07,0.56-0.35,0.75
			l-1.02,0.46l-0.12-0.27l0.99-0.45c0.18-0.08,0.34-0.23,0.23-0.48c-0.11-0.25-0.35-0.28-0.63-0.15l-0.9,0.4l-0.12-0.27l0.98-0.44
			c0.2-0.09,0.35-0.23,0.24-0.47c-0.11-0.25-0.37-0.28-0.66-0.15L49.9,23.9l-0.12-0.27L50.94,23.12z"/>
	</g>
	<g>
		<g>
			<path class="st7" d="M8.37,40.59l-1.38,0.45c-0.43,0.14-0.52,0.47-0.44,0.72c0.09,0.28,0.36,0.43,0.67,0.33l1.49-0.48l0.04,0.12
				l-1.51,0.49c-0.38,0.12-0.69-0.08-0.8-0.42c-0.09-0.29-0.02-0.49,0.19-0.72c-0.3-0.06-0.48-0.19-0.57-0.47
				c-0.11-0.34,0.02-0.68,0.4-0.81l1.51-0.49l0.04,0.12l-1.49,0.48c-0.3,0.1-0.43,0.38-0.34,0.66c0.08,0.25,0.35,0.47,0.78,0.32
				l1.38-0.45L8.37,40.59z"/>
			<path class="st7" d="M7.13,43.51l1.98-0.91l0.05,0.12l-0.9,0.41l0.5,1.1l0.9-0.41l0.05,0.12l-1.98,0.91l-0.05-0.12l0.98-0.45
				l-0.5-1.1l-0.98,0.45L7.13,43.51z"/>
			<path class="st7" d="M9.78,46.37l-0.59-1.04c-0.56,0.32-0.55,0.95-0.33,1.34l0.1,0.17l-0.1,0.05l-0.12-0.22
				c-0.27-0.47-0.2-1.13,0.41-1.48s1.21-0.07,1.48,0.4l0.12,0.22l-0.1,0.05l-0.12-0.21c-0.28-0.48-0.88-0.6-1.24-0.39l0.59,1.04
				L9.78,46.37z"/>
			<path class="st7" d="M9.43,47.82l1.26-0.87c0.34-0.24,0.71-0.18,0.93,0.15c0.23,0.33,0.18,0.68-0.09,0.87
				c-0.22,0.15-0.44,0.17-0.65,0.01l0,0c0.1,0.22,0.05,0.45-0.19,0.61l-0.49,0.34l-0.08-0.11l0.51-0.35
				c0.19-0.13,0.26-0.35,0.05-0.66l-0.26-0.37l0.09-0.06l0.2,0.29c0.22,0.31,0.49,0.35,0.73,0.19c0.23-0.16,0.26-0.44,0.08-0.7
				c-0.19-0.28-0.48-0.3-0.75-0.11L9.5,47.93L9.43,47.82z"/>
			<path class="st7" d="M12.46,50.07l-0.76-0.92c-0.5,0.41-0.38,1.03-0.1,1.37l0.13,0.15l-0.09,0.07l-0.16-0.19
				c-0.34-0.42-0.39-1.08,0.16-1.52c0.54-0.45,1.18-0.28,1.52,0.14l0.16,0.19l-0.09,0.07l-0.15-0.19c-0.35-0.43-0.96-0.44-1.29-0.17
				l0.76,0.92L12.46,50.07z"/>
			<path class="st7" d="M13.71,52.74l0.32,0.3c0.31,0.29,0.58,0.25,0.76,0.04c0.2-0.22,0.2-0.5-0.06-0.74l-0.36-0.33l0.07-0.08
				l0.23,0.21c0.3,0.28,0.54,0.3,0.76,0.06c0.18-0.19,0.15-0.44-0.08-0.65s-0.52-0.23-0.77,0.03l-1.05,1.15l-0.1-0.09l1-1.09
				c0.34-0.37,0.68-0.37,1-0.08c0.31,0.29,0.29,0.6,0.1,0.81c-0.15,0.16-0.34,0.27-0.59,0.16l0,0c0.14,0.13,0.17,0.47-0.06,0.72
				c-0.21,0.24-0.55,0.29-0.88-0.01l-0.38-0.35L13.71,52.74z"/>
			<path class="st7" d="M15.3,54.28l0.93-1.21c0.25-0.33,0.62-0.39,0.93-0.15c0.31,0.24,0.38,0.59,0.19,0.85
				c-0.16,0.21-0.36,0.3-0.61,0.22l0,0c0.17,0.18,0.19,0.41,0.01,0.64l-0.36,0.47l-0.11-0.08l0.37-0.49
				c0.14-0.18,0.14-0.42-0.16-0.64l-0.35-0.27l0.07-0.09l0.28,0.22c0.3,0.23,0.57,0.19,0.75-0.04c0.17-0.22,0.1-0.5-0.14-0.69
				c-0.27-0.2-0.55-0.13-0.75,0.13l-0.93,1.22L15.3,54.28z"/>
			<path class="st7" d="M17.34,55.76l1.21-1.81l0.11,0.07l-1.21,1.81L17.34,55.76z"/>
			<path class="st7" d="M19.64,54.64l-0.77,1.32c-0.15,0.27-0.11,0.56,0.14,0.7l0.36,0.21l-0.05,0.1l-0.4-0.23
				c-0.23-0.13-0.37-0.47-0.16-0.84l0.77-1.33L19.64,54.64z"/>
			<path class="st7" d="M21.19,55.49l-0.67,1.38c-0.13,0.28-0.07,0.57,0.19,0.69l0.37,0.18l-0.05,0.1l-0.41-0.2
				c-0.24-0.12-0.41-0.44-0.22-0.82l0.68-1.38L21.19,55.49z"/>
			<path class="st7" d="M21.92,58.22l0.84-2.01l0.12,0.05l-0.84,2.01L21.92,58.22z"/>
			<path class="st7" d="M24.57,59.19l-0.12-0.04l0.34-1.01l-1.06-0.35l0.03-0.11l1.06,0.35l0.1-0.31c0.12-0.35-0.05-0.64-0.4-0.76
				c-0.35-0.12-0.66,0.01-0.77,0.36l-0.48,1.43l-0.12-0.04l0.46-1.39c0.15-0.45,0.52-0.61,0.95-0.47s0.62,0.5,0.47,0.95L24.57,59.19
				z"/>
			<path class="st7" d="M25.69,59.51l0.46-1.99c0.02-0.08,0.07-0.16,0.2-0.13c0.08,0.02,0.13,0.05,0.15,0.17l0.45,2.11
				c0,0.02,0.02,0.05,0.04,0.05c0.02,0,0.04-0.01,0.05-0.05l0.47-2.01l0.13,0.03l-0.48,2.04c-0.02,0.1-0.08,0.14-0.19,0.12
				c-0.11-0.02-0.15-0.12-0.16-0.19l-0.42-2.01c-0.02-0.1-0.03-0.13-0.06-0.14c-0.02,0-0.04,0-0.05,0.04l-0.46,1.99L25.69,59.51z"/>
			<path class="st7" d="M28.79,60.12l-0.13-0.02l0.3-2.04l-0.61-0.09l0.01-0.11l1.35,0.2l-0.01,0.11l-0.61-0.09L28.79,60.12z"/>
			<path class="st7" d="M31.94,60.38l0.05-2.18l0.13,0l-0.05,2.18L31.94,60.38z"/>
			<path class="st7" d="M33.28,60.39l-0.1-2.17l0.47-0.02c0.58-0.03,1.13,0.39,1.16,1.03c0.03,0.66-0.4,1.11-0.97,1.14l-0.31,0.01
				l0-0.12l0.3-0.01c0.57-0.02,0.88-0.51,0.85-1.01c-0.02-0.54-0.47-0.95-1.06-0.92l-0.29,0.01l0.1,2.06L33.28,60.39z"/>
			<path class="st7" d="M36.95,58.99l-1.19,0.16c0.09,0.63,0.68,0.87,1.12,0.81l0.2-0.03l0.01,0.11l-0.25,0.03
				c-0.54,0.07-1.12-0.24-1.21-0.93c-0.1-0.7,0.38-1.15,0.91-1.22l0.25-0.03L36.8,58l-0.24,0.03c-0.55,0.07-0.88,0.6-0.82,1.01
				l1.19-0.16L36.95,58.99z"/>
			<path class="st7" d="M39.61,59.52l-0.13,0.03l-0.24-1.04l-1.09,0.25l-0.02-0.11l1.09-0.25l-0.07-0.32
				c-0.08-0.36-0.37-0.52-0.73-0.44c-0.36,0.08-0.55,0.35-0.47,0.71l0.33,1.47l-0.13,0.03l-0.32-1.43c-0.1-0.46,0.12-0.8,0.57-0.9
				s0.79,0.1,0.9,0.57L39.61,59.52z"/>
			<path class="st7" d="M41.27,56.86l-0.68,0.23c-0.34,0.11-0.41,0.29-0.33,0.51c0.21,0.63,1.35-0.13,1.61,0.66
				c0.11,0.34-0.07,0.6-0.47,0.73l-0.74,0.25l-0.04-0.11l0.73-0.24c0.33-0.11,0.49-0.31,0.4-0.57c-0.23-0.7-1.36,0.11-1.62-0.69
				c-0.1-0.31,0.09-0.55,0.39-0.64l0.73-0.24L41.27,56.86z"/>
			<path class="st7" d="M45.8,57.11l-0.12,0.06l-0.48-0.95l-0.99,0.5l-0.05-0.1l0.99-0.5l-0.15-0.3c-0.16-0.33-0.49-0.42-0.82-0.25
				c-0.33,0.17-0.45,0.48-0.29,0.81l0.67,1.34l-0.12,0.06l-0.65-1.31c-0.21-0.42-0.07-0.8,0.33-1c0.41-0.2,0.79-0.09,1,0.33
				L45.8,57.11z"/>
			<path class="st7" d="M46.8,56.54l-0.81-1.3c-0.22-0.35-0.14-0.72,0.19-0.92c0.34-0.21,0.69-0.15,0.87,0.13
				c0.14,0.22,0.15,0.44-0.01,0.65l0,0c0.23-0.09,0.45-0.03,0.6,0.21l0.31,0.51l-0.12,0.07l-0.32-0.52
				c-0.12-0.2-0.34-0.28-0.66-0.08l-0.38,0.24l-0.06-0.09l0.3-0.19c0.32-0.2,0.37-0.47,0.22-0.72c-0.14-0.23-0.43-0.28-0.69-0.11
				c-0.29,0.18-0.32,0.47-0.14,0.75l0.81,1.3L46.8,56.54z"/>
			<path class="st7" d="M49.19,53.63l-0.95,0.72c0.38,0.51,1.01,0.43,1.37,0.17l0.16-0.12l0.07,0.09l-0.2,0.15
				c-0.43,0.32-1.09,0.33-1.51-0.23c-0.42-0.56-0.22-1.19,0.21-1.51l0.2-0.15l0.07,0.09l-0.2,0.14c-0.44,0.33-0.48,0.94-0.23,1.28
				l0.95-0.71L49.19,53.63z"/>
			<path class="st7" d="M51.8,52.76l-1.11-1.12c-0.24-0.24-0.29-0.62,0.02-0.92c0.27-0.27,0.64-0.3,0.94,0c0.3,0.3,0.27,0.68,0,0.94
				l-0.3,0.3l-0.08-0.08l0.3-0.3c0.22-0.22,0.23-0.52-0.01-0.77c-0.25-0.25-0.55-0.23-0.77-0.01c-0.22,0.22-0.22,0.54-0.02,0.74
				l1.12,1.13L51.8,52.76z"/>
			<path class="st7" d="M53.4,51.12l-1.17-0.99c-0.32-0.27-0.35-0.63-0.1-0.93c0.26-0.3,0.61-0.35,0.86-0.14
				c0.2,0.17,0.28,0.37,0.18,0.62l0,0c0.19-0.16,0.42-0.17,0.64,0.02l0.45,0.39l-0.09,0.1l-0.47-0.4c-0.18-0.15-0.41-0.16-0.65,0.12
				l-0.29,0.34l-0.08-0.07l0.23-0.27c0.25-0.29,0.22-0.56-0.01-0.75c-0.21-0.18-0.49-0.13-0.69,0.1c-0.22,0.26-0.16,0.54,0.09,0.76
				l1.17,0.99L53.4,51.12z"/>
			<path class="st7" d="M54.98,49.16l-1.75-1.29l0.08-0.1l1.75,1.29L54.98,49.16z"/>
			<path class="st7" d="M55.75,48.08l-1.73-1.09c-0.07-0.04-0.13-0.12-0.06-0.23c0.04-0.07,0.09-0.1,0.21-0.09l2.13,0.27
				c0.03,0,0.05,0,0.06-0.02c0.01-0.02,0-0.04-0.03-0.06l-1.75-1.1l0.07-0.11l1.77,1.12c0.09,0.05,0.1,0.12,0.04,0.22
				c-0.06,0.1-0.17,0.1-0.23,0.09l-2.04-0.27c-0.1-0.01-0.14-0.01-0.15,0.01c-0.01,0.02,0,0.04,0.03,0.06l1.73,1.09L55.75,48.08z"/>
			<path class="st7" d="M57.36,45.34l-0.06,0.12l-1.83-0.95l-0.29,0.55l-0.1-0.05l0.63-1.21l0.1,0.05l-0.29,0.55L57.36,45.34z"/>
			<path class="st7" d="M57.53,42.43l-0.46,1.1c0.59,0.25,1.09-0.14,1.26-0.55l0.08-0.18l0.1,0.04l-0.1,0.23
				c-0.21,0.5-0.77,0.84-1.42,0.57c-0.65-0.27-0.8-0.91-0.59-1.42L56.5,42l0.1,0.04l-0.09,0.23c-0.22,0.51,0.06,1.06,0.45,1.22
				l0.46-1.1L57.53,42.43z"/>
			<path class="st7" d="M58.89,41.82l-2.08-0.66l0.14-0.45c0.18-0.55,0.76-0.92,1.37-0.72c0.63,0.2,0.9,0.77,0.72,1.3l-0.09,0.3
				l-0.11-0.03l0.09-0.29c0.17-0.54-0.17-1-0.65-1.15c-0.52-0.16-1.05,0.11-1.23,0.67l-0.09,0.28l1.96,0.62L58.89,41.82z"/>
		</g>
	</g>
	<g>
		<g>
			<path class="st8" d="M9.32,29.5l-0.08,0.71l0.3,0.03l0.07-0.62l0.23,0.02l-0.07,0.62l0.56,0.06l-0.03,0.3l-1.32-0.14l0.11-1
				L9.32,29.5z"/>
			<path class="st8" d="M10.1,28.34l-0.05,0.3l0.51,0.09l-0.05,0.29l-1.31-0.25l0.13-0.68c0.02-0.1,0.04-0.17,0.07-0.22
				c0.03-0.05,0.07-0.09,0.12-0.12c0.04-0.02,0.08-0.04,0.12-0.05c0.04-0.01,0.09-0.01,0.14,0c0.06,0.01,0.12,0.04,0.17,0.08
				c0.05,0.04,0.08,0.11,0.1,0.19c0.03-0.06,0.08-0.1,0.13-0.12c0.05-0.02,0.12-0.02,0.21,0l0.09,0.01c0.06,0.01,0.1,0.01,0.12,0.01
				c0.03,0,0.06-0.01,0.08-0.04l0.03,0l-0.06,0.32c-0.03,0-0.05,0-0.07,0c-0.04,0-0.08,0-0.11-0.01l-0.12-0.02
				c-0.08-0.01-0.14-0.01-0.18,0.02C10.14,28.2,10.11,28.25,10.1,28.34z M9.89,28.11c-0.01-0.06-0.06-0.1-0.13-0.11
				c-0.08-0.01-0.14,0-0.18,0.05c-0.02,0.03-0.04,0.07-0.05,0.14l-0.06,0.34l0.35,0.06l0.06-0.33C9.9,28.2,9.9,28.15,9.89,28.11z"/>
			<path class="st8" d="M11.06,26.63c-0.05,0.2-0.14,0.33-0.27,0.41c-0.16,0.1-0.35,0.13-0.59,0.06c-0.24-0.06-0.39-0.18-0.47-0.35
				c-0.07-0.13-0.08-0.3-0.02-0.49c0.05-0.2,0.14-0.33,0.27-0.41c0.16-0.1,0.35-0.13,0.59-0.06c0.23,0.06,0.39,0.18,0.47,0.35
				C11.1,26.27,11.11,26.44,11.06,26.63z M10.79,26.27c-0.06-0.09-0.16-0.15-0.3-0.19c-0.14-0.04-0.27-0.03-0.36,0.01
				c-0.1,0.04-0.16,0.12-0.19,0.24c-0.03,0.11-0.01,0.22,0.04,0.3s0.16,0.15,0.3,0.19c0.14,0.04,0.27,0.03,0.36-0.01
				c0.1-0.04,0.16-0.13,0.19-0.24C10.87,26.46,10.85,26.36,10.79,26.27z"/>
			<path class="st8" d="M11.5,25.1l-0.1,0.26l-1.24-0.46l0.15-0.4l1.07,0.12l-0.89-0.6l0.15-0.4l1.24,0.46l-0.1,0.26l-0.84-0.31
				c-0.02-0.01-0.06-0.02-0.1-0.04c-0.04-0.02-0.08-0.03-0.1-0.04l0.95,0.64l-0.1,0.27l-1.14-0.14c0.02,0.01,0.06,0.02,0.1,0.03
				c0.04,0.01,0.08,0.03,0.1,0.04L11.5,25.1z"/>
			<path class="st8" d="M12.64,22.02c0.03-0.06,0.05-0.11,0.06-0.16c0.01-0.09-0.01-0.15-0.08-0.18c-0.04-0.02-0.08-0.02-0.12,0
				c-0.04,0.02-0.09,0.07-0.14,0.14l-0.1,0.12c-0.1,0.12-0.17,0.19-0.23,0.23c-0.1,0.06-0.21,0.05-0.32,0
				c-0.1-0.05-0.17-0.14-0.2-0.26c-0.02-0.12,0-0.26,0.08-0.42c0.07-0.13,0.16-0.23,0.28-0.29c0.11-0.06,0.24-0.06,0.36,0
				l-0.13,0.25c-0.07-0.03-0.14-0.02-0.2,0.02c-0.04,0.03-0.08,0.08-0.11,0.14c-0.03,0.07-0.05,0.13-0.05,0.18
				c0,0.05,0.03,0.09,0.07,0.12c0.04,0.02,0.08,0.02,0.12-0.01c0.03-0.02,0.07-0.06,0.13-0.14l0.16-0.19
				c0.07-0.08,0.14-0.14,0.2-0.17c0.09-0.04,0.2-0.04,0.3,0.01c0.11,0.06,0.17,0.15,0.2,0.27s0,0.27-0.09,0.43s-0.19,0.28-0.31,0.33
				c-0.12,0.06-0.24,0.05-0.36-0.01l0.13-0.25c0.06,0.02,0.11,0.02,0.15,0.01C12.52,22.18,12.58,22.12,12.64,22.02z"/>
			<path class="st8" d="M13.41,20.08l-0.69-0.44l0.16-0.26l0.69,0.44c0.12,0.07,0.2,0.15,0.24,0.24c0.07,0.15,0.04,0.33-0.08,0.54
				c-0.13,0.21-0.28,0.31-0.45,0.31c-0.09,0-0.2-0.04-0.31-0.12l-0.69-0.44l0.16-0.26l0.69,0.44c0.08,0.05,0.14,0.07,0.19,0.08
				c0.08,0.01,0.16-0.04,0.22-0.14c0.06-0.1,0.07-0.19,0.03-0.26C13.53,20.17,13.48,20.12,13.41,20.08z"/>
			<path class="st8" d="M14.38,18.75L14.19,19l0.38,0.29l-0.18,0.24l-1.06-0.8l0.37-0.5c0.08-0.11,0.18-0.19,0.29-0.21
				c0.1-0.02,0.22,0,0.33,0.09c0.13,0.09,0.19,0.2,0.19,0.3C14.52,18.51,14.47,18.63,14.38,18.75z M14.24,18.47
				c0-0.05-0.03-0.1-0.09-0.14c-0.05-0.04-0.11-0.05-0.15-0.04c-0.04,0.01-0.09,0.05-0.13,0.1l-0.17,0.22l0.31,0.24l0.17-0.22
				C14.22,18.58,14.24,18.53,14.24,18.47z"/>
			<path class="st8" d="M15.67,17.03l-0.46,0.52l0.26,0.23l0.52-0.59l0.18,0.16l-0.71,0.81l-1-0.88l0.69-0.78l0.18,0.16l-0.5,0.57
				l0.21,0.19l0.46-0.52L15.67,17.03z"/>
			<path class="st8" d="M16.68,16.08l-0.22,0.21l0.36,0.37l-0.21,0.2l-0.93-0.95l0.5-0.49c0.07-0.07,0.14-0.11,0.19-0.13
				c0.05-0.02,0.11-0.03,0.16-0.03c0.04,0,0.09,0.01,0.13,0.03c0.04,0.01,0.08,0.04,0.12,0.08c0.04,0.04,0.07,0.1,0.09,0.17
				c0.02,0.07,0.01,0.14-0.03,0.21c0.06-0.03,0.12-0.03,0.17-0.02s0.11,0.05,0.17,0.12l0.06,0.06c0.04,0.04,0.07,0.07,0.09,0.08
				c0.03,0.02,0.06,0.02,0.09,0.02l0.02,0.02l-0.24,0.23c-0.02-0.01-0.05-0.03-0.06-0.04c-0.03-0.02-0.06-0.04-0.09-0.07L17,16.08
				c-0.06-0.06-0.11-0.09-0.15-0.09C16.8,15.99,16.74,16.02,16.68,16.08z M16.64,15.78c0.02-0.06,0.01-0.12-0.04-0.17
				c-0.05-0.06-0.11-0.08-0.18-0.06c-0.03,0.01-0.07,0.04-0.12,0.08l-0.25,0.24l0.25,0.26l0.24-0.24
				C16.6,15.86,16.63,15.82,16.64,15.78z"/>
			<path class="st8" d="M17.08,14.62l0.23-0.19l0.87,1.01l-0.23,0.19L17.08,14.62z"/>
			<path class="st8" d="M19.21,14.65c-0.16,0.12-0.32,0.17-0.47,0.16c-0.19-0.01-0.36-0.12-0.5-0.31c-0.15-0.2-0.2-0.38-0.16-0.57
				c0.02-0.15,0.12-0.28,0.28-0.4s0.32-0.17,0.47-0.16c0.19,0.01,0.35,0.11,0.5,0.31c0.14,0.19,0.2,0.38,0.16,0.57
				C19.47,14.4,19.38,14.53,19.21,14.65z M19.22,14.2c0-0.11-0.03-0.22-0.12-0.34c-0.09-0.12-0.19-0.19-0.29-0.22
				c-0.1-0.02-0.2,0-0.3,0.07c-0.1,0.07-0.14,0.16-0.15,0.27c0,0.11,0.03,0.22,0.12,0.34c0.09,0.12,0.19,0.19,0.29,0.21
				s0.21,0,0.3-0.07C19.17,14.4,19.22,14.31,19.22,14.2z"/>
			<path class="st8" d="M20.51,13.09l-0.26,0.16l0.28,0.44l-0.25,0.15l-0.71-1.13l0.59-0.37c0.08-0.05,0.16-0.08,0.21-0.09
				c0.06-0.01,0.11-0.01,0.17,0c0.04,0.01,0.08,0.03,0.12,0.06c0.04,0.02,0.07,0.06,0.1,0.1c0.03,0.05,0.05,0.11,0.05,0.19
				s-0.02,0.14-0.07,0.2c0.07-0.01,0.13-0.01,0.17,0.01c0.05,0.02,0.09,0.07,0.14,0.15l0.05,0.07c0.03,0.05,0.05,0.08,0.07,0.1
				c0.02,0.02,0.05,0.03,0.08,0.03l0.02,0.03l-0.28,0.17c-0.02-0.02-0.04-0.04-0.05-0.05c-0.02-0.03-0.05-0.06-0.07-0.09l-0.07-0.1
				c-0.04-0.07-0.09-0.11-0.13-0.12C20.64,13.03,20.58,13.04,20.51,13.09z M20.53,12.79c0.03-0.05,0.03-0.11,0-0.17
				c-0.04-0.07-0.1-0.1-0.16-0.09c-0.03,0-0.08,0.02-0.13,0.06l-0.29,0.18l0.19,0.3l0.29-0.18C20.47,12.86,20.51,12.82,20.53,12.79z
				"/>
			<path class="st8" d="M23.07,10.82l0.1,0.21l-0.38,0.18l0.47,0.99l-0.27,0.13l-0.47-0.99l-0.39,0.18l-0.1-0.21L23.07,10.82z"/>
			<path class="st8" d="M24.74,11.61c-0.19,0.07-0.35,0.08-0.49,0.02c-0.18-0.07-0.31-0.21-0.4-0.43c-0.09-0.23-0.08-0.42,0-0.59
				c0.06-0.13,0.19-0.24,0.38-0.31c0.19-0.07,0.35-0.08,0.49-0.02c0.18,0.06,0.31,0.21,0.39,0.44c0.08,0.22,0.08,0.42,0,0.59
				C25.06,11.43,24.94,11.53,24.74,11.61z M24.88,11.17c0.03-0.1,0.02-0.22-0.02-0.36c-0.05-0.14-0.13-0.24-0.22-0.29
				c-0.09-0.05-0.2-0.06-0.3-0.01c-0.11,0.04-0.18,0.11-0.22,0.21c-0.04,0.1-0.03,0.22,0.02,0.36c0.05,0.14,0.13,0.24,0.22,0.29
				s0.2,0.05,0.3,0.01C24.77,11.35,24.84,11.27,24.88,11.17z"/>
			<path class="st8" d="M27.36,10.56c0.07-0.01,0.12-0.03,0.16-0.06c0.07-0.04,0.1-0.1,0.08-0.18c-0.01-0.04-0.04-0.07-0.08-0.08
				c-0.04-0.01-0.11-0.02-0.2-0.01l-0.15,0c-0.15,0-0.26,0-0.32-0.02c-0.11-0.04-0.18-0.12-0.21-0.25c-0.03-0.11,0-0.22,0.06-0.32
				c0.07-0.1,0.19-0.17,0.37-0.21c0.15-0.03,0.28-0.03,0.4,0.02c0.12,0.05,0.2,0.14,0.24,0.28l-0.28,0.07
				c-0.02-0.08-0.07-0.12-0.15-0.14c-0.05-0.01-0.11-0.01-0.18,0.01c-0.07,0.02-0.13,0.04-0.17,0.08s-0.05,0.08-0.04,0.13
				c0.01,0.04,0.04,0.07,0.09,0.09c0.03,0.01,0.09,0.01,0.19,0.01l0.25,0c0.11,0,0.2,0.01,0.26,0.03c0.1,0.04,0.16,0.12,0.19,0.24
				c0.03,0.12,0,0.23-0.07,0.33s-0.21,0.17-0.38,0.22c-0.18,0.04-0.33,0.04-0.45-0.01c-0.12-0.05-0.2-0.14-0.23-0.28l0.28-0.07
				c0.02,0.06,0.05,0.1,0.08,0.12C27.15,10.58,27.24,10.59,27.36,10.56z"/>
			<path class="st8" d="M29.33,9.85L29.2,9.05L29.5,9l0.13,0.81c0.02,0.14,0.01,0.25-0.02,0.33c-0.06,0.16-0.22,0.26-0.46,0.29
				c-0.24,0.04-0.42,0-0.53-0.13c-0.06-0.07-0.1-0.18-0.12-0.31l-0.13-0.81l0.3-0.05l0.13,0.81c0.01,0.09,0.03,0.15,0.06,0.19
				c0.05,0.07,0.13,0.09,0.25,0.07c0.12-0.02,0.19-0.07,0.22-0.15C29.34,10.01,29.34,9.94,29.33,9.85z"/>
			<path class="st8" d="M31.04,10.18l-0.64,0.05l-0.1-1.32l0.69-0.05c0.17-0.01,0.3,0.03,0.38,0.11c0.05,0.05,0.07,0.12,0.08,0.2
				s-0.01,0.15-0.05,0.2c-0.02,0.03-0.06,0.06-0.1,0.08c0.07,0.02,0.13,0.05,0.17,0.1c0.04,0.05,0.06,0.11,0.07,0.19
				c0,0.08-0.01,0.15-0.05,0.22c-0.02,0.04-0.05,0.08-0.09,0.11c-0.04,0.03-0.09,0.06-0.16,0.08
				C31.19,10.16,31.12,10.17,31.04,10.18z M31.12,9.33c0.03-0.02,0.05-0.06,0.05-0.12c0-0.06-0.03-0.1-0.08-0.12
				c-0.04-0.01-0.1-0.01-0.17-0.01l-0.31,0.02l0.02,0.29l0.34-0.02C31.03,9.37,31.08,9.36,31.12,9.33z M30.99,9.6l-0.35,0.03
				l0.02,0.35l0.35-0.02c0.06,0,0.11-0.01,0.14-0.03c0.06-0.03,0.09-0.09,0.08-0.17c0-0.07-0.04-0.11-0.1-0.13
				C31.1,9.6,31.05,9.59,30.99,9.6z"/>
			<path class="st8" d="M32.23,8.79h0.3v1.09h0.7v0.24h-1L32.23,8.79z"/>
			<path class="st8" d="M33.91,8.82l0.3,0.02l-0.08,1.33l-0.3-0.01L33.91,8.82z"/>
			<path class="st8" d="M35.08,10.25l-0.28-0.03l0.17-1.32l0.43,0.05l0.13,1.07l0.38-1l0.42,0.05l-0.17,1.32l-0.28-0.03L36,9.46
				c0-0.02,0.01-0.06,0.01-0.11c0-0.04,0.01-0.08,0.01-0.11l-0.41,1.07l-0.29-0.03l-0.13-1.14c0,0.02,0,0.06-0.01,0.11
				c0,0.04-0.01,0.08-0.01,0.11L35.08,10.25z"/>
			<path class="st8" d="M37.93,10.14L37.25,10l-0.07,0.33l0.77,0.16l-0.05,0.24l-1.05-0.22l0.28-1.3l1.02,0.22l-0.05,0.23L37.35,9.5
				L37.3,9.78l0.67,0.14L37.93,10.14z"/>
			<path class="st8" d="M40.45,11.4c-0.13,0.05-0.27,0.05-0.43,0c-0.19-0.06-0.32-0.18-0.4-0.33c-0.07-0.15-0.07-0.33,0-0.54
				c0.07-0.22,0.2-0.37,0.36-0.44c0.14-0.06,0.3-0.07,0.47-0.01c0.23,0.08,0.37,0.2,0.42,0.38c0.03,0.1,0.03,0.19,0.01,0.27
				l-0.28-0.1c0-0.07,0-0.12-0.02-0.16c-0.03-0.07-0.1-0.12-0.2-0.16c-0.1-0.03-0.2-0.02-0.28,0.03c-0.08,0.06-0.15,0.16-0.2,0.3
				c-0.05,0.14-0.05,0.26-0.01,0.35c0.04,0.09,0.1,0.15,0.2,0.19s0.18,0.03,0.26-0.01c0.04-0.02,0.08-0.06,0.12-0.12l0.28,0.09
				C40.67,11.25,40.58,11.35,40.45,11.4z"/>
			<path class="st8" d="M42.16,11.65l0.33-0.75l0.28,0.12l-0.33,0.75c-0.06,0.13-0.12,0.22-0.2,0.28c-0.14,0.1-0.32,0.1-0.55,0
				c-0.23-0.1-0.35-0.23-0.37-0.4c-0.01-0.09,0.01-0.2,0.07-0.33l0.32-0.75l0.28,0.12l-0.33,0.75c-0.04,0.08-0.05,0.15-0.05,0.2
				c0,0.08,0.06,0.15,0.17,0.2c0.11,0.05,0.2,0.04,0.26-0.01C42.08,11.79,42.12,11.74,42.16,11.65z"/>
			<path class="st8" d="M43.39,12.62c0.06,0.03,0.11,0.05,0.16,0.06c0.09,0.01,0.15-0.01,0.18-0.08c0.02-0.04,0.02-0.08,0-0.12
				s-0.07-0.09-0.14-0.15l-0.12-0.1c-0.12-0.1-0.19-0.18-0.22-0.24c-0.05-0.1-0.05-0.21,0.01-0.32c0.06-0.1,0.14-0.17,0.26-0.2
				s0.26,0,0.41,0.09c0.13,0.07,0.23,0.16,0.29,0.28c0.06,0.11,0.06,0.24,0,0.36l-0.25-0.13c0.03-0.07,0.02-0.14-0.02-0.2
				c-0.03-0.04-0.07-0.08-0.14-0.11c-0.07-0.03-0.13-0.05-0.18-0.05c-0.05,0-0.09,0.03-0.12,0.07c-0.02,0.04-0.02,0.08,0.01,0.12
				c0.02,0.03,0.06,0.07,0.14,0.14l0.19,0.16c0.08,0.07,0.14,0.14,0.17,0.2c0.04,0.09,0.04,0.2-0.01,0.3
				c-0.06,0.11-0.15,0.17-0.28,0.2c-0.12,0.02-0.27,0-0.43-0.09c-0.16-0.09-0.27-0.19-0.33-0.31c-0.05-0.12-0.05-0.24,0.01-0.36
				l0.25,0.13c-0.02,0.06-0.02,0.11-0.02,0.14C43.23,12.5,43.29,12.57,43.39,12.62z"/>
			<path class="st8" d="M45.96,12.83l-0.13,0.2l-0.36-0.23l-0.59,0.92l-0.25-0.16l0.59-0.92l-0.36-0.23l0.13-0.2L45.96,12.83z"/>
			<path class="st8" d="M46.16,14.66c-0.16-0.12-0.26-0.26-0.28-0.4c-0.04-0.19,0.01-0.38,0.16-0.57c0.15-0.19,0.31-0.3,0.5-0.31
				c0.15-0.02,0.3,0.03,0.47,0.16c0.16,0.12,0.26,0.26,0.28,0.4c0.04,0.18-0.01,0.37-0.16,0.57c-0.14,0.19-0.31,0.3-0.5,0.31
				C46.48,14.83,46.33,14.78,46.16,14.66z M46.6,14.54c0.1-0.02,0.2-0.09,0.29-0.22c0.09-0.12,0.13-0.23,0.12-0.34
				c0-0.11-0.06-0.2-0.15-0.27c-0.09-0.07-0.19-0.09-0.3-0.07c-0.1,0.02-0.2,0.09-0.29,0.21c-0.09,0.12-0.13,0.23-0.12,0.34
				c0.01,0.11,0.06,0.2,0.15,0.27C46.4,14.54,46.5,14.56,46.6,14.54z"/>
			<path class="st8" d="M47.43,15.63l-0.21-0.19l0.89-0.98l0.32,0.29l-0.51,0.95l0.89-0.6l0.32,0.29l-0.89,0.99l-0.21-0.19l0.6-0.67
				c0.02-0.02,0.04-0.04,0.07-0.08c0.03-0.03,0.05-0.06,0.07-0.08L47.84,16l-0.22-0.19l0.55-1.01c-0.02,0.02-0.04,0.04-0.07,0.08
				c-0.03,0.03-0.05,0.06-0.07,0.08L47.43,15.63z"/>
			<path class="st8" d="M49.82,17.18l-0.47-0.5L49.1,16.9l0.54,0.58l-0.18,0.16l-0.74-0.79l0.97-0.91l0.71,0.76l-0.17,0.16
				l-0.51-0.56l-0.21,0.19l0.47,0.5L49.82,17.18z"/>
			<path class="st8" d="M50.66,18.27l-0.19-0.24l-0.41,0.32l-0.18-0.23l1.04-0.83l0.43,0.55c0.06,0.08,0.1,0.15,0.12,0.2
				c0.02,0.05,0.02,0.11,0.01,0.16c0,0.04-0.02,0.09-0.04,0.13c-0.02,0.04-0.05,0.07-0.09,0.11c-0.05,0.04-0.11,0.06-0.18,0.07
				s-0.14,0-0.21-0.05c0.02,0.06,0.02,0.12,0,0.17c-0.02,0.05-0.06,0.1-0.14,0.16l-0.07,0.05c-0.05,0.04-0.08,0.06-0.09,0.08
				c-0.02,0.03-0.03,0.06-0.02,0.09l-0.02,0.02l-0.21-0.26c0.02-0.02,0.03-0.04,0.04-0.06c0.02-0.03,0.05-0.05,0.08-0.08l0.09-0.08
				c0.06-0.05,0.1-0.1,0.1-0.14C50.74,18.4,50.72,18.34,50.66,18.27z M50.96,18.26c0.06,0.03,0.11,0.02,0.17-0.02
				c0.06-0.05,0.09-0.11,0.07-0.17c-0.01-0.03-0.03-0.08-0.07-0.13l-0.22-0.27l-0.28,0.22l0.21,0.27
				C50.9,18.21,50.93,18.24,50.96,18.26z"/>
			<path class="st8" d="M51.98,20.72c0.04,0.06,0.07,0.1,0.11,0.13c0.07,0.06,0.13,0.06,0.2,0.02c0.04-0.02,0.05-0.06,0.05-0.1
				c0-0.05-0.02-0.11-0.05-0.2l-0.05-0.14c-0.05-0.14-0.07-0.25-0.07-0.31c0-0.11,0.06-0.21,0.17-0.27c0.1-0.06,0.21-0.07,0.32-0.04
				c0.12,0.04,0.22,0.13,0.31,0.29c0.08,0.13,0.11,0.26,0.11,0.38c-0.01,0.13-0.07,0.23-0.19,0.31l-0.15-0.24
				c0.06-0.04,0.09-0.11,0.09-0.19c0-0.05-0.02-0.1-0.06-0.16c-0.04-0.06-0.08-0.11-0.13-0.13c-0.05-0.02-0.09-0.02-0.14,0
				c-0.04,0.02-0.06,0.06-0.05,0.11c0,0.03,0.02,0.09,0.05,0.19l0.08,0.24c0.03,0.1,0.05,0.19,0.04,0.26
				c-0.01,0.1-0.06,0.19-0.16,0.25c-0.1,0.06-0.22,0.07-0.33,0.03c-0.12-0.04-0.23-0.14-0.32-0.3c-0.1-0.16-0.14-0.3-0.13-0.43
				c0.01-0.13,0.07-0.24,0.19-0.3l0.15,0.24c-0.04,0.04-0.08,0.08-0.09,0.12C51.9,20.54,51.92,20.62,51.98,20.72z"/>
			<path class="st8" d="M53.4,22.49l-0.31-0.61l-0.3,0.16l0.36,0.7l-0.21,0.11l-0.49-0.96l1.18-0.61l0.48,0.92l-0.21,0.11
				l-0.34-0.67l-0.25,0.13l0.31,0.61L53.4,22.49z"/>
			<path class="st8" d="M53.92,23.78l-0.12-0.29l-0.48,0.2l-0.11-0.27l1.22-0.51l0.27,0.64c0.04,0.09,0.05,0.17,0.06,0.23
				c0,0.06-0.01,0.11-0.03,0.16c-0.02,0.04-0.04,0.08-0.07,0.11c-0.03,0.03-0.07,0.06-0.12,0.08c-0.06,0.02-0.12,0.03-0.19,0.02
				c-0.07,0-0.13-0.04-0.19-0.1c0,0.07-0.01,0.13-0.04,0.17c-0.03,0.04-0.09,0.08-0.18,0.12l-0.08,0.03
				c-0.05,0.02-0.09,0.04-0.11,0.05c-0.03,0.02-0.04,0.05-0.05,0.08l-0.02,0l-0.13-0.3c0.02-0.02,0.04-0.03,0.06-0.04
				c0.03-0.02,0.06-0.04,0.1-0.05l0.11-0.05c0.08-0.03,0.12-0.07,0.14-0.11C53.95,23.92,53.94,23.85,53.92,23.78z M54.21,23.85
				c0.04,0.04,0.1,0.05,0.17,0.02c0.07-0.03,0.11-0.08,0.12-0.14c0-0.03-0.01-0.08-0.03-0.14l-0.13-0.32L54,23.41l0.13,0.31
				C54.15,23.78,54.18,23.83,54.21,23.85z"/>
			<path class="st8" d="M55.1,24.57l0.1,0.3l-0.86,0.61l1.06-0.02l0.1,0.3l-1.42-0.04l-0.09-0.27L55.1,24.57z"/>
			<path class="st8" d="M55.65,26.38l0.07,0.29L54.44,27l-0.07-0.29L55.65,26.38z"/>
			<path class="st8" d="M54.9,28.65c-0.11-0.09-0.18-0.21-0.21-0.37c-0.04-0.2-0.01-0.37,0.09-0.51c0.1-0.14,0.25-0.23,0.46-0.27
				c0.23-0.04,0.42-0.01,0.57,0.09c0.13,0.09,0.21,0.23,0.25,0.4c0.04,0.24,0.01,0.42-0.11,0.56c-0.07,0.07-0.14,0.12-0.23,0.14
				l-0.06-0.29c0.06-0.03,0.1-0.06,0.13-0.1c0.04-0.06,0.06-0.15,0.04-0.25c-0.02-0.1-0.08-0.18-0.17-0.23
				c-0.09-0.04-0.21-0.05-0.36-0.02c-0.15,0.03-0.25,0.08-0.31,0.16c-0.06,0.08-0.08,0.17-0.06,0.27c0.02,0.1,0.07,0.17,0.14,0.22
				c0.04,0.02,0.09,0.04,0.17,0.04l0.06,0.29C55.14,28.77,55.01,28.73,54.9,28.65z"/>
			<path class="st8" d="M55.63,30.39l-0.08-0.68l-0.34,0.04l0.09,0.78l-0.24,0.03l-0.12-1.07l1.32-0.15l0.12,1.04l-0.24,0.03
				l-0.09-0.75l-0.28,0.03l0.08,0.68L55.63,30.39z"/>
		</g>
	</g>
	<g>
		<path class="st8" d="M10.69,37.43l-0.23,0.04l-0.08-0.42L9.3,37.25l-0.06-0.3l1.08-0.21l-0.08-0.42l0.23-0.04L10.69,37.43z"/>
		<path class="st8" d="M9.72,39.03l0.58-0.15l-0.14-0.54l-0.58,0.15L9.5,38.2l1.29-0.34l0.07,0.29l-0.49,0.13l0.14,0.54l0.49-0.13
			l0.07,0.29l-1.29,0.34L9.72,39.03z"/>
		<path class="st8" d="M10.86,40.69l-0.23-0.65l-0.32,0.11l0.26,0.75l-0.23,0.08l-0.35-1.02l1.26-0.44l0.34,0.99l-0.22,0.08
			l-0.25-0.71l-0.27,0.09l0.23,0.65L10.86,40.69z"/>
		<path class="st8" d="M11.62,42.7l-0.13-0.28l-0.43,0.21l-0.13-0.27l1.21-0.57l0.27,0.56c0.06,0.13,0.08,0.25,0.05,0.35
			c-0.02,0.11-0.1,0.19-0.24,0.25c-0.14,0.07-0.26,0.08-0.35,0.03C11.76,42.94,11.68,42.85,11.62,42.7z M11.93,42.71
			c0.04,0.02,0.1,0.01,0.16-0.01c0.06-0.03,0.1-0.07,0.11-0.12c0.01-0.05,0-0.1-0.03-0.17l-0.12-0.25l-0.36,0.17l0.12,0.25
			C11.84,42.65,11.88,42.69,11.93,42.71z"/>
		<path class="st8" d="M11.94,44.44c-0.1-0.18-0.13-0.34-0.1-0.48c0.04-0.19,0.16-0.34,0.37-0.46c0.21-0.12,0.41-0.15,0.59-0.08
			c0.14,0.04,0.27,0.15,0.37,0.33c0.1,0.18,0.13,0.34,0.1,0.48c-0.03,0.19-0.16,0.34-0.37,0.46c-0.21,0.12-0.4,0.15-0.59,0.08
			C12.17,44.73,12.04,44.62,11.94,44.44z M12.39,44.51c0.1,0.02,0.22-0.01,0.35-0.08c0.13-0.07,0.21-0.16,0.25-0.26
			c0.03-0.1,0.02-0.2-0.03-0.3c-0.06-0.1-0.14-0.16-0.25-0.19c-0.1-0.02-0.22,0-0.35,0.08c-0.13,0.07-0.21,0.16-0.25,0.27
			c-0.03,0.1-0.02,0.2,0.03,0.3C12.21,44.42,12.28,44.49,12.39,44.51z"/>
		<path class="st8" d="M14.52,45.92l0.17,0.25l-1.33,0.43l-0.16-0.24l0.55-0.59l0.18-0.19l-0.24,0.1l-0.74,0.3l-0.16-0.23l0.87-1.09
			l0.18,0.26l-0.52,0.59l-0.15,0.15l0.2-0.08l0.72-0.3l0.18,0.26l-0.53,0.58l-0.15,0.16l0.19-0.08L14.52,45.92z"/>
		<path class="st8" d="M15.02,47.77l-0.44-0.54l-0.27,0.22l0.5,0.61l-0.19,0.15l-0.68-0.84l1.03-0.85l0.66,0.81l-0.18,0.15
			l-0.48-0.59l-0.22,0.18l0.44,0.54L15.02,47.77z"/>
		<path class="st8" d="M15.83,48.74l-0.21-0.22l-0.38,0.36l-0.2-0.21l0.97-0.92l0.48,0.51c0.07,0.07,0.11,0.14,0.13,0.19
			c0.02,0.05,0.03,0.11,0.02,0.16c0,0.04-0.01,0.09-0.03,0.13c-0.02,0.04-0.04,0.08-0.08,0.12c-0.04,0.04-0.1,0.07-0.17,0.09
			c-0.07,0.02-0.14,0-0.21-0.03c0.03,0.06,0.03,0.12,0.02,0.17c-0.01,0.05-0.05,0.11-0.12,0.17l-0.06,0.06
			c-0.04,0.04-0.07,0.07-0.08,0.09c-0.02,0.03-0.02,0.06-0.02,0.09l-0.02,0.02l-0.23-0.24c0.01-0.02,0.03-0.05,0.04-0.06
			c0.02-0.03,0.04-0.06,0.07-0.09l0.09-0.09c0.06-0.06,0.09-0.11,0.09-0.15C15.92,48.86,15.89,48.8,15.83,48.74z M16.13,48.7
			c0.06,0.02,0.12,0.01,0.17-0.04c0.06-0.05,0.08-0.11,0.06-0.18c-0.01-0.03-0.04-0.07-0.08-0.12l-0.24-0.25l-0.26,0.25l0.23,0.25
			C16.06,48.66,16.1,48.69,16.13,48.7z"/>
		<path class="st8" d="M17.42,50.99c-0.16-0.13-0.24-0.27-0.26-0.42c-0.03-0.19,0.03-0.38,0.19-0.56c0.16-0.19,0.33-0.28,0.52-0.29
			c0.15-0.01,0.3,0.05,0.46,0.18c0.16,0.13,0.24,0.27,0.26,0.42c0.03,0.19-0.03,0.37-0.19,0.56c-0.15,0.18-0.32,0.28-0.52,0.29
			C17.73,51.18,17.58,51.12,17.42,50.99z M17.86,50.9c0.1-0.02,0.21-0.08,0.3-0.2c0.09-0.11,0.14-0.23,0.14-0.33
			s-0.05-0.2-0.14-0.28c-0.09-0.07-0.19-0.1-0.3-0.09c-0.11,0.02-0.21,0.08-0.3,0.2c-0.1,0.11-0.14,0.23-0.14,0.33
			c0,0.11,0.05,0.2,0.14,0.28C17.66,50.88,17.76,50.91,17.86,50.9z"/>
		<path class="st8" d="M19.91,51.46l-0.58-0.42l-0.18,0.25l0.51,0.36l-0.13,0.19l-0.51-0.36l-0.32,0.46l-0.24-0.17l0.78-1.08
			l0.82,0.59L19.91,51.46z"/>
		<path class="st8" d="M21.67,53.12l-0.6-0.34l-0.17,0.3l0.69,0.39l-0.12,0.21l-0.94-0.53l0.65-1.16l0.91,0.51l-0.12,0.21
			l-0.66-0.37l-0.14,0.25l0.6,0.34L21.67,53.12z"/>
		<path class="st8" d="M23.04,54.44l-0.33-0.15l-0.05-0.53l-0.45,0.29L21.9,53.9l0.7-0.42l-0.11-0.78l0.32,0.15l0.04,0.5l0.42-0.28
			l0.31,0.15l-0.67,0.39L23.04,54.44z"/>
		<path class="st8" d="M24.28,54.42l-0.29-0.11l-0.17,0.45l-0.28-0.11l0.49-1.24l0.58,0.23c0.13,0.05,0.23,0.12,0.28,0.22
			c0.05,0.09,0.05,0.21,0,0.34c-0.06,0.15-0.14,0.24-0.24,0.27C24.55,54.49,24.42,54.48,24.28,54.42z M24.51,54.22
			c0.05-0.01,0.08-0.05,0.11-0.12c0.02-0.06,0.02-0.12,0-0.16c-0.02-0.04-0.07-0.07-0.14-0.1l-0.26-0.1l-0.14,0.36l0.26,0.1
			C24.4,54.23,24.46,54.23,24.51,54.22z"/>
		<path class="st8" d="M26.24,54.98l-0.66-0.21l-0.1,0.33l0.75,0.24l-0.07,0.23l-1.03-0.32l0.4-1.27l1,0.31l-0.07,0.23l-0.72-0.23
			l-0.08,0.27l0.66,0.21L26.24,54.98z"/>
		<path class="st8" d="M27.45,55.35l-0.3-0.07l-0.12,0.51l-0.29-0.06l0.3-1.3l0.68,0.16c0.1,0.02,0.17,0.05,0.22,0.08
			s0.08,0.07,0.11,0.12c0.02,0.04,0.04,0.08,0.04,0.13c0.01,0.04,0,0.09,0,0.14c-0.01,0.06-0.04,0.12-0.09,0.17
			c-0.05,0.05-0.11,0.08-0.2,0.09c0.06,0.04,0.1,0.08,0.11,0.13c0.01,0.05,0.01,0.12,0,0.21l-0.02,0.09
			c-0.01,0.06-0.02,0.1-0.02,0.12c0,0.03,0.01,0.06,0.03,0.09L27.91,56l-0.31-0.08c0-0.03,0-0.05,0-0.07c0-0.04,0-0.08,0.01-0.11
			l0.02-0.12c0.02-0.08,0.01-0.14-0.01-0.18C27.59,55.4,27.54,55.37,27.45,55.35z M27.68,55.16c0.06-0.01,0.1-0.05,0.12-0.13
			c0.02-0.08,0-0.14-0.05-0.18c-0.03-0.02-0.07-0.04-0.14-0.05l-0.34-0.08l-0.08,0.35l0.33,0.08C27.6,55.16,27.65,55.16,27.68,55.16
			z"/>
		<path class="st8" d="M29.75,54.95l-0.04,0.23l-0.42-0.07l-0.17,1.08l-0.3-0.05l0.17-1.08l-0.42-0.07l0.04-0.23L29.75,54.95z"/>
		<path class="st8" d="M30.18,54.99l0.3,0.03l-0.14,1.33l-0.3-0.03L30.18,54.99z"/>
		<path class="st8" d="M31.49,56.25c0.07,0,0.13,0,0.17-0.01c0.08-0.02,0.13-0.07,0.13-0.15c0-0.04-0.01-0.08-0.05-0.1
			c-0.04-0.02-0.1-0.05-0.19-0.07l-0.15-0.04c-0.15-0.04-0.25-0.08-0.3-0.12c-0.09-0.07-0.14-0.17-0.13-0.3
			c0-0.12,0.06-0.22,0.15-0.29c0.09-0.07,0.24-0.11,0.41-0.1c0.15,0.01,0.28,0.05,0.38,0.13c0.1,0.08,0.15,0.19,0.15,0.33
			l-0.29-0.01c0-0.08-0.03-0.14-0.1-0.18c-0.04-0.02-0.1-0.04-0.17-0.04c-0.08,0-0.14,0-0.19,0.03c-0.05,0.02-0.07,0.06-0.07,0.12
			c0,0.05,0.02,0.08,0.06,0.11c0.03,0.01,0.09,0.04,0.18,0.06l0.24,0.07c0.11,0.03,0.19,0.07,0.24,0.11
			c0.08,0.07,0.12,0.16,0.11,0.28c0,0.12-0.06,0.22-0.17,0.3c-0.1,0.07-0.25,0.11-0.43,0.1c-0.19-0.01-0.33-0.06-0.43-0.14
			c-0.1-0.08-0.15-0.2-0.14-0.33l0.29,0.01c0,0.06,0.02,0.11,0.04,0.14C31.29,56.21,31.37,56.24,31.49,56.25z"/>
		<path class="st8" d="M33.64,55.88l-0.69,0.01l0,0.34l0.79-0.01l0,0.24l-1.08,0.02l-0.02-1.33l1.05-0.02l0,0.24l-0.76,0.01l0,0.29
			l0.69-0.01L33.64,55.88z"/>
		<path class="st8" d="M35.66,56.32c-0.14,0.02-0.26,0-0.35-0.07S35.17,56.1,35.15,56c-0.01-0.08,0-0.15,0.04-0.21
			c0.04-0.06,0.1-0.13,0.19-0.2l0.03-0.02c-0.04-0.04-0.08-0.08-0.11-0.12c-0.03-0.04-0.04-0.09-0.05-0.13
			c-0.01-0.1,0.01-0.18,0.07-0.24c0.06-0.06,0.15-0.1,0.26-0.12c0.1-0.01,0.19,0,0.26,0.05c0.07,0.04,0.11,0.11,0.13,0.2
			c0.01,0.08,0,0.14-0.03,0.2c-0.03,0.05-0.08,0.1-0.16,0.16l0.23,0.21c0.02-0.03,0.03-0.07,0.04-0.11c0.01-0.04,0.01-0.08,0-0.12
			l0.24-0.03c0,0.08,0,0.16-0.03,0.25c-0.01,0.05-0.04,0.1-0.08,0.17l0.3,0.26l-0.33,0.04l-0.11-0.1c-0.04,0.05-0.08,0.08-0.12,0.11
			C35.83,56.28,35.75,56.31,35.66,56.32z M35.56,55.72c-0.06,0.05-0.1,0.09-0.12,0.13c-0.02,0.03-0.02,0.07-0.02,0.11
			c0,0.04,0.03,0.08,0.07,0.11c0.04,0.03,0.09,0.04,0.15,0.03c0.04,0,0.08-0.02,0.12-0.04s0.07-0.05,0.09-0.08L35.56,55.72z
			 M35.49,55.27c0,0.02,0.01,0.05,0.04,0.07c0.01,0.01,0.04,0.04,0.09,0.08c0.03-0.03,0.06-0.05,0.07-0.07
			c0.03-0.03,0.04-0.07,0.03-0.11c0-0.03-0.01-0.05-0.04-0.07c-0.02-0.02-0.05-0.02-0.09-0.02c-0.02,0-0.04,0.01-0.06,0.03
			C35.49,55.21,35.48,55.24,35.49,55.27z"/>
		<path class="st8" d="M38.36,55.25l-0.3,0.07l0.13,0.51l-0.28,0.07l-0.32-1.29l0.68-0.17c0.1-0.02,0.18-0.03,0.23-0.02
			c0.06,0.01,0.11,0.02,0.16,0.06c0.04,0.02,0.07,0.05,0.1,0.09c0.03,0.03,0.05,0.08,0.06,0.13c0.01,0.06,0.01,0.12,0,0.19
			c-0.02,0.07-0.06,0.12-0.13,0.17c0.07,0.01,0.12,0.03,0.16,0.07c0.04,0.04,0.07,0.1,0.09,0.19l0.02,0.09
			c0.01,0.06,0.02,0.1,0.04,0.12c0.01,0.03,0.04,0.05,0.07,0.06l0.01,0.03l-0.32,0.08c-0.01-0.02-0.03-0.05-0.03-0.06
			c-0.01-0.03-0.03-0.07-0.04-0.11l-0.03-0.12c-0.02-0.08-0.05-0.13-0.09-0.15C38.51,55.24,38.45,55.24,38.36,55.25z M38.48,54.97
			c0.05-0.04,0.07-0.09,0.05-0.17c-0.02-0.08-0.06-0.12-0.12-0.14c-0.03-0.01-0.08,0-0.15,0.01l-0.33,0.09l0.09,0.35l0.33-0.08
			C38.4,55.02,38.45,55,38.48,54.97z"/>
		<path class="st8" d="M40.41,54.58l-0.66,0.22l0.11,0.32l0.75-0.25l0.07,0.23l-1.03,0.34l-0.42-1.27l0.99-0.32l0.07,0.23
			l-0.72,0.24l0.09,0.27l0.66-0.22L40.41,54.58z"/>
		<path class="st8" d="M41.65,54.52c0.06-0.03,0.11-0.05,0.15-0.08c0.06-0.06,0.08-0.12,0.06-0.19c-0.01-0.04-0.05-0.06-0.1-0.07
			c-0.05,0-0.11,0-0.2,0.01l-0.15,0.03c-0.15,0.03-0.26,0.03-0.32,0.02c-0.11-0.02-0.19-0.09-0.24-0.21
			c-0.04-0.11-0.04-0.22,0.01-0.33s0.17-0.2,0.33-0.27c0.14-0.06,0.27-0.07,0.4-0.04c0.13,0.02,0.22,0.11,0.28,0.24l-0.27,0.11
			c-0.03-0.07-0.09-0.11-0.17-0.11c-0.05,0-0.11,0.01-0.17,0.03c-0.07,0.03-0.12,0.06-0.15,0.11c-0.03,0.04-0.04,0.09-0.02,0.14
			c0.02,0.04,0.05,0.07,0.1,0.07c0.03,0,0.1,0,0.19-0.02l0.25-0.04c0.11-0.02,0.2-0.02,0.26,0c0.1,0.02,0.18,0.09,0.22,0.2
			c0.04,0.11,0.04,0.23-0.02,0.34c-0.06,0.11-0.18,0.2-0.34,0.27c-0.17,0.07-0.32,0.09-0.45,0.05c-0.13-0.03-0.22-0.11-0.27-0.24
			l0.27-0.11c0.03,0.05,0.06,0.09,0.1,0.11C41.45,54.57,41.54,54.57,41.65,54.52z"/>
		<path class="st8" d="M43.39,53.98c-0.18,0.09-0.34,0.11-0.49,0.07c-0.19-0.05-0.33-0.18-0.44-0.39c-0.11-0.22-0.13-0.41-0.05-0.59
			c0.05-0.14,0.17-0.26,0.35-0.35s0.34-0.11,0.49-0.07c0.18,0.04,0.33,0.18,0.44,0.39c0.11,0.22,0.13,0.41,0.05,0.59
			C43.68,53.77,43.57,53.89,43.39,53.98z M43.48,53.53c0.02-0.1,0-0.22-0.06-0.36c-0.07-0.13-0.15-0.22-0.25-0.27
			c-0.1-0.04-0.2-0.03-0.3,0.01c-0.1,0.05-0.17,0.13-0.2,0.24c-0.02,0.1,0,0.23,0.06,0.36c0.07,0.13,0.15,0.22,0.25,0.27
			c0.1,0.04,0.2,0.03,0.3-0.01C43.39,53.72,43.45,53.64,43.48,53.53z"/>
		<path class="st8" d="M44.96,52.47l-0.42-0.7l0.26-0.16l0.42,0.7c0.07,0.12,0.11,0.23,0.11,0.32c0,0.17-0.11,0.32-0.32,0.45
			s-0.39,0.15-0.55,0.07c-0.08-0.04-0.16-0.13-0.23-0.25l-0.42-0.7l0.26-0.16l0.42,0.7c0.05,0.08,0.09,0.13,0.13,0.15
			c0.07,0.04,0.16,0.03,0.26-0.02c0.1-0.06,0.15-0.13,0.14-0.22C45.03,52.61,45.01,52.55,44.96,52.47z"/>
		<path class="st8" d="M46.23,51.62l-0.25,0.18l0.3,0.43l-0.24,0.17l-0.77-1.09l0.57-0.4c0.08-0.06,0.15-0.09,0.21-0.1
			c0.05-0.01,0.11-0.01,0.17,0c0.04,0.01,0.09,0.02,0.12,0.05c0.04,0.02,0.07,0.05,0.1,0.1c0.03,0.05,0.06,0.11,0.06,0.18
			c0.01,0.07-0.01,0.14-0.06,0.2c0.07-0.02,0.13-0.01,0.18,0c0.05,0.02,0.1,0.07,0.15,0.15l0.05,0.07c0.03,0.05,0.06,0.08,0.08,0.1
			c0.02,0.02,0.05,0.03,0.09,0.03l0.02,0.03l-0.27,0.19c-0.02-0.02-0.04-0.03-0.06-0.05c-0.03-0.02-0.05-0.05-0.08-0.09l-0.07-0.1
			c-0.05-0.07-0.1-0.1-0.14-0.11C46.36,51.55,46.3,51.57,46.23,51.62z M46.24,51.32c0.03-0.05,0.03-0.11-0.01-0.18
			c-0.04-0.06-0.1-0.09-0.16-0.08c-0.03,0-0.08,0.03-0.13,0.06l-0.29,0.2l0.21,0.29l0.28-0.2C46.18,51.38,46.22,51.34,46.24,51.32z"
			/>
		<path class="st8" d="M48.2,50.61c-0.02,0.14-0.1,0.26-0.23,0.36c-0.16,0.13-0.32,0.19-0.49,0.17c-0.17-0.02-0.32-0.11-0.46-0.28
			c-0.15-0.18-0.21-0.36-0.19-0.54c0.02-0.16,0.1-0.3,0.24-0.41c0.19-0.15,0.37-0.21,0.55-0.17c0.1,0.02,0.18,0.07,0.24,0.13
			l-0.23,0.19c-0.05-0.04-0.1-0.06-0.15-0.06c-0.08-0.01-0.16,0.02-0.24,0.09c-0.08,0.07-0.12,0.16-0.12,0.26
			c0,0.1,0.05,0.21,0.15,0.33c0.1,0.11,0.19,0.18,0.29,0.2s0.19-0.01,0.27-0.07c0.08-0.07,0.12-0.14,0.12-0.23
			c0-0.04-0.01-0.1-0.04-0.17l0.23-0.19C48.2,50.34,48.23,50.47,48.2,50.61z"/>
		<path class="st8" d="M49.17,49.05l-0.5,0.48l0.24,0.25l0.57-0.55l0.17,0.17l-0.78,0.75l-0.92-0.96l0.76-0.72l0.16,0.17l-0.55,0.52
			l0.2,0.21l0.5-0.48L49.17,49.05z"/>
		<path class="st8" d="M50.27,48.46c0.05-0.05,0.08-0.1,0.1-0.14c0.03-0.08,0.02-0.15-0.03-0.2c-0.03-0.03-0.07-0.03-0.12-0.02
			s-0.1,0.05-0.18,0.1l-0.12,0.09c-0.12,0.09-0.22,0.14-0.28,0.16c-0.11,0.03-0.21,0-0.31-0.09c-0.09-0.08-0.13-0.18-0.13-0.3
			c0-0.12,0.06-0.25,0.19-0.38c0.1-0.11,0.22-0.18,0.34-0.21c0.13-0.03,0.25,0,0.35,0.09l-0.19,0.21c-0.06-0.05-0.13-0.06-0.2-0.03
			c-0.05,0.02-0.09,0.05-0.14,0.1c-0.05,0.06-0.08,0.11-0.09,0.17c-0.01,0.05,0,0.1,0.04,0.13c0.03,0.03,0.08,0.04,0.12,0.02
			c0.03-0.01,0.09-0.04,0.17-0.1L50,47.92c0.09-0.06,0.17-0.1,0.24-0.12c0.1-0.02,0.2,0.01,0.29,0.09c0.09,0.08,0.13,0.19,0.12,0.31
			c0,0.13-0.07,0.26-0.19,0.39c-0.12,0.14-0.25,0.22-0.38,0.25c-0.13,0.02-0.25-0.01-0.35-0.1l0.19-0.21
			c0.05,0.03,0.1,0.05,0.14,0.05C50.11,48.6,50.19,48.55,50.27,48.46z"/>
		<path class="st8" d="M52.25,46.12c0.01,0.14-0.03,0.28-0.13,0.41c-0.12,0.17-0.27,0.26-0.43,0.29c-0.17,0.02-0.34-0.03-0.52-0.15
			c-0.19-0.14-0.3-0.3-0.32-0.48c-0.02-0.16,0.02-0.31,0.12-0.46c0.14-0.2,0.3-0.3,0.49-0.3c0.1,0,0.19,0.02,0.26,0.06l-0.17,0.24
			c-0.06-0.02-0.12-0.03-0.16-0.02c-0.08,0.01-0.15,0.06-0.21,0.15c-0.06,0.09-0.08,0.18-0.05,0.28c0.03,0.1,0.1,0.19,0.23,0.28
			c0.12,0.09,0.23,0.12,0.33,0.11c0.1-0.01,0.18-0.06,0.24-0.14c0.06-0.08,0.08-0.17,0.06-0.25c-0.01-0.04-0.04-0.09-0.08-0.15
			l0.17-0.24C52.18,45.85,52.23,45.97,52.25,46.12z"/>
		<path class="st8" d="M53.13,44.99c-0.1,0.18-0.23,0.28-0.37,0.32c-0.18,0.06-0.38,0.02-0.59-0.1c-0.21-0.13-0.33-0.29-0.36-0.47
			c-0.03-0.15,0-0.3,0.11-0.48c0.1-0.17,0.23-0.28,0.37-0.32c0.18-0.06,0.37-0.02,0.58,0.1c0.21,0.12,0.32,0.28,0.36,0.47
			C53.27,44.66,53.23,44.82,53.13,44.99z M52.97,44.57c-0.03-0.1-0.11-0.19-0.25-0.27c-0.13-0.08-0.25-0.11-0.35-0.09
			c-0.1,0.01-0.19,0.07-0.25,0.18c-0.06,0.1-0.07,0.2-0.04,0.3c0.03,0.1,0.11,0.19,0.24,0.27c0.13,0.08,0.25,0.11,0.35,0.09
			c0.11-0.02,0.19-0.08,0.25-0.18C52.99,44.77,53,44.67,52.97,44.57z"/>
		<path class="st8" d="M53.87,43.61l-0.12,0.25l-1.2-0.59l0.19-0.39l1.05,0.23l-0.83-0.7l0.19-0.38l1.2,0.6l-0.12,0.25l-0.81-0.4
			c-0.02-0.01-0.05-0.03-0.1-0.05c-0.04-0.02-0.07-0.04-0.1-0.05l0.88,0.74l-0.13,0.26l-1.12-0.26c0.02,0.01,0.05,0.02,0.1,0.05
			c0.04,0.02,0.07,0.03,0.1,0.05L53.87,43.61z"/>
		<path class="st8" d="M54.86,41.41l-0.24,0.6l-1.24-0.5l0.26-0.64c0.07-0.16,0.16-0.26,0.27-0.3c0.07-0.02,0.14-0.01,0.21,0.01
			c0.07,0.03,0.13,0.07,0.16,0.13c0.01,0.03,0.02,0.07,0.03,0.13c0.05-0.06,0.11-0.09,0.17-0.11c0.06-0.01,0.13-0.01,0.2,0.02
			c0.07,0.03,0.13,0.07,0.17,0.14c0.03,0.04,0.05,0.08,0.06,0.13c0.01,0.05,0.01,0.11,0,0.18C54.91,41.28,54.89,41.35,54.86,41.41z
			 M54.13,40.97c0-0.04-0.03-0.08-0.09-0.1c-0.06-0.02-0.1-0.01-0.14,0.02c-0.03,0.03-0.06,0.09-0.08,0.15l-0.12,0.29l0.28,0.11
			l0.13-0.32C54.13,41.06,54.14,41.02,54.13,40.97z M54.31,41.2l-0.13,0.33l0.33,0.13l0.13-0.32c0.02-0.06,0.03-0.11,0.03-0.14
			c0-0.07-0.04-0.12-0.12-0.15c-0.06-0.02-0.12-0.01-0.17,0.03C54.36,41.1,54.34,41.14,54.31,41.2z"/>
		<path class="st8" d="M53.98,39.95l0.09-0.28l1.26,0.42l-0.09,0.28L53.98,39.95z"/>
		<path class="st8" d="M55.84,38.36l-0.08,0.29l-1.07,0.31l0.91,0.25l-0.07,0.27l-1.29-0.35l0.08-0.3l1.05-0.3l-0.9-0.25l0.07-0.27
			L55.84,38.36z"/>
		<path class="st8" d="M55.61,36.66l-0.13,0.68l0.33,0.06l0.15-0.78l0.24,0.04l-0.21,1.06l-1.31-0.26l0.2-1.03l0.23,0.04l-0.15,0.74
			l0.28,0.05l0.13-0.68L55.61,36.66z"/>
	</g>
	<g>
		<g>
			<path class="st9" d="M28.79,25.13v0.02c0.14,0.01,0.31,0.01,0.49,0.01c0.36,0,0.72-0.01,1.07-0.07l0.03,0.03
				c-0.02,0.06-0.03,0.12-0.03,0.18c0,0.07,0,0.15,0.03,0.21l-0.04,0.02c-0.33,0-0.67-0.02-1-0.02c-0.35,0-0.69,0-1.04,0.02v-0.11
				l0.25-0.26c0.76-0.8,1.23-1.35,1.23-1.99c0-0.51-0.3-0.71-0.68-0.71c-0.49,0-0.57,0.27-0.66,0.6L28.31,23l0.1-0.42
				c0.05-0.23,0.07-0.29,0.39-0.41c0.04-0.01,0.21-0.07,0.39-0.07c0.43,0,0.96,0.25,0.96,0.87c0,0.48-0.29,0.92-0.58,1.26
				L28.79,25.13z"/>
			<path class="st9" d="M31.88,24.47h-0.72c-0.22,0-0.42,0-0.63,0.03l-0.04-0.12c0.52-0.77,1.05-1.53,1.62-2.26h0.18
				c-0.01,0.12-0.03,0.33-0.03,0.46v1.62h0.14c0.17,0,0.32-0.01,0.41-0.04l0.03,0.02c-0.01,0.05-0.02,0.1-0.02,0.15
				s0.01,0.09,0.02,0.15L32.8,24.5c-0.1-0.02-0.24-0.03-0.42-0.03h-0.13v0.58c0,0.32,0.09,0.32,0.57,0.35l0.02,0.02v0.09l-0.02,0.02
				c-0.24,0-0.47-0.02-0.7-0.02c-0.29,0-0.58,0.01-0.86,0.02l-0.02-0.02v-0.09l0.02-0.02c0.63-0.03,0.64-0.06,0.64-0.53L31.88,24.47
				L31.88,24.47z M31.88,22.65L31.88,22.65c-0.2,0.21-1.01,1.36-1.08,1.55h1.08V22.65z"/>
			<path class="st9" d="M34.29,21.65h0.24l-1.38,3.92h-0.24L34.29,21.65z"/>
			<path class="st9" d="M34.99,25.47c0.31-0.49,1.53-2.5,1.68-2.94l-0.02-0.03c-0.56,0-1.12,0.02-1.66,0.05l-0.03-0.04
				c0.01-0.03,0.02-0.1,0.02-0.2c0-0.09-0.01-0.16-0.02-0.19L35,22.1c0.2,0.04,0.52,0.05,1.08,0.06c0.52,0,0.79-0.02,1-0.06
				l0.03,0.08c-0.62,1.07-1.18,2.16-1.7,3.33l-0.03,0.02c-0.06-0.01-0.11-0.02-0.17-0.02c-0.09,0-0.15,0-0.21,0.02L34.99,25.47z"/>
		</g>
	</g>
</g>
</svg>
